<svg width="1080" height="831" viewBox="0 0 1080 831" fill="none" xmlns="http://www.w3.org/2000/svg">
<g clip-path="url(#clip0_134_350)">
<path d="M378.306 4H705.763C719.28 4 730.238 14.9576 730.238 28.4746V117.966C730.238 131.483 719.28 142.441 705.763 142.441H378.306C364.789 142.441 353.831 131.483 353.831 117.966V28.4746C353.831 14.9576 364.789 4 378.306 4Z" fill="black" stroke="white" stroke-width="8"/>
<path d="M625.465 51.8768H615.995V63.9826H625.367V77.5528H615.995V93.0755H625.562V106.646H600.375V38.3066H625.465V51.8768Z" fill="white"/>
<path d="M577.952 54.122V90.8298C577.952 91.3504 578.017 91.8386 578.148 92.2942C578.278 92.6847 578.408 93.0101 578.538 93.2704C578.733 93.5308 578.961 93.726 579.222 93.8562C579.482 93.9864 579.775 94.0515 580.1 94.0515C580.426 94.0515 580.718 93.9864 580.979 93.8562C581.304 93.661 581.565 93.4006 581.76 93.0752C581.955 92.7498 582.118 92.3267 582.248 91.806C582.443 91.2854 582.541 90.6996 582.541 90.0488V79.0169H579.71V68.8637H598.161V106.645H587.52V100.495H586.446C585.795 102.838 584.493 104.628 582.541 105.864C580.588 107.036 578.441 107.622 576.097 107.622C574.47 107.622 572.811 107.296 571.118 106.645C569.491 105.929 568.027 104.856 566.725 103.424C565.424 101.927 564.35 100.072 563.504 97.8589C562.723 95.581 562.332 92.8149 562.332 89.5606V55.2935C562.332 52.2996 562.723 49.6962 563.504 47.4833C564.35 45.2053 565.521 43.3179 567.018 41.8209C568.515 40.324 570.337 39.2175 572.485 38.5016C574.698 37.7206 577.204 37.3301 580.003 37.3301C582.801 37.3301 585.307 37.7206 587.52 38.5016C589.798 39.2826 591.718 40.4216 593.28 41.9186C594.842 43.4155 596.046 45.303 596.892 47.5809C597.738 49.7938 598.161 52.3647 598.161 55.2935V66.2277H582.541V54.122C582.541 53.4711 582.476 52.9504 582.346 52.5599C582.215 52.1694 582.053 51.844 581.857 51.5836C581.662 51.3233 581.434 51.1606 581.174 51.0955C580.914 50.9653 580.588 50.9003 580.198 50.9003C579.937 50.9003 579.645 50.9653 579.319 51.0955C579.059 51.1606 578.831 51.3233 578.636 51.5836C578.441 51.844 578.278 52.1694 578.148 52.5599C578.017 52.9504 577.952 53.4711 577.952 54.122Z" fill="white"/>
<path d="M531.665 38.3066H555.974L561.832 106.646H546.212L544.161 65.2517H543.185L541.135 106.646H525.515L531.665 38.3066ZM548.945 91.1229H538.011V77.5528H548.945V91.1229Z" fill="white"/>
<path d="M528.42 38.3066V51.8768H519.048V106.646H503.427V51.8768H494.055V38.3066H528.42Z" fill="white"/>
<path d="M492.523 62.1274H476.903V54.122C476.903 53.0806 476.707 52.2996 476.317 51.7789C475.926 51.1931 475.373 50.9003 474.657 50.9003C473.941 50.9003 473.388 51.1931 472.998 51.7789C472.672 52.2996 472.509 53.0806 472.509 54.122V59.1986C472.509 60.0447 472.575 60.7931 472.705 61.444C472.835 62.0298 473.16 62.6155 473.681 63.2013C474.267 63.787 475.08 64.4053 476.122 65.0562C477.228 65.707 478.725 66.5206 480.613 67.4969L483.639 68.9613C485.396 69.8725 486.828 70.8813 487.935 71.9877C489.106 73.0291 490.017 74.2982 490.668 75.7952C491.384 77.2271 491.872 78.9518 492.133 80.9694C492.458 82.9871 492.621 85.3952 492.621 88.1938V89.5606C492.621 95.3532 491.026 99.8115 487.837 102.936C484.713 106.06 480.255 107.622 474.462 107.622C468.669 107.622 464.276 106.092 461.282 103.033C458.288 99.9091 456.792 95.4182 456.792 89.5606V82.8243H472.412V90.8298C472.412 91.8711 472.607 92.6847 472.998 93.2704C473.388 93.7911 473.941 94.0515 474.657 94.0515C475.438 94.0515 476.024 93.7911 476.415 93.2704C476.805 92.7498 477 91.9362 477 90.8298V85.5579C477 84.6467 476.935 83.8982 476.805 83.3125C476.675 82.7267 476.349 82.1735 475.829 81.6528C475.308 81.067 474.527 80.4813 473.486 79.8955C472.509 79.2447 471.175 78.4637 469.483 77.5525L466.066 75.8928C464.309 74.9165 462.812 73.8752 461.575 72.7687C460.404 71.6623 459.46 70.3606 458.744 68.8637C458.093 67.3016 457.605 65.5118 457.28 63.4942C457.019 61.4765 456.889 59.0684 456.889 56.2697V55.2935C456.889 49.4358 458.386 44.9775 461.38 41.9186C464.439 38.8596 468.8 37.3301 474.462 37.3301C480.255 37.3301 484.713 38.8921 487.837 42.0162C490.961 45.1403 492.523 49.566 492.523 55.2935V62.1274Z" fill="white"/>
<path d="M465 204H617V381H465V204Z" fill="#059669"/>
<path d="M550.662 233.947H565.143C569.97 233.947 573.685 235.574 576.289 238.829C578.892 242.029 580.194 247.127 580.194 254.124V254.286C580.194 257.866 579.896 260.876 579.299 263.317C578.702 265.757 577.753 267.71 576.451 269.174C575.204 270.639 573.631 271.724 571.733 272.429C569.835 273.079 567.584 273.405 564.98 273.405H563.679V290.896H550.662V233.947ZM563.679 245.256V262.096H564.98C565.902 262.096 566.499 261.879 566.77 261.446C567.041 261.012 567.177 260.225 567.177 259.086V248.347C567.177 247.208 567.041 246.422 566.77 245.988C566.499 245.5 565.902 245.256 564.98 245.256H563.679Z" fill="white"/>
<path d="M535.805 233.947H548.822V290.896H535.805V233.947Z" fill="white"/>
<path d="M504.168 233.947H517.185L518.894 276.496H519.707L521.416 233.947H534.433L529.307 290.896H509.05L504.168 233.947Z" fill="white"/>
<path d="M590.598 330.22C592.16 327.942 593.332 325.567 594.113 323.094C594.894 320.599 595.284 318.06 595.284 315.479C595.284 312.875 594.894 310.348 594.113 307.896C593.332 305.423 592.16 303.047 590.598 300.77H593.69C595.49 302.809 596.846 305.065 597.757 307.538C598.669 310.012 599.124 312.658 599.124 315.479C599.124 318.277 598.669 320.913 597.757 323.386C596.846 325.86 595.49 328.138 593.69 330.22H590.598Z" fill="white"/>
<path d="M584.737 325.014V307.408H588.414V325.014H584.737ZM584.737 305V300.77H588.414V305H584.737Z" fill="white"/>
<path d="M573.923 325.013V307.407H577.437V310.955L577.112 310.434C577.503 309.284 578.132 308.46 578.999 307.961C579.867 307.44 580.909 307.18 582.124 307.18H583.197V310.532H581.668C580.453 310.532 579.466 310.911 578.707 311.671C577.969 312.408 577.6 313.471 577.6 314.86V325.013H573.923Z" fill="white"/>
<path d="M566.922 325.014V307.408H570.6V325.014H566.922ZM566.922 305V300.77H570.6V305H566.922Z" fill="white"/>
<path d="M554.233 325.404C552.541 325.404 551.023 325.003 549.677 324.2C548.354 323.376 547.302 322.269 546.521 320.881C545.761 319.492 545.382 317.93 545.382 316.195C545.382 314.459 545.772 312.897 546.553 311.508C547.334 310.12 548.387 309.024 549.71 308.222C551.033 307.419 552.53 307.018 554.201 307.018C555.611 307.018 556.858 307.3 557.943 307.864C559.028 308.428 559.885 309.209 560.514 310.207L559.961 311.053V300.379H563.606V325.013H560.124V321.434L560.547 322.117C559.939 323.18 559.071 323.994 557.943 324.558C556.815 325.122 555.578 325.404 554.233 325.404ZM554.591 321.987C555.611 321.987 556.522 321.738 557.325 321.239C558.149 320.74 558.789 320.056 559.245 319.188C559.722 318.299 559.961 317.301 559.961 316.195C559.961 315.088 559.722 314.101 559.245 313.233C558.789 312.365 558.149 311.682 557.325 311.183C556.522 310.684 555.611 310.435 554.591 310.435C553.572 310.435 552.65 310.684 551.825 311.183C551.001 311.682 550.361 312.365 549.905 313.233C549.45 314.101 549.222 315.088 549.222 316.195C549.222 317.301 549.45 318.299 549.905 319.188C550.361 320.056 550.99 320.74 551.793 321.239C552.617 321.738 553.55 321.987 554.591 321.987Z" fill="white"/>
<path d="M535.284 325.013V307.407H538.798V310.955L538.473 310.434C538.863 309.284 539.493 308.46 540.36 307.961C541.228 307.44 542.269 307.18 543.484 307.18H544.558V310.532H543.029C541.814 310.532 540.827 310.911 540.067 311.671C539.33 312.408 538.961 313.471 538.961 314.86V325.013H535.284Z" fill="white"/>
<path d="M524.568 325.404C522.811 325.404 521.249 325.003 519.882 324.2C518.537 323.376 517.485 322.269 516.725 320.881C515.966 319.47 515.586 317.898 515.586 316.162C515.586 314.383 515.966 312.81 516.725 311.443C517.506 310.077 518.548 309.003 519.849 308.222C521.151 307.419 522.626 307.018 524.275 307.018C525.599 307.018 526.781 307.245 527.822 307.701C528.864 308.157 529.742 308.786 530.458 309.588C531.174 310.369 531.717 311.27 532.085 312.289C532.476 313.309 532.671 314.394 532.671 315.544C532.671 315.826 532.66 316.119 532.639 316.422C532.617 316.726 532.574 317.008 532.508 317.268H518.483V314.34H530.426L528.668 315.674C528.885 314.611 528.809 313.667 528.441 312.843C528.094 311.997 527.551 311.335 526.814 310.858C526.098 310.359 525.252 310.109 524.275 310.109C523.299 310.109 522.431 310.359 521.672 310.858C520.913 311.335 520.327 312.029 519.915 312.94C519.502 313.83 519.34 314.915 519.426 316.195C519.318 317.388 519.481 318.429 519.915 319.319C520.37 320.208 520.999 320.902 521.802 321.401C522.626 321.9 523.559 322.15 524.601 322.15C525.664 322.15 526.564 321.911 527.302 321.434C528.061 320.957 528.658 320.338 529.092 319.579L532.085 321.043C531.738 321.868 531.196 322.616 530.458 323.289C529.742 323.94 528.875 324.46 527.855 324.851C526.857 325.22 525.761 325.404 524.568 325.404Z" fill="white"/>
<path d="M495.105 325.014V300.77H505.323C506.842 300.77 508.154 301.041 509.261 301.583C510.367 302.104 511.213 302.863 511.799 303.861C512.385 304.837 512.678 305.998 512.678 307.343C512.678 308.515 512.374 309.589 511.767 310.565C511.181 311.519 510.259 312.279 509.001 312.843V311.216C510.107 311.65 511.007 312.203 511.702 312.875C512.396 313.526 512.895 314.264 513.199 315.088C513.524 315.913 513.687 316.78 513.687 317.692C513.687 319.97 512.938 321.759 511.441 323.061C509.966 324.363 507.938 325.014 505.356 325.014H495.105ZM498.945 321.597H505.649C506.929 321.597 507.948 321.25 508.708 320.555C509.467 319.839 509.847 318.896 509.847 317.724C509.847 316.531 509.467 315.587 508.708 314.893C507.948 314.177 506.929 313.819 505.649 313.819H498.945V321.597ZM498.945 310.435H505.421C506.462 310.435 507.298 310.142 507.927 309.556C508.556 308.949 508.87 308.157 508.87 307.18C508.87 306.204 508.556 305.445 507.927 304.902C507.298 304.36 506.462 304.089 505.421 304.089H498.945V310.435Z" fill="white"/>
<path d="M489.488 330.22C487.709 328.138 486.364 325.86 485.453 323.386C484.542 320.913 484.086 318.277 484.086 315.479C484.086 312.658 484.542 310.012 485.453 307.538C486.364 305.065 487.709 302.809 489.488 300.77H492.58C491.04 303.047 489.868 305.423 489.065 307.896C488.284 310.348 487.894 312.875 487.894 315.479C487.894 318.06 488.284 320.599 489.065 323.094C489.868 325.567 491.04 327.942 492.58 330.22H489.488Z" fill="white"/>
<path d="M603.455 359.289C602.575 359.289 601.767 359.137 601.031 358.833C600.295 358.529 599.671 358.097 599.159 357.537C598.663 356.977 598.319 356.329 598.127 355.593L600.263 354.729C600.535 355.465 600.959 356.041 601.535 356.457C602.127 356.873 602.815 357.081 603.599 357.081C604.303 357.081 604.855 356.921 605.255 356.601C605.671 356.265 605.879 355.849 605.879 355.353C605.879 354.969 605.735 354.665 605.447 354.441C605.175 354.217 604.815 354.041 604.367 353.913L602.375 353.361C601.399 353.089 600.655 352.657 600.143 352.065C599.631 351.457 599.375 350.737 599.375 349.905C599.375 349.105 599.591 348.393 600.023 347.769C600.455 347.145 601.047 346.649 601.799 346.281C602.551 345.913 603.391 345.729 604.319 345.729C605.551 345.729 606.599 346.033 607.463 346.641C608.343 347.249 608.927 348.073 609.215 349.113L607.031 349.977C606.855 349.337 606.511 348.849 605.999 348.513C605.487 348.161 604.895 347.985 604.223 347.985C603.583 347.985 603.055 348.137 602.639 348.441C602.239 348.729 602.039 349.121 602.039 349.617C602.039 350.001 602.175 350.305 602.447 350.529C602.719 350.753 603.071 350.929 603.503 351.057L605.543 351.681C606.519 351.985 607.263 352.433 607.775 353.025C608.303 353.617 608.567 354.321 608.567 355.137C608.567 355.921 608.343 356.625 607.895 357.249C607.463 357.873 606.863 358.369 606.095 358.737C605.327 359.105 604.447 359.289 603.455 359.289Z" fill="white"/>
<path d="M591.917 359.289C591.037 359.289 590.229 359.137 589.493 358.833C588.757 358.529 588.133 358.097 587.621 357.537C587.125 356.977 586.781 356.329 586.589 355.593L588.725 354.729C588.997 355.465 589.421 356.041 589.997 356.457C590.589 356.873 591.277 357.081 592.061 357.081C592.765 357.081 593.317 356.921 593.717 356.601C594.133 356.265 594.341 355.849 594.341 355.353C594.341 354.969 594.197 354.665 593.909 354.441C593.637 354.217 593.277 354.041 592.829 353.913L590.837 353.361C589.861 353.089 589.117 352.657 588.605 352.065C588.093 351.457 587.837 350.737 587.837 349.905C587.837 349.105 588.053 348.393 588.485 347.769C588.917 347.145 589.509 346.649 590.261 346.281C591.013 345.913 591.853 345.729 592.781 345.729C594.013 345.729 595.061 346.033 595.925 346.641C596.805 347.249 597.389 348.073 597.677 349.113L595.493 349.977C595.317 349.337 594.973 348.849 594.461 348.513C593.949 348.161 593.357 347.985 592.685 347.985C592.045 347.985 591.517 348.137 591.101 348.441C590.701 348.729 590.501 349.121 590.501 349.617C590.501 350.001 590.637 350.305 590.909 350.529C591.181 350.753 591.533 350.929 591.965 351.057L594.005 351.681C594.981 351.985 595.725 352.433 596.237 353.025C596.765 353.617 597.029 354.321 597.029 355.137C597.029 355.921 596.805 356.625 596.357 357.249C595.925 357.873 595.325 358.369 594.557 358.737C593.789 359.105 592.909 359.289 591.917 359.289Z" fill="white"/>
<path d="M579.504 359.289C578.256 359.289 577.16 359.017 576.216 358.473C575.288 357.913 574.56 357.153 574.032 356.193C573.52 355.233 573.264 354.153 573.264 352.953C573.264 351.961 573.432 351.033 573.768 350.169C574.12 349.289 574.6 348.521 575.208 347.865C575.832 347.193 576.552 346.673 577.368 346.305C578.2 345.921 579.104 345.729 580.08 345.729C581.344 345.729 582.408 345.993 583.272 346.521C584.152 347.049 584.816 347.761 585.264 348.657C585.712 349.537 585.936 350.505 585.936 351.561C585.936 351.833 585.912 352.121 585.864 352.425C585.816 352.729 585.768 353.017 585.72 353.289H575.352L575.52 351.129H584.328L582.96 352.065C583.184 351.313 583.192 350.633 582.984 350.025C582.776 349.401 582.416 348.913 581.904 348.561C581.392 348.193 580.776 348.009 580.056 348.009C579.144 348.009 578.392 348.241 577.8 348.705C577.208 349.153 576.768 349.769 576.48 350.553C576.192 351.337 576.048 352.233 576.048 353.241C576.048 353.993 576.2 354.649 576.504 355.209C576.808 355.753 577.224 356.169 577.752 356.457C578.28 356.745 578.88 356.889 579.552 356.889C580.352 356.889 581.04 356.705 581.616 356.337C582.208 355.969 582.688 355.505 583.056 354.945L585.216 356.121C584.912 356.729 584.472 357.273 583.896 357.753C583.336 358.233 582.68 358.609 581.928 358.881C581.176 359.153 580.368 359.289 579.504 359.289Z" fill="white"/>
<path d="M565.411 359.289C564.211 359.289 563.139 359.017 562.195 358.473C561.251 357.913 560.507 357.153 559.963 356.193C559.435 355.233 559.171 354.145 559.171 352.929C559.171 351.921 559.355 350.977 559.723 350.097C560.091 349.217 560.595 348.449 561.235 347.793C561.875 347.137 562.619 346.633 563.467 346.281C564.331 345.913 565.259 345.729 566.251 345.729C567.163 345.729 567.995 345.889 568.747 346.209C569.499 346.513 570.139 346.945 570.667 347.505C571.211 348.049 571.595 348.689 571.819 349.425L569.395 350.433C569.171 349.761 568.779 349.233 568.219 348.849C567.659 348.449 566.995 348.249 566.227 348.249C565.395 348.249 564.659 348.465 564.019 348.897C563.395 349.329 562.899 349.905 562.531 350.625C562.179 351.329 562.003 352.097 562.003 352.929C562.003 353.681 562.147 354.345 562.435 354.921C562.739 355.497 563.155 355.953 563.683 356.289C564.227 356.609 564.835 356.769 565.507 356.769C566.323 356.769 567.043 356.561 567.667 356.145C568.291 355.713 568.763 355.153 569.083 354.465L571.411 355.665C571.091 356.369 570.635 356.993 570.043 357.537C569.451 358.081 568.755 358.513 567.955 358.833C567.171 359.137 566.323 359.289 565.411 359.289Z" fill="white"/>
<path d="M551.319 359.289C550.119 359.289 549.047 359.017 548.103 358.473C547.159 357.913 546.415 357.153 545.871 356.193C545.343 355.233 545.079 354.145 545.079 352.929C545.079 351.921 545.263 350.977 545.631 350.097C545.999 349.217 546.503 348.449 547.143 347.793C547.783 347.137 548.527 346.633 549.375 346.281C550.239 345.913 551.167 345.729 552.159 345.729C553.071 345.729 553.903 345.889 554.655 346.209C555.407 346.513 556.047 346.945 556.575 347.505C557.119 348.049 557.503 348.689 557.727 349.425L555.303 350.433C555.079 349.761 554.687 349.233 554.127 348.849C553.567 348.449 552.903 348.249 552.135 348.249C551.303 348.249 550.567 348.465 549.927 348.897C549.303 349.329 548.807 349.905 548.439 350.625C548.087 351.329 547.911 352.097 547.911 352.929C547.911 353.681 548.055 354.345 548.343 354.921C548.647 355.497 549.063 355.953 549.591 356.289C550.135 356.609 550.743 356.769 551.415 356.769C552.231 356.769 552.951 356.561 553.575 356.145C554.199 355.713 554.671 355.153 554.991 354.465L557.319 355.665C556.999 356.369 556.543 356.993 555.951 357.537C555.359 358.081 554.663 358.513 553.863 358.833C553.079 359.137 552.231 359.289 551.319 359.289Z" fill="white"/>
<path d="M527.922 358.999L536.706 341.119H540.21L544.002 358.999H541.074L540.282 354.991H533.034L531.09 358.999H527.922ZM534.21 352.471H539.778L537.906 343.135L538.698 343.231L534.21 352.471Z" fill="white"/>
<path d="M513.351 364.304C512.999 364.304 512.663 364.272 512.343 364.208C512.039 364.144 511.759 364.048 511.503 363.92L511.695 361.664C511.887 361.696 512.111 361.728 512.367 361.76C512.623 361.808 512.863 361.832 513.087 361.832C513.583 361.832 513.999 361.752 514.335 361.592C514.687 361.432 514.999 361.192 515.271 360.872C515.543 360.568 515.815 360.192 516.087 359.744L517.239 357.848L516.951 360.128L513.327 345.992H516.135L518.727 356.84H517.695L523.407 345.992H526.455L518.679 360.488C518.263 361.256 517.791 361.928 517.263 362.504C516.751 363.08 516.167 363.52 515.511 363.824C514.871 364.144 514.151 364.304 513.351 364.304Z" fill="white"/>
<path d="M507.661 359L510.205 340.832H512.917L510.373 359H507.661Z" fill="white"/>
<path d="M499.685 359L501.485 346.016H504.101L503.741 348.632L503.525 348.248C503.941 347.4 504.493 346.792 505.181 346.424C505.869 346.04 506.661 345.848 507.557 345.848H508.349L508.013 348.32H506.885C505.973 348.32 505.205 348.608 504.581 349.184C503.957 349.76 503.565 350.616 503.405 351.752L502.397 359H499.685Z" fill="white"/>
<path d="M490.73 359.289C489.93 359.289 489.21 359.161 488.57 358.905C487.93 358.633 487.418 358.233 487.034 357.705C486.666 357.177 486.482 356.521 486.482 355.737C486.482 354.953 486.682 354.265 487.082 353.673C487.482 353.081 488.042 352.601 488.762 352.233C489.482 351.849 490.314 351.585 491.258 351.441L495.914 350.697L495.698 352.833L491.69 353.529C490.986 353.657 490.41 353.897 489.962 354.249C489.53 354.585 489.314 355.033 489.314 355.593C489.314 356.089 489.49 356.473 489.842 356.745C490.21 357.017 490.69 357.153 491.282 357.153C491.986 357.153 492.618 356.993 493.178 356.673C493.738 356.337 494.202 355.897 494.57 355.353C494.954 354.793 495.186 354.185 495.266 353.529L495.698 350.361C495.762 349.865 495.682 349.449 495.458 349.113C495.25 348.777 494.954 348.521 494.57 348.345C494.186 348.169 493.762 348.081 493.298 348.081C492.546 348.081 491.874 348.281 491.282 348.681C490.706 349.065 490.258 349.561 489.938 350.169L487.754 348.921C488.074 348.281 488.522 347.721 489.098 347.241C489.674 346.761 490.338 346.393 491.09 346.137C491.842 345.865 492.634 345.729 493.466 345.729C494.49 345.729 495.394 345.929 496.178 346.329C496.962 346.729 497.562 347.289 497.978 348.009C498.394 348.713 498.538 349.537 498.41 350.481L497.21 359.001H494.618L494.93 356.649L495.578 356.769C495.21 357.313 494.778 357.777 494.282 358.161C493.786 358.529 493.234 358.809 492.626 359.001C492.034 359.193 491.402 359.289 490.73 359.289Z" fill="white"/>
<path d="M473.1 358.999L475.596 341.119H487.356L487.02 343.639H478.068L477.348 348.775H485.82L485.46 351.295H476.988L476.268 356.479H485.22L484.86 358.999H473.1Z" fill="white"/>
<path d="M338.46 213.582C343.864 207.488 351.619 204 359.764 204H464V380.34H616V204H720.236C728.381 204 736.136 207.488 741.54 213.582L889.415 380.34H889.848L889.684 380.644L890 381H889.493L794.175 558.554C789.214 567.795 779.575 573.56 769.087 573.56H298.975C287.837 573.56 277.722 567.067 273.085 556.94L192.523 381H190L338.46 213.582Z" fill="#FBBF24"/>
<path d="M621.467 421.238H634.484V466.879H642.376V478.187H621.467V421.238Z" fill="black"/>
<path d="M595.036 421.238H615.294L620.175 478.187H607.158L605.45 443.693H604.636L602.928 478.187H589.911L595.036 421.238ZM609.436 465.252H600.324V453.943H609.436V465.252Z" fill="black"/>
<path d="M561.388 421.238H574.405L576.114 463.787H576.927L578.636 421.238H591.653L586.527 478.187H566.27L561.388 421.238Z" fill="black"/>
<path d="M547.182 421.238H560.199V478.187H547.182V421.238Z" fill="black"/>
<path d="M545.695 421.238V432.547H537.885V478.187H524.868V432.547H517.058V421.238H545.695Z" fill="black"/>
<path d="M515.781 441.088H502.764V434.417C502.764 433.549 502.601 432.898 502.276 432.465C501.95 431.976 501.489 431.732 500.893 431.732C500.296 431.732 499.835 431.976 499.509 432.465C499.238 432.898 499.103 433.549 499.103 434.417V438.648C499.103 439.353 499.157 439.976 499.265 440.519C499.374 441.007 499.645 441.495 500.079 441.983C500.567 442.471 501.245 442.987 502.113 443.529C503.035 444.071 504.282 444.749 505.855 445.563L508.377 446.783C509.842 447.542 511.035 448.383 511.957 449.305C512.933 450.173 513.693 451.231 514.235 452.478C514.832 453.671 515.238 455.109 515.455 456.79C515.726 458.471 515.862 460.478 515.862 462.81V463.949C515.862 468.776 514.533 472.492 511.876 475.095C509.272 477.698 505.557 479 500.73 479C495.903 479 492.242 477.726 489.747 475.176C487.252 472.573 486.004 468.831 486.004 463.949V458.336H499.021V465.007C499.021 465.875 499.184 466.553 499.509 467.041C499.835 467.475 500.296 467.692 500.893 467.692C501.543 467.692 502.032 467.475 502.357 467.041C502.682 466.607 502.845 465.929 502.845 465.007V460.614C502.845 459.854 502.791 459.231 502.682 458.742C502.574 458.254 502.303 457.793 501.869 457.359C501.435 456.871 500.784 456.383 499.916 455.895C499.103 455.353 497.991 454.702 496.581 453.942L493.733 452.559C492.269 451.746 491.021 450.878 489.991 449.956C489.015 449.034 488.228 447.949 487.632 446.702C487.089 445.4 486.682 443.909 486.411 442.227C486.194 440.546 486.086 438.539 486.086 436.207V435.393C486.086 430.512 487.333 426.797 489.828 424.248C492.377 421.698 496.011 420.424 500.73 420.424C505.557 420.424 509.272 421.726 511.876 424.329C514.479 426.932 515.781 430.62 515.781 435.393V441.088Z" fill="black"/>
<path d="M484.272 432.547H476.38V442.635H484.19V453.943H476.38V466.879H484.353V478.187H463.363V421.238H484.272V432.547Z" fill="black"/>
<path d="M461.947 432.547H454.055V444.099H461.458V455.326H454.055V478.187H441.038V421.238H461.947V432.547Z" fill="black"/>
<path d="M589.518 517.511C591.08 515.233 592.251 512.858 593.032 510.385C593.813 507.89 594.204 505.351 594.204 502.77C594.204 500.166 593.813 497.639 593.032 495.187C592.251 492.714 591.08 490.339 589.518 488.061H592.609C594.41 490.1 595.766 492.356 596.677 494.829C597.588 497.303 598.044 499.949 598.044 502.77C598.044 505.568 597.588 508.204 596.677 510.678C595.766 513.151 594.41 515.429 592.609 517.511H589.518Z" fill="black"/>
<path d="M583.656 512.305V494.699H587.334V512.305H583.656ZM583.656 492.291V488.061H587.334V492.291H583.656Z" fill="black"/>
<path d="M572.842 512.304V494.699H576.357V498.246L576.031 497.725C576.422 496.575 577.051 495.751 577.919 495.252C578.787 494.731 579.828 494.471 581.043 494.471H582.117V497.823H580.587C579.372 497.823 578.385 498.202 577.626 498.962C576.888 499.699 576.52 500.762 576.52 502.151V512.304H572.842Z" fill="black"/>
<path d="M565.842 512.305V494.699H569.519V512.305H565.842ZM565.842 492.291V488.061H569.519V492.291H565.842Z" fill="black"/>
<path d="M553.153 512.695C551.461 512.695 549.942 512.294 548.597 511.491C547.273 510.667 546.221 509.56 545.44 508.172C544.681 506.783 544.301 505.221 544.301 503.486C544.301 501.75 544.692 500.188 545.473 498.799C546.254 497.411 547.306 496.315 548.629 495.513C549.953 494.71 551.45 494.309 553.12 494.309C554.53 494.309 555.778 494.591 556.863 495.155C557.947 495.719 558.804 496.5 559.433 497.498L558.88 498.344V487.67H562.525V512.305H559.043V508.725L559.466 509.408C558.859 510.471 557.991 511.285 556.863 511.849C555.734 512.413 554.498 512.695 553.153 512.695ZM553.511 509.278C554.53 509.278 555.442 509.029 556.244 508.53C557.069 508.031 557.709 507.347 558.164 506.479C558.642 505.59 558.88 504.592 558.88 503.486C558.88 502.379 558.642 501.392 558.164 500.524C557.709 499.656 557.069 498.973 556.244 498.474C555.442 497.975 554.53 497.726 553.511 497.726C552.491 497.726 551.569 497.975 550.745 498.474C549.92 498.973 549.28 499.656 548.825 500.524C548.369 501.392 548.141 502.379 548.141 503.486C548.141 504.592 548.369 505.59 548.825 506.479C549.28 507.347 549.909 508.031 550.712 508.53C551.537 509.029 552.469 509.278 553.511 509.278Z" fill="black"/>
<path d="M534.203 512.304V494.699H537.718V498.246L537.392 497.725C537.783 496.575 538.412 495.751 539.28 495.252C540.148 494.731 541.189 494.471 542.404 494.471H543.478V497.823H541.948C540.733 497.823 539.746 498.202 538.987 498.962C538.249 499.699 537.88 500.762 537.88 502.151V512.304H534.203Z" fill="black"/>
<path d="M523.488 512.695C521.73 512.695 520.168 512.294 518.801 511.491C517.456 510.667 516.404 509.56 515.645 508.172C514.886 506.761 514.506 505.189 514.506 503.453C514.506 501.674 514.886 500.101 515.645 498.734C516.426 497.368 517.467 496.294 518.769 495.513C520.071 494.71 521.546 494.309 523.195 494.309C524.518 494.309 525.7 494.536 526.742 494.992C527.783 495.448 528.662 496.077 529.378 496.879C530.094 497.66 530.636 498.561 531.005 499.58C531.395 500.6 531.591 501.685 531.591 502.835C531.591 503.117 531.58 503.41 531.558 503.713C531.536 504.017 531.493 504.299 531.428 504.559H517.402V501.631H529.345L527.588 502.965C527.805 501.902 527.729 500.958 527.36 500.134C527.013 499.288 526.471 498.626 525.733 498.149C525.017 497.65 524.171 497.4 523.195 497.4C522.218 497.4 521.351 497.65 520.591 498.149C519.832 498.626 519.246 499.32 518.834 500.231C518.422 501.121 518.259 502.206 518.346 503.486C518.237 504.679 518.4 505.72 518.834 506.61C519.29 507.499 519.919 508.193 520.721 508.692C521.546 509.191 522.479 509.441 523.52 509.441C524.583 509.441 525.483 509.202 526.221 508.725C526.98 508.248 527.577 507.629 528.011 506.87L531.005 508.334C530.658 509.159 530.115 509.907 529.378 510.58C528.662 511.231 527.794 511.751 526.774 512.142C525.776 512.511 524.681 512.695 523.488 512.695Z" fill="black"/>
<path d="M494.024 512.305V488.061H504.243C505.761 488.061 507.074 488.332 508.18 488.874C509.287 489.395 510.133 490.154 510.719 491.152C511.304 492.128 511.597 493.289 511.597 494.634C511.597 495.806 511.294 496.88 510.686 497.856C510.1 498.81 509.178 499.57 507.92 500.134V498.507C509.026 498.941 509.927 499.494 510.621 500.166C511.315 500.817 511.814 501.555 512.118 502.379C512.443 503.204 512.606 504.071 512.606 504.983C512.606 507.261 511.858 509.05 510.361 510.352C508.885 511.654 506.857 512.305 504.275 512.305H494.024ZM497.864 508.888H504.568C505.848 508.888 506.868 508.541 507.627 507.846C508.386 507.13 508.766 506.187 508.766 505.015C508.766 503.822 508.386 502.878 507.627 502.184C506.868 501.468 505.848 501.11 504.568 501.11H497.864V508.888ZM497.864 497.726H504.34C505.382 497.726 506.217 497.433 506.846 496.847C507.475 496.24 507.79 495.448 507.79 494.471C507.79 493.495 507.475 492.736 506.846 492.193C506.217 491.651 505.382 491.38 504.34 491.38H497.864V497.726Z" fill="black"/>
<path d="M488.408 517.511C486.629 515.429 485.284 513.151 484.373 510.678C483.461 508.204 483.006 505.568 483.006 502.77C483.006 499.949 483.461 497.303 484.373 494.829C485.284 492.356 486.629 490.1 488.408 488.061H491.499C489.959 490.339 488.788 492.714 487.985 495.187C487.204 497.639 486.813 500.166 486.813 502.77C486.813 505.351 487.204 507.89 487.985 510.385C488.788 512.858 489.959 515.233 491.499 517.511H488.408Z" fill="black"/>
<path d="M1056 291C1069.25 291 1080.05 301.771 1079.48 315.013C1066.91 602.104 830.187 831 540 831C249.813 831 13.0872 602.104 0.524233 315.013C-0.0552388 301.771 10.745 291 23.9999 291H105C118.255 291 128.927 301.769 129.689 315.002C142.117 530.82 321.068 702 540 702C758.932 702 937.883 530.82 950.311 315.002C951.073 301.769 961.745 291 975 291H1056Z" fill="#2563EB"/>
<path d="M612.022 720.051H625.039V777H610.883L605.106 742.912H604.374L607.303 777H594.286V720.051H608.361L614.462 754.383H615.195L612.022 720.051Z" fill="white"/>
<path d="M562.823 720.051H575.84V763.82C575.84 764.308 575.894 764.715 576.002 765.041C576.111 765.366 576.219 765.637 576.328 765.854C576.491 766.071 576.68 766.234 576.897 766.342C577.169 766.451 577.413 766.505 577.63 766.505C577.901 766.505 578.145 766.451 578.362 766.342C578.579 766.234 578.769 766.071 578.931 765.854C579.094 765.637 579.202 765.366 579.257 765.041C579.365 764.715 579.419 764.308 579.419 763.82V720.051H592.436V762.763C592.436 765.258 592.084 767.454 591.379 769.353C590.728 771.197 589.752 772.742 588.45 773.99C587.202 775.237 585.63 776.186 583.731 776.837C581.887 777.488 579.799 777.814 577.467 777.814C575.135 777.814 573.046 777.515 571.202 776.919C569.413 776.268 567.894 775.319 566.646 774.071C565.399 772.769 564.45 771.197 563.799 769.353C563.148 767.454 562.823 765.258 562.823 762.763V720.051Z" fill="white"/>
<path d="M530.965 720.051H545.365C550.192 720.051 553.908 721.271 556.511 723.712C559.115 726.098 560.416 729.542 560.416 734.044V734.451C560.416 736.512 560.172 738.356 559.684 739.983C559.196 741.61 558.545 742.966 557.731 744.051C556.972 745.136 556.077 745.976 555.047 746.573C554.07 747.115 553.094 747.414 552.118 747.468V748.281C553.094 748.336 554.125 748.688 555.209 749.339C556.294 749.99 557.27 750.912 558.138 752.105C559.06 753.298 559.82 754.708 560.416 756.336C561.013 757.963 561.311 759.834 561.311 761.949V762.925C561.311 767.373 559.901 770.844 557.081 773.339C554.314 775.78 550.437 777 545.447 777H530.965V720.051ZM543.982 731.359V742.261H545.203C546.07 742.261 546.64 742.071 546.911 741.691C547.237 741.312 547.399 740.58 547.399 739.495V734.044C547.399 733.014 547.237 732.308 546.911 731.929C546.64 731.549 546.07 731.359 545.203 731.359H543.982ZM543.982 753.569V765.691H545.284C546.206 765.691 546.83 765.502 547.155 765.122C547.481 764.742 547.643 764.01 547.643 762.925V756.336C547.643 755.251 547.481 754.519 547.155 754.139C546.83 753.759 546.206 753.569 545.284 753.569H543.982Z" fill="white"/>
<path d="M516.108 720.051H529.125V777H516.108V720.051Z" fill="white"/>
<path d="M484.567 720.051H499.048C503.875 720.051 507.591 721.298 510.194 723.793C512.797 726.288 514.099 730.112 514.099 735.264V735.671C514.099 738.003 513.828 740.037 513.286 741.773C512.797 743.508 512.147 744.973 511.333 746.166C510.574 747.359 509.679 748.254 508.648 748.851C507.672 749.447 506.723 749.773 505.801 749.827V750.722C506.723 750.776 507.672 751.156 508.648 751.861C509.679 752.512 510.574 753.434 511.333 754.627C512.147 755.82 512.797 757.258 513.286 758.939C513.828 760.62 514.099 762.546 514.099 764.715V765.447C514.099 767.725 514.153 769.786 514.262 771.63C514.37 773.475 514.587 775.264 514.913 777H501.896C501.516 775.264 501.272 773.447 501.164 771.549C501.109 769.597 501.082 767.508 501.082 765.285V758.695C501.082 757.664 500.919 756.959 500.594 756.58C500.323 756.146 499.753 755.929 498.886 755.929H497.584V777H484.567V720.051ZM497.584 731.359V744.62H498.886C499.753 744.62 500.323 744.43 500.594 744.051C500.919 743.617 501.082 742.858 501.082 741.773V734.125C501.082 733.095 500.919 732.39 500.594 732.01C500.323 731.576 499.753 731.359 498.886 731.359H497.584Z" fill="white"/>
<path d="M483.08 720.051V731.359H475.27V777H462.253V731.359H454.442V720.051H483.08Z" fill="white"/>
<path d="M588.442 816.324C590.004 814.046 591.176 811.67 591.957 809.197C592.738 806.702 593.128 804.164 593.128 801.582C593.128 798.979 592.738 796.451 591.957 794C591.176 791.527 590.004 789.151 588.442 786.873H591.534C593.335 788.912 594.691 791.169 595.602 793.642C596.513 796.115 596.968 798.762 596.968 801.582C596.968 804.381 596.513 807.017 595.602 809.49C594.691 811.963 593.335 814.241 591.534 816.324H588.442Z" fill="white"/>
<path d="M572.094 811.117V786.482H575.771V802.981L574.339 802.623L583.158 793.512H587.747L581.108 800.573L588.04 811.117H583.809L577.626 801.777L579.806 801.484L574.6 807.017L575.771 804.576V811.117H572.094Z" fill="white"/>
<path d="M560.283 811.508C558.96 811.508 557.799 811.215 556.801 810.629C555.803 810.022 555.022 809.186 554.458 808.123C553.916 807.039 553.645 805.791 553.645 804.381V793.512H557.322V804.055C557.322 804.858 557.485 805.563 557.81 806.171C558.135 806.778 558.591 807.255 559.177 807.603C559.762 807.928 560.435 808.091 561.194 808.091C561.975 808.091 562.659 807.917 563.245 807.57C563.83 807.223 564.286 806.735 564.611 806.106C564.958 805.476 565.132 804.739 565.132 803.893V793.512H568.777V811.117H565.295V807.668L565.685 808.123C565.273 809.208 564.59 810.043 563.635 810.629C562.68 811.215 561.563 811.508 560.283 811.508Z" fill="white"/>
<path d="M541.313 811.508C539.621 811.508 538.103 811.106 536.758 810.303C535.434 809.479 534.382 808.373 533.601 806.984C532.842 805.596 532.462 804.034 532.462 802.298C532.462 800.562 532.852 799 533.633 797.612C534.414 796.223 535.467 795.128 536.79 794.325C538.113 793.522 539.61 793.121 541.281 793.121C542.691 793.121 543.939 793.403 545.023 793.967C546.108 794.531 546.965 795.312 547.594 796.31L547.041 797.156V786.482H550.686V811.117H547.204V807.537L547.627 808.221C547.019 809.284 546.151 810.097 545.023 810.661C543.895 811.225 542.659 811.508 541.313 811.508ZM541.671 808.091C542.691 808.091 543.602 807.841 544.405 807.342C545.229 806.843 545.869 806.16 546.325 805.292C546.802 804.402 547.041 803.404 547.041 802.298C547.041 801.192 546.802 800.204 546.325 799.337C545.869 798.469 545.229 797.785 544.405 797.286C543.602 796.788 542.691 796.538 541.671 796.538C540.652 796.538 539.73 796.788 538.905 797.286C538.081 797.785 537.441 798.469 536.985 799.337C536.53 800.204 536.302 801.192 536.302 802.298C536.302 803.404 536.53 804.402 536.985 805.292C537.441 806.16 538.07 806.843 538.873 807.342C539.697 807.841 540.63 808.091 541.671 808.091Z" fill="white"/>
<path d="M521.367 811.508C520.043 811.508 518.883 811.215 517.885 810.629C516.887 810.022 516.106 809.186 515.542 808.123C514.999 807.039 514.728 805.791 514.728 804.381V793.512H518.405V804.055C518.405 804.858 518.568 805.563 518.893 806.171C519.219 806.778 519.674 807.255 520.26 807.603C520.846 807.928 521.519 808.091 522.278 808.091C523.059 808.091 523.742 807.917 524.328 807.57C524.914 807.223 525.369 806.735 525.695 806.106C526.042 805.476 526.215 804.739 526.215 803.893V793.512H529.86V811.117H526.378V807.668L526.769 808.123C526.357 809.208 525.673 810.043 524.719 810.629C523.764 811.215 522.647 811.508 521.367 811.508Z" fill="white"/>
<path d="M492.3 811.117V786.873H500.24C502.757 786.873 504.937 787.383 506.781 788.403C508.647 789.401 510.09 790.811 511.109 792.633C512.129 794.455 512.639 796.571 512.639 798.979C512.639 801.365 512.129 803.481 511.109 805.325C510.09 807.147 508.647 808.568 506.781 809.588C504.937 810.607 502.757 811.117 500.24 811.117H492.3ZM496.14 807.7H500.305C502.019 807.7 503.505 807.342 504.764 806.626C506.044 805.91 507.031 804.902 507.725 803.6C508.419 802.298 508.766 800.758 508.766 798.979C508.766 797.2 508.408 795.67 507.692 794.39C506.998 793.089 506.022 792.08 504.764 791.364C503.505 790.648 502.019 790.29 500.305 790.29H496.14V807.7Z" fill="white"/>
<path d="M486.683 816.324C484.904 814.241 483.559 811.963 482.648 809.49C481.737 807.017 481.281 804.381 481.281 801.582C481.281 798.762 481.737 796.115 482.648 793.642C483.559 791.169 484.904 788.912 486.683 786.873H489.775C488.234 789.151 487.063 791.527 486.26 794C485.479 796.451 485.089 798.979 485.089 801.582C485.089 804.164 485.479 806.702 486.26 809.197C487.063 811.67 488.234 814.046 489.775 816.324H486.683Z" fill="white"/>
</g>
<defs>
<clipPath id="clip0_134_350">
<rect width="1080" height="831" fill="white"/>
</clipPath>
</defs>
</svg>
