<svg width="1080" height="1080" viewBox="0 0 1080 1080" fill="none" xmlns="http://www.w3.org/2000/svg">
<rect width="1080" height="1080" fill="#B91C1C"/>
<path d="M918.641 732L916.934 726.614H898.694L896.988 732H880.348L896.508 687.2H919.121L935.334 732H918.641ZM902.481 714.72H913.148L909.201 702.347H906.428L902.481 714.72Z" fill="white"/>
<path d="M862.324 732V687.2H878.431V732H862.324Z" fill="white"/>
<path d="M836.262 733.494C820.208 733.44 812.902 728.64 813.382 716.64H827.835C827.942 719.307 830.182 720.854 836.262 720.96C841.488 721.014 843.728 719.627 843.728 718.027C843.728 717.174 843.515 715.68 839.462 715.147L833.595 714.24C825.168 712.907 814.395 712.32 814.395 700.267C814.395 691.254 821.595 685.707 836.422 685.707C849.648 685.707 858.875 689.12 858.502 702.454H844.102C843.622 699.84 841.328 698.24 836.048 698.24C831.515 698.24 829.862 699.52 829.862 701.12C829.862 701.867 830.235 703.36 833.275 703.84L837.968 704.587C846.982 706.08 859.782 705.92 859.782 718.72C859.782 728.747 852.102 733.547 836.262 733.494Z" fill="white"/>
<path d="M769.637 732V687.2H810.863V700.054H785.743V704.427H809.903V714.774H785.743V719.094H810.863V732H769.637Z" fill="white"/>
<path d="M717.574 732V687.2H736.028L748.934 709.44H750.428V687.2H766.161V732H748.081L734.748 709.76H733.308V732H717.574Z" fill="white"/>
<path d="M689.186 733.494C673.559 733.494 663.586 724.054 663.586 709.6C663.586 695.147 673.559 685.707 689.186 685.707C704.866 685.707 714.839 695.147 714.839 709.6C714.839 724.054 704.866 733.494 689.186 733.494ZM689.186 719.574C694.359 719.574 698.786 716.107 698.786 709.6C698.786 703.094 694.359 699.627 689.186 699.627C684.066 699.627 679.586 703.094 679.586 709.6C679.586 716.107 684.066 719.574 689.186 719.574Z" fill="white"/>
<path d="M636.596 687.2C655.103 687.2 661.449 696.64 661.449 709.6C661.449 722.507 655.103 732 636.596 732H613.449V687.2H636.596ZM636.596 718.507C641.343 718.507 645.236 716.267 645.236 709.6C645.236 702.88 641.343 700.694 636.596 700.694H629.663L629.609 718.507H636.596Z" fill="white"/>
<path d="M561.387 732V687.2H579.84L592.747 709.44H594.24V687.2H609.973V732H591.893L578.56 709.76H577.12V732H561.387Z" fill="white"/>
<path d="M541.762 732V687.2H557.868V732H541.762Z" fill="white"/>
<path d="M710.936 669.494C695.309 669.494 685.336 660.054 685.336 645.6C685.336 631.147 695.309 621.707 710.936 621.707C726.616 621.707 736.589 631.147 736.589 645.6C736.589 660.054 726.616 669.494 710.936 669.494ZM710.936 655.574C716.109 655.574 720.536 652.107 720.536 645.6C720.536 639.094 716.109 635.627 710.936 635.627C705.816 635.627 701.336 639.094 701.336 645.6C701.336 652.107 705.816 655.574 710.936 655.574Z" fill="white"/>
<path d="M637.262 668V623.2H663.342C675.662 623.2 683.182 628.534 683.182 641.067C683.182 653.547 675.662 658.88 663.395 658.88H653.368V668H637.262ZM653.368 645.494H661.902C664.888 645.494 666.862 644 666.862 641.067C666.862 638.08 664.888 636.587 661.955 636.587H653.368V645.494Z" fill="white"/>
<path d="M584.59 668L599.95 645.654V644.854L585.017 623.2H602.297L609.337 634.294H610.883L617.87 623.2H635.203L620.377 644.854V645.654L635.577 668H618.083L610.883 656.267H609.337L602.137 668H584.59Z" fill="white"/>
<path d="M541.762 668V623.2H582.988V636.054H557.868V640.427H582.028V650.774H557.868V655.094H582.988V668H541.762Z" fill="white"/>
<path d="M879.448 559.2V572.64H863.555V604H847.395V572.64H831.555V559.2H879.448Z" fill="white"/>
<path d="M822.328 604L820.622 598.614H802.382L800.675 604H784.035L800.195 559.2H822.809L839.022 604H822.328ZM806.168 586.72H816.835L812.888 574.347H810.115L806.168 586.72Z" fill="white"/>
<path d="M743.199 604V559.2H759.306V590.56H782.559V604H743.199Z" fill="white"/>
<path d="M698.449 604V559.2H739.676V572.054H714.556V576.427H738.716V586.774H714.556V591.094H739.676V604H698.449Z" fill="white"/>
<path d="M697.261 604H680.834L669.741 588.907H668.728L663.128 594.934V604H647.074V559.2H663.128V575.734H664.194L678.914 559.2H696.834L678.754 579.147L697.261 604Z" fill="white"/>
<path d="M618.686 605.494C603.059 605.494 593.086 596.054 593.086 581.6C593.086 567.147 603.059 557.707 618.686 557.707C634.366 557.707 644.339 567.147 644.339 581.6C644.339 596.054 634.366 605.494 618.686 605.494ZM618.686 591.574C623.859 591.574 628.286 588.107 628.286 581.6C628.286 575.094 623.859 571.627 618.686 571.627C613.566 571.627 609.086 575.094 609.086 581.6C609.086 588.107 613.566 591.574 618.686 591.574Z" fill="white"/>
<path d="M566.348 605.494C551.041 605.494 540.961 596.054 540.961 581.6C540.961 567.147 551.041 557.707 566.348 557.707C577.601 557.707 589.228 562.667 590.454 578.454H575.094C574.081 573.814 570.934 571.627 566.348 571.627C561.174 571.627 556.961 575.414 556.961 581.6C556.961 587.734 561.174 591.574 566.348 591.574C570.934 591.574 574.081 589.387 575.094 584.64H590.454C589.228 600.534 577.761 605.494 566.348 605.494Z" fill="white"/>
<path d="M713.01 438.246C717.639 438.246 721.372 442.126 720.655 446.7C714.871 483.62 682.945 512.744 642.731 517.611C638.169 518.163 634.348 514.45 634.348 509.855V446.362C634.348 441.88 637.982 438.246 642.464 438.246H713.01Z" fill="white"/>
<path d="M626.232 509.728C626.232 514.355 622.358 518.079 617.77 517.472C573.796 511.648 540 476.778 540 434.632C540 392.485 573.796 357.615 617.77 351.791C622.358 351.184 626.232 354.907 626.232 359.535V509.728Z" fill="white"/>
<path d="M634.348 359.408C634.348 354.813 638.169 351.101 642.731 351.653C682.59 356.477 714.309 385.133 720.497 421.59C721.278 426.19 717.533 430.13 712.867 430.13H642.464C637.981 430.13 634.348 426.496 634.348 422.014V359.408Z" fill="white"/>
<path d="M885.941 360.132C885.941 355.649 889.575 352.016 894.057 352.016H951.883C956.366 352.016 959.999 355.649 959.999 360.132V510.277C959.999 514.759 956.366 518.392 951.883 518.392H894.057C889.575 518.392 885.941 514.759 885.941 510.277V360.132Z" fill="white"/>
<path d="M727.684 360.132C727.684 355.649 731.317 352.016 735.8 352.016H858.553C863.036 352.016 866.669 355.649 866.669 360.132V388.537C866.669 393.02 863.036 396.653 858.553 396.653H735.8C731.317 396.653 727.684 393.02 727.684 388.537V360.132Z" fill="white"/>
<path d="M727.684 477.812C727.684 473.33 731.317 469.696 735.8 469.696H858.553C863.036 469.696 866.669 473.33 866.669 477.812V506.218C866.669 510.7 863.036 514.334 858.553 514.334H735.8C731.317 514.334 727.684 510.7 727.684 506.218V477.812Z" fill="white"/>
<path d="M727.684 418.972C727.684 414.49 731.317 410.856 735.8 410.856H799.713C804.195 410.856 807.829 414.49 807.829 418.972V447.378C807.829 451.861 804.195 455.494 799.713 455.494H735.8C731.317 455.494 727.684 451.861 727.684 447.378V418.972Z" fill="white"/>
<path d="M257.979 436.375C257.979 433.878 262.873 433.579 268.465 436.375C268.553 436.458 283.789 450.871 287.938 456.348V500.288L285.442 502.784H278.598L333.408 526.81V512.272C333.408 509.776 338.301 509.476 343.893 512.272C343.961 512.337 359.215 526.765 363.367 532.245V539.942L383.396 548.723H409.304V512.272C409.304 509.776 414.198 509.476 419.79 512.272C419.887 512.364 435.115 526.77 439.263 532.245V576.185L439.234 576.214V688.043C439.234 705.692 424.926 720 407.277 720H252.488C234.838 720 220.531 705.692 220.531 688.043V555.714L220.53 555.713C220.021 554.697 219.652 552.912 220.531 551.312V479.816L220.53 479.815C219.697 478.151 219.232 474.423 224.025 472.825H257.979V436.375ZM333.408 436.375C333.408 433.878 338.301 433.579 343.893 436.375C343.943 436.422 359.212 450.864 363.367 456.348V500.288L360.869 502.784H318.927L295.958 479.815C295.126 478.151 294.66 474.423 299.453 472.825H333.408V436.375ZM409.304 436.375C409.304 433.878 414.198 433.579 419.79 436.375C419.875 436.455 435.113 450.87 439.263 456.348V500.288L436.767 502.784H394.824L371.855 479.815C371.023 478.151 370.557 474.423 375.35 472.825H409.304V436.375ZM257.979 361.986C257.979 359.49 262.872 359.19 268.464 361.986C268.464 361.986 283.776 376.466 287.938 381.959V425.899L285.442 428.397H243.498L220.53 405.428C219.697 403.763 219.232 400.035 224.025 398.438H257.979V361.986ZM333.408 361.986C333.408 359.49 338.301 359.19 343.893 361.986C343.893 361.986 359.205 376.466 363.367 381.959V425.899L360.869 428.397H318.927L295.958 405.428C295.126 403.763 294.66 400.034 299.453 398.437H333.408V361.986ZM409.304 361.986C409.304 359.49 414.198 359.19 419.79 361.986C419.839 362.032 435.108 376.475 439.263 381.959V425.899L436.767 428.397H394.824L371.855 405.428C371.023 403.763 370.557 400.035 375.35 398.437H409.304V361.986Z" fill="white"/>
</svg>
