<svg width="1080" height="1080" viewBox="0 0 1080 1080" fill="none" xmlns="http://www.w3.org/2000/svg">
<rect width="1080" height="1080" fill="#5F4135"/>
<path d="M487.07 452.141C463.601 410.185 425.203 379.875 378.941 366.806C283.42 339.809 183.793 395.553 156.804 491.051C129.814 586.549 185.55 686.205 281.048 713.195C297.349 717.806 313.768 720 329.928 720C408.443 720 480.806 668.141 503.185 588.951C516.261 542.68 510.539 494.097 487.07 452.141ZM248.536 636.029C241.019 629.646 241.257 612.894 249.196 591.219C258.091 566.905 275.318 538.989 297.697 512.607C337.392 465.818 378.77 440.622 400.541 440.622C405.107 440.622 408.806 441.727 411.445 443.973C418.969 450.355 418.725 467.108 410.793 488.783C401.898 513.096 384.671 541.012 362.284 567.394C339.905 593.784 315.169 615.332 292.634 628.075C272.546 639.431 256.045 642.404 248.536 636.029ZM384.211 430.904C358.622 438.272 324.353 461.652 288.068 504.431C274.807 520.064 263.265 536.268 254.044 552.065C260.582 538.07 269.025 523.726 279.106 509.82C311.403 465.284 353.871 434.61 384.211 430.904ZM276.697 648.971C283.554 646.822 290.974 643.523 298.854 639.068C322.648 625.606 348.6 603.057 371.921 575.563C385.175 559.937 396.716 543.733 405.938 527.944C399.4 541.932 390.964 556.268 380.883 570.174C348.904 614.272 306.97 644.768 276.697 648.971ZM372.165 420.838C339.668 429.384 300.67 459.176 269.166 502.615C253.584 524.097 241.827 546.313 234.578 567.15C239.352 547.58 248.121 526.899 260.448 507.062C290.959 457.99 335.65 424.944 372.165 420.838ZM287.831 659.156C320.328 650.602 359.319 620.818 390.823 577.379C406.412 555.89 418.169 533.667 425.426 512.815C420.652 532.399 411.883 553.088 399.54 572.924C369.03 621.996 324.338 655.042 287.831 659.156ZM362.833 410.667C324.249 418.866 280.44 452.364 250.337 500.776C233.466 527.914 222.97 556.046 219.604 581.723C220.471 557.039 228.003 530.079 241.746 504.342C270.574 450.333 319.52 414.203 362.833 410.667ZM297.112 669.341C335.702 661.158 379.541 627.652 409.651 579.225C426.523 552.095 437.012 523.956 440.385 498.286C439.517 522.97 431.986 549.923 418.243 575.66C389.407 629.683 340.446 665.828 297.112 669.341ZM352.173 400.608C307.578 408.688 260.048 445.507 231.553 498.893C214.237 531.324 206.239 565.801 208.337 596.156C203.437 566.631 208.411 533.474 222.992 501.644C249.715 443.298 302.211 404.263 352.173 400.608ZM307.749 679.386C352.366 671.328 399.933 634.502 428.435 581.093C445.751 548.662 453.75 514.193 451.652 483.831C456.552 513.356 451.578 546.513 436.997 578.343C410.259 636.726 357.718 675.761 307.749 679.386ZM343.152 390.445C291.782 397.866 239.767 438.139 212.807 496.988C195.839 534.037 191.139 572.969 199.071 606.874C188.337 573.591 190.013 535.186 204.193 498.997C229.011 435.685 285.933 393.529 343.152 390.445ZM316.866 689.549C368.222 682.114 420.222 641.84 447.175 582.998C464.142 545.949 468.835 507.018 460.91 473.112C471.644 506.395 469.969 544.8 455.788 580.989C430.985 644.294 374.085 686.457 316.866 689.549ZM335.302 380.268C276.489 386.628 219.434 430.437 194.119 495.046C177.878 536.476 177.085 580.767 191.606 618.201C174.068 581.278 171.748 537.188 185.372 496.381C208.292 427.754 270.233 382.336 335.302 380.268ZM324.828 699.719C383.596 693.307 440.577 649.498 465.877 584.948C482.118 543.503 482.904 499.19 468.36 461.748C485.921 498.678 488.249 542.792 474.617 583.613C451.711 652.188 389.845 697.584 324.828 699.719ZM166.522 493.801C187.574 419.37 255.385 370.535 329.127 370.127C261.975 374.797 199.086 422.283 175.447 493.067C160.377 538.203 163.683 587.194 184.52 627.489C184.572 627.593 184.624 627.689 184.683 627.786C161.214 588.928 153.238 540.835 166.522 493.801ZM493.46 586.193C472.43 660.602 404.663 709.437 330.943 709.874C398.065 705.167 460.91 657.681 484.542 586.927C499.62 541.791 496.306 492.8 475.462 452.497C475.18 451.956 474.891 451.422 474.602 450.889C475.854 452.92 477.07 454.98 478.241 457.071C500.398 496.677 505.802 542.532 493.46 586.193Z" fill="white"/>
<path d="M847.949 732V687.2H864.056V718.56H887.309V732H847.949Z" fill="white"/>
<path d="M829.391 732L827.684 726.614H809.444L807.738 732H791.098L807.258 687.2H829.871L846.084 732H829.391ZM813.231 714.72H823.898L819.951 702.347H817.178L813.231 714.72Z" fill="white"/>
<path d="M762.695 732L746.535 687.2H763.175L773.148 716.854H774.855L784.828 687.2H801.522L785.308 732H762.695Z" fill="white"/>
<path d="M728.512 732V687.2H744.618V732H728.512Z" fill="white"/>
<path d="M725.323 687.2V700.64H709.43V732H693.27V700.64H677.43V687.2H725.323Z" fill="white"/>
<path d="M652.949 733.494C636.896 733.44 629.589 728.64 630.069 716.64H644.522C644.629 719.307 646.869 720.854 652.949 720.96C658.176 721.014 660.416 719.627 660.416 718.027C660.416 717.174 660.202 715.68 656.149 715.147L650.282 714.24C641.856 712.907 631.082 712.32 631.082 700.267C631.082 691.254 638.282 685.707 653.109 685.707C666.336 685.707 675.562 689.12 675.189 702.454H660.789C660.309 699.84 658.016 698.24 652.736 698.24C648.202 698.24 646.549 699.52 646.549 701.12C646.549 701.867 646.922 703.36 649.962 703.84L654.656 704.587C663.669 706.08 676.469 705.92 676.469 718.72C676.469 728.747 668.789 733.547 652.949 733.494Z" fill="white"/>
<path d="M586.324 732V687.2H627.551V700.054H602.431V704.427H626.591V714.774H602.431V719.094H627.551V732H586.324Z" fill="white"/>
<path d="M541.762 732V687.2H582.882V700.64H557.868V705.227H581.868V716.8H557.868V732H541.762Z" fill="white"/>
<path d="M780.949 668V623.2H822.176V636.054H797.056V640.427H821.216V650.774H797.056V655.094H822.176V668H780.949Z" fill="white"/>
<path d="M736.199 668V623.2H777.426V636.054H752.306V640.427H776.466V650.774H752.306V655.094H777.426V668H736.199Z" fill="white"/>
<path d="M691.637 668V623.2H732.757V636.64H707.743V641.227H731.743V652.8H707.743V668H691.637Z" fill="white"/>
<path d="M647.074 668V623.2H688.194V636.64H663.181V641.227H687.181V652.8H663.181V668H647.074Z" fill="white"/>
<path d="M618.686 669.494C603.059 669.494 593.086 660.054 593.086 645.6C593.086 631.147 603.059 621.707 618.686 621.707C634.366 621.707 644.339 631.147 644.339 645.6C644.339 660.054 634.366 669.494 618.686 669.494ZM618.686 655.574C623.859 655.574 628.286 652.107 628.286 645.6C628.286 639.094 623.859 635.627 618.686 635.627C613.566 635.627 609.086 639.094 609.086 645.6C609.086 652.107 613.566 655.574 618.686 655.574Z" fill="white"/>
<path d="M566.348 669.494C551.041 669.494 540.961 660.054 540.961 645.6C540.961 631.147 551.041 621.707 566.348 621.707C577.601 621.707 589.228 626.667 590.454 642.454H575.094C574.081 637.814 570.934 635.627 566.348 635.627C561.174 635.627 556.961 639.414 556.961 645.6C556.961 651.734 561.174 655.574 566.348 655.574C570.934 655.574 574.081 653.387 575.094 648.64H590.454C589.228 664.534 577.761 669.494 566.348 669.494Z" fill="white"/>
<path d="M918.641 604L916.934 598.614H898.694L896.988 604H880.348L896.508 559.2H919.121L935.334 604H918.641ZM902.481 586.72H913.148L909.201 574.347H906.428L902.481 586.72Z" fill="white"/>
<path d="M862.324 604V559.2H878.431V604H862.324Z" fill="white"/>
<path d="M836.262 605.494C820.208 605.44 812.902 600.64 813.382 588.64H827.835C827.942 591.307 830.182 592.854 836.262 592.96C841.488 593.014 843.728 591.627 843.728 590.027C843.728 589.174 843.515 587.68 839.462 587.147L833.595 586.24C825.168 584.907 814.395 584.32 814.395 572.267C814.395 563.254 821.595 557.707 836.422 557.707C849.648 557.707 858.875 561.12 858.502 574.454H844.102C843.622 571.84 841.328 570.24 836.048 570.24C831.515 570.24 829.862 571.52 829.862 573.12C829.862 573.867 830.235 575.36 833.275 575.84L837.968 576.587C846.982 578.08 859.782 577.92 859.782 590.72C859.782 600.747 852.102 605.547 836.262 605.494Z" fill="white"/>
<path d="M769.637 604V559.2H810.863V572.054H785.743V576.427H809.903V586.774H785.743V591.094H810.863V604H769.637Z" fill="white"/>
<path d="M717.574 604V559.2H736.028L748.934 581.44H750.428V559.2H766.161V604H748.081L734.748 581.76H733.308V604H717.574Z" fill="white"/>
<path d="M689.186 605.494C673.559 605.494 663.586 596.054 663.586 581.6C663.586 567.147 673.559 557.707 689.186 557.707C704.866 557.707 714.839 567.147 714.839 581.6C714.839 596.054 704.866 605.494 689.186 605.494ZM689.186 591.574C694.359 591.574 698.786 588.107 698.786 581.6C698.786 575.094 694.359 571.627 689.186 571.627C684.066 571.627 679.586 575.094 679.586 581.6C679.586 588.107 684.066 591.574 689.186 591.574Z" fill="white"/>
<path d="M636.596 559.2C655.103 559.2 661.449 568.64 661.449 581.6C661.449 594.507 655.103 604 636.596 604H613.449V559.2H636.596ZM636.596 590.507C641.343 590.507 645.236 588.267 645.236 581.6C645.236 574.88 641.343 572.694 636.596 572.694H629.663L629.609 590.507H636.596Z" fill="white"/>
<path d="M561.387 604V559.2H579.84L592.747 581.44H594.24V559.2H609.973V604H591.893L578.56 581.76H577.12V604H561.387Z" fill="white"/>
<path d="M541.762 604V559.2H557.868V604H541.762Z" fill="white"/>
<path d="M540 362.533C540 356.735 543.244 353.491 549.042 353.491H607.455C613.253 353.491 616.497 356.735 616.497 362.533V506.707C616.497 512.506 613.253 515.749 607.455 515.749H549.042C543.244 515.749 540 512.506 540 506.707V362.533Z" fill="white"/>
<path d="M713.609 509.951C713.609 515.749 711.291 519.459 704.337 518.993C655.195 515.283 623.441 482.374 623.441 434.157C623.441 386.178 655.195 353.728 704.337 350.018C710.365 349.789 713.609 353.032 713.609 359.06V509.951Z" fill="white"/>
<path d="M729.597 430.914C723.798 430.914 720.555 427.671 720.555 421.873V359.053C720.555 353.033 723.798 349.782 729.826 350.011C774.103 353.492 804.931 380.381 810.026 421.406C810.722 427.434 807.937 430.907 801.45 430.907H729.597V430.914Z" fill="white"/>
<path d="M720.562 446.91C720.562 441.112 723.806 437.868 729.604 437.868H801.229C807.716 437.868 810.73 441.341 810.041 447.369C804.709 487.936 774.347 515.52 730.997 518.764C723.347 519.46 720.57 516.216 720.57 509.952V446.91H720.562Z" fill="white"/>
<path d="M817.906 362.533C817.906 356.735 821.149 353.491 826.948 353.491H950.957C956.756 353.491 959.999 356.735 959.999 362.533V394.517C959.999 400.315 956.756 403.559 950.957 403.559H826.94C821.142 403.559 817.898 400.315 817.898 394.517V362.533H817.906Z" fill="white"/>
<path d="M817.906 419.554C817.906 413.755 821.15 410.512 826.948 410.512H885.361C891.16 410.512 894.403 413.755 894.403 419.554V506.707C894.403 512.505 891.16 515.749 885.361 515.749H826.948C821.15 515.749 817.906 512.505 817.906 506.707V419.554Z" fill="white"/>
<path d="M901.348 419.554C901.348 413.755 904.591 410.512 910.39 410.512H939.13C944.928 410.512 948.172 413.755 948.172 419.554V449.227C948.172 455.025 944.928 458.269 939.13 458.269H910.39C904.591 458.269 901.348 455.025 901.348 449.227V419.554Z" fill="white"/>
</svg>
