<svg width="1080" height="1080" viewBox="0 0 1080 1080" fill="none" xmlns="http://www.w3.org/2000/svg">
<rect width="1080" height="1080" fill="white"/>
<path d="M431.387 269.398C491.937 256.564 547.437 277.521 574.128 336.775C600.819 396.028 629.49 530.783 629.49 530.783C629.321 530.839 509.246 570.936 466.406 397.872C466.406 397.872 433.025 559.522 303.938 530.783L352.951 356.777C352.951 356.777 370.836 282.232 431.387 269.398ZM546.278 271.375C626.421 252.057 696.87 277.11 720.694 340.186C744.494 403.197 775.991 530.516 776.057 530.78C650.314 545.866 634.135 427.974 612.222 354.385C591.742 285.506 546.278 271.375 546.278 271.375Z" fill="url(#paint0_linear_3029_4654)"/>
<path d="M959.365 705.256C952.292 705.256 946.162 703.7 940.975 700.588C935.788 697.475 931.765 693.122 928.904 687.526C926.075 681.931 924.66 675.392 924.66 667.91C924.66 660.429 926.075 653.874 928.904 648.247C931.765 642.621 935.788 638.251 940.975 635.139C946.162 632.027 952.292 630.471 959.365 630.471C966.438 630.471 972.568 632.027 977.755 635.139C982.942 638.251 986.95 642.621 989.779 648.247C992.639 653.874 994.07 660.429 994.07 667.91C994.07 675.392 992.639 681.931 989.779 687.526C986.95 693.122 982.942 697.475 977.755 700.588C972.568 703.7 966.438 705.256 959.365 705.256ZM959.459 691.581C963.294 691.581 966.501 690.528 969.078 688.422C971.656 686.284 973.574 683.424 974.831 679.84C976.12 676.256 976.764 672.264 976.764 667.863C976.764 663.431 976.12 659.423 974.831 655.839C973.574 652.224 971.656 649.348 969.078 647.21C966.501 645.072 963.294 644.004 959.459 644.004C955.53 644.004 952.261 645.072 949.651 647.21C947.074 649.348 945.14 652.224 943.852 655.839C942.594 659.423 941.965 663.431 941.965 667.863C941.965 672.264 942.594 676.256 943.852 679.84C945.14 683.424 947.074 686.284 949.651 688.422C952.261 690.528 955.53 691.581 959.459 691.581Z" fill="black"/>
<path d="M851.422 731.001V631.414H868.208V643.391H869.199C870.079 641.63 871.321 639.76 872.924 637.779C874.527 635.768 876.696 634.054 879.431 632.64C882.166 631.194 885.655 630.471 889.899 630.471C895.494 630.471 900.54 631.901 905.035 634.762C909.562 637.591 913.145 641.787 915.786 647.352C918.458 652.884 919.794 659.674 919.794 667.722C919.794 675.675 918.49 682.434 915.88 687.998C913.271 693.562 909.719 697.806 905.224 700.729C900.728 703.653 895.636 705.114 889.946 705.114C885.797 705.114 882.354 704.423 879.62 703.04C876.885 701.656 874.684 699.99 873.018 698.041C871.383 696.061 870.11 694.19 869.199 692.43H868.491V731.001H851.422ZM868.161 667.627C868.161 672.311 868.821 676.414 870.142 679.934C871.493 683.455 873.427 686.206 875.942 688.186C878.488 690.135 881.569 691.11 885.184 691.11C888.956 691.11 892.115 690.104 894.661 688.092C897.208 686.049 899.125 683.267 900.414 679.746C901.734 676.194 902.395 672.154 902.395 667.627C902.395 663.132 901.75 659.14 900.461 655.651C899.172 652.161 897.255 649.426 894.709 647.446C892.162 645.465 888.987 644.475 885.184 644.475C881.537 644.475 878.441 645.434 875.894 647.352C873.348 649.269 871.415 651.957 870.095 655.415C868.806 658.873 868.161 662.944 868.161 667.627Z" fill="black"/>
<path d="M797.329 631.414L811.946 658.15L826.8 631.414H844.859L823.027 667.628L845.237 703.841H827.271L811.946 677.766L796.763 703.841H778.656L800.724 667.628L779.222 631.414H797.329Z" fill="black"/>
<path d="M710.109 703.841V607.271H772.917V621.936H727.603V648.153H769.664V662.818H727.603V689.177H773.295V703.841H710.109Z" fill="black"/>
<path d="M632.934 705.114C627.244 705.114 622.152 703.653 617.656 700.729C613.161 697.806 609.609 693.562 607 687.998C604.39 682.434 603.086 675.675 603.086 667.722C603.086 659.674 604.406 652.884 607.047 647.352C609.719 641.788 613.318 637.591 617.845 634.762C622.372 631.901 627.417 630.471 632.981 630.471C637.225 630.471 640.714 631.194 643.449 632.64C646.184 634.055 648.353 635.768 649.956 637.78C651.559 639.76 652.801 641.63 653.681 643.391H654.389V607.271H671.505V703.841H654.719V692.43H653.681C652.801 694.191 651.528 696.061 649.862 698.041C648.196 699.99 645.995 701.657 643.26 703.04C640.526 704.423 637.083 705.114 632.934 705.114ZM637.696 691.11C641.311 691.11 644.392 690.135 646.938 688.186C649.485 686.206 651.418 683.455 652.738 679.935C654.059 676.414 654.719 672.312 654.719 667.628C654.719 662.944 654.059 658.873 652.738 655.415C651.449 651.957 649.532 649.269 646.986 647.352C644.471 645.434 641.374 644.475 637.696 644.475C633.893 644.475 630.718 645.466 628.171 647.446C625.625 649.426 623.708 652.161 622.419 655.651C621.13 659.14 620.485 663.132 620.485 667.628C620.485 672.154 621.13 676.194 622.419 679.746C623.739 683.267 625.672 686.049 628.219 688.092C630.796 690.104 633.956 691.11 637.696 691.11Z" fill="black"/>
<path d="M563.506 705.256C556.433 705.256 550.303 703.7 545.116 700.588C539.929 697.475 535.905 693.122 533.045 687.526C530.215 681.931 528.801 675.392 528.801 667.91C528.801 660.429 530.215 653.874 533.045 648.247C535.905 642.621 539.929 638.251 545.116 635.139C550.303 632.027 556.433 630.471 563.506 630.471C570.579 630.471 576.708 632.027 581.895 635.139C587.082 638.251 591.09 642.621 593.919 648.247C596.78 653.874 598.21 660.429 598.21 667.91C598.21 675.392 596.78 681.931 593.919 687.526C591.09 693.122 587.082 697.475 581.895 700.588C576.708 703.7 570.579 705.256 563.506 705.256ZM563.6 691.581C567.435 691.581 570.641 690.528 573.219 688.422C575.797 686.284 577.714 683.424 578.972 679.84C580.261 676.256 580.905 672.264 580.905 667.863C580.905 663.431 580.261 659.423 578.972 655.839C577.714 652.224 575.797 649.348 573.219 647.21C570.641 645.072 567.435 644.004 563.6 644.004C559.67 644.004 556.401 645.072 553.792 647.21C551.214 649.348 549.281 652.224 547.992 655.839C546.735 659.423 546.106 663.431 546.106 667.863C546.106 672.264 546.735 676.256 547.992 679.84C549.281 683.424 551.214 686.284 553.792 688.422C556.401 690.528 559.67 691.581 563.6 691.581Z" fill="black"/>
<path d="M489.357 705.256C482.284 705.256 476.154 703.7 470.967 700.588C465.781 697.475 461.757 693.122 458.896 687.526C456.067 681.931 454.652 675.392 454.652 667.91C454.652 660.429 456.067 653.874 458.896 648.247C461.757 642.621 465.781 638.251 470.967 635.139C476.154 632.027 482.284 630.471 489.357 630.471C496.43 630.471 502.56 632.027 507.747 635.139C512.934 638.251 516.942 642.621 519.771 648.247C522.632 653.874 524.062 660.429 524.062 667.91C524.062 675.392 522.632 681.931 519.771 687.526C516.942 693.122 512.934 697.475 507.747 700.588C502.56 703.7 496.43 705.256 489.357 705.256ZM489.451 691.581C493.287 691.581 496.493 690.528 499.071 688.422C501.648 686.284 503.566 683.424 504.823 679.84C506.112 676.256 506.757 672.264 506.757 667.863C506.757 663.431 506.112 659.423 504.823 655.839C503.566 652.224 501.648 649.348 499.071 647.21C496.493 645.072 493.287 644.004 489.451 644.004C485.522 644.004 482.253 645.072 479.644 647.21C477.066 649.348 475.133 652.224 473.844 655.839C472.586 659.423 471.958 663.431 471.958 667.863C471.958 672.264 472.586 676.256 473.844 679.84C475.133 683.424 477.066 686.284 479.644 688.422C482.253 690.528 485.522 691.581 489.451 691.581Z" fill="black"/>
<path d="M392.672 703.841V607.271H454.537V621.936H410.166V648.153H450.293V662.818H410.166V703.841H392.672Z" fill="black"/>
<path d="M351.911 705.256C344.649 705.256 338.378 703.747 333.097 700.729C327.847 697.68 323.807 693.373 320.978 687.809C318.149 682.214 316.734 675.628 316.734 668.052C316.734 660.602 318.149 654.063 320.978 648.436C323.839 642.778 327.831 638.377 332.955 635.233C338.079 632.058 344.099 630.471 351.015 630.471C355.479 630.471 359.691 631.194 363.652 632.64C367.644 634.054 371.165 636.255 374.214 639.241C377.295 642.228 379.715 646.031 381.476 650.652C383.236 655.242 384.116 660.712 384.116 667.062V672.296H324.75V660.79H367.754C367.723 657.521 367.015 654.613 365.632 652.067C364.249 649.489 362.316 647.462 359.832 645.984C357.38 644.507 354.52 643.768 351.251 643.768C347.761 643.768 344.696 644.617 342.056 646.314C339.415 647.98 337.356 650.181 335.879 652.916C334.433 655.619 333.694 658.59 333.662 661.828V671.871C333.662 676.084 334.433 679.699 335.973 682.716C337.513 685.703 339.667 687.998 342.433 689.601C345.199 691.173 348.437 691.959 352.146 691.959C354.63 691.959 356.878 691.613 358.889 690.921C360.901 690.198 362.646 689.145 364.123 687.762C365.601 686.379 366.717 684.665 367.471 682.622L383.409 684.414C382.403 688.626 380.486 692.304 377.656 695.448C374.859 698.56 371.275 700.981 366.905 702.709C362.536 704.407 357.538 705.256 351.911 705.256Z" fill="black"/>
<path d="M276.82 703.842V631.414H293.371V643.486H294.126C295.446 639.305 297.709 636.082 300.916 633.819C304.153 631.524 307.847 630.377 311.997 630.377C312.94 630.377 313.993 630.424 315.156 630.518C316.35 630.581 317.341 630.691 318.127 630.848V646.551C317.404 646.299 316.256 646.079 314.684 645.89C313.144 645.67 311.651 645.56 310.205 645.56C307.093 645.56 304.295 646.236 301.812 647.588C299.36 648.908 297.426 650.747 296.012 653.105C294.597 655.462 293.89 658.182 293.89 661.262V703.842H276.82Z" fill="black"/>
<path d="M234.267 705.256C227.194 705.256 221.064 703.7 215.878 700.588C210.691 697.475 206.667 693.122 203.806 687.526C200.977 681.931 199.562 675.392 199.562 667.91C199.562 660.429 200.977 653.874 203.806 648.247C206.667 642.621 210.691 638.251 215.878 635.139C221.064 632.027 227.194 630.471 234.267 630.471C241.34 630.471 247.47 632.027 252.657 635.139C257.844 638.251 261.852 642.621 264.681 648.247C267.542 653.874 268.972 660.429 268.972 667.91C268.972 675.392 267.542 681.931 264.681 687.526C261.852 693.122 257.844 697.475 252.657 700.588C247.47 703.7 241.34 705.256 234.267 705.256ZM234.362 691.581C238.197 691.581 241.403 690.528 243.981 688.422C246.559 686.284 248.476 683.424 249.734 679.84C251.022 676.256 251.667 672.264 251.667 667.863C251.667 663.431 251.022 659.423 249.734 655.839C248.476 652.224 246.559 649.348 243.981 647.21C241.403 645.072 238.197 644.004 234.362 644.004C230.432 644.004 227.163 645.072 224.554 647.21C221.976 649.348 220.043 652.224 218.754 655.839C217.496 659.423 216.868 663.431 216.868 667.863C216.868 672.264 217.496 676.256 218.754 679.84C220.043 683.424 221.976 686.284 224.554 688.422C227.163 690.528 230.432 691.581 234.362 691.581Z" fill="black"/>
<path d="M89.7344 607.271H111.142L139.811 677.247H140.943L169.612 607.271H191.02V703.841H174.233V637.497H173.337L146.648 703.558H134.106L107.417 637.355H106.521V703.841H89.7344V607.271Z" fill="black"/>
<path d="M822 802.223H816.746L831.943 760.836H837.116L852.313 802.223H847.059L834.691 767.384H834.368L822 802.223ZM823.94 786.056H845.119V790.502H823.94V786.056Z" fill="black"/>
<path d="M770.418 760.836V802.223H765.406V760.836H770.418Z" fill="black"/>
<path d="M711.916 771.183C711.673 769.135 710.69 767.546 708.965 766.414C707.241 765.282 705.126 764.716 702.62 764.716C700.788 764.716 699.184 765.013 697.81 765.606C696.45 766.198 695.385 767.013 694.617 768.051C693.863 769.088 693.486 770.267 693.486 771.587C693.486 772.692 693.748 773.642 694.274 774.437C694.813 775.218 695.5 775.871 696.335 776.397C697.17 776.909 698.046 777.333 698.962 777.67C699.878 777.993 700.72 778.256 701.488 778.458L705.692 779.59C706.769 779.873 707.968 780.263 709.289 780.762C710.623 781.26 711.896 781.941 713.108 782.803C714.334 783.652 715.345 784.743 716.139 786.077C716.934 787.411 717.332 789.047 717.332 790.987C717.332 793.224 716.746 795.245 715.574 797.05C714.415 798.855 712.717 800.29 710.481 801.354C708.258 802.419 705.557 802.951 702.377 802.951C699.413 802.951 696.847 802.473 694.678 801.516C692.522 800.56 690.825 799.226 689.585 797.515C688.359 795.804 687.666 793.817 687.504 791.553H692.677C692.812 793.116 693.337 794.409 694.254 795.433C695.183 796.444 696.355 797.198 697.77 797.697C699.198 798.182 700.734 798.424 702.377 798.424C704.29 798.424 706.008 798.114 707.531 797.495C709.053 796.861 710.259 795.986 711.148 794.868C712.037 793.736 712.482 792.416 712.482 790.907C712.482 789.532 712.098 788.414 711.33 787.552C710.562 786.69 709.551 785.989 708.299 785.45C707.046 784.911 705.692 784.44 704.237 784.036L699.144 782.581C695.911 781.651 693.351 780.324 691.465 778.6C689.579 776.875 688.636 774.619 688.636 771.83C688.636 769.513 689.262 767.492 690.515 765.767C691.781 764.029 693.479 762.682 695.608 761.726C697.75 760.756 700.141 760.271 702.782 760.271C705.449 760.271 707.82 760.749 709.895 761.705C711.97 762.648 713.613 763.942 714.826 765.585C716.052 767.229 716.699 769.095 716.766 771.183H711.916Z" fill="black"/>
<path d="M615.438 802.223V760.836H640.415V765.282H620.449V779.266H639.122V783.712H620.449V797.777H640.739V802.223H615.438Z" fill="black"/>
<path d="M565.573 760.836V802.223H560.723L538.17 769.728H537.766V802.223H532.754V760.836H537.604L560.237 793.412H560.642V760.836H565.573Z" fill="black"/>
<path d="M484.494 781.53C484.494 785.895 483.706 789.667 482.13 792.847C480.553 796.026 478.391 798.478 475.643 800.203C472.894 801.927 469.755 802.789 466.226 802.789C462.696 802.789 459.557 801.927 456.808 800.203C454.06 798.478 451.898 796.026 450.321 792.847C448.745 789.667 447.957 785.895 447.957 781.53C447.957 777.165 448.745 773.393 450.321 770.213C451.898 767.034 454.06 764.582 456.808 762.857C459.557 761.133 462.696 760.271 466.226 760.271C469.755 760.271 472.894 761.133 475.643 762.857C478.391 764.582 480.553 767.034 482.13 770.213C483.706 773.393 484.494 777.165 484.494 781.53ZM479.644 781.53C479.644 777.946 479.044 774.922 477.845 772.456C476.66 769.991 475.05 768.125 473.016 766.858C470.995 765.592 468.731 764.959 466.226 764.959C463.72 764.959 461.45 765.592 459.415 766.858C457.394 768.125 455.784 769.991 454.585 772.456C453.4 774.922 452.807 777.946 452.807 781.53C452.807 785.114 453.4 788.138 454.585 790.604C455.784 793.069 457.394 794.935 459.415 796.201C461.45 797.468 463.72 798.101 466.226 798.101C468.731 798.101 470.995 797.468 473.016 796.201C475.05 794.935 476.66 793.069 477.845 790.604C479.044 788.138 479.644 785.114 479.644 781.53Z" fill="black"/>
<path d="M381.608 802.223H368.836V760.836H382.174C386.188 760.836 389.624 761.664 392.48 763.322C395.336 764.965 397.525 767.33 399.048 770.415C400.57 773.486 401.331 777.164 401.331 781.449C401.331 785.76 400.563 789.471 399.027 792.584C397.492 795.682 395.255 798.067 392.318 799.737C389.381 801.394 385.811 802.223 381.608 802.223ZM373.848 797.777H381.284C384.706 797.777 387.542 797.117 389.792 795.797C392.042 794.476 393.719 792.597 394.824 790.159C395.929 787.72 396.481 784.817 396.481 781.449C396.481 778.107 395.936 775.231 394.844 772.82C393.753 770.395 392.123 768.535 389.954 767.242C387.785 765.935 385.084 765.282 381.85 765.282H373.848V797.777Z" fill="black"/>
<path d="M318.971 760.836V802.223H314.121L291.568 769.728H291.164V802.223H286.152V760.836H291.002L313.636 793.412H314.04V760.836H318.971Z" fill="black"/>
<path d="M236.27 760.836V802.223H231.258V760.836H236.27Z" fill="black"/>
<defs>
<linearGradient id="paint0_linear_3029_4654" x1="611.265" y1="257.108" x2="739.94" y2="536.512" gradientUnits="userSpaceOnUse">
<stop offset="0.11" stop-color="#E6214D"/>
<stop offset="1" stop-color="#E60013"/>
</linearGradient>
</defs>
</svg>
