<svg width="600" height="400" viewBox="0 0 600 400" fill="none" xmlns="http://www.w3.org/2000/svg">
<g clip-path="url(#clip0_814_447)">
<path fill-rule="evenodd" clip-rule="evenodd" d="M392.698 151.351C390.71 150.829 386.762 139.407 389.885 140.167C407.288 144.637 423.363 154.575 437.102 163.598C451.859 173.255 464.134 186.252 472.934 201.536C475.004 204.953 469.618 206.336 467.868 203.468C459.881 189.784 452.188 178.417 439.135 169.835C425.598 160.95 409.954 155.784 392.698 151.351ZM570.574 208.204C572.013 208.982 582.729 202.12 580.512 200.876C568.156 194.208 552.695 191.249 538.177 191.14C523.128 191.02 506.284 196.287 487.516 205.593C483.531 207.508 485.299 211.143 488.661 209.55C504.497 201.699 518.586 197.02 532.415 197.121C546.75 197.231 558.382 201.591 570.62 208.204L570.574 208.204ZM503.948 184.609C493.232 196.223 482.449 179.964 476.242 171.51C474.273 169.55 468.439 171.455 471.085 174.432C478.89 185.057 493.627 199.108 506.276 185.424C506.698 184.966 506.523 184.416 505.873 184.205C505.545 184.099 505.195 184.08 504.857 184.151C504.519 184.222 504.206 184.379 503.948 184.609Z" fill="#F20100"/>
<path fill-rule="evenodd" clip-rule="evenodd" d="M25.9795 177.635H39.3983C46.2617 177.635 50.9544 178.551 53.4764 180.383C55.9859 182.214 56.9112 185.201 56.2244 189.467L55.7755 192.281C55.1178 196.33 53.3025 199.306 50.28 201.211C47.2574 203.116 42.9519 204.079 37.2731 204.079H33.7469L30.999 220.941H19L25.9795 177.635ZM278.397 194.699L274.174 220.904H264.098L264.327 216.764C263.15 218.269 261.718 219.555 260.096 220.565C258.784 221.343 257.289 221.758 255.763 221.765C253.015 221.765 251.184 220.941 250.14 219.265C249.095 217.588 248.903 215.042 249.434 211.644L250.13 207.357C250.298 205.94 250.801 204.584 251.597 203.401C252.394 202.217 253.461 201.24 254.71 200.552C257.275 199.123 261.488 198.216 267.359 197.877L267.753 195.404C268.068 194.122 268.096 192.787 267.835 191.493C267.707 191.159 267.47 190.879 267.163 190.696C266.855 190.513 266.496 190.439 266.141 190.485C265.711 190.457 265.281 190.531 264.885 190.699C264.489 190.868 264.138 191.127 263.86 191.456C263.201 192.464 262.798 193.619 262.688 194.818L262.597 195.405H253.299L253.4 194.747C254.011 190.846 255.353 188.137 257.429 186.623C259.504 185.109 262.862 184.358 267.504 184.37C272.255 184.37 275.412 185.118 276.975 186.614C278.538 188.11 278.999 190.821 278.358 194.748L278.397 194.699ZM266.416 203.914C264.901 203.934 263.421 204.372 262.139 205.178C261.189 206.053 260.604 207.253 260.499 208.54L260.133 210.857C259.832 212.06 259.832 213.318 260.133 214.521C260.296 214.856 260.561 215.13 260.89 215.305C261.219 215.479 261.595 215.545 261.964 215.492C262.384 215.516 262.803 215.437 263.185 215.261C263.566 215.085 263.899 214.819 264.154 214.484C264.816 213.367 265.217 212.115 265.326 210.82L266.453 203.878L266.416 203.914ZM232.242 189.661C233.546 188.055 235.11 186.677 236.867 185.585C238.296 184.751 239.921 184.315 241.575 184.321C244.25 184.321 246 185.069 246.824 186.565C247.658 188.058 247.74 190.824 247.099 194.809L242.895 220.877H232.544L236.573 195.89C236.854 194.781 236.854 193.619 236.573 192.51C236.409 192.196 236.152 191.939 235.838 191.775C235.523 191.612 235.166 191.548 234.814 191.594C234.413 191.575 234.013 191.655 233.649 191.826C233.285 191.996 232.968 192.253 232.726 192.574C232.108 193.598 231.724 194.746 231.603 195.935L227.582 220.922H217.141L221.169 195.935C221.445 194.832 221.445 193.677 221.169 192.574C221.018 192.245 220.766 191.972 220.45 191.796C220.134 191.62 219.77 191.549 219.41 191.594C219.01 191.575 218.611 191.654 218.249 191.825C217.887 191.996 217.572 192.253 217.331 192.574C216.704 193.594 216.316 194.744 216.195 195.935L212.174 220.922H201.768L207.52 185.201H217.761L217.395 189.341C218.627 187.837 220.108 186.554 221.773 185.549C223.107 184.761 224.627 184.34 226.177 184.33C227.784 184.231 229.372 184.726 230.637 185.722C231.174 186.224 231.595 186.836 231.872 187.516C232.149 188.196 232.275 188.928 232.242 189.661ZM200.111 194.699L195.888 220.904H185.812L186.05 216.764C184.868 218.267 183.433 219.554 181.81 220.565C180.492 221.346 178.99 221.761 177.459 221.765C174.711 221.765 172.879 220.941 171.844 219.265C170.809 217.588 170.57 215.042 171.13 211.598L171.817 207.312C171.983 205.894 172.485 204.537 173.282 203.354C174.078 202.17 175.146 201.194 176.397 200.506C178.961 199.077 183.184 198.17 189.046 197.832L189.44 195.359C189.756 194.077 189.787 192.742 189.531 191.447C189.4 191.116 189.163 190.837 188.856 190.654C188.549 190.472 188.191 190.397 187.837 190.44C187.407 190.412 186.977 190.485 186.581 190.654C186.185 190.822 185.834 191.082 185.556 191.411C184.89 192.416 184.484 193.571 184.375 194.772L184.283 195.359H175.014L175.124 194.701C175.734 190.799 177.074 188.091 179.145 186.577C181.205 185.075 184.564 184.324 189.22 184.324C193.873 184.324 197.134 185.075 198.691 186.568C200.248 188.061 200.705 190.772 200.074 194.701L200.111 194.699ZM188.13 203.914C186.621 203.938 185.148 204.375 183.871 205.178C182.914 206.048 182.328 207.251 182.231 208.54L181.856 210.857C181.555 212.06 181.555 213.318 181.856 214.521C182.019 214.856 182.284 215.13 182.613 215.305C182.942 215.479 183.318 215.545 183.687 215.492C184.105 215.514 184.522 215.434 184.902 215.259C185.281 215.083 185.612 214.817 185.866 214.484C186.528 213.367 186.929 212.115 187.038 210.82L188.165 203.878L188.13 203.914ZM173.355 185.082C173.214 185.092 173.074 185.092 172.933 185.082H172.531C171.241 185.074 169.974 185.419 168.867 186.08C167.443 186.991 166.172 188.123 165.102 189.432L165.496 185.228H155.265L149.504 220.949H160.056L163.39 200.314C163.828 197.554 164.689 195.633 165.973 194.553C167.255 193.462 169.316 192.895 172.128 192.849L173.355 185.082ZM147.096 200.341L146.224 205.745C145.235 211.851 143.599 216.046 141.315 218.33C139.032 220.614 135.42 221.759 130.479 221.765C125.552 221.765 122.306 220.62 120.743 218.33C119.18 216.04 118.875 211.845 119.827 205.745L120.743 200.341C121.726 194.235 123.359 190.042 125.643 187.765C127.927 185.487 131.53 184.339 136.451 184.321C141.404 184.321 144.661 185.463 146.224 187.747C147.788 190.03 148.078 194.229 147.096 200.341ZM137.35 195.449C137.653 194.157 137.653 192.812 137.35 191.52C137.207 191.163 136.95 190.863 136.618 190.667C136.287 190.472 135.9 190.392 135.518 190.439C135.09 190.416 134.663 190.5 134.276 190.684C133.889 190.868 133.554 191.146 133.302 191.493C132.624 192.7 132.206 194.035 132.074 195.413L129.617 210.609C129.315 211.898 129.315 213.24 129.617 214.529C129.767 214.88 130.026 215.172 130.357 215.36C130.688 215.549 131.072 215.624 131.45 215.573C131.887 215.599 132.324 215.513 132.719 215.324C133.115 215.135 133.456 214.849 133.71 214.492C134.388 213.299 134.806 211.975 134.938 210.609L137.393 195.413L137.35 195.449ZM115.99 194.836L111.785 220.904H101.18L105.208 195.917C105.458 194.798 105.458 193.638 105.208 192.519C105.08 192.212 104.855 191.957 104.567 191.791C104.279 191.625 103.944 191.559 103.615 191.603C103.228 191.589 102.843 191.674 102.497 191.848C102.151 192.023 101.855 192.282 101.636 192.602C101.038 193.625 100.669 194.765 100.556 195.945L96.5268 220.932H86.02L91.7814 185.211H102.031L101.655 189.351C102.885 187.846 104.359 186.558 106.015 185.54C107.348 184.753 108.865 184.333 110.413 184.321C113.088 184.321 114.856 185.072 115.689 186.574C116.523 188.076 116.604 190.842 115.97 194.818L115.99 194.836ZM84.3716 194.698C84.9822 190.766 84.5211 188.055 82.9884 186.565C81.4556 185.075 78.2987 184.327 73.5174 184.321C68.8277 184.321 65.4692 185.072 63.4418 186.574C61.4145 188.076 60.0717 190.784 59.4134 194.698L59.3127 195.356H68.6097L68.7014 194.77C68.8117 193.57 69.2142 192.416 69.8738 191.408C70.1484 191.083 70.4949 190.826 70.8859 190.657C71.2769 190.489 71.7017 190.413 72.1268 190.437C72.4915 190.385 72.8629 190.462 73.1771 190.654C73.4914 190.846 73.7289 191.142 73.8488 191.49C74.1092 192.784 74.0812 194.12 73.7665 195.401L73.3727 197.874C67.5015 198.213 63.2971 199.12 60.7235 200.549C59.4752 201.239 58.4089 202.216 57.6126 203.399C56.8163 204.582 56.3129 205.938 56.1438 207.354L55.4088 211.642C54.853 215.086 55.0912 217.641 56.1232 219.308C57.1509 220.985 59.036 221.809 61.747 221.809C63.2722 221.802 64.7679 221.387 66.0796 220.609C67.6988 219.584 69.1251 218.281 70.293 216.762L70.0641 220.902H80.1397L84.3716 194.698ZM72.3812 203.914L71.264 210.857C71.1572 212.153 70.7529 213.407 70.0826 214.521C69.8308 214.856 69.5001 215.123 69.1199 215.299C68.7398 215.474 68.322 215.553 67.9039 215.528C67.5351 215.581 67.159 215.516 66.8298 215.341C66.5006 215.167 66.2353 214.892 66.0722 214.557C65.7671 213.355 65.7671 212.096 66.0722 210.894L66.4479 208.576C66.5459 207.29 67.1285 206.088 68.0782 205.215C69.3582 204.41 70.8349 203.973 72.3467 203.951L72.3812 203.914ZM36.9635 184.092L34.7849 197.639H35.9206C38.2197 197.639 39.9051 197.245 40.9402 196.439C41.9752 195.633 42.6712 194.241 43.0012 192.125L43.4172 189.551C43.7461 187.499 43.5089 186.071 42.7303 185.283C41.9518 184.495 40.4037 184.091 38.1046 184.091L36.9635 184.092Z" fill="#FF6600"/>
<path d="M280.659 220.96L286.31 185.238V185.129H292.246V185.284L291.33 190.779C292.028 189.889 292.8 189.058 293.638 188.297C294.508 187.509 295.471 186.829 296.505 186.273C297.493 185.741 298.546 185.341 299.637 185.081C300.784 184.812 301.959 184.68 303.136 184.687C305.72 184.687 307.716 185.228 309.099 186.317C309.8 186.863 310.361 187.566 310.739 188.369C311.098 189.166 311.321 190.017 311.397 190.888C312.173 189.944 313.021 189.062 313.934 188.25C314.833 187.468 315.813 186.784 316.856 186.208C318.78 185.158 320.937 184.607 323.13 184.604C324.455 184.589 325.776 184.768 327.05 185.136C328.157 185.451 329.188 185.987 330.082 186.711C330.926 187.384 331.609 188.239 332.079 189.212C332.554 190.249 332.822 191.369 332.866 192.509V194.213C332.866 194.561 332.802 194.882 332.766 195.248C332.729 195.614 332.674 195.963 332.619 196.338L328.561 221.069V221.178H321.959V221.023L326.246 195.614C326.261 195.423 326.292 195.233 326.337 195.046L326.392 194.533V193.619C326.377 193.12 326.258 192.63 326.044 192.18C325.844 191.771 325.549 191.416 325.183 191.145C324.764 190.849 324.291 190.638 323.791 190.522C323.155 190.37 322.503 190.299 321.849 190.312C320.588 190.308 319.339 190.57 318.185 191.081C316.95 191.625 315.82 192.385 314.851 193.325C313.812 194.353 312.951 195.548 312.305 196.86C311.632 198.252 311.172 199.737 310.94 201.266L307.634 220.997V221.107H301.221V220.952L305.352 195.305C305.37 195.132 305.401 194.96 305.444 194.792C305.471 194.619 305.489 194.445 305.499 194.27V193.371C305.482 192.919 305.379 192.475 305.197 192.062C305.015 191.683 304.748 191.35 304.418 191.091C304.055 190.809 303.642 190.601 303.2 190.477C302.673 190.326 302.126 190.255 301.578 190.266C300.234 190.254 298.9 190.5 297.648 190.99C296.389 191.502 295.237 192.244 294.25 193.179C293.209 194.134 292.342 195.262 291.685 196.513C291.035 197.816 290.592 199.213 290.375 200.653L286.922 220.987V221.097H280.659V220.96Z" fill="#FF6600"/>
<path d="M342.137 199.937H362.089C362.129 199.735 362.15 199.53 362.153 199.324C362.157 199.018 362.141 198.712 362.107 198.408C362.113 195.976 361.215 193.629 359.588 191.822C358.8 191.019 357.853 190.39 356.806 189.976C355.76 189.563 354.638 189.373 353.514 189.421C352.194 189.382 350.881 189.604 349.648 190.076C348.415 190.548 347.289 191.259 346.333 192.169C344.148 194.264 342.68 196.995 342.138 199.973L342.137 199.937ZM367.06 209.317C366.593 213.012 364.724 216.386 361.84 218.742C358.749 221.092 354.939 222.296 351.059 222.149C346.369 222.149 342.706 220.812 340.068 218.137C337.43 215.462 335.98 211.612 335.717 206.586C335.378 199.992 336.834 194.578 340.115 190.39C341.647 188.378 343.639 186.762 345.925 185.678C348.21 184.594 350.722 184.074 353.25 184.162C357.665 184.162 361.249 185.466 364.003 188.073C366.757 190.681 368.243 194.196 368.46 198.618C368.46 199.461 368.506 200.395 368.46 201.413C368.415 202.432 368.36 203.575 368.24 204.857H341.412V205.031C341.412 206.011 341.357 206.689 341.412 207.092C341.519 209.841 342.641 212.452 344.563 214.42C346.239 216.114 348.592 216.957 351.607 216.957C353.827 217.034 355.999 216.302 357.72 214.897C359.44 213.492 360.591 211.509 360.958 209.318L367.06 209.317Z" fill="#FF6600"/>
<path d="M404.962 220.979L410.614 185.275H416.604L410.89 220.979H404.962Z" fill="#FF6600"/>
<path d="M441.179 203.017C438.888 203.781 436.502 204.219 434.089 204.317C432.15 204.415 430.219 204.641 428.31 204.995C426.851 205.246 425.524 205.994 424.554 207.112C423.718 208.273 423.339 209.701 423.492 211.124C423.503 211.908 423.67 212.683 423.985 213.402C424.3 214.121 424.755 214.769 425.323 215.31C426.535 216.379 428.115 216.934 429.729 216.858C431.257 216.933 432.782 216.653 434.184 216.039C435.585 215.426 436.826 214.496 437.808 213.323C439.731 210.969 440.867 207.534 441.188 202.991L441.179 203.017ZM438.431 221.272L438.889 218.167C436.238 220.733 432.677 222.143 428.988 222.087C425.519 222.087 422.771 221.119 420.744 219.184C418.615 217.052 417.419 214.163 417.419 211.151C417.218 207.334 418.28 204.513 420.607 202.687C422.942 200.856 426.963 199.774 432.706 199.417H433.173C439.622 198.996 442.763 197.204 442.599 194.041C442.603 193.362 442.437 192.694 442.117 192.095C441.797 191.497 441.333 190.988 440.767 190.615C439.161 189.785 437.359 189.411 435.555 189.534C432.249 189.534 429.968 189.974 428.74 190.835C427.513 191.695 426.67 193.317 426.24 195.671H420.314C420.741 191.916 422.198 189.098 424.683 187.216C427.168 185.335 430.703 184.397 435.288 184.404C439.454 184.404 442.693 185.134 445.007 186.593C446.092 187.219 446.998 188.113 447.64 189.189C448.281 190.265 448.636 191.487 448.671 192.739C448.684 193.174 448.663 193.609 448.606 194.04C448.542 194.626 448.423 195.588 448.222 196.98L444.402 221.262L438.431 221.272Z" fill="#FF6600"/>
<path d="M370.22 220.977L376.083 184.165H388.759C390.928 184.101 393.097 184.279 395.226 184.696C397.099 185.09 398.825 186 400.208 187.323C401.924 189.042 403.091 191.232 403.56 193.616C404.123 196.503 404.142 199.47 403.615 202.363C403.235 204.933 402.505 207.439 401.444 209.81C400.588 211.752 399.456 213.56 398.082 215.177C396.967 216.482 395.657 217.606 394.199 218.512C392.742 219.365 391.159 219.984 389.509 220.343C387.537 220.781 385.52 220.99 383.5 220.966L370.22 220.977ZM376.412 215.866H383.841C385.694 215.921 387.545 215.705 389.336 215.225C390.586 214.855 391.746 214.231 392.744 213.393C394.115 212.16 395.221 210.661 395.995 208.987C396.984 206.863 397.651 204.603 397.974 202.282C398.56 198.619 398.404 195.87 397.525 193.902C396.839 192.155 395.498 190.745 393.788 189.972C391.9 189.394 389.925 189.152 387.953 189.258H380.626L376.412 215.866Z" fill="#FF6600"/>
</g>
<defs>
<clipPath id="clip0_814_447">
<rect width="562" height="120.031" fill="white" transform="translate(19 140)"/>
</clipPath>
</defs>
</svg>
