<svg width="355" height="177" fill="none" xmlns="http://www.w3.org/2000/svg"><g clip-path="url(#a)"><path d="M230.213 79.558h.174a.611.611 0 0 0-.174 0Z" fill="#FFF200"/><path d="M103.972 81.849a.067.067 0 0 1-.01-.034c0-.012.004-.024.01-.034a305.786 305.786 0 0 0 2.064-5.292c1.179-3.069 2.404-6.236 3.779-9.29a97.9 97.9 0 0 1 10.175-18.066 64.39 64.39 0 0 1 13.984-14.21 66.937 66.937 0 0 1 17.242-9.071 72.611 72.611 0 0 1 24.189-4.15 68.128 68.128 0 0 1 50.494 22.02c9.297 9.826 15.624 21.247 18.285 33.1.105.438.196.884.287 1.323a.09.09 0 0 1 0 .06h-.038a28.791 28.791 0 0 0-2.608-.945 27.044 27.044 0 0 0-8.02-1.171c-1.518 0-3.034.114-4.535.34a.065.065 0 0 1-.028-.008.061.061 0 0 1-.029-.047c-.001-.01 0-.02.004-.028a5.324 5.324 0 0 0-.219-.862c-.265-.756-.582-1.512-.854-2.162a90.002 90.002 0 0 0-1.595-3.522 74.165 74.165 0 0 0-3.719-6.803 66.046 66.046 0 0 0-9.653-12.2 50.692 50.692 0 0 0-25.625-13.901 51.709 51.709 0 0 0-10.008-.976 55.503 55.503 0 0 0-16.275 2.472 61.846 61.846 0 0 0-23.175 13.228 54.186 54.186 0 0 0-14.703 21.86c-.296.852-.506 1.73-.627 2.624a.061.061 0 0 1-.02.038.06.06 0 0 1-.04.015c-.643 0-1.301-.06-1.943-.06-2.083 0-4.16.215-6.198.642a25.145 25.145 0 0 0-7.9 3.182 19.233 19.233 0 0 0-2.623 1.913l-.068.015Z" fill="#E98AB9"/><path d="M175.457 21.74a70.384 70.384 0 0 1 16.199 1.874 69.41 69.41 0 0 1 34.249 20.13c8.723 9.169 15.481 20.644 18.278 33.07.098.439.189.877.28 1.323a26.747 26.747 0 0 0-10.651-2.124c-1.518 0-3.034.113-4.535.34a5.884 5.884 0 0 0-.22-.876c-.257-.756-.551-1.444-.854-2.162a82.293 82.293 0 0 0-1.602-3.53 74.823 74.823 0 0 0-3.719-6.803 65.879 65.879 0 0 0-9.668-12.254 49.608 49.608 0 0 0-35.671-14.89 55.72 55.72 0 0 0-16.29 2.479 61.763 61.763 0 0 0-23.198 13.258 53.984 53.984 0 0 0-14.732 21.921c-.297.857-.51 1.74-.635 2.638-.65 0-1.3-.06-1.951-.06a29.96 29.96 0 0 0-6.205.642 25.287 25.287 0 0 0-7.93 3.19 20.131 20.131 0 0 0-2.63 1.92c1.957-4.838 3.704-9.774 5.82-14.551a99.375 99.375 0 0 1 10.242-18.142 64.927 64.927 0 0 1 13.992-14.195 66.935 66.935 0 0 1 17.219-9.071 72.78 72.78 0 0 1 24.189-4.15m0-.12a72.564 72.564 0 0 0-24.249 4.157 66.93 66.93 0 0 0-17.257 9.07 64.853 64.853 0 0 0-14.014 14.219 97.977 97.977 0 0 0-10.25 18.141c-1.361 3.024-2.578 6.221-3.78 9.29-.665 1.724-1.353 3.515-2.056 5.292a.113.113 0 0 0 .038.143.121.121 0 0 0 .068 0c.027.01.056.01.083 0a20.422 20.422 0 0 1 2.615-1.912 25.397 25.397 0 0 1 7.884-3.167 30.07 30.07 0 0 1 6.184-.643c.642 0 1.292 0 1.942.06a.123.123 0 0 0 .114-.106c.128-.89.34-1.765.635-2.615a54.077 54.077 0 0 1 14.702-21.838 61.842 61.842 0 0 1 23.145-13.205 55.4 55.4 0 0 1 16.26-2.472c3.357 0 6.706.326 10 .975a50.535 50.535 0 0 1 25.587 13.879 66.18 66.18 0 0 1 9.646 12.23 72.05 72.05 0 0 1 3.711 6.803 93.588 93.588 0 0 1 1.603 3.523c.272.634.582 1.383.854 2.161.091.28.161.565.211.855a.126.126 0 0 0 .043.07.12.12 0 0 0 .078.028 30.488 30.488 0 0 1 4.536-.34 27.098 27.098 0 0 1 7.997 1.164c.892.28 1.769.597 2.6.952h.053c.025.01.051.01.076 0a.1.1 0 0 0 .036-.05.103.103 0 0 0 .002-.063c-.084-.446-.182-.885-.28-1.33-2.661-11.86-8.995-23.312-18.3-33.124a68.266 68.266 0 0 0-50.494-22.125l-.023-.023Z" fill="#171815"/><path d="M88.46 80.39c.306.297.562.641.757 1.02a13.607 13.607 0 0 1 11.988 1.739c.151.103.286.228.401.37.189-.831.385-1.648.589-2.48a103.03 103.03 0 0 1 7.507-20.068 86.508 86.508 0 0 1 11.527-17.99 68.66 68.66 0 0 1 34.068-21.604 74.654 74.654 0 0 1 42.527.59c13.198 4.225 24.771 12.457 33.69 23.001 8.451 9.993 14.823 22.148 16.743 35.195.492.325.983.673 1.452 1.036a16.266 16.266 0 0 1 2.865 2.759c.13-.331.36-.614.657-.81a13.607 13.607 0 0 1 4.044-1.912 13.132 13.132 0 0 1 6.758-.136 56.782 56.782 0 0 0-.355-5.185 70.963 70.963 0 0 0-8.134-24.945 95.604 95.604 0 0 0-15.594-21.58C228.408 17.46 213.161 9.622 197.083 5.865a101.138 101.138 0 0 0-52.217 1.693 85.533 85.533 0 0 0-24.363 11.8 84.132 84.132 0 0 0-17.34 16.546A85.87 85.87 0 0 0 91.069 56.52a109.34 109.34 0 0 0-6.047 21.339c.59.37 1.171.755 1.738 1.171.596.416 1.164.87 1.7 1.36Z" fill="#FFCC3A"/><path d="M350.954 136.749a1.49 1.49 0 0 1 0-.189c0-.143-.053-.294-.076-.446a18.969 18.969 0 0 0-.952-3.394c0-.068-.128-.317-.128-.325l-.114-.257a17.314 17.314 0 0 0-1.27-2.328 19.127 19.127 0 0 0-.544-.801l-.227-.317-.106-.137c-.385-.468-.756-.929-1.186-1.368a23.853 23.853 0 0 0-1.263-1.217 12.369 12.369 0 0 0-.756-.635l-.151-.113-.31-.234a21.715 21.715 0 0 0-3.106-1.898 17.098 17.098 0 0 0-.824-.385l-.182-.076-.476-.196-.091-.038h-.083l-.189-.076-.423-.158-.801-.265a24.759 24.759 0 0 0-3.462-.794l-.341-.053-.393-.045a7.497 7.497 0 0 1-.997-.181 4.767 4.767 0 0 1-.371 1.829c-.211.484-.922.287-1.058-.144-.227-.71-.272-1.474-.438-2.207a.64.64 0 0 1-.205-.756 10.002 10.002 0 0 0-.68-1.625 12.608 12.608 0 0 0-2.404-3.432 8.869 8.869 0 0 0-.854-.756l-.053-.037-.166-.129c-.144-.106-.295-.204-.446-.302a9.38 9.38 0 0 0-1.051-.597l-.257-.129-.189-.083-.34-.136a11.738 11.738 0 0 0-2.267-.582h-.416l-.567-.038h-1.066l-.635.045H318.692c-.37.061-.756.136-1.111.235-.756.204-1.716.756-2.517.453a1.297 1.297 0 0 1-.816-.846.465.465 0 0 1 0-.182c0-.582-.076-1.171 0-1.746.223-2.395.238-4.806.045-7.204 0-.31-.068-.627-.106-.937v-.227c0-.068 0-.287-.06-.438a29 29 0 0 0-.333-1.807 31.126 31.126 0 0 0-.952-3.5 41.242 41.242 0 0 0-.62-1.678l-.121-.294v-.053l-.136-.303c-.121-.272-.242-.544-.37-.816a35.283 35.283 0 0 0-1.739-3.182c-.31-.507-.635-.998-.975-1.512-.182-.257-.363-.514-.56-.756l-.151-.204-.038-.053-.037-.045-.159-.204a30.153 30.153 0 0 0-2.419-2.684 30.005 30.005 0 0 0-1.361-1.24 13.96 13.96 0 0 0-.68-.567l-.332-.264-.152-.114a27.64 27.64 0 0 0-3.023-1.98 29.194 29.194 0 0 0-1.678-.854l-.832-.378-.151-.068-.423-.166a28.76 28.76 0 0 0-3.515-1.112 27.186 27.186 0 0 0-1.837-.385c-.317-.06-.642-.113-.96-.159h-.174l-.385-.045a31.757 31.757 0 0 0-7.385 0h-.235l-.446.068c-.302.045-.597.098-.899.159-.62.113-1.232.25-1.837.4a31.863 31.863 0 0 0-3.53 1.111l-.484.19-.28.12c-.219.091-.446.19-.665.295-.567.257-1.126.537-1.678.832a29.624 29.624 0 0 0-3.129 1.957c-.484.356-.975.703-1.452 1.059a7.993 7.993 0 0 1 3.092 3.212c.287.59-.325 1.346-.952.953a33.696 33.696 0 0 0-3.78-2.268 12.485 12.485 0 0 0-3.87-1.081 10.942 10.942 0 0 0-4.377.476 8.94 8.94 0 0 0-1.882.756c-.355.19-.695.393-1.028.612-.214.174-.457.31-.718.401a1.27 1.27 0 0 1-.605 0c.401.756.756 1.572 1.074 2.381.317.809-1.028 1.383-1.459.62a9.195 9.195 0 0 0-1.111-1.565 24.609 24.609 0 0 0-2.88-2.797l-.341-.272-.34-.25c-.279-.203-.567-.392-.854-.581a20 20 0 0 0-1.164-.71 1.841 1.841 0 0 1-1.474-.794 29.137 29.137 0 0 0-.93-.431l-.151-.068-.181-.068-.446-.174-.854-.31c-1.237-.411-2.5-.74-3.78-.983l-.96-.174-.423-.06h-.235a27.215 27.215 0 0 0-1.927-.159 29.255 29.255 0 0 0-3.817.076c-.341 0-.688.068-1.028.113h-.136l-.454.068c-.645.1-1.28.222-1.905.363a30.249 30.249 0 0 0-3.734 1.104l-.96.377-.128.053-.416.182a28.4 28.4 0 0 0-1.739.854 27.87 27.87 0 0 0-3.28 2.071l-.416.303a.076.076 0 0 1-.038 0l-.075.06-.756.612c-.504.424-.981.862-1.429 1.316-.461.453-.9.93-1.33 1.413-.212.257-.431.506-.635.756-.091.113-.303.385-.099.113l-.279.378c-.204.272-.401.56-.597.847a1.39 1.39 0 0 1-.416.642 24.192 24.192 0 0 0-1.081 1.868 32.116 32.116 0 0 0-.862 1.791l-.053.106c0 .053-.038.098-.053.151-.015.053-.121.287-.174.43-.113.288-.219.575-.317.87a29.071 29.071 0 0 0-1.24 4.808c0 .173-.053.347-.083.521v.182a30.317 30.317 0 0 0-.181 5.843c0 .347.06.703.098 1.05 0 .159.038.31.053.461a.814.814 0 0 1 0 .121c.098.658.219 1.308.355 1.951a27.812 27.812 0 0 0 1.119 3.779c.06.159.121.325.189.491.068.167.212.613.075.197.129.393.326.756.469 1.149.144.393.25.65.363.975l.053.144c.06.143.128.279.196.423v.038a11.33 11.33 0 0 1 4.536.756.762.762 0 1 1-.197 1.511c-.68.068-1.353.106-2.033.159l-1.021.083-.506.046h-.348c-.393.053-.756.128-1.171.181.279 0-.212.038-.265.045l-.499.091c-1.332.257-2.64.629-3.908 1.111l-.476.189-.129.053h-.105c-.31.136-.62.28-.923.431a23.693 23.693 0 0 0-3.439 2.064c-.159.113-.317.219-.469.34l-.075.053-.083.068-.756.605a22.918 22.918 0 0 0-2.827 2.925.618.618 0 0 1-.091.113l-.083.114-.295.408c-.189.264-.363.521-.537.793a21.223 21.223 0 0 0-1.012 1.762c-.167.325-.318.65-.462.982a.237.237 0 0 0 0 .084l-.045.105c-.06.136-.113.28-.159.416a17.091 17.091 0 0 0-.612 1.913 19.6 19.6 0 0 0-.416 1.965c0 .098-.136.695-.037.242a3.522 3.522 0 0 0-.061.491c0 .318-.06.627-.076.937a23.004 23.004 0 0 0 .114 4.014c.02.095.033.191.038.287 0 .152.045.303.075.454.053.31.114.62.174.93.144.65.31 1.307.507 1.95.196.642.415 1.27.672 1.897l.046.121a.734.734 0 0 0 .053.114c.052.136.113.272.173.4.136.287.273.567.416.847.313.599.645 1.181.998 1.746.189.302.385.597.59.892l.294.4.152.205-.069-.091c.185.304.412.582.673.824.204.234.416.468.635.695.464.504.948.965 1.452 1.384l.43.362.189.152c.25.181.499.37.756.544.576.393 1.171.756 1.784 1.088.325.174.658.34.99.499l.416.189h.068l.106.045c.65.257 1.308.492 1.973.688a22.58 22.58 0 0 0 2.033.499c.363.076.756.136 1.096.189h.136l.522.053c1.393.125 2.795.125 4.188 0 .241 0 .589 0 .861-.06a.208.208 0 0 1 .121-.046l.265-.045.514-.083c.69-.131 1.371-.29 2.041-.476a24.64 24.64 0 0 0 1.988-.65l.544-.212.144-.061.945-.446c.619-.317 1.247-.619 1.859-.952.31-.159.62-.325.93-.476.31-.151.446-.204.673-.303l.226-.09s.204-.083.068 0a1.159 1.159 0 0 1 1.641 1.451c.091.433.306.83.619 1.141a5.244 5.244 0 0 0 1.588.976 7.569 7.569 0 0 0 3.9.491 7.29 7.29 0 0 0 3.281-1.346l.106-.083a1.36 1.36 0 0 0 .166-.128l.302-.265c.246-.238.478-.491.696-.756a6.26 6.26 0 0 1 1.406-1.512l.106-.052a.587.587 0 0 1 .698-.19.58.58 0 0 1 .209.152l.098.098c.197.121.355.297.453.506.756.862 1.429 1.769 2.268 2.563.514.484 1.021.975 1.572 1.421l.159.121.091.068.416.302c.279.197.559.393.854.575.536.355 1.103.68 1.678.983.287.151.582.287.884.423l.34.159c.096.032.189.07.28.113 1.202.467 2.441.833 3.704 1.096l.968.174.287.045.363.046c.627.068 1.262.105 1.889.113a20.07 20.07 0 0 0 2.124-.068c.371 0 .756-.068 1.104-.113l.272-.038.514-.083a27.318 27.318 0 0 0 4.226-1.119c.355-.121.703-.25 1.05-.386l.424-.174.317-.136a30.897 30.897 0 0 0 1.958-.944 35.854 35.854 0 0 0 3.779-2.268c.597-.416 1.18-.847 1.762-1.285l.204-.159.136-.113c.196-.151.393-.325.604-.469a3.49 3.49 0 0 1 1.112-.484 1.276 1.276 0 0 1 1.321.458 1.272 1.272 0 0 1 .1 1.394 5.834 5.834 0 0 1-2.026 2.071c-.628.484-1.27.938-1.92 1.384a26.196 26.196 0 0 0 3.681 4.127c.725.797 1.516 1.53 2.366 2.192a23.512 23.512 0 0 0 2.918 1.618 31.591 31.591 0 0 0 12.48 2.6h3.235c.552 0 1.104-.068 1.655-.121l.756-.091.552-.068a33.912 33.912 0 0 0 6.251-1.512 25.983 25.983 0 0 0 5.292-2.577c.408-.257.801-.522 1.194-.801l.552-.401.158-.121.137-.113a24.837 24.837 0 0 0 3.953-3.946l.113-.144.204-.272c.136-.181.265-.37.393-.552.257-.378.507-.756.756-1.141.47-.772.892-1.572 1.263-2.396 0 0 .121-.265.143-.333.023-.068.083-.196.083-.189.061-.159.129-.317.197-.476-.121.287.053-.129.06-.151.008-.023.068-.174.099-.265a5.21 5.21 0 0 1-.401-.884c-.333-.802.491-1.512 1.194-1.557a2.967 2.967 0 0 1 1.127 0c.386.138.758.312 1.111.521.272.136.552.272.831.393l.144.068.363.144c.574.221 1.16.413 1.753.574.59.167 1.195.303 1.799.416l.454.076.34.053h.65c1.23.105 2.467.105 3.697 0l.529-.053h.196l.801-.129a23.103 23.103 0 0 0 1.739-.393 19.524 19.524 0 0 0 1.754-.567l.491-.189.121-.053.816-.37a20.363 20.363 0 0 0 2.986-1.822l.287-.227.303-.249.672-.605c.439-.415.855-.846 1.248-1.3.196-.219.385-.453.574-.688l.083-.106.227-.317c.348-.484.673-.99.975-1.512.303-.521.582-1.051.839-1.587l.189-.408c0-.068.053-.129.076-.189.106-.25.204-.492.295-.756.417-1.129.733-2.293.945-3.477.052-.25.09-.499.128-.756 0 0 0-.197.038-.28l.045-.453c.053-.575.076-1.157.083-1.731a17.732 17.732 0 0 0-.068-1.8c.031-.34 0-.627-.03-.907Z" fill="#fff"/><path d="M183.66 98.743a2.316 2.316 0 0 0-.393-.514l-.31-.294-.174-.136a5.246 5.246 0 0 0-2.827-.945 6.05 6.05 0 0 0-3.145.657 12.77 12.77 0 0 0-3.295 2.57 71.155 71.155 0 0 0-2.865 3.168.579.579 0 0 1-.826-.012.586.586 0 0 1-.142-.268.69.69 0 0 1-.756-.257 7.196 7.196 0 0 1-.642-1.406 5.837 5.837 0 0 0-.711-1.323 5.121 5.121 0 0 0-2.094-1.663 4.724 4.724 0 0 0-4.656.703 4.875 4.875 0 0 0-1.562 2.078 4.867 4.867 0 0 0-.267 2.586 8.553 8.553 0 0 0 3.076 5.08 20.61 20.61 0 0 0 2.654 1.882c.755.461 1.511.839 2.267 1.3 1.323-.386 2.646-.756 3.946-1.247a47.898 47.898 0 0 0 4.913-2.117c2.555-1.277 5.292-2.691 7.076-5.011a5.025 5.025 0 0 0 1.201-3.402 3.241 3.241 0 0 0-.468-1.429Z" fill="#EF4050"/><path d="M212.08 84.713a22.668 22.668 0 0 0-1.443-5.034 37.325 37.325 0 0 0-6.002-9.713 42.756 42.756 0 0 0-17.953-12.775 35.784 35.784 0 0 0-12.329-2.177 34.932 34.932 0 0 0-9.388 1.262 36.188 36.188 0 0 0-16.441 9.88 32.734 32.734 0 0 0-5.57 7.748 28.02 28.02 0 0 0-1.905 4.535 30.123 30.123 0 0 0-.983 4.483v.106l-.083-.068a29.603 29.603 0 0 0-8.995-5.08 30.367 30.367 0 0 0-6.682-1.557h-.091v-.076c.4-.756.756-1.512 1.02-2.222.378-.922.809-1.86 1.3-2.873a54.226 54.226 0 0 1 3.19-5.586c.514-.755 1.081-1.602 1.837-2.645.303-.431.62-.847.937-1.27l.061-.076.106-.045h-.046l.212-.265c.181-.234.37-.46.559-.695a65.516 65.516 0 0 1 4.324-4.762 61.7 61.7 0 0 1 4.974-4.407l.68-.53.325-.249a59.703 59.703 0 0 1 4.067-2.812 62.242 62.242 0 0 1 5.624-3.212 62.015 62.015 0 0 1 2.986-1.368l.385-.16.756-.301c.514-.204 1.021-.393 1.512-.582a58.217 58.217 0 0 1 6.138-1.852 48.59 48.59 0 0 1 3.19-.673l1.474-.25.937-.136.537-.068a53.43 53.43 0 0 1 6.1-.355h.264c1.043 0 2.094.045 3.122.113.537 0 1.081.084 1.618.136l.68.076.756.09c2.091.296 4.162.725 6.198 1.286a48.088 48.088 0 0 1 4.604 1.542l.854.348.053.083v-.053l.446.196a48.002 48.002 0 0 1 6.516 3.492 43.876 43.876 0 0 1 3.023 2.11l.567.43.756.605c.499.4.99.816 1.474 1.232a58.716 58.716 0 0 1 5.291 5.291 63.66 63.66 0 0 1 2.412 2.91l.143.182c.061.083.068.09.046.121l.151.144.612.824c.386.521.756 1.043 1.119 1.572a81.247 81.247 0 0 1 7.4 13.387c.234.544.484 1.073.756 1.602l.136.272.038.068h-.076c-.378.091-.756.19-1.134.295a29.26 29.26 0 0 0-13.122 7.695l-.091.091.068-.28Z" fill="#F5A3C7"/><path d="M177.437 38.929h.265c1.035 0 2.078.045 3.114.113a58.91 58.91 0 0 1 1.625.136l.673.076.408.045.363.046a47.736 47.736 0 0 1 9.35 2.283l1.436.536.756.318H195.571l.453.196a47.66 47.66 0 0 1 6.509 3.492 45.928 45.928 0 0 1 3.023 2.102l.386.295.091.068.098.075.756.597c.499.401.99.817 1.466 1.233a56.789 56.789 0 0 1 5.291 5.29 62.592 62.592 0 0 1 2.412 2.904l.181.241.197.257.574.756c.378.514.756 1.044 1.119 1.573a80.38 80.38 0 0 1 7.393 13.379c.234.537.476 1.066.755 1.603.038.091.084.18.137.264l-1.134.302a29.54 29.54 0 0 0-13.153 7.703v-.197a22.63 22.63 0 0 0-1.444-5.049 37.258 37.258 0 0 0-6.047-9.728 42.781 42.781 0 0 0-17.983-12.798 36.044 36.044 0 0 0-12.343-2.177 35.11 35.11 0 0 0-9.343 1.353 36.458 36.458 0 0 0-16.471 9.903 33.078 33.078 0 0 0-5.579 7.763 27.388 27.388 0 0 0-1.905 4.535 29.479 29.479 0 0 0-.99 4.483 30.235 30.235 0 0 0-15.715-6.645c.37-.756.711-1.466 1.028-2.267.393-.976.832-1.928 1.3-2.873a53.6 53.6 0 0 1 3.182-5.578 71.23 71.23 0 0 1 1.83-2.646c.31-.423.62-.847.937-1.262 0 0 .045-.06.061-.076l.06-.076.212-.272.559-.695a62.632 62.632 0 0 1 4.324-4.755 59.8 59.8 0 0 1 4.913-4.376l.537-.424.068-.053.075-.053.325-.249 1.331-.968a59.078 59.078 0 0 1 8.345-4.981c.983-.484 1.98-.945 2.986-1.375l.143-.061-.121.053.378-.159.756-.302 1.512-.582a57.544 57.544 0 0 1 6.123-1.845 58.302 58.302 0 0 1 3.19-.68l1.511-.242.711-.106h.227l.536-.06a51.425 51.425 0 0 1 6.093-.363Zm0-.12c-2.041 0-4.081.121-6.108.362l-.536.06h-.227l-.711.106-1.474.25a52.345 52.345 0 0 0-3.197.672 58.98 58.98 0 0 0-6.146 1.852l-1.511.582-.756.31-.242.099-.151.068a87.87 87.87 0 0 0-3.024 1.368 62.135 62.135 0 0 0-5.624 3.152c-.93.59-1.852 1.21-2.744 1.844l-1.33.968-.181.143-.144.106-.076.06h-.045l-.559.447a57.646 57.646 0 0 0-4.921 4.384 61.273 61.273 0 0 0-4.339 4.762l-.552.695-.181.227v.046l-.061.075-.06.076c-.318.423-.635.839-.945 1.27a53.739 53.739 0 0 0-1.829 2.645 52.274 52.274 0 0 0-3.198 5.594 47.583 47.583 0 0 0-1.3 2.88 29.17 29.17 0 0 1-1.02 2.215l-.076.159h.174a30.238 30.238 0 0 1 15.647 6.621l.166.136v-.212c.214-1.514.543-3.01.983-4.474a28.2 28.2 0 0 1 1.897-4.536 33.007 33.007 0 0 1 5.564-7.733 36.16 36.16 0 0 1 16.41-9.826 34.864 34.864 0 0 1 9.343-1.263 35.8 35.8 0 0 1 12.306 2.17 42.78 42.78 0 0 1 17.93 12.76 37.298 37.298 0 0 1 5.994 9.697 22.026 22.026 0 0 1 1.436 5.02V85.092l.167-.174a29.284 29.284 0 0 1 13.107-7.68c.355-.098.756-.204 1.126-.295h.151l-.075-.136-.136-.264c-.25-.522-.492-1.059-.756-1.603a81.412 81.412 0 0 0-7.401-13.402c-.37-.53-.755-1.058-1.118-1.572l-.575-.756-.196-.257-.182-.235c-.756-1.013-1.602-1.988-2.419-2.917a57.905 57.905 0 0 0-6.803-6.531l-.756-.597-.068-.053-.105-.084-.167-.12-.234-.182c-.99-.756-2.018-1.444-3.024-2.109a48.926 48.926 0 0 0-6.531-3.5l-.355-.15-.098-.046H195.427l-.151-.06c-.211-.084-.416-.175-.627-.25a46.83 46.83 0 0 0-1.444-.544 51.507 51.507 0 0 0-3.167-1.006 48.947 48.947 0 0 0-6.199-1.277h-.37l-.408-.046-.68-.075-1.542-.25a53.426 53.426 0 0 0-3.122-.113h-.28Z" fill="#171815"/><path d="M138.002 85.628c-.264-.22-.529-.439-.801-.65l-.106-.084-.362-.264a25.244 25.244 0 0 0-1.603-1.096 27.943 27.943 0 0 0-3.417-1.83l-.476-.211h-.136l-.899-.355a30.98 30.98 0 0 0-1.784-.59 28.466 28.466 0 0 0-3.78-.87 2.155 2.155 0 0 0-.574-.082h.121-.257l-.907-.099a33.221 33.221 0 0 0-1.935-.106c-1.293-.03-2.586.03-3.871.182h-.242l-.415.06-.96.174c-.613.121-1.217.257-1.822.416a30.36 30.36 0 0 0-1.867.544l-.983.356-.438.173-.151.06h-.061a26.2 26.2 0 0 0-3.628 1.959c-.31.204-.612.408-.907.62l-.166.12-.106.083-.106.084-.257.204a24.15 24.15 0 0 0-1.459 1.345 13.565 13.565 0 0 0-2.525 3.024c-.431.756-1.799.227-1.459-.62.273-.673.545-1.36.87-2.01.06-.13.128-.25.196-.371a1.24 1.24 0 0 1-.597 0 2.395 2.395 0 0 1-.718-.4c-.333-.22-.673-.424-1.028-.613l-.537-.265-.264-.12h-.091c-.325-.129-.65-.242-.99-.348a10.954 10.954 0 0 0-4.377-.476c-1.34.149-2.647.514-3.87 1.08a33.674 33.674 0 0 0-3.78 2.268c-.627.393-1.24-.363-.952-.952a8.103 8.103 0 0 1 2.918-3.084l.181-.114a36.718 36.718 0 0 0-6.206-3.84l-.476-.211-.31-.136-.28-.114-.423-.166c-.59-.22-1.179-.43-1.776-.62a31.146 31.146 0 0 0-3.59-.892c-.318-.06-.643-.12-.96-.166l-.386-.06h-.174a39.21 39.21 0 0 0-1.875-.182 33.6 33.6 0 0 0-3.704 0c-.604 0-1.209.083-1.814.151l-.476.06h-.189c-.302.046-.597.091-.9.152a28.825 28.825 0 0 0-5.352 1.497l-.483.188h-.106l-.831.379a27.09 27.09 0 0 0-3.22 1.693 23.53 23.53 0 0 0-1.512 1.058l-.197.144-.294.242c-.237.18-.464.37-.68.566a28.104 28.104 0 0 0-2.609 2.525c-.415.454-.816.922-1.194 1.398a4.78 4.78 0 0 1-.22.28l-.203.28c-.167.219-.325.446-.484.665a33.271 33.271 0 0 0-2.752 4.724c-.136.295-.272.582-.4.87 0 .053-.114.28-.114.28l-.113.264a31.383 31.383 0 0 0-1.927 7.037l-.069.507c-.003.06-.003.121 0 .181 0-.053 0-.242 0 0s-.068.544-.098.824c-.06.612-.106 1.225-.128 1.837a35.852 35.852 0 0 0 .053 3.606c.045.589.068 1.171.105 1.761.038.589 0 1.202 0 1.806a.447.447 0 0 1 0 .174 1.266 1.266 0 0 1-.816.854 2.528 2.528 0 0 1-1.64-.181c-.4-.145-.81-.263-1.225-.355-.204-.053-.416-.091-.627-.129 0 0-.272-.038-.265-.045h-.143c-.431 0-.854-.061-1.278-.061a10.037 10.037 0 0 0-7.551 3.281 9.23 9.23 0 0 0-1.247 1.625 16.339 16.339 0 0 0-1.02 1.897c-.16.36-.299.729-.417 1.104a.644.644 0 0 1-.204.756.74.74 0 0 0 0 .128c-.166.688-.196 1.399-.408 2.072-.136.43-.846.627-1.058.143a4.67 4.67 0 0 1-.348-1.837 8.802 8.802 0 0 1-1.08.197h-.349l-.256.038c-.598.098-1.187.211-1.777.34-.59.128-1.18.287-1.754.469-.287.09-.574.181-.861.287l-.431.159-.204.075-.635.265c.28-.114-.076.037-.174.083l-.756.355a21.656 21.656 0 0 0-3.107 1.897l-.211.152-.265.219a22.168 22.168 0 0 0-3.213 3.182l-.105.136-.265.371c-.166.226-.325.461-.476.695a21.849 21.849 0 0 0-.907 1.572c-.136.272-.272.545-.393.817l-.144.325-.09.234c-.231.578-.43 1.169-.598 1.769-.15.559-.28 1.119-.385 1.685 0 .174-.06.341-.083.507v.166c0 .272-.06.544-.083.817a20.41 20.41 0 0 0 0 3.53c0 .173 0 .34.052.514v.166c.046.272.084.544.136.809.106.589.242 1.179.401 1.761.159.582.34 1.149.544 1.716.091.242.19.491.288.756 0 0 .06.128.083.196l.189.408a20.354 20.354 0 0 0 1.882 3.069l.264.363.069.091v.045c.173.212.347.431.529.635.393.454.808.885 1.247 1.3l.673.605.355.295.234.181c.446.325.9.643 1.376.93.476.287 1.058.62 1.61.892.267.131.532.252.794.363l.204.083.43.166c1.135.421 2.303.743 3.493.96l.521.083.363.053h.182l.46.046a21.47 21.47 0 0 0 1.845.083c.612 0 1.187 0 1.784-.076l.522-.053h.196c.287 0 .068 0 0 0 .276-.018.55-.064.817-.136 1.18-.213 2.34-.535 3.462-.96l.362-.143.273-.114.755-.37a4.53 4.53 0 0 1 1.33-.552h.235a19.988 19.988 0 0 1-2.268-3.704.899.899 0 0 1 .227-1.141.875.875 0 0 1 1.157.068c.415.476.816.96 1.224 1.444a64.434 64.434 0 0 0 5.17 5.616 50.75 50.75 0 0 0 2.926 2.479l.083.068.174.136.333.242.755.567c.522.371 1.051.756 1.588 1.074a41.97 41.97 0 0 0 3.31 1.935c.568.294 1.135.582 1.717.854l.869.4.446.197.106.045.105.046a42.574 42.574 0 0 0 7.302 2.267 56.84 56.84 0 0 0 1.883.371l.944.151.363.045h.272c1.273.153 2.552.241 3.833.265 1.3 0 2.6 0 3.893-.106.65-.045 1.3-.113 1.942-.189h.265l.416-.06c.325-.046.642-.099.96-.159a41.68 41.68 0 0 0 7.513-2.049l.915-.347.446-.182.196-.083a54.702 54.702 0 0 0 1.777-.801 43.704 43.704 0 0 0 6.69-3.991l.755-.582.129-.099.378-.302a72.98 72.98 0 0 0 1.512-1.255 39.75 39.75 0 0 0 2.796-2.721c.439-.469.885-.945 1.316-1.436.211-.242.408-.507.635-.756.294-.255.622-.469.975-.635a8.62 8.62 0 0 1-1.089-1.625 6.386 6.386 0 0 1-.385-.975 4.277 4.277 0 0 1-.174-.968c-.068-.589.71-.635.983-.272a16.656 16.656 0 0 0 2.592 3.024 8.644 8.644 0 0 0 6.304 2.056 8.867 8.867 0 0 0 3.183-.862c.544-.29 1.067-.618 1.564-.983a2.628 2.628 0 0 1 1.92-.703.847.847 0 0 1 .605.597c.234.998-.756 1.905-1.512 2.427-.668.458-1.386.841-2.139 1.141a9.472 9.472 0 0 1-1.376.454c.416.756.824 1.564 1.308 2.305.204.303.401.62.612.922.106.157.22.315.341.477l.189.264v.053l.143.174.166.204.333.393c.242.28.491.544.756.817.461.491.93.967 1.436 1.413.257.237.522.464.794.68l.272.212h.038l.204.159a20.342 20.342 0 0 0 3.409 2.018l.469.219.219.091.846.325c.635.219 1.278.416 1.936.574.347.084.703.159 1.058.22l.468.083h.189c.673.075 1.353.128 2.026.143.673.016 1.406 0 2.109-.075l.605-.061h.189l.937-.151a22.792 22.792 0 0 0 3.969-1.179h.053l.249-.106.431-.204c.287-.136.567-.272.846-.423.62-.333 1.225-.696 1.807-1.081.302-.207.597-.418.884-.635l.167-.121a30.629 30.629 0 0 1-1.512-.378c-2.971-.847-6.108-2.268-7.929-4.86a1.16 1.16 0 0 1 .181-1.391 1.208 1.208 0 0 1 1.391-.182c-.151-.068.083.038.121.046l.227.09c.211.083.418.176.619.28.31.151.62.318.93.476.612.333 1.24.635 1.86.953l.945.446.166.068.484.189c1.308.491 2.656.868 4.029 1.126l.514.083.264.045c.325.046 0 0-.06 0 .341.084.692.122 1.043.114.695.053 1.398.083 2.094.075a25.273 25.273 0 0 0 2.033-.098l.582-.06H145.516c.325-.046.643-.106.968-.167a21.685 21.685 0 0 0 4.006-1.179l.106-.045.151-.068.476-.219c.295-.136.582-.28.869-.439a17.9 17.9 0 0 0 1.792-1.081 8.88 8.88 0 0 0 .756-.559l.264-.212.34-.287c.507-.431.991-.892 1.459-1.376.469-.484.885-.99 1.301-1.512l.151-.196.287-.408c.181-.257.355-.522.529-.756a23.337 23.337 0 0 0 1.466-2.699l.182-.4v-.068a22.974 22.974 0 0 0 1.224-3.961c.068-.333.129-.665.189-.99 0-.167.046-.333.076-.492v-.189a23.66 23.66 0 0 0 .144-1.942c.022-.651 0-1.338 0-2.004 0-.352-.031-.708-.091-1.065 0 0 0-.227-.038-.333-.038-.106-.038-.242-.038-.28a20.129 20.129 0 0 0-1.02-3.877 6.748 6.748 0 0 0-.204-.53v-.083l-.053-.113c-.126-.292-.262-.58-.408-.862a18.534 18.534 0 0 0-1.013-1.769 14.404 14.404 0 0 0-.605-.892l-.257-.362-.083-.106-.053-.068a19.93 19.93 0 0 0-1.338-1.512 20.649 20.649 0 0 0-1.512-1.398c-.272-.235-.544-.454-.824-.681l-.143-.106-.416-.302a24.535 24.535 0 0 0-4.414-2.532l-.205-.083-.476-.189a27.234 27.234 0 0 0-1.935-.643 19.568 19.568 0 0 0-1.973-.468l-.559-.099c-.076 0-.461-.075-.204-.038l-1.164-.181H142.364l-.831-.242c-.681-.053-1.354-.091-2.034-.159a.76.76 0 1 1-.196-1.511 8.351 8.351 0 0 1 1.995-.537c.84-.133 1.69-.199 2.54-.197v-.06l.227-.484a.626.626 0 0 1 .038-.113l-.046.121c.053-.167.053-.167.046-.121v-.068c.105-.303.219-.613.34-.915.121-.302.204-.521.31-.756 0-.06.136-.302.143-.332.035-.074.065-.15.091-.227.068-.166.128-.333.189-.491.234-.62.446-1.248.627-1.883.362-1.239.64-2.502.832-3.779v-.257c0-.159 0-.31.053-.461 0-.31.06-.62.083-.93.053-.658.075-1.323.083-1.98a31.062 31.062 0 0 0-.242-3.939v-.196c0-.159-.053-.31-.075-.461a17.329 17.329 0 0 0-.182-.975c-.136-.65-.287-1.3-.461-1.936a29.18 29.18 0 0 0-.597-1.897 19.61 19.61 0 0 0-.34-.93l-.174-.43a1.18 1.18 0 0 0-.053-.129 29.266 29.266 0 0 0-1.837-3.515c-.355-.56-.756-1.111-1.111-1.64l-.197-.272-.045-.053-.212-.272c-.196-.242-.393-.484-.597-.756a26.77 26.77 0 0 0-2.729-2.774Z" fill="#fff"/><path d="M192.177 143.893c0-.068-.075-.272 0 0Z" fill="#FFF200"/><path d="m144.058 118.018.045-.121c.008-.045.008-.045-.045.121Z" fill="#040305"/><path d="M347.242 123.748a23.06 23.06 0 0 0-6.856-4.181 18.913 18.913 0 0 0-3.697-.99 11.431 11.431 0 0 0-4.18-.106l-.242.053a25.415 25.415 0 0 0-.211-.922 11.698 11.698 0 0 0-2.434-4.535 12.529 12.529 0 0 0-4.235-3.094 12.53 12.53 0 0 0-5.131-1.086 13.203 13.203 0 0 0-3.023.355c-.363.077-.721.173-1.074.287.141-.471.252-.951.333-1.436.217-1.29.341-2.593.37-3.901a29.678 29.678 0 0 0-.907-7.657 32.115 32.115 0 0 0-7.151-13.606 29.077 29.077 0 0 0-12.971-8.406 32.587 32.587 0 0 0-15.7-.838 32.196 32.196 0 0 0-7.559 2.449 28.137 28.137 0 0 0-3.356 1.814c-.612.393-1.232.756-1.822 1.24-.937-17.53-9.63-33.948-20.711-47.252-11.082-13.303-26.094-22.677-42.64-27.628a104.677 104.677 0 0 0-53.442-1.617c-17.605 4.059-33.857 13.062-45.959 26.554-10.983 12.23-19.04 27.893-21.165 44.296a42.027 42.027 0 0 0-.295 3.243 31.747 31.747 0 0 0-6.939-2.646 32.761 32.761 0 0 0-15.73-.106 29.01 29.01 0 0 0-13.538 7.56 31.907 31.907 0 0 0-7.945 13.137 30.72 30.72 0 0 0-1.39 7.657 22.75 22.75 0 0 0 .68 7.181l-.756-.212a14.063 14.063 0 0 0-2.744-.423c-1.76-.09-3.519.19-5.163.824a11.934 11.934 0 0 0-7.098 7.272c-.158.494-.282 1-.37 1.511H21.957c.053 0 .037 0 0 0a8.253 8.253 0 0 0-2.064-.128 18.63 18.63 0 0 0-4.021.65 21.068 21.068 0 0 0-6.97 3.409 20.93 20.93 0 0 0-8.39 12.994 22.676 22.676 0 0 0 2.751 15.284 20.818 20.818 0 0 0 12.45 9.502 22.193 22.193 0 0 0 15.874-1.512 3.3 3.3 0 0 0 1.096-.756c.149-.198.273-.414.37-.642.235.257.469.521.703.755a41.915 41.915 0 0 0 6.047 5.367 44.376 44.376 0 0 0 14.242 6.932 41.124 41.124 0 0 0 15.873 1.217 44.693 44.693 0 0 0 15.723-4.959 41.138 41.138 0 0 0 12.6-10.182c.243-.302.515-.597.757-.922.16-.273.277-.568.347-.877.476.349.982.655 1.512.915a10.287 10.287 0 0 0 4.861 1.02c.233.961.562 1.895.982 2.79a17.376 17.376 0 0 0 2.162 3.537 21.244 21.244 0 0 0 24.075 7.098 22.728 22.728 0 0 0 4.657-2.23 20.495 20.495 0 0 0 2.131-1.565c.373-.319.705-.682.991-1.08.116-.157.218-.324.302-.499l.068-.121c1.285.085 2.574.065 3.855-.061a22.5 22.5 0 0 0 15.67-8.269 24.398 24.398 0 0 0 5.185-16.63 22.227 22.227 0 0 0-7.823-15.443 23.855 23.855 0 0 0-10.764-5.253c.128-.197.249-.394.363-.598.366-.698.684-1.42.952-2.161.5-1.296.899-2.628 1.194-3.984.604-2.792.817-5.654.635-8.504a30.007 30.007 0 0 0-5.714-15.95 28.549 28.549 0 0 0-3.379-3.779c.104-.19.188-.39.249-.597.227-.756.477-1.512.756-2.215a39.638 39.638 0 0 1 1.784-4.112 37.544 37.544 0 0 1 2.268-3.923 37.9 37.9 0 0 1 1.3-1.822l.212-.272.347-.43c.25-.303.507-.605.756-.9a35.647 35.647 0 0 1 3.228-3.266 38.16 38.16 0 0 1 1.716-1.436l.249-.189.401-.295c.317-.234.642-.453.967-.68a38.395 38.395 0 0 1 3.916-2.313 42.511 42.511 0 0 1 2.147-1.005H161.662l.12-.053.522-.204c.37-.144.756-.288 1.119-.416 1.49-.53 3.016-.954 4.565-1.27.371-.075.756-.144 1.119-.204l.499-.083h.431a35.09 35.09 0 0 1 2.525-.227 33.856 33.856 0 0 1 5.465.166l.37.046h.189l.522.075c.491.076.975.167 1.466.265a39.24 39.24 0 0 1 2.6.62c.862.234 1.754.529 2.616.846.4.144.793.295 1.187.454l.34.144h.053l.755.34a38.014 38.014 0 0 1 4.778 2.623 67.758 67.758 0 0 1 2.267 1.587l.205.159.083.06.589.469c.303.25.613.506.907.756a44.734 44.734 0 0 1 3.606 3.477 44.81 44.81 0 0 1 1.693 1.912c.28.333.552.673.817 1.013l.181.227.038.045c.159.212.325.424.476.635a35.057 35.057 0 0 1 2.812 4.46c.189.363.378.756.552 1.089.09.189.181.385.264.582.083.196.099.211.151.325a.387.387 0 0 0 0 .068v.068c.32.773.601 1.563.84 2.366.244.813.435 1.641.574 2.479 0 .098.098.695.053.31 0 .181.045.355.06.537.038.446.068.9.076 1.345.008.446 0 .688 0 1.036a29.78 29.78 0 0 0-4.785 12.714 32.026 32.026 0 0 0 0 8.919c.191 1.356.484 2.695.877 4.007a20.547 20.547 0 0 0 1.618 4.097c.121.211.249.423.385.627l-.899.189a22.732 22.732 0 0 0-7.998 3.575 22.462 22.462 0 0 0-9.441 14.589 24.444 24.444 0 0 0 3.56 17.046 22.228 22.228 0 0 0 14.566 9.826 25.34 25.34 0 0 0 9.366 0 21.439 21.439 0 0 0 4.203-1.232 29.998 29.998 0 0 0 2.267-1.05 13.75 13.75 0 0 0 1.996-1.369l.098-.083c.235.54.577 1.026 1.006 1.429a8.101 8.101 0 0 0 3.779 1.784 9.609 9.609 0 0 0 7.786-1.746 9.91 9.91 0 0 0 1.625-1.512l.25-.31c.254.438.531.862.831 1.27a12.03 12.03 0 0 0 1.353 1.61c.464.475.956.922 1.474 1.338a20.569 20.569 0 0 0 7.453 3.779c5.926 1.618 12.178.514 17.673-2.041a34.338 34.338 0 0 0 3.22-1.715c1.436 3.514 4.536 6.304 7.756 8.148a31.893 31.893 0 0 0 13.485 3.78c8.851.665 18.141-1.512 24.869-7.506a25.472 25.472 0 0 0 4.399-5.133 20.23 20.23 0 0 0 2.177-4.294l.756.31c1.211.466 2.464.813 3.742 1.036 2.725.484 5.514.484 8.239 0a21.06 21.06 0 0 0 13.304-8.315 22.356 22.356 0 0 0 4.067-14.77 20.745 20.745 0 0 0-6.962-13.825Zm-57.025-47.32c.272 0 .083 0 0 0ZM91.091 56.526a85.885 85.885 0 0 1 12.094-20.614 84.112 84.112 0 0 1 17.341-16.546 85.519 85.519 0 0 1 24.34-11.807 101.138 101.138 0 0 1 52.217-1.701c16.078 3.78 31.324 11.595 42.867 23.523a95.605 95.605 0 0 1 15.594 21.581 70.962 70.962 0 0 1 8.133 24.945 59.4 59.4 0 0 1 .356 5.185 13.13 13.13 0 0 0-6.758.136 13.602 13.602 0 0 0-4.044 1.913 1.724 1.724 0 0 0-.658.809 16.198 16.198 0 0 0-2.865-2.76c-.468-.362-.96-.71-1.451-1.035-1.92-13.047-8.315-25.202-16.743-35.195-8.92-10.552-20.492-18.784-33.69-23.04a74.654 74.654 0 0 0-42.527-.589 68.656 68.656 0 0 0-34.068 21.604 86.553 86.553 0 0 0-11.528 17.99 103.043 103.043 0 0 0-7.476 20.1c-.204.83-.4 1.647-.589 2.479a1.866 1.866 0 0 0-.401-.37 13.605 13.605 0 0 0-11.988-1.724 3.93 3.93 0 0 0-.756-1.02c-.52-.487-1.07-.939-1.648-1.354a33.284 33.284 0 0 0-1.739-1.171 109.348 109.348 0 0 1 5.987-21.34Zm138.185 19.82a5.88 5.88 0 0 0-.219-.878c-.257-.755-.552-1.443-.854-2.161a82.241 82.241 0 0 0-1.602-3.53 74.823 74.823 0 0 0-3.719-6.804 65.879 65.879 0 0 0-9.668-12.253 50.934 50.934 0 0 0-25.648-13.886 54.102 54.102 0 0 0-26.313 1.512 61.752 61.752 0 0 0-23.198 13.229 53.997 53.997 0 0 0-14.733 21.92c-.296.857-.509 1.74-.634 2.639a30.114 30.114 0 0 0-8.157.582 25.286 25.286 0 0 0-7.929 3.19 20.219 20.219 0 0 0-2.631 1.92c1.958-4.838 3.704-9.774 5.821-14.551a99.375 99.375 0 0 1 10.242-18.142 64.927 64.927 0 0 1 13.992-14.196 66.938 66.938 0 0 1 17.219-9.07 72.1 72.1 0 0 1 40.411-2.268 69.413 69.413 0 0 1 34.249 20.13c8.723 9.184 15.481 20.658 18.278 33.085.098.438.189.877.279 1.323a26.934 26.934 0 0 0-2.615-.953 28.574 28.574 0 0 0-12.571-.839Zm1.112 3.182h-.174a.61.61 0 0 1 .174.007v-.007ZM51.376 81.705c.22-.167.053 0 0 0ZM3.483 136.757c0-.091 0-.227 0 0Zm137.83-47.675.211.272.046.053.196.272c.386.53.756 1.081 1.111 1.64a29.266 29.266 0 0 1 1.837 3.516c.02.041.038.084.053.128l.174.43c.121.303.234.613.34.93.219.62.424 1.255.597 1.898.174.642.325 1.285.462 1.935.07.328.131.653.181.975 0 .151.045.302.076.461v.197a31.22 31.22 0 0 1 .241 3.938c0 .658 0 1.323-.083 1.98 0 .31-.053.62-.083.93 0 .151-.038.303-.053.461v.257a28.893 28.893 0 0 1-.831 3.78 23.857 23.857 0 0 1-.628 1.882c-.06.159-.121.325-.189.491a2.328 2.328 0 0 1-.09.227s-.114.272-.144.333c-.106.264-.212.521-.31.756-.098.234-.234.612-.34.914v.068a.663.663 0 0 0-.038.114l-.227.483v.061c-.85-.002-1.699.063-2.539.196a8.406 8.406 0 0 0-1.996.537.766.766 0 0 0-.506.291.764.764 0 0 0 .703 1.221c.68.068 1.353.106 2.033.159l1.02.083h.862l1.164.181c-.257 0 .129 0 .204.038l.56.098c.665.122 1.323.279 1.972.469a27.77 27.77 0 0 1 1.936.642l.476.189.204.083a24.338 24.338 0 0 1 4.414 2.533l.416.302.144.106c.279.227.551.446.824.68.514.446 1.005.915 1.511 1.399.507.483.907 1.005 1.338 1.511l.053.068.083.106.257.363c.212.287.416.59.605.892.37.571.708 1.161 1.013 1.769.141.282.277.569.408.862l.053.113v.083c.076.174.144.348.204.529.468 1.256.81 2.555 1.021 3.878 0 .038 0 .189.037.28.038.09.038.302.038.332.036.358.066.713.091 1.066.038.665.045 1.338 0 2.003s-.068 1.3-.144 1.943v.189c0 .159-.053.325-.075.491-.061.325-.121.658-.189.99a23.079 23.079 0 0 1-1.179 3.848.71.71 0 0 0 0 .113v.068l-.182.401a22.976 22.976 0 0 1-1.466 2.699c-.174.264-.348.529-.529.755l-.288.409-.151.196a22.515 22.515 0 0 1-1.3 1.512c-.461.484-.952.945-1.459 1.376l-.34.287-.265.212c-.257.189-.514.378-.755.559a17.9 17.9 0 0 1-1.792 1.081c-.287.151-.574.302-.869.438l-.476.219-.152.069-.105.045a21.772 21.772 0 0 1-4.007 1.179c-.325.061-.642.121-.967.166H145.531l-.582.061c-.681.06-1.353.098-2.034.098-.68 0-1.398 0-2.094-.075a3.983 3.983 0 0 1-1.043-.114c.038 0 .386.053.061 0l-.265-.045-.514-.083a24.26 24.26 0 0 1-4.029-1.127l-.483-.189-.167-.068-.945-.446c-.619-.317-1.247-.619-1.859-.952-.31-.159-.62-.325-.93-.476a6.281 6.281 0 0 0-.62-.28l-.227-.091c-.037 0-.272-.113-.12-.045a1.202 1.202 0 0 0-1.391.181 1.157 1.157 0 0 0-.182 1.391c1.822 2.593 4.959 4.014 7.93 4.861.491.143.99.264 1.511.378l-.166.121c-.287.221-.582.433-.884.634a20.581 20.581 0 0 1-2.653 1.505l-.431.204-.25.106h-.053a22.79 22.79 0 0 1-4.127 1.489l-.937.151h-.189l-.605.06c-.701.061-1.405.084-2.109.068a19.9 19.9 0 0 1-2.026-.136h-.189l-.468-.083a16.15 16.15 0 0 1-1.059-.219c-.65-.159-1.3-.355-1.935-.574l-.846-.325-.219-.091-.469-.219a20.416 20.416 0 0 1-3.409-2.019l-.204-.158h-.038l-.272-.212a15.065 15.065 0 0 1-.794-.68 21.286 21.286 0 0 1-1.436-1.414 38.819 38.819 0 0 1-.756-.816l-.333-.393-.166-.204-.144-.174v-.053l-.188-.265a7.568 7.568 0 0 1-.341-.476c-.211-.302-.408-.62-.612-.922-.484-.756-.892-1.512-1.308-2.306.47-.115.93-.267 1.376-.453.753-.3 1.471-.683 2.139-1.142.756-.521 1.724-1.428 1.512-2.426a.847.847 0 0 0-.605-.597 2.615 2.615 0 0 0-1.92.703 12.86 12.86 0 0 1-1.564.982 8.88 8.88 0 0 1-3.243.787 8.642 8.642 0 0 1-6.168-2.094 16.656 16.656 0 0 1-2.593-3.024c-.272-.363-1.05-.317-.983.272.02.328.08.653.174.968.102.335.23.661.386.975.3.581.665 1.127 1.088 1.625a4.26 4.26 0 0 0-.975.635c-.227.227-.423.491-.635.756-.43.491-.877.968-1.315 1.436a41.55 41.55 0 0 1-2.797 2.721c-.484.431-.983.847-1.512 1.255l-.378.303-.128.098-.756.582a43.507 43.507 0 0 1-6.69 3.991c-.59.28-1.179.544-1.776.801l-.197.083-.446.182-.914.348a41.764 41.764 0 0 1-7.514 2.048 19.7 19.7 0 0 1-.96.159l-.416.06h-.264c-.643.076-1.293.144-1.943.189a39.468 39.468 0 0 1-3.893.106 38.067 38.067 0 0 1-3.832-.265h-.272l-.363-.045-.945-.151a54.3 54.3 0 0 1-1.882-.37 42.663 42.663 0 0 1-7.302-2.268l-.189-.038-.106-.045-.446-.197-.884-.393a44.903 44.903 0 0 1-1.716-.854 41.985 41.985 0 0 1-3.31-1.935 44.512 44.512 0 0 1-1.588-1.074l-.756-.566-.333-.242-.174-.136-.083-.068a51.17 51.17 0 0 1-2.925-2.48 64.275 64.275 0 0 1-5.17-5.616c-.409-.484-.81-.968-1.225-1.444a.874.874 0 0 0-1.157-.068.9.9 0 0 0-.226 1.142 19.98 19.98 0 0 0 2.267 3.703h-.234c-.47.112-.919.299-1.33.552l-.756.371-.272.113-.363.144a19.67 19.67 0 0 1-3.485.967c-.276.076-.56.122-.846.136.053 0 .378-.045.053 0h-.197l-.522.053c-.597.046-1.186.076-1.784.076-.597 0-1.232 0-1.844-.083l-.461-.046h-.181l-.363-.053-.522-.083a20.719 20.719 0 0 1-3.53-.945l-.43-.166-.205-.083a12.506 12.506 0 0 1-.793-.363 18.527 18.527 0 0 1-1.61-.892c-.522-.325-.93-.605-1.376-.93l-.235-.181-.355-.295-.673-.605a18.125 18.125 0 0 1-1.247-1.3c-.181-.204-.355-.423-.529-.635v-.045l-.068-.091-.265-.363A20.4 20.4 0 0 1 5.13 147.4l-.189-.409c0-.068-.068-.158-.083-.196a23.675 23.675 0 0 1-.831-2.472 19.807 19.807 0 0 1-.4-1.761c-.054-.265-.091-.537-.137-.809v-.166c0-.174 0-.34-.053-.514a20.41 20.41 0 0 1 0-3.53c0-.272.053-.545.083-.817v-.166c0-.166.053-.333.084-.499.105-.574.234-1.134.385-1.693.16-.579.349-1.149.567-1.708l.09-.235.144-.325c.121-.272.257-.544.393-.816.28-.537.582-1.058.907-1.572.152-.235.31-.469.477-.696l.264-.37.106-.136a22.116 22.116 0 0 1 2.495-2.631c.211-.189.43-.37.65-.544l.264-.219.212-.151c.491-.363.998-.703 1.512-1.013a23.17 23.17 0 0 1 1.595-.885l.755-.355c.099-.045.454-.197.174-.083l.635-.265.204-.075.431-.159c.287-.106.575-.197.862-.287.574-.182 1.164-.34 1.754-.469.59-.128 1.179-.242 1.776-.34l.257-.038h.348a8.803 8.803 0 0 0 1.08-.196c-.008.629.11 1.254.348 1.836.212.484.922.288 1.059-.143.211-.673.242-1.384.408-2.071a.772.772 0 0 1 0-.129.64.64 0 0 0 .204-.756c.118-.375.256-.744.416-1.103.298-.655.639-1.288 1.02-1.898a9.215 9.215 0 0 1 1.315-1.64 10.03 10.03 0 0 1 7.476-3.25c.423 0 .847 0 1.278.06h.143l.265.045c.211 0 .423.076.627.129.416.092.825.21 1.225.355a2.522 2.522 0 0 0 1.64.182 1.262 1.262 0 0 0 .816-.855.442.442 0 0 0 0-.173c0-.605.076-1.21 0-1.807-.075-.597-.06-1.172-.105-1.761a35.847 35.847 0 0 1-.053-3.606c0-.612.068-1.224.128-1.837l.09-.824c.039-.272 0-.083 0 0a1.477 1.477 0 0 1 0-.181l.069-.506a31.374 31.374 0 0 1 1.927-7.038l.114-.264s.098-.227.113-.28c.129-.287.265-.575.4-.862.265-.56.545-1.103.84-1.648a33.28 33.28 0 0 1 2.01-3.091c.16-.22.318-.446.484-.665l.204-.28.22-.28c.378-.476.755-.945 1.194-1.398.807-.896 1.67-1.74 2.585-2.525.222-.197.449-.386.68-.567l.295-.242.197-.143c.499-.37.998-.756 1.511-1.059a27.104 27.104 0 0 1 3.213-1.776l.832-.378h.105l.484-.189a28.711 28.711 0 0 1 5.352-1.497c.302-.06.597-.105.9-.15h.188l.477-.061a33.65 33.65 0 0 1 5.518-.151 39.21 39.21 0 0 1 1.874.181h.174l.386.06c.317.046.642.106.96.167 1.213.226 2.412.523 3.59.892.597.189 1.187.4 1.776.62l.424.166.28.113.31.136.476.212a36.71 36.71 0 0 1 6.206 3.84l-.182.113a8.103 8.103 0 0 0-2.918 3.084c-.287.59.325 1.346.953.953a33.65 33.65 0 0 1 3.78-2.268 12.485 12.485 0 0 1 3.87-1.08c1.476-.14 2.965.022 4.376.475.34.106.665.22.99.348h.091l.265.121.536.265c.356.189.696.393 1.028.612.215.174.458.31.718.4.197.05.402.05.598 0a6.02 6.02 0 0 0-.197.37c-.325.651-.597 1.339-.87 2.012-.34.846 1.029 1.39 1.46.62a13.539 13.539 0 0 1 2.524-3.024c.477-.469.953-.922 1.459-1.346l.257-.204.106-.083.106-.083.166-.121c.295-.212.597-.416.907-.62a26.2 26.2 0 0 1 3.629-1.958h.06l.151-.06.439-.174.982-.355a26.6 26.6 0 0 1 1.867-.544 34.97 34.97 0 0 1 1.822-.416c.318-.06.635-.121.96-.166l.416-.069h.242a27.521 27.521 0 0 1 3.87-.18c.642 0 1.292.052 1.935.105l.907.098h.257-.121c.194.002.388.03.575.083a28.4 28.4 0 0 1 3.779.87c.597.173 1.194.377 1.784.59l.9.354h.136l.476.212c1.18.53 2.321 1.141 3.416 1.83.545.347 1.081.71 1.603 1.095l.363.265.106.083c.272.212.536.431.801.65a26.923 26.923 0 0 1 2.759 2.729c.219.295.416.537.612.779l-.045.007Zm63.321-19.147a42.781 42.781 0 0 0-17.983-12.797 35.767 35.767 0 0 0-21.686-.922 36.46 36.46 0 0 0-16.471 9.902 33.078 33.078 0 0 0-5.579 7.763 27.391 27.391 0 0 0-1.905 4.535 29.484 29.484 0 0 0-.99 4.483 30.234 30.234 0 0 0-15.715-6.644c.371-.756.711-1.467 1.028-2.268.393-.975.832-1.928 1.3-2.872a52.87 52.87 0 0 1 3.183-5.58c.589-.899 1.201-1.775 1.829-2.645.31-.423.62-.846.937-1.262l.061-.076.06-.083c.076-.083.144-.174.212-.264l.559-.696a62.632 62.632 0 0 1 4.324-4.754 59.82 59.82 0 0 1 4.913-4.377l.537-.423.068-.053.076-.053.325-.25 1.33-.967a59.1 59.1 0 0 1 8.345-4.981c.983-.484 1.98-.945 2.986-1.376.272-.114.075 0 0 0l.378-.151.756-.31 1.511-.582a57.707 57.707 0 0 1 6.123-1.845 58.303 58.303 0 0 1 3.19-.68l1.512-.242.71-.106h.227l.537-.06c2.11-.25 4.233-.37 6.357-.363 1.036 0 2.079.045 3.114.113.545.038 1.081.084 1.625.136l.673.076.408.045.363.046c2.087.291 4.153.72 6.183 1.285 1.066.294 2.125.627 3.168.998l1.436.536.756.318H195.548l.454.196a47.708 47.708 0 0 1 6.508 3.492 46.217 46.217 0 0 1 3.024 2.102l.385.295.091.068.091.075.756.597c.498.401.99.817 1.466 1.233a56.789 56.789 0 0 1 5.291 5.29 62.592 62.592 0 0 1 2.412 2.903l.181.242.197.257.574.756c.378.514.756 1.043 1.119 1.573a80.304 80.304 0 0 1 7.392 13.379c.235.537.477 1.066.756 1.602.038.092.084.18.136.265l-1.133.302a29.54 29.54 0 0 0-13.153 7.703v-.197a22.685 22.685 0 0 0-1.444-5.05 37.279 37.279 0 0 0-5.971-9.644l-.046.007Zm-12.457 73.957c0-.068 0-.264 0 0Zm158.882-2.766-.045.453c0 .083-.038.257-.038.28 0 .257-.076.506-.129.756a20.337 20.337 0 0 1-.945 3.477c-.09.249-.189.491-.294.756 0 .06-.053.121-.076.189l-.189.408a21.114 21.114 0 0 1-1.814 3.099l-.227.318-.083.105a17.13 17.13 0 0 1-.574.688c-.394.454-.809.885-1.248 1.3l-.672.605-.303.25-.287.226a20.363 20.363 0 0 1-2.986 1.822l-.816.37-.121.053-.491.189c-.575.212-1.165.401-1.754.567a18.36 18.36 0 0 1-1.739.393l-.801.129h-.196l-.53.053a21.518 21.518 0 0 1-3.696 0h-.65l-.34-.053-.454-.076a20.39 20.39 0 0 1-1.799-.416 18.161 18.161 0 0 1-1.791-.597l-.363-.143-.144-.068a17.02 17.02 0 0 1-.831-.393 6.43 6.43 0 0 0-1.111-.522 2.967 2.967 0 0 0-1.127 0c-.703.053-1.511.756-1.194 1.557.106.307.24.603.401.885 0 .09-.068.173-.099.264-.03.091-.181.439-.06.151-.068.159-.136.318-.197.477 0 0-.045.113-.083.189-.037.075-.128.302-.143.332a21.888 21.888 0 0 1-1.263 2.396 19.23 19.23 0 0 1-.756 1.142c-.128.181-.257.37-.393.552l-.204.272-.113.143a24.796 24.796 0 0 1-3.953 3.946l-.137.113-.158.121-.552.401c-.393.28-.756.544-1.194.801a25.987 25.987 0 0 1-5.292 2.578 34.074 34.074 0 0 1-6.251 1.512l-.552.068-.756.09c-.551.053-1.103.091-1.655.121a27.066 27.066 0 0 1-3.235 0 31.573 31.573 0 0 1-12.48-2.6 23.5 23.5 0 0 1-2.971-1.534 18.938 18.938 0 0 1-2.426-1.83 26.146 26.146 0 0 1-3.681-4.127c.65-.446 1.292-.899 1.92-1.383a5.84 5.84 0 0 0 2.025-2.071 1.267 1.267 0 0 0-.1-1.395 1.274 1.274 0 0 0-1.321-.457 3.473 3.473 0 0 0-1.111.483c-.212.144-.408.318-.605.469l-.136.114-.204.158c-.582.439-1.164.87-1.761 1.285a35.767 35.767 0 0 1-3.78 2.268c-.642.34-1.292.65-1.957.945l-.318.136-.423.174c-.348.136-.695.264-1.051.385-1.376.486-2.789.86-4.225 1.119l-.514.083-.272.038c-.371.045-.756.083-1.104.113a19.55 19.55 0 0 1-2.124.068c-.627 0-1.262-.045-1.89-.113l-.363-.045-.287-.046-.967-.174a23.294 23.294 0 0 1-3.704-1.096 2.824 2.824 0 0 0-.28-.113l-.34-.159a16.39 16.39 0 0 1-.885-.423 19.319 19.319 0 0 1-1.678-.983c-.294-.181-.574-.378-.854-.574l-.416-.303-.09-.068-.159-.121c-.552-.446-1.058-.937-1.572-1.421-.832-.793-1.512-1.7-2.268-2.562a1.182 1.182 0 0 0-.453-.507l-.099-.098a.592.592 0 0 0-.462-.199.583.583 0 0 0-.445.237l-.106.053a6.243 6.243 0 0 0-1.406 1.512 9.033 9.033 0 0 1-.695.756l-.302.264a1.4 1.4 0 0 1-.167.129l-.106.083a7.3 7.3 0 0 1-3.28 1.345 7.562 7.562 0 0 1-3.901-.491 5.236 5.236 0 0 1-1.587-.975 2.274 2.274 0 0 1-.62-1.142 1.174 1.174 0 0 0-.249-1.269 1.2 1.2 0 0 0-1.391-.182c.136-.06-.053 0-.068 0l-.227.091c-.227.098-.453.189-.673.302-.219.114-.619.318-.929.476-.613.333-1.24.635-1.86.953l-.945.446-.143.06-.545.212a24.385 24.385 0 0 1-4.028 1.126l-.515.083-.264.046a.198.198 0 0 0-.121.045c-.272.053-.62.038-.862.061a23.61 23.61 0 0 1-4.187 0l-.522-.053h-.136c-.37-.053-.756-.114-1.096-.189a20.5 20.5 0 0 1-2.033-.499 23.514 23.514 0 0 1-1.973-.688h.068-.091l-.083-.038h-.068l-.416-.189a24.11 24.11 0 0 1-.99-.499 20.414 20.414 0 0 1-1.784-1.088c-.265-.174-.514-.363-.756-.545l-.189-.151-.431-.363a21.76 21.76 0 0 1-2.086-2.078 3.835 3.835 0 0 1-.673-.824l.068.091-.151-.205-.295-.4c-.204-.295-.4-.59-.589-.892a25.705 25.705 0 0 1-.998-1.746c-.144-.28-.28-.56-.408-.847a3.908 3.908 0 0 1-.182-.401.776.776 0 0 1-.053-.113l-.045-.121a21.949 21.949 0 0 1-.673-1.897c-.196-.643-.363-1.3-.506-1.95-.061-.31-.121-.62-.174-.93 0-.151-.053-.302-.076-.454a1.863 1.863 0 0 0-.037-.287 23.004 23.004 0 0 1-.114-4.014c0-.31.045-.62.076-.937.009-.165.029-.329.06-.491-.098.453 0-.144.038-.242.104-.662.243-1.318.416-1.966.166-.648.371-1.287.612-1.912.045-.136.098-.28.159-.416l.045-.106a.231.231 0 0 1 0-.083c.144-.332.295-.657.461-.982.31-.605.65-1.195 1.013-1.762.174-.272.348-.529.537-.793l.295-.408.083-.114a.573.573 0 0 0 .09-.113 22.932 22.932 0 0 1 2.828-2.926l.755-.604h-.045l.061-.046.068-.053.075-.052c.151-.121.31-.227.469-.341a21.213 21.213 0 0 1 1.648-1.088 25.26 25.26 0 0 1 2.713-1.406h.046-.053.09-.037c.113-.045.098-.045.06 0l.129-.053.476-.189a23.565 23.565 0 0 1 3.908-1.111l.499-.091c.053 0 .544-.083.264-.045.393-.053.756-.129 1.172-.182h.348l.506-.045 1.021-.083c.68-.053 1.353-.091 2.033-.159a.76.76 0 0 0 .854-.657.765.765 0 0 0-.658-.855 11.343 11.343 0 0 0-4.535-.756v-.037c-.068-.144-.136-.28-.196-.424l-.121-.294a17.645 17.645 0 0 0-.363-.976c-.144-.385-.34-.755-.469-1.148.136.415-.045-.114-.075-.197l-.189-.491a27.784 27.784 0 0 1-1.119-3.78 32.54 32.54 0 0 1-.355-1.95.815.815 0 0 0 0-.121c0-.151-.038-.302-.053-.461 0-.348-.068-.703-.099-1.051a30.317 30.317 0 0 1 .182-5.843v-.181c0-.174.053-.348.083-.522a29.06 29.06 0 0 1 1.24-4.807c.098-.295.204-.582.317-.87.053-.143.113-.287.174-.43.06-.144.038-.099.053-.152l.053-.105c.267-.605.554-1.202.861-1.792a27.53 27.53 0 0 1 1.081-1.867c.197-.17.341-.394.416-.643.197-.287.393-.574.597-.846l.28-.378c-.204.272 0 0 .098-.114.204-.264.424-.513.635-.755.431-.484.87-.96 1.331-1.414.461-.453.937-.892 1.428-1.315l.756-.612.076-.06a.076.076 0 0 0 .038 0l.415-.303a27.881 27.881 0 0 1 3.281-2.071c.567-.303 1.149-.59 1.738-.855l.416-.181.129-.053.96-.378a30.215 30.215 0 0 1 3.734-1.103c.63-.142 1.265-.263 1.905-.363l.453-.068h.136c.34-.046.688-.084 1.028-.114a29.256 29.256 0 0 1 3.818-.075c.642 0 1.292.083 1.927.158.136 0 .408.06.234 0l.424.068c.325.046.642.106.96.167 1.28.243 2.543.572 3.779.982l.854.31.446.174.174.068.159.068c.312.136.622.28.93.431a1.836 1.836 0 0 0 1.474.794c.393.227.756.468 1.164.71.408.242.574.378.854.582l.34.25.34.272a24.524 24.524 0 0 1 2.88 2.797 9.132 9.132 0 0 1 1.111 1.565c.431.755 1.807.234 1.459-.62a27.579 27.579 0 0 0-1.073-2.381c.199.048.406.048.605 0a2.41 2.41 0 0 0 .718-.401c.332-.22.672-.423 1.028-.612a8.909 8.909 0 0 1 1.882-.756c1.411-.454 2.9-.616 4.377-.477a12.5 12.5 0 0 1 3.87 1.082c1.308.672 2.57 1.43 3.779 2.267.628.393 1.24-.363.953-.952a8.005 8.005 0 0 0-3.092-3.213c.476-.355.968-.703 1.451-1.058a29.74 29.74 0 0 1 3.13-1.958 28.85 28.85 0 0 1 1.678-.831c.219-.106.446-.204.665-.295l.28-.121.483-.19a31.84 31.84 0 0 1 3.478-1.254 29.341 29.341 0 0 1 1.836-.4c.303-.06.598-.114.9-.16l.446-.067h.234a31.746 31.746 0 0 1 7.385 0l.386.045h.174c.317.045.642.098.96.159.609.106 1.222.234 1.837.385a28.69 28.69 0 0 1 3.514 1.111l.424.167.151.068.831.378a29.22 29.22 0 0 1 1.679.854 27.834 27.834 0 0 1 3.023 1.98l.151.114.333.264c.232.182.458.37.68.567.469.4.922.817 1.361 1.24a30.138 30.138 0 0 1 2.419 2.683l.158.204.038.046.038.053.151.204c.197.257.378.514.56.756.34.491.665.982.975 1.511a34.215 34.215 0 0 1 1.738 3.19c.129.265.25.537.371.81l.136.302v.053l.121.294c.219.552.423 1.111.619 1.678.386 1.147.704 2.316.953 3.5.128.597.242 1.202.332 1.807 0 .151.038.295.061.438.023.144 0 .129 0 .189v.038c.038.31.076.627.106.937a41.663 41.663 0 0 1-.046 7.204c-.037.574 0 1.164 0 1.746a.506.506 0 0 0 0 .182 1.309 1.309 0 0 0 .817.846c.801.287 1.746-.249 2.517-.453.37-.099.756-.174 1.111-.235H318.858l.635-.045h1.066l.566.038h.416c.774.118 1.533.313 2.268.582l.34.136.189.083.257.128c.362.177.713.377 1.051.598.151.098.302.196.446.302l.166.128.053.038c.295.242.582.499.854.756a12.583 12.583 0 0 1 2.585 3.387c.262.509.48 1.04.65 1.587a.643.643 0 0 0 .204.756c.167.756.212 1.512.439 2.207.136.431.846.627 1.058.144.243-.58.369-1.201.371-1.83a7.5 7.5 0 0 0 .997.182l.393.045.341.053c1.171.181 2.328.446 3.462.794l.801.264.423.159.189.076h.083l.091.037.476.197.182.076c.279.121.551.249.823.385a21.81 21.81 0 0 1 3.107 1.897l.31.235.151.113c.25.204.499.416.756.635.439.386.862.756 1.263 1.217.4.461.801.9 1.186 1.368l.106.136.227.318a19.85 19.85 0 0 1 1.421 2.313c.136.272.272.544.393.816l.113.257s.106.257.129.325c.423 1.102.742 2.241.952 3.402 0 .143.053.295.076.438a1.49 1.49 0 0 0 0 .189c0 .28.06.567.083.847.053.598.076 1.198.068 1.799.023.612 0 1.194-.053 1.769h.038Z" fill="#040305"/><path d="M177.181 95.304a11.073 11.073 0 0 0-4.294 2.842 20.63 20.63 0 0 0-2.668 3.613 4.542 4.542 0 0 0-.756-2.313 7.08 7.08 0 0 0-2.381-2.419 6.501 6.501 0 0 0-6.448-.151 6.674 6.674 0 0 0-3.583 5.563 9.29 9.29 0 0 0 2.638 6.569 14.837 14.837 0 0 0 3.44 2.676c.612.355 1.254.673 1.897.975l.075.038a1.208 1.208 0 0 0-.264 1.111 1.227 1.227 0 0 0 1.512.839c1.73-.412 3.428-.95 5.079-1.61a55.44 55.44 0 0 0 5.012-2.2c3.023-1.511 6.1-3.235 8.171-5.964a7.278 7.278 0 0 0 1.618-4.255 5.394 5.394 0 0 0-1.61-3.863 7.514 7.514 0 0 0-7.438-1.451Zm5.76 8.254c-1.769 2.321-4.536 3.734-7.076 5.012a47.89 47.89 0 0 1-4.913 2.116c-1.3.476-2.623.862-3.946 1.247-.756-.461-1.511-.839-2.267-1.3a20.513 20.513 0 0 1-2.654-1.882 8.547 8.547 0 0 1-3.076-5.08 4.862 4.862 0 0 1 1.829-4.664 4.724 4.724 0 0 1 4.657-.703c.832.36 1.555.934 2.093 1.663.293.409.532.854.711 1.323.163.491.378.962.642 1.406a.69.69 0 0 0 .756.257.581.581 0 0 0 .401.426.57.57 0 0 0 .567-.146 70.576 70.576 0 0 1 2.865-3.167c.95-1.032 2.063-1.9 3.295-2.57a6.05 6.05 0 0 1 3.145-.658 5.245 5.245 0 0 1 2.827.945l.174.136.31.295c.154.152.287.325.393.514.271.431.437.92.484 1.428a5.032 5.032 0 0 1-1.217 3.402Z" fill="#040305"/><path d="M264.811 113.302a.903.903 0 0 1-.843-.62.903.903 0 0 1 .314-.998l2.774-2.033a.89.89 0 0 1 1.411.852.886.886 0 0 1-.353.584l-2.774 2.041a.849.849 0 0 1-.529.174Z" fill="#030303"/><path d="M262.142 131.058a3.771 3.771 0 1 0-7.342-1.732 3.772 3.772 0 1 0 7.342 1.732Z" fill="#F3849A"/><path d="M258.483 108.698a7.442 7.442 0 0 0-6.884 4.591 7.448 7.448 0 0 0 9.724 9.734 7.445 7.445 0 0 0-2.84-14.325Z" fill="#030303"/><path d="M256.701 115.872a1.714 1.714 0 0 1-2.056 1.65 1.702 1.702 0 0 1-.868-.473 1.702 1.702 0 0 1-.361-1.858c.13-.311.349-.577.63-.763a1.703 1.703 0 0 1 2.162.221 1.72 1.72 0 0 1 .493 1.223ZM259.966 115.826a.988.988 0 0 1-1.184.971.987.987 0 0 1-.721-1.35.994.994 0 0 1 .915-.611.99.99 0 0 1 .99.99Z" fill="#fff"/><path d="M264.812 99.9a.867.867 0 0 1-.703-.348 9.645 9.645 0 0 0-8.708-3.606.893.893 0 1 1-.212-1.776 11.423 11.423 0 0 1 10.31 4.293.899.899 0 0 1-.158 1.255.933.933 0 0 1-.529.182ZM261.72 110.527a.962.962 0 0 1-.446-.113.901.901 0 0 1-.333-1.225l1.776-3.076a.892.892 0 0 1 1.638.213.895.895 0 0 1-.088.679l-1.791 3.076a.903.903 0 0 1-.756.446Z" fill="#030303"/><path d="M233.054 131.059a3.771 3.771 0 1 0-7.342-1.733 3.773 3.773 0 0 0 7.342 1.733Z" fill="#F3849A"/><path d="M229.653 123.599a7.446 7.446 0 1 0-.532-14.882 7.446 7.446 0 0 0 .532 14.882Z" fill="#030303"/><path d="M227.59 115.871c0 .338-.1.669-.287.95a1.71 1.71 0 0 1-2.999-1.603 1.709 1.709 0 0 1 3.286.653ZM230.857 115.826a.992.992 0 0 1-1.69.7.991.991 0 1 1 1.69-.7Z" fill="#fff"/><path d="M222.987 99.9a.93.93 0 0 1-.552-.182.902.902 0 0 1-.159-1.255 11.424 11.424 0 0 1 10.333-4.294.89.89 0 0 1 .756.647.908.908 0 0 1-.081.68.908.908 0 0 1-.538.423.895.895 0 0 1-.348.027 9.628 9.628 0 0 0-8.701 3.605.886.886 0 0 1-.71.348ZM222.988 113.309a.864.864 0 0 1-.53-.174l-2.774-2.019a.895.895 0 1 1 1.059-1.443l2.774 2.033a.903.903 0 0 1-.009 1.443.903.903 0 0 1-.52.175v-.015ZM226.111 110.543a.883.883 0 0 1-.756-.454l-1.777-3.069a.9.9 0 0 1 .348-1.194.893.893 0 0 1 1.217.325l1.776 3.076a.9.9 0 0 1-.332 1.225.944.944 0 0 1-.476.091ZM245.279 139.735c-4.044 0-5.85-2.267-5.85-4.49a3.41 3.41 0 0 1 1.194-2.487 3.442 3.442 0 0 1-.86-1.121 3.441 3.441 0 0 1-.334-1.373c0-2.094 1.511-4.369 5.828-4.49a.898.898 0 0 1 .629 1.486.9.9 0 0 1-.576.305c-2.563.068-4.097 1.081-4.097 2.699 0 .756.854 1.421 1.368 1.723a.896.896 0 0 1 0 1.512c-.514.303-1.368.93-1.368 1.724 0 1.247 1.065 2.698 4.066 2.698a.905.905 0 0 1 .689.231.905.905 0 0 1 0 1.329.887.887 0 0 1-.689.232v.022Z" fill="#030303"/><path d="M95.136 126.779a12.095 12.095 0 0 0 11.625 11.951c5.398 0 11.588-5.042 11.588-11.951H95.136Z" fill="#CA3E74"/><path d="M96.837 116.745a7.445 7.445 0 1 0-14.89-.112 7.445 7.445 0 0 0 14.89.112ZM125.091 109.257a7.44 7.44 0 0 0-4.137 1.256 7.44 7.44 0 0 0-1.125 11.457 7.44 7.44 0 0 0 8.117 1.61 7.451 7.451 0 0 0 4.591-6.885 7.448 7.448 0 0 0-7.446-7.438Z" fill="#030303"/><path d="M87.6 116.409a1.71 1.71 0 0 1-2.04 1.683 1.706 1.706 0 0 1-.613-3.099 1.71 1.71 0 0 1 2.653 1.416ZM123.315 116.409a1.703 1.703 0 0 1-1.049 1.583 1.706 1.706 0 0 1-2.334-1.24 1.706 1.706 0 0 1 1.675-2.044 1.706 1.706 0 0 1 1.708 1.701ZM90.888 116.408a.997.997 0 1 1-1.994.015.997.997 0 0 1 1.994-.015ZM126.581 116.408a.988.988 0 0 1-1.183.971.983.983 0 0 1-.778-.778.983.983 0 0 1 .421-1.016.988.988 0 0 1 1.54.823Z" fill="#fff"/><path d="M131.82 101.933a.875.875 0 0 1-.703-.348 9.65 9.65 0 0 0-8.708-3.605.902.902 0 0 1-.933-.436.895.895 0 0 1-.083-.706.895.895 0 0 1 .804-.642 11.86 11.86 0 0 1 2.691 0 11.185 11.185 0 0 1 7.642 4.286.9.9 0 0 1-.158 1.254.883.883 0 0 1-.552.197ZM82.67 101.933a.881.881 0 0 1-.543-.189.894.894 0 0 1-.16-1.255 11.176 11.176 0 0 1 7.643-4.285 11.858 11.858 0 0 1 2.69 0 .9.9 0 0 1-.21 1.783 9.645 9.645 0 0 0-8.709 3.606.896.896 0 0 1-.71.34Z" fill="#030303"/><path d="M89.655 134.711a3.772 3.772 0 1 0-.535-7.525 3.772 3.772 0 0 0 .535 7.525ZM126.676 134.406a3.773 3.773 0 1 0-2.919-6.958 3.773 3.773 0 0 0 2.919 6.958Z" fill="#F3849A"/><path d="M106.761 139.622c-5.903 0-12.48-5.291-12.48-12.85a.89.89 0 0 1 .892-.892h23.176a.904.904 0 0 1 .636.258.897.897 0 0 1 .264.634c-.038 7.362-6.63 12.85-12.488 12.85Zm-10.658-11.943a11.187 11.187 0 0 0 10.658 10.159c4.808 0 10.159-4.286 10.658-10.159H96.103Z" fill="#030303"/></g><defs><clipPath id="a"><path fill="#fff" transform="translate(.18)" d="M0 0h354.1v176.373H0z"/></clipPath></defs></svg>