<svg width="1438" height="201" viewBox="0 0 1438 201" fill="none" xmlns="http://www.w3.org/2000/svg">
<g clip-path="url(#clip0_88_20582)">
<path d="M520.033 98.9234H388.262L355.181 144.707H500.023L520.033 98.9234Z" fill="#EC4851"/>
<path d="M416.609 59.6718H537.158L551.169 27.6003H439.797L416.609 59.6718Z" fill="#EC4851"/>
<path d="M64.235 144.708H208.882L255.065 98.9236H123.521L64.235 144.708Z" fill="#EC4851"/>
<path d="M256.494 98.3388H387.974L415.476 60.2559H294.861L256.494 98.3388Z" fill="#EC4851"/>
<path d="M1373.06 144.709L1314.49 98.9248H1182.95L1228.42 144.709H1373.06Z" fill="#EC4851"/>
<path d="M1082.12 144.708L1049.75 98.9242H917.977L937.274 144.708H1082.12Z" fill="#EC4851"/>
<path d="M784.938 98.9245H653.069L646.194 144.708H791.1L784.938 98.9245Z" fill="#EC4851"/>
<path d="M1023.15 60.2564L1050.04 98.3393H1181.52L1143.77 60.2564H1023.15Z" fill="#EC4851"/>
<path d="M658.324 60.2564H537.547L520.91 98.3393H652.583L658.324 60.2564Z" fill="#EC4851"/>
<path d="M917.1 98.3388L901.079 60.2559H780.302L785.426 98.3388H917.1Z" fill="#EC4851"/>
<path d="M663.838 27.6003L659.005 59.6718H779.62L775.274 27.6003H663.838Z" fill="#EC4851"/>
<path d="M887.942 27.6003L901.466 59.6718H1022.02L999.314 27.6003H887.942Z" fill="#EC4851"/>
<path d="M936.884 145.293H791.783L799.243 200.5H960.105L936.884 145.293Z" fill="#EC4851"/>
<path d="M645.513 145.293H500.413L476.316 200.5H637.178L645.513 145.293Z" fill="#EC4851"/>
<path d="M354.049 145.294H209.142L153.457 200.501H314.157L354.049 145.294Z" fill="#EC4851"/>
<path d="M1228.16 145.293H1083.25L1122.27 200.5H1282.97L1228.16 145.293Z" fill="#EC4851"/>
<path d="M1266.04 60.2564L1314.68 98.3393H1437.67L1378.12 60.2564H1266.04Z" fill="#EC4851"/>
<path d="M123.327 98.3383L172.559 60.2554H60.4736L0.344727 98.3383H123.327Z" fill="#EC4851"/>
<path d="M775.793 26.9825H887.068L875.911 0.5H772.226L775.793 26.9825Z" fill="#EC4851"/>
<path d="M1112.14 27.6003L1143.99 59.6718H1264.32L1223.29 27.6003H1112.14Z" fill="#EC4851"/>
<path d="M999.605 26.9827H1110.72L1084.41 0.500152H980.892L999.605 26.9827Z" fill="#EC4851"/>
<path d="M174.278 59.6719H294.6L326.968 27.6004H215.823L174.278 59.6719Z" fill="#EC4851"/>
<path d="M552.078 26.9825H663.32L667.309 0.5H563.624L552.078 26.9825Z" fill="#EC4851"/>
<path d="M328.396 26.9825H439.508L458.642 0.5H355.12L328.396 26.9825Z" fill="#EC4851"/>
</g>
<defs>
<clipPath id="clip0_88_20582">
<rect width="1437.32" height="200" fill="white" transform="translate(0.339844 0.5)"/>
</clipPath>
</defs>
</svg>
