<svg width="186" height="201" fill="none" xmlns="http://www.w3.org/2000/svg"><path d="M139.102 133.092c-1.445.847-3.94 1.668-5.628.966a5.058 5.058 0 0 1-2.568-3.757c-.204-1.97-1.524-3.638-3.638-3.638-1.806 0-3.842 1.668-3.639 3.638.447 4.216 2.66 8.314 6.607 10.232 3.947 1.918 8.984.952 12.557-1.156 4.026-2.377.375-8.669-3.671-6.278l-.02-.007Z" fill="#422D12"/><path d="M115.084 184.469c-12.065-1.76-21.252-.782-22.815.584a4.604 4.604 0 0 0-1.504 3.324s16.313 9.667 30.571 9.391c13.299-.263 17.41-5.477 18.711-8.538 1.3-3.06-.519-9.194-3.389-10.429-2.87-1.234-21.574 5.668-21.574 5.668Z" fill="#F3EBD8" stroke="#422D12" stroke-width="1.09" stroke-linecap="round" stroke-linejoin="round"/><path d="M107.321 166.474c-11.374-1.097-13.62 4.565-10.947 7.566-2.673 2.627-4.368 7.822-4.105 11.014 10.751 6.974 29.856 12.123 39.825 7.434 9.969-4.689 8.163-10.981 7.106-13.037-1.695-3.283-9.91-11.217-23.643-3.94-.913-1.143-2.87-1.662-2.87-1.662 3.455-3.198.703-6.771-5.366-7.375Z" fill="#F3EBD8" stroke="#422D12" stroke-width="1.09" stroke-linecap="round" stroke-linejoin="round"/><path d="M96.375 174.04a9.378 9.378 0 0 0 5.674 1.898M112.668 173.843c-2.279 1.661-6.975 2.095-6.975 2.095M115.538 175.504c-3.192 2.246-5.543 7.527-5.412 9.746" stroke="#422D12" stroke-width="1.09" stroke-linecap="round" stroke-linejoin="round"/><path d="M99.08 169.462c-.033-.959 0-36.042 1.478-53.314a5.123 5.123 0 0 1 9.023-2.871 5.126 5.126 0 0 1 1.189 3.738c-1.432 16.832-1.458 52.217-1.451 52.447.137 4.308-10.095 4.459-10.24 0Z" fill="#422D12"/><path d="M57.908 185.224c-6.042.657-9.345.552-10.783 1.846-1.222 1.09-.999 3.526-1.058 4.597-.124 2.292 1.695 6.685 14.449 7.881 11.591 1.103 21.672-7.756 21.672-7.756a8.638 8.638 0 0 0-.085-2.811c-.335-1.688-24.195-3.757-24.195-3.757Z" fill="#F3EBD8" stroke="#422D12" stroke-width="1.09" stroke-linecap="round" stroke-linejoin="round"/><path d="M79.022 175.938c3.251 6.062 3.034 13.049 3.034 13.049-7.835 6.725-17.187 10.679-30.584 4.433-13.135-6.127.374-22.381 11.749-16.838a5.3 5.3 0 0 1 1.55-1.137s-3.757-4.071 1.313-6.797c7.028-3.75 18.107 1.57 12.938 7.29Z" fill="#F3EBD8" stroke="#422D12" stroke-width="1.09" stroke-linecap="round" stroke-linejoin="round"/><path d="M63.262 176.581c10.192 3.941 10.508 11.887 10.508 11.887M64.777 175.445a8.66 8.66 0 0 0 4.4 2.312M79.023 175.938c-2.193 1.819-5.832 1.937-5.832 1.937" stroke="#422D12" stroke-width="1.09" stroke-linecap="round" stroke-linejoin="round"/><path d="M66.058 170.625c-.177-.959-3.317-36.226-2.102-53.197a5.125 5.125 0 0 1 5.472-4.706 5.127 5.127 0 0 1 4.747 5.435c-1.136 15.867 1.97 50.8 2.03 51.023 1.169 6.436-9.004 7.533-10.147 1.445Z" fill="#422D12"/><path d="M90.93 21.09s44.002-40.796 77.922-3.94c40.167 43.608-13.791 105.112-74.074 135.001-4.833 2.397-11.591 1.49-16.064-1.524-32.745-22.04-103.87-84.897-65.99-133.483C42.246-20.75 90.93 21.09 90.93 21.09Z" fill="#E25C30" stroke="#422D12" stroke-width="1.819" stroke-miterlimit="10"/><path d="M122.066 87.08c11.969 0 21.673-9.703 21.673-21.672 0-11.97-9.704-21.673-21.673-21.673-11.969 0-21.672 9.703-21.672 21.673 0 11.97 9.703 21.672 21.672 21.672Z" fill="#422D12"/><path d="M122.066 84.972c10.805 0 19.565-8.76 19.565-19.564 0-10.806-8.76-19.565-19.565-19.565-10.805 0-19.564 8.76-19.564 19.565 0 10.805 8.759 19.564 19.564 19.564Z" fill="#F3EBD8"/><path d="M122.067 79.712c7.899 0 14.303-6.404 14.303-14.304s-6.404-14.303-14.303-14.303c-7.9 0-14.304 6.404-14.304 14.303 0 7.9 6.404 14.304 14.304 14.304Z" fill="#422D12"/><path d="M119.295 62.13a3.285 3.285 0 1 1-6.318-1.257 3.287 3.287 0 0 1 3.034-2.026 3.284 3.284 0 0 1 3.284 3.284ZM123.518 56.548a1.915 1.915 0 0 1-1.176 1.77 1.908 1.908 0 0 1-2.609-1.388 1.909 1.909 0 0 1 1.873-2.286 1.91 1.91 0 0 1 1.912 1.904Z" fill="#F3EBD8"/><path d="M57.784 87.08c11.97 0 21.672-9.703 21.672-21.672 0-11.97-9.703-21.673-21.672-21.673-11.97 0-21.673 9.703-21.673 21.673 0 11.97 9.704 21.672 21.673 21.672Z" fill="#422D12"/><path d="M57.784 84.972c10.805 0 19.565-8.76 19.565-19.564 0-10.806-8.76-19.565-19.565-19.565-10.805 0-19.564 8.76-19.564 19.565 0 10.805 8.759 19.564 19.564 19.564Z" fill="#F3EBD8"/><path d="M57.784 79.712c7.9 0 14.304-6.404 14.304-14.304s-6.404-14.303-14.304-14.303-14.303 6.404-14.303 14.303c0 7.9 6.404 14.304 14.303 14.304Z" fill="#422D12"/><path d="M55.012 62.13a3.284 3.284 0 1 1-6.568 0 3.284 3.284 0 0 1 6.568 0ZM59.235 56.548a1.91 1.91 0 1 1-3.82.013 1.91 1.91 0 0 1 3.82-.013Z" fill="#F3EBD8"/><path d="M46.921 39.552a1.72 1.72 0 0 1-.243-3.422c4.971-.746 9.9-1.743 14.77-2.988a1.717 1.717 0 1 1 .841 3.33 151.58 151.58 0 0 1-15.105 3.067 1.508 1.508 0 0 1-.263.013ZM132.935 39.552a1.58 1.58 0 0 1-.25 0 152.355 152.355 0 0 1-15.105-3.067 1.714 1.714 0 0 1-1.058-.79 1.729 1.729 0 0 1 .099-1.912 1.74 1.74 0 0 1 1.134-.676c.224-.032.453-.02.672.035a148.06 148.06 0 0 0 14.77 2.988 1.72 1.72 0 0 1-.243 3.422h-.019Z" fill="#422D12"/><path d="M122.066 79.225a36.018 36.018 0 0 1-7.703-1.083c-4.597-1.07-7.224 5.01-3.33 7.605a20.741 20.741 0 0 0 22.067 0c3.94-2.594 1.241-8.676-3.33-7.605a36.018 36.018 0 0 1-7.704 1.083ZM57.785 79.225a35.967 35.967 0 0 1-7.697-1.083c-4.598-1.07-7.225 5.01-3.337 7.605a20.746 20.746 0 0 0 22.073 0c3.908-2.594 1.235-8.676-3.336-7.605a35.963 35.963 0 0 1-7.703 1.083Z" fill="#5DCBEF"/><path d="M71.93 92.275a1.72 1.72 0 0 1 1.55.979 19.359 19.359 0 0 0 17.453 10.989 19.356 19.356 0 0 0 17.453-10.99 1.717 1.717 0 0 1 1.655-1.02 1.722 1.722 0 0 1 1.445 2.511 22.798 22.798 0 0 1-32.695 9.433 22.797 22.797 0 0 1-8.41-9.433 1.72 1.72 0 0 1 .807-2.298c.232-.11.485-.169.742-.17Z" fill="#422D12"/><path d="M148.388 18.864c3.941-1.438 7.645 1.136 10.587 3.639 2.784 2.37 6.364 5.91 6.797 9.673.388 3.402-3.599 6.857-6.712 4.289-2.364-1.97-3.697-4.9-5.911-7.047-2.049-1.97-5.339-3.165-6.383-5.97-.617-1.615-.243-3.907 1.622-4.584ZM164.032 44.044c.098-.38.105-.368 0 .053a5.619 5.619 0 0 1 .735-1.97c.788-1.137 2.062-1.314 3.284-1.019 1.221.296 2.515 1.63 3.034 2.667a5.906 5.906 0 0 1 .401 4.67c-1.012 2.534-4.663 3.447-6.443 1.116a6.564 6.564 0 0 1-1.235-3.94 2.94 2.94 0 0 1 .224-1.577Z" fill="#F3EBD8"/><path d="M180.897 109.942c2.265 1.556 3.691 5.91 4.183 8.537.434 2.345.657 5.254-.768 7.316-1.314 1.826-4.02 1.852-6.029 2.194.233.239.452.491.657.755a2.264 2.264 0 0 1 .505 1.734 3.014 3.014 0 0 1-1.385 1.898c-.367.25-.781.423-1.217.507a3.256 3.256 0 0 1-1.319-.021l-.131-.033-.131-.046-.125-.052-.125-.059-.118-.066-.118-.066-.112-.079-.111-.078-.106-.086-.098-.092-.099-.098-.092-.105-.085-.105-.079-.112a1.186 1.186 0 0 1-.072-.112l-.072-.118c-.539-.998-.25-2.016.059-3.028-1.865.243-3.77.454-5.622.821a7.57 7.57 0 0 1 1.97 2.043 2.005 2.005 0 0 1 .079 1.615 2.924 2.924 0 0 1-1.55 1.583 2.901 2.901 0 0 1-2.371 0c-3.126-1.313-.486-3.894-.899-4.893-.857.028-1.714-.02-2.562-.144-.952-.197-2.062-.946-3.034-.893a18.918 18.918 0 0 0-3.047.689l-6.962 1.682a577.912 577.912 0 0 0-20.129 5.037c-3.349.867-6.751 1.642-10.061 2.66a25.852 25.852 0 0 1-.243 9.792c-1.865 7.618-8.058 11.67-15.762 11.421-3.77-.125-7.487-1.78-11.164 0-3.205 1.569-4.762 4.735-7.08 7.224a26.053 26.053 0 0 1-5.694 4.525 25.687 25.687 0 0 1-19.046 2.909c-7.559-1.898-12.905-7.185-16.786-13.713a23.913 23.913 0 0 1-.867-1.556c-4.157-7.934-6.876-19.466-4.105-28.24.053-.171.105-.348.165-.519.059-.171.118-.342.183-.512.066-.171.125-.335.19-.506.066-.171.132-.335.204-.506l.217-.499c.072-.164.151-.328.23-.486.079-.157.158-.328.243-.492l.25-.48.262-.473c.092-.157.184-.315.283-.466.098-.151.184-.309.282-.46.099-.151.197-.308.302-.453.105-.144.204-.302.309-.446.105-.145.21-.296.322-.44l.328-.434.342-.42.354-.414c.118-.138.237-.269.361-.401.125-.131.243-.269.368-.4l.381-.388.394-.374c.131-.125.263-.25.4-.368.139-.118.27-.243.408-.361l.414-.348.427-.335.433-.328.44-.316.453-.302.453-.295.467-.283.473-.269.472-.263c6.568-3.421 13.64-3.211 20.307-.216 2.344 1.057 4.597 2.462 7.034 3.231 1.109.388 2.279.575 3.454.552 3.895-.178 7.947-4.191 11.467-6.016a15.926 15.926 0 0 1 12.59-1.176 21.059 21.059 0 0 1 10.75 8.393 35.03 35.03 0 0 1 1.866 3.323c1.865-.486 3.782-.84 5.667-1.241l10.718-2.206 23.505-4.827c1.576-3.284 1.885-2.332 4.84-3.383a6.22 6.22 0 0 1-1.379-1.136 1.786 1.786 0 0 1-.459-1.366 2.147 2.147 0 0 1 .985-1.458 4.062 4.062 0 0 1 3.008-.617 2.106 2.106 0 0 1 1.372.893c.48.762.191 1.707 0 2.528 1.543-.518 3.12-.939 4.663-1.477a3.24 3.24 0 0 1-.578-1.399 1.795 1.795 0 0 1 .407-1.373 3.093 3.093 0 0 1 2.049-.972 2.88 2.88 0 0 1 2.135.532 2.367 2.367 0 0 1 .748 1.741c.828-.217 1.623-.565 2.444-.808a4.395 4.395 0 0 1 3.52.368Z" fill="#422D12"/><path d="M98.114 136.612c.164.736.407 1.478.611 2.2-.82.223-1.648.466-2.489.624-.125-.138-.342-1.799-.486-2.22.788-.197 1.576-.394 2.364-.604ZM97.373 133.979c.175.669.346 1.339.512 2.009-.538.151-1.727.657-2.272.539-.112 0-.138-.119-.197-.204a11.848 11.848 0 0 0-1.103-1.615l3.06-.729ZM173.332 109.285c.116.096.22.207.309.328a1.06 1.06 0 0 1 .256.808.852.852 0 0 1-.512.545 4.002 4.002 0 0 1-2.049.434 4.314 4.314 0 0 1-.532-.506.976.976 0 0 1-.23-.755.99.99 0 0 1 .188-.385.99.99 0 0 1 .331-.272 2.945 2.945 0 0 1 2.239-.197ZM164.189 110.986c.19.092.341.248.427.44.289.722-.151 1.622-.446 2.279a7.625 7.625 0 0 0-.972.387c-.342-.269-.723-.505-1.084-.748a2.485 2.485 0 0 1-.781-.657.861.861 0 0 1-.132-.657c.114-.324.349-.59.657-.742a3.157 3.157 0 0 1 2.331-.302ZM84.278 139.928c.094.236.176.477.243.723.24.615.554 1.199.932 1.74a29.738 29.738 0 0 1-3.185.979.45.45 0 0 1-.157-.06 20.448 20.448 0 0 1-1.143-2.745c1.083-.269 2.2-.413 3.31-.637Z" fill="#5DCBEF"/><path d="M58.453 135.101a2.981 2.981 0 0 1 2.24-.867 2.342 2.342 0 0 1 1.53.92c.873 1.156 1.7 4.958 2.134 6.528.657 2.417 1.314 4.873 2.062 7.264-.512-.368-2.567-7.12-2.902-8.183-.434-1.399-.999-3.974-1.918-5.011-1.195-1.353-1.924-.184-2.91-.25a.764.764 0 0 1-.236-.401Z" fill="#89878B"/><path d="M167.027 129.499c.748.762 2.082 1.59 2.371 2.627a.997.997 0 0 1-.086.808 2.342 2.342 0 0 1-1.458.841c-.42.022-.84-.043-1.234-.191a1.058 1.058 0 0 1-.403-.254 1.058 1.058 0 0 1-.254-.403c-.309-.978.643-2.535 1.064-3.428ZM84.514 136.271c-.277.98-.406 1.996-.38 3.014-1.091.243-2.2.433-3.284.657a9.415 9.415 0 0 1 .085-2.943c1.162-.321 2.384-.525 3.58-.728ZM177.095 128.12c.359.342.687.716.979 1.117a1.51 1.51 0 0 1 .308 1.208 2.06 2.06 0 0 1-1.083 1.182 2.217 2.217 0 0 1-1.8.177 2.247 2.247 0 0 1-.781-.748c-.414-.815.046-1.865.295-2.667a37.988 37.988 0 0 1 2.082-.269ZM82.044 133.545c.19-.372.41-.728.657-1.064.098-.131.19-.263.295-.388l.309-.374.328-.355c.112-.118.23-.229.348-.341l.362-.322.38-.302.395-.282c.13-.092.269-.178.407-.263l.42-.243c.138-.079.282-.151.434-.223.15-.073.288-.138.44-.197.15-.059.295-.125.453-.178.157-.052.302-.105.46-.157l.466-.125c.157-.046.315-.079.473-.112.157-.033.315-.059.479-.079a10.368 10.368 0 0 1 7.88 2.102 3.424 3.424 0 0 0-.525.25.655.655 0 0 0-.045.492l-.106-.039c-.532-.23-.991-.657-1.523-.861l-.44-.183-.447-.165-.453-.144-.46-.118-.466-.099-.473-.072-.473-.046H90.194l-.473.039-.473.073c-.157 0-.308.052-.466.092l-.46.111c-.15.04-.308.086-.46.138l-.446.158a11.224 11.224 0 0 0-3.415 1.97c-.342.302-1.018 1.313-1.366 1.464a.54.54 0 0 1-.466-.065.5.5 0 0 1-.125-.092Z" fill="#5DCBEF"/><path d="M59.032 140.342c.16.11.312.233.453.368 1.563 1.517 2.962 7.054 2.942 9.136.039.379-.072.758-.309 1.057-.098.085-.197.046-.322.046-1.004-.946-1.786-2.982-2.259-4.302-.473-1.32-1.55-4.938-.965-6.173a.557.557 0 0 1 .46-.132Z" fill="#F3EBD8"/><path d="M80.04 137.137c.105.519 0 2.174.06 2.89-1.518.387-14.068 3.231-14.521 3.179l-.073-.224-.702-2.627c1.477-.282 2.935-.656 4.4-.945l10.836-2.273Z" fill="#EA9E2F"/><path d="M96.478 131.384c.306.603.538 1.24.69 1.898-1.175.329-2.364.618-3.54.946a6.263 6.263 0 0 0-4.86-1.261 5.839 5.839 0 0 0-3.848 2.509l-.053.085c-1.274.329-2.58.526-3.868.775a9.849 9.849 0 0 1 1.044-2.791c.041.046.09.084.145.112a.54.54 0 0 0 .466.065c.348-.137 1.025-1.162 1.366-1.464a11.224 11.224 0 0 1 3.415-1.97l.447-.158a6.17 6.17 0 0 1 .46-.138l.46-.112c.157-.039.308-.065.465-.091l.473-.073.447-.072H91.612l.473.046.473.072.466.099.46.118.453.144.447.165.44.184c.531.236.991.656 1.523.86l.132.052Z" fill="#5DCBEF"/><path d="M80.256 140.736c.322 1.012.775 1.971 1.176 2.916-4.111 1.393-8.36 2.424-12.557 3.514a8.708 8.708 0 0 1-2.023.506l-.085-.138c-.374-1.202-.657-2.424-.998-3.645 2.896-.736 5.831-1.314 8.754-1.918 1.911-.407 3.842-.893 5.733-1.235Z" fill="#EA9E2F"/><path d="M98.864 139.449c.285.824.47 1.68.551 2.548a12.57 12.57 0 0 1-1.425 2.299 9.649 9.649 0 0 1-6.502 3.389 10.59 10.59 0 0 1-7.664-2.417c-.453-.427-.886-.874-1.313-1.314a51.288 51.288 0 0 0 3.428-1.024 7.978 7.978 0 0 0 2.712 1.563l.29.072.295.066.295.046h.296c.098.006.197.006.295 0H91.022l.296-.04.295-.052.29-.066.288-.085.283-.092.275-.112.276-.118.263-.138a5.796 5.796 0 0 0 2.771-3.816 123.27 123.27 0 0 1 2.805-.709Z" fill="#5DCBEF"/><path d="M58.454 135.101a.764.764 0 0 0 .236.401c.985.066 1.714-1.103 2.91.249.92 1.038 1.484 3.613 1.917 5.011.335 1.064 2.39 7.816 2.903 8.183a53.314 53.314 0 0 1 1.57 5.254 1.31 1.31 0 0 1-.467.69 4.508 4.508 0 0 1-2.672 1.077 1.577 1.577 0 0 1-1.123-.657 9.196 9.196 0 0 1-1.19-3.645c.304-.238.51-.579.579-.958.499-2.161-1.248-7.796-2.443-9.733a3.284 3.284 0 0 0-2.076-1.649 22.942 22.942 0 0 1-.657-3.008 1.444 1.444 0 0 1 .513-1.215Z" fill="#422D12"/><path d="m157.615 119.3.316.657-38.847 8.505-14.212 3.1c-2.187.473-4.827 1.208-6.994 1.477a1.036 1.036 0 0 1-.223-.538l-.302-1.215 9.792-1.918c2.548-.519 5.076-1.09 7.638-1.569 4.216-.789 8.452-1.465 12.668-2.325a1622.947 1622.947 0 0 1 21.673-4.387c2.85-.578 5.648-1.294 8.491-1.787ZM158.016 120.286c.145.361.237.768.348 1.142a4109.022 4109.022 0 0 1-45.131 10.837 336.094 336.094 0 0 0-9.254 2.213 45.958 45.958 0 0 1-5.254 1.261 1.095 1.095 0 0 1-.223-.539c-.125-.505-.296-1.011-.453-1.504 5.155-1.018 10.291-2.233 15.407-3.388a2049.83 2049.83 0 0 0 20.405-4.598l13.549-3.008c3.507-.768 7.139-1.477 10.606-2.416ZM159.251 125.618c.089.474.153.952.19 1.432-2.752.558-5.451 1.313-8.183 1.97-12.084 2.798-24.069 5.976-36.121 8.958a643.723 643.723 0 0 1-10.508 2.535c-1.313.315-2.627.696-3.94.966a.82.82 0 0 1-.585 0l-.085-.303a18.21 18.21 0 0 0-.394-1.891c2.883-.578 5.74-1.359 8.59-2.069a421.604 421.604 0 0 1 11.034-2.568l20.851-4.511a415.396 415.396 0 0 0 19.151-4.519ZM158.49 122.039c.149.412.254.839.315 1.274-8.341 2.193-16.793 3.868-25.219 5.694-4.827 1.044-9.654 1.898-14.33 3.533a18.248 18.248 0 0 0 3.94-.709l6.568-1.471 29.205-6.476.23 1.235c-2.331.696-4.742 1.188-7.113 1.74a578.678 578.678 0 0 1-13.18 2.962l-39.523 8.84a66.496 66.496 0 0 0-.552-2.253l41.927-10.173c5.91-1.412 11.782-2.968 17.732-4.196Z" fill="#EA9E2F"/><path d="M118.369 145.57a.683.683 0 0 1 0 .23c-.473 3.763-2.2 7.612-5.254 9.95-2.87 2.206-6.712 2.962-10.265 2.627-1.484-.145-2.936-.48-4.413-.657a11.425 11.425 0 0 0-10.666 4.104c-.657.756-1.222 1.59-1.826 2.384a23.109 23.109 0 0 1-4.163 4.282 24.468 24.468 0 0 1-18.08 5.156c-6.47-.834-11.822-4.597-15.762-9.694-.46-.597-.88-1.215-1.314-1.839.847.729 1.583 1.623 2.417 2.384a25.953 25.953 0 0 0 8.767 5.346c6.515 2.266 13.102 1.412 19.23-1.53a25.8 25.8 0 0 0 6.83-4.597c2.804-2.712 4.827-6.673 8.728-8.012 2.207-.762 4.597-.257 6.85 0 3.875.446 8.17.335 11.729-1.406 3.829-1.878 5.865-4.827 7.192-8.728Z" fill="#BE5E2D"/><path d="M182.788 116.259c-.657-1.76-1.412-4.4-3.284-5.254a2.087 2.087 0 0 0-1.09-.184c-1.53.184-3.612 1.018-5.149 1.491a229.315 229.315 0 0 0-5.523 1.695c-.736.236-1.517.44-2.24.722h-.052c-1.8.493-3.54 1.097-5.353 1.543l-1.011.145a35.872 35.872 0 0 0-1.07 1.734 40.36 40.36 0 0 1 2.081 8.688c1.242.434 2.726 1.13 4.033 1.169a23.134 23.134 0 0 0 3.553-.335c2.627-.328 5.269-.7 7.927-1.116 1.727-.256 3.494-.361 5.208-.657a7.201 7.201 0 0 0 1.622-.453 2.3 2.3 0 0 0 .867-1.169c.926-2.193.374-5.904-.519-8.019ZM108.688 118.44a20.468 20.468 0 0 1 6.758 8.268 1215.508 1215.508 0 0 0-17.686 3.593 11.542 11.542 0 0 0-4.499-2.351 10.741 10.741 0 0 0-7.999 1.162 11.275 11.275 0 0 0-5.07 7.296 560.455 560.455 0 0 1-15.565 3.337c-.466-1.609-1.05-4.538-2.377-5.602a2.626 2.626 0 0 0-2.076-.539 3.71 3.71 0 0 0-2.489 1.366 2.214 2.214 0 0 0-.387 1.195c-.04 1.077.374 2.135.46 3.205.052.618-.053 1.248-.046 1.872.03.901.148 1.796.354 2.673a20.705 20.705 0 0 0 2.319 6.357c.452.557.87 1.14 1.254 1.747.578 1.314.716 3.593 1.97 4.381a3.237 3.237 0 0 0 2.49.216c.84-.229 1.937-.709 2.37-1.497a1.58 1.58 0 0 0 .164-.965c-.105-1.261-1.254-4.447-1.681-5.859 1.103-.236 2.2-.551 3.284-.827a196.236 196.236 0 0 0 11.512-3.284c.127.158.259.315.394.473.132.151.276.302.414.447.138.144.296.289.447.427.15.137.302.275.46.4.157.125.321.256.486.381l.505.348c.171.112.348.217.526.315.177.099.354.204.538.296l.243.118.25.112.25.111.255.099.25.098.263.086.256.085.263.072.262.073.263.059.27.059.268.046.263.046.276.033.27.033h2.508l.27-.04.269-.046.269-.052.262-.053.263-.066.263-.072.263-.079.256-.085a10.437 10.437 0 0 0 6.029-5.464c2.699-.755 5.451-1.314 8.169-1.97l9.53-2.411c.098.5.177.999.249 1.498a14.199 14.199 0 0 1-2.843 10.6c-4.289 4.958-9.851 5.418-15.966 4.741-2.47-.269-4.853-.689-7.224.243-3.684 1.445-5.556 4.913-8.144 7.645-3.395 3.586-8.958 6.331-13.791 7.224l-.565.098-.565.086-.565.072-.57.059-.572.046H64.358l-.572-.039-.525.026-.565-.072-.564-.079c-.191-.033-.381-.059-.565-.099l-.565-.105-.558-.124-.552-.138-.552-.151-.551-.165a8.039 8.039 0 0 1-.539-.177l-.545-.19-.532-.204-.532-.217-.519-.229-.519-.243-.512-.25-.505-.269-.5-.283-.492-.289-.486-.308-.473-.316c-7.48-5.089-10.882-12.287-12.518-20.969a33.034 33.034 0 0 1-.433-3.586c-.453-5.589.361-11.066 3.592-15.762a20.792 20.792 0 0 1 9.957-7.763 23.482 23.482 0 0 1 2.627-.716c.446-.092.88-.17 1.313-.236a23.01 23.01 0 0 1 1.314-.151c5.365-.434 9.568 1.392 14.238 3.691 2.666 1.313 5.438 2.627 8.492 2.371 3.48-.302 6.186-2.739 8.977-4.598a19.418 19.418 0 0 1 7.224-3.198c4.085-.768 7.914.578 11.27 2.903Z" fill="#EA9E2F"/><path d="M110.915 122.137c.096.072.18.158.25.256a.666.666 0 0 1 .098.512c-.164.112-.19.092-.4.079a1.99 1.99 0 0 1-.348-.368.521.521 0 0 1-.112-.44c.197-.118.289-.072.512-.039ZM72.777 122.827c.314.167.582.408.782.703.052.112 0 .125 0 .23a.874.874 0 0 1-.513.092 1.581 1.581 0 0 1-.742-.703c-.046-.112 0-.125.046-.223.137-.054.28-.087.427-.099ZM109.234 120.298c.272.216.521.461.742.729a.737.737 0 0 1 .197.591c-.145.178-.184.158-.401.197a9.634 9.634 0 0 1-.853-.801.576.576 0 0 1-.171-.46.805.805 0 0 1 .486-.256ZM107.545 118.597c.137.093.269.194.394.302.294.258.482.616.526 1.005-.04.079-.04.151-.132.191a1.022 1.022 0 0 1-.657-.086 2.486 2.486 0 0 1-.834-.729.738.738 0 0 1-.124-.657 1.06 1.06 0 0 1 .827-.026ZM89.997 120.693c.04.082.062.171.066.263a1.065 1.065 0 0 1-.48.761 1.676 1.676 0 0 1-1.274.447.833.833 0 0 1-.059-.696 1.627 1.627 0 0 1 .952-.847.867.867 0 0 1 .795.072ZM71.077 121.645c.234.126.443.293.618.492a.584.584 0 0 1 .17.454.358.358 0 0 1-.23.157 2.029 2.029 0 0 1-1.477-.427 2.873 2.873 0 0 1-.657-.4.575.575 0 0 1-.164-.434.473.473 0 0 1 .23-.177 1.814 1.814 0 0 1 1.51.335ZM87.686 122.072l.033.033a.431.431 0 0 1 .144.413 2.033 2.033 0 0 1-.538.624 2.509 2.509 0 0 1-1.767.736.79.79 0 0 1-.164-.289.441.441 0 0 1 .085-.368 3.78 3.78 0 0 1 2.207-1.149ZM92.276 118.86a.952.952 0 0 1 .296.414.55.55 0 0 1-.098.479c-.475.5-1.1.83-1.78.94a.794.794 0 0 1-.355-.513.798.798 0 0 1 .283-.656 2.288 2.288 0 0 1 1.654-.664ZM47.073 123.405c.106.127.184.274.23.433a.993.993 0 0 1-.164.69c-.414.51-1.01.84-1.662.919a.648.648 0 0 1-.302-.407.837.837 0 0 1 .223-.657 2.623 2.623 0 0 1 1.675-.978ZM49.923 121.067c.178.123.316.297.395.499a.654.654 0 0 1-.138.578 2.898 2.898 0 0 1-1.774.906l-.203-.125a.508.508 0 0 1-.224-.407.88.88 0 0 1 .257-.565 2.71 2.71 0 0 1 1.687-.886ZM105.95 117.718a.986.986 0 0 1 .42.506.713.713 0 0 1-.052.584c-.296.276-.703.131-1.051.053-3.211-.775-5.733-1.275-9.03-.434-.94.237-1.826.657-2.771.867h-.092a1.245 1.245 0 0 1-.467-.525.554.554 0 0 1 .08-.493c.433-.749 2.147-1.215 2.922-1.438 3.264-.92 7.04-.795 10.041.88ZM68.245 120.055a1.191 1.191 0 0 1 .584.756.458.458 0 0 1-.118.413 1.05 1.05 0 0 1-.703.145 8.15 8.15 0 0 1-1.392-.361c-.94-.27-1.878-.559-2.837-.749a21.015 21.015 0 0 0-8.952.184 31.995 31.995 0 0 1-3.283.945h-.105a.569.569 0 0 1-.138-.052.75.75 0 0 1-.414-.466.659.659 0 0 1 .072-.532c.512-.854 2.864-1.485 3.783-1.734a17.699 17.699 0 0 1 3.251-.611c3.1-.171 7.585.486 10.252 2.062Z" fill="#F3EBD8"/><path d="M176.798 122.032c.299.199.529.486.657.821a.82.82 0 0 1-.046.657 1.972 1.972 0 0 1-1.189.88 3.281 3.281 0 0 1-2.535-.237 2.3 2.3 0 0 1-.558-.656.871.871 0 0 1-.111-.742c.191-.386.526-.68.932-.821a3.647 3.647 0 0 1 2.85.098Z" fill="#422D12"/><path d="M176.418 122.63a.984.984 0 0 1 .151.171.703.703 0 0 1 .125.545.663.663 0 0 1-.263.249 2.896 2.896 0 0 1-2.213 0 1.2 1.2 0 0 1-.335-.374.494.494 0 0 1 0-.44.955.955 0 0 1 .341-.263 3.004 3.004 0 0 1 2.194.112Z" fill="#5DCBEF"/><path d="M168.84 123.779c.307.201.549.486.696.821a.828.828 0 0 1 0 .657c-.212.402-.565.71-.992.867a3.552 3.552 0 0 1-2.627-.099 1.967 1.967 0 0 1-.735-.755.887.887 0 0 1-.046-.755c.116-.215.274-.404.464-.557.191-.152.411-.264.646-.33a3.45 3.45 0 0 1 2.594.151Z" fill="#422D12"/><path d="M168.439 124.39c.083.07.16.146.23.229a.44.44 0 0 1-.132.756 3.352 3.352 0 0 1-2.331.079.85.85 0 0 1-.368-.375.326.326 0 0 1 0-.269.95.95 0 0 1 .532-.42 2.831 2.831 0 0 1 2.069 0Z" fill="#5DCBEF"/><path d="M163.532 117.251a3.462 3.462 0 0 1 2.49-.696 1.869 1.869 0 0 1 1.228.946 1.366 1.366 0 0 1-.171 1.215 2.597 2.597 0 0 1-1.714 1.005 2.332 2.332 0 0 1-1.78-.322 1.21 1.21 0 0 1-.506-.841 1.674 1.674 0 0 1 .453-1.307Z" fill="#422D12"/><path d="M166.553 117.737a.569.569 0 0 1 0 .492 1.965 1.965 0 0 1-1.248.703 1.726 1.726 0 0 1-1.175-.105.522.522 0 0 1-.176-.154.522.522 0 0 1-.094-.214v-.243c.266.121.555.182.848.178a2.801 2.801 0 0 0 1.845-.657Z" fill="#5DCBEF"/><path d="M163.796 118.217c.11-.188.243-.362.394-.519a1.937 1.937 0 0 1 1.425-.499 1.255 1.255 0 0 1 .939.539 2.797 2.797 0 0 1-1.911.656 1.964 1.964 0 0 1-.847-.177Z" fill="#5DCBEF"/><path d="M174.198 114.289a1.605 1.605 0 0 1 .835.953 1.265 1.265 0 0 1-.204 1.024 2.715 2.715 0 0 1-1.747 1.051 2.394 2.394 0 0 1-1.852-.381 2.525 2.525 0 0 1-.466-.486 1.644 1.644 0 0 1-.073-.854 1.587 1.587 0 0 1 .782-.926l.151-.085.158-.079.164-.072.164-.059.171-.059.171-.046.17-.033h1.228l.171.033.177.019Z" fill="#422D12"/><path d="M174.395 115.511a2.212 2.212 0 0 1-1.464 1.037 1.311 1.311 0 0 1-1.524-.492 5.035 5.035 0 0 0 2.988-.545Z" fill="#5DCBEF"/><path d="M171.407 116.056c.011-.116.035-.231.072-.342.192-.34.5-.599.867-.729a2.052 2.052 0 0 1 1.583 0 .823.823 0 0 1 .466.552 5.036 5.036 0 0 1-2.988.519Z" fill="#5DCBEF"/><path d="M156.768 123.681c.755-3.074 1.228-6.266-.46-8.788a4.446 4.446 0 0 0-4.157-2.121 3.895 3.895 0 0 0-1.11.342 4.256 4.256 0 0 0-.184-.289l-.079-.118a4.445 4.445 0 0 0-4.157-2.122 3.942 3.942 0 0 0-1.169.368 2.69 2.69 0 0 0-.223-.381l-.079-.112a4.446 4.446 0 0 0-4.157-2.121 5.259 5.259 0 0 0-3.126 1.97 13.174 13.174 0 0 0-3.205 7.225 6.174 6.174 0 0 0 .341 2.968 4.848 4.848 0 0 0-5.871 4.998 7.13 7.13 0 0 0 2.187 4.925c.98.975 2.111 1.784 3.349 2.398a2.1 2.1 0 0 0-.433.853c-.289 1.182.42 2.457 1.116 3.192a7.97 7.97 0 0 0 2.851 1.819c.943.367 1.92.642 2.916.821 1.536.289 4.774.434 6.022-1.077a2.312 2.312 0 0 0 .46-1.898 11.03 11.03 0 0 0 6.232-4.971c1.53-2.47 2.319-5.366 2.936-7.881ZM144.5 113.429a3.943 3.943 0 0 1 2.305-1.504 3.17 3.17 0 0 1 2.857 1.53l.079.118.098.145v.158a8.643 8.643 0 0 0-.854.847 13.135 13.135 0 0 0-3.204 7.224v.315c0 .112-.06.04-.079.072a2.395 2.395 0 0 1-3.179.697c-1.051-.697-.978-2.417-.906-3.127a11.82 11.82 0 0 1 2.883-6.475Zm-8.498 4.243a11.813 11.813 0 0 1 2.87-6.489 3.94 3.94 0 0 1 2.305-1.504 3.174 3.174 0 0 1 2.857 1.53l.078.118.099.145v.066c0 .045 0 .124.052.21a9.015 9.015 0 0 0-.788.788 13.178 13.178 0 0 0-3.205 7.224c.003.05.003.101 0 .151a.618.618 0 0 0-.19.177 2.395 2.395 0 0 1-3.179.696c-1.044-.683-.978-2.403-.899-3.112Zm16.687 13.174a9.957 9.957 0 0 1-4.971 4.242h-.105a6.155 6.155 0 0 1-3.652-.459c-.814-.289-1.313.958-.499 1.254.891.348 1.826.569 2.778.657a1.025 1.025 0 0 1-.138.998c-.735.887-3.283.887-4.735.611-1.615-.302-3.809-.933-5.044-2.24a2.45 2.45 0 0 1-.781-1.97.842.842 0 0 1 .532-.584.668.668 0 0 0 .151.118 12.26 12.26 0 0 0 3.146 1.156c.84.19.985-1.15.144-1.314a11.003 11.003 0 0 1-2.791-1.064.45.45 0 0 0-.21-.072.643.643 0 0 0-.217-.151 11.326 11.326 0 0 1-4.026-2.588 5.773 5.773 0 0 1-1.793-3.94 3.836 3.836 0 0 1 2.043-3.448 4.442 4.442 0 0 1 3.638.19 4.849 4.849 0 0 1 1.642 1.393c.336.404.703.781 1.097 1.129l.269.237c.657.551 1.747 1.477 1.924 2.134.388 1.419-1.182 2.076-1.668 2.24a3.803 3.803 0 0 1-1.814.096 3.802 3.802 0 0 1-1.653-.753 16.248 16.248 0 0 1-3.389-3.113.665.665 0 0 0-.454-.242.678.678 0 0 0-.492.15.68.68 0 0 0-.242.454.68.68 0 0 0 .15.492 17.423 17.423 0 0 0 3.691 3.382 5.104 5.104 0 0 0 4.637.801c1.97-.657 2.988-2.193 2.535-3.868-.289-1.057-1.485-2.069-2.351-2.811l-.263-.223a9.883 9.883 0 0 1-.992-.992l-.276-.315a3.813 3.813 0 0 0 1.8-.703 3.524 3.524 0 0 0 1.451 2.437 3.4 3.4 0 0 0 .572.295 3.797 3.797 0 0 0 3.526-.427 3.51 3.51 0 0 0 1.465 2.325 3.651 3.651 0 0 0 4.197-.407c0 .401-.046.775-.046 1.117a.672.672 0 1 0 1.346 0c-.003-1.188.159-2.37.479-3.514.256-.532.467-1.077.657-1.596a.669.669 0 0 0-1.208-.578 8.282 8.282 0 0 0-.716 1.695 5.764 5.764 0 0 1-1.13 1.615c-.742.69-1.97 1.077-2.837.525-1.051-.696-.985-2.416-.906-3.126a11.775 11.775 0 0 1 2.87-6.488 3.94 3.94 0 0 1 2.305-1.504 3.158 3.158 0 0 1 2.85 1.53c1.399 2.088.959 4.945.276 7.717-.617 2.541-1.346 5.201-2.772 7.5Z" fill="#422D12"/><path d="M155.461 123.359c.657-2.771 1.123-5.628-.276-7.716a3.151 3.151 0 0 0-2.85-1.531 3.064 3.064 0 0 0-1.544.762l-1.018-1.28-.078-.119a3.174 3.174 0 0 0-2.857-1.53 3.1 3.1 0 0 0-1.524.742l-1.129-1.313-.04-.059-.079-.119a3.164 3.164 0 0 0-2.856-1.53 3.942 3.942 0 0 0-2.306 1.504 11.826 11.826 0 0 0-2.811 6.049c-.243 1.143 0 4.045.086 5.011a4.414 4.414 0 0 0-3.625-.191 3.842 3.842 0 0 0-2.043 3.448 5.776 5.776 0 0 0 1.793 3.941 11.329 11.329 0 0 0 4.026 2.587.668.668 0 0 1 .217.151.45.45 0 0 1 .21.072 10.9 10.9 0 0 0 2.791 1.064c.841.191.696 1.531-.145 1.314a12.215 12.215 0 0 1-3.145-1.156.668.668 0 0 1-.151-.118.847.847 0 0 0-.532.584 2.462 2.462 0 0 0 .781 1.971c1.235 1.313 3.428 1.937 5.044 2.239 1.478.276 4 .276 4.735-.611a1.035 1.035 0 0 0 .138-.998 10.221 10.221 0 0 1-2.778-.657c-.821-.295-.315-1.543.499-1.254a6.163 6.163 0 0 0 3.652.46h.105a9.963 9.963 0 0 0 4.971-4.243c1.393-2.285 2.122-4.945 2.739-7.474Z" fill="#F3EBD8"/><path d="M49.43 137.597c-3.71-.808-7.73-2.089-10.508-4.84-2.778-2.752-3.81-6.738-3.94-10.508-.097-2.738.22-5.474.939-8.118l-5.563-6.16a37.041 37.041 0 0 0-2.502 16.327 21.834 21.834 0 0 0 6.567 14.159c3.868 3.632 9.083 5.254 14.153 6.377 1.931.421 3.829-1.372 4.04-3.185.249-2.102-1.268-3.638-3.186-4.052Z" fill="#422D12"/><path d="M60.227 132.415a11.366 11.366 0 0 0-13.07 1.852 2.039 2.039 0 0 0-.774-1.188 3.771 3.771 0 0 0-3.402-.25 10.925 10.925 0 0 0-3.908 2.837 9.635 9.635 0 0 0-2.541 4.663 3.048 3.048 0 0 0 .59 2.351c.346.449.813.789 1.347.979-.388 2.305.545 4.525 2.804 6.567a18.684 18.684 0 0 0 3.94 2.765 7.233 7.233 0 0 1 2.825 2.331 12.719 12.719 0 0 1 1.68 4.486c.28 1.414.74 2.787 1.367 4.085a3.449 3.449 0 0 0 3.619 1.97c1.313-.256 2.233-1.399 2.403-3.054.075-1.731-.21-3.46-.834-5.076-.079-.243-.157-.486-.243-.736.21.552.414 1.097.604 1.629s.329.88.486 1.313c.657 1.741 1.675 4.341 4.388 3.941a3.116 3.116 0 0 0 2.39-1.471c1.084-1.826.223-4.788-.387-6.397a22.216 22.216 0 0 0-2.319-4.499c-.276-.407-1.05-1.313-1.878-2.311a.697.697 0 0 1 .17 0c.815.262 1.657.429 2.51.499a5.013 5.013 0 0 0 4.525-1.677 5.005 5.005 0 0 0 1.004-4.72 13.134 13.134 0 0 0-1.97-4.249c-.374-.604-1.405-2.24-2.936-2.627a2.01 2.01 0 0 0 .033-1.714 5.088 5.088 0 0 0-2.423-2.299Zm-2.39 25.804c-.848-2.312-1.8-4.906-3.482-6.633a19.287 19.287 0 0 0 3.028-2.588c.092.118.19.236.309.374.657.788 2.075 2.424 2.404 2.916a20.839 20.839 0 0 1 2.18 4.243c.427 1.11 1.313 3.862.486 5.254a1.822 1.822 0 0 1-1.452.847c-1.57.217-2.233-1.162-2.994-3.133-.165-.413-.309-.84-.48-1.28Zm3.631-22.921c.263.598-.315 1.11-.84 1.432-.526.322-1.314.394-2.398.066a3.484 3.484 0 0 0-3.205.558 1.97 1.97 0 0 0-.486 1.97c.222.68.634 1.282 1.19 1.734a11.519 11.519 0 0 0 3.828 2.095 7.4 7.4 0 0 0 .926 1.668.657.657 0 0 0 1.044-.768 6.149 6.149 0 0 1-.88-1.682c-.092-.341-.177-.656-.243-.991a6.372 6.372 0 0 1-.085-.861.575.575 0 0 0-.073-.275 3.936 3.936 0 0 1 .053-.788 2.06 2.06 0 0 1 1.537-1.754c.834-.092 1.694.585 2.627 2.075a12.147 12.147 0 0 1 1.773 3.823 4.212 4.212 0 0 1-.755 3.651c-.447.43-.982.757-1.57.956-.586.2-1.21.268-1.826.2a9.722 9.722 0 0 1-2.246-.453 2.512 2.512 0 0 0-.847-.033 4.5 4.5 0 0 1-.657 0c.375-.447.73-.906 1.064-1.392a.66.66 0 0 0 .09-.792.659.659 0 0 0-.99-.163.657.657 0 0 0-.17.226 18.335 18.335 0 0 1-7.546 6.337.626.626 0 0 0-.21.151.658.658 0 0 0-.112.71.657.657 0 0 0 .86.321 20.587 20.587 0 0 0 1.734-.912 25.353 25.353 0 0 0 1.176 3.605c.289.755.558 1.471.768 2.134.486 1.564.946 3.028.788 4.598-.111 1.07-.61 1.766-1.366 1.917a2.183 2.183 0 0 1-2.226-1.313 15.697 15.697 0 0 1-1.248-3.783 13.868 13.868 0 0 0-1.878-4.926 8.423 8.423 0 0 0-3.284-2.718 17.65 17.65 0 0 1-3.671-2.595c-1.793-1.641-2.627-3.283-2.47-5.004v-.046a5.943 5.943 0 0 1 1.931-2.975c.598-.591-.36-1.465-.952-.88a9.614 9.614 0 0 0-1.681 2.082 1.7 1.7 0 0 1-1.159-1.234 1.785 1.785 0 0 1-.03-.71c.361-2.318 3.192-5.589 5.615-6.489a2.557 2.557 0 0 1 2.18.072.798.798 0 0 1 .322.657 8.611 8.611 0 0 0-2.416 2.161c-.532.657.42 1.517.952.873a5.993 5.993 0 0 1 2.798-2.187.65.65 0 0 0 .315-.203.656.656 0 0 0 .46-.191 10.18 10.18 0 0 1 11.63-1.668 3.9 3.9 0 0 1 1.86 1.714Zm-4.873 4.808a2.346 2.346 0 0 1-.801-1.097c-.112-.42 0-.604.131-.716a2.24 2.24 0 0 1 .93-.348c.331-.046.669-.017.988.085.474.156.966.253 1.464.289a3.836 3.836 0 0 0-.289.933 6.28 6.28 0 0 0 .105 2.384 9.641 9.641 0 0 1-2.528-1.53Z" fill="#422D12"/><path d="M58.316 159.513c.761 1.97 1.425 3.349 2.994 3.132a1.823 1.823 0 0 0 1.452-.847c.84-1.405-.06-4.157-.486-5.254a20.831 20.831 0 0 0-2.18-4.242c-.329-.493-1.728-2.128-2.404-2.916a10.438 10.438 0 0 1-.309-.375 19.281 19.281 0 0 1-3.028 2.588c1.682 1.727 2.627 4.321 3.481 6.633.171.427.315.854.48 1.281Z" fill="#F3EBD8"/><path d="M59.61 133.584a10.186 10.186 0 0 0-11.572 1.668.655.655 0 0 1-.46.191.66.66 0 0 1-.315.204 5.986 5.986 0 0 0-2.798 2.186c-.532.657-1.484-.236-.952-.873a8.613 8.613 0 0 1 2.417-2.161.792.792 0 0 0-.322-.656 2.552 2.552 0 0 0-2.18-.073c-2.424.9-5.255 4.171-5.616 6.489a1.785 1.785 0 0 0 .335 1.353 1.7 1.7 0 0 0 .854.591 9.618 9.618 0 0 1 1.681-2.082c.591-.584 1.55.289.953.88a5.944 5.944 0 0 0-1.931 2.975v.046c-.132 1.714.657 3.363 2.47 5.005a17.678 17.678 0 0 0 3.67 2.594 8.418 8.418 0 0 1 3.284 2.719 13.855 13.855 0 0 1 1.878 4.925c.254 1.309.673 2.58 1.248 3.783a2.177 2.177 0 0 0 2.227 1.313c.755-.151 1.254-.847 1.365-1.917.158-1.544-.302-3.008-.788-4.597-.21-.657-.479-1.38-.768-2.135a25.353 25.353 0 0 1-1.176-3.605c-.564.328-1.136.656-1.733.913a.66.66 0 0 1-.86-.322.66.66 0 0 1 .11-.71.627.627 0 0 1 .211-.151 18.336 18.336 0 0 0 7.494-6.285.651.651 0 0 1 .42-.358.659.659 0 0 1 .546.09.648.648 0 0 1 .284.474.661.661 0 0 1-.18.523c-.335.486-.69.946-1.064 1.393.219.015.438.015.657 0 .282-.037.569-.026.847.032.728.24 1.482.392 2.246.454a4.225 4.225 0 0 0 3.395-1.156 4.218 4.218 0 0 0 .756-3.652 12.155 12.155 0 0 0-1.773-3.822c-.933-1.491-1.793-2.167-2.627-2.075a2.06 2.06 0 0 0-1.537 1.753c-.044.26-.062.524-.053.788.047.085.072.18.072.276.01.288.038.576.086.86.066.322.15.657.243.992.204.603.501 1.17.88 1.681a.657.657 0 0 1-1.044.769 7.418 7.418 0 0 1-.926-1.668 11.518 11.518 0 0 1-3.83-2.095 3.721 3.721 0 0 1-1.188-1.734 1.973 1.973 0 0 1 .486-1.97 3.479 3.479 0 0 1 3.205-.559c1.057.329 1.793.309 2.397-.065.604-.375 1.103-.834.84-1.432a3.902 3.902 0 0 0-1.864-1.767Z" fill="#F3EBD8"/></svg>