<svg width="408" height="318" fill="none" xmlns="http://www.w3.org/2000/svg"><g clip-path="url(#a)"><path d="m329.076 71.135-93.891-16.077 6.36 187.949 93.09-7.594-5.559-164.278Z" fill="#F04F54"/><path d="m239.454 245.363-6.537-192.906 98.227 16.832v1.768l5.636 166.357-97.326 7.949Zm-2.001-187.714 6.193 183 88.743-7.237-5.437-160.432-89.499-15.331Z" fill="#010101"/><path d="M261.568 105.934c.478 14.398 10.718 25.738 22.881 25.326 12.163-.411 21.58-12.418 21.124-26.816-.456-14.398-10.762-25.727-22.903-25.304-12.141.422-21.569 12.396-21.102 26.794Z" fill="#fff"/><path d="M283.793 132.228a21.358 21.358 0 0 1-15.876-7.427 29.48 29.48 0 0 1-7.316-18.834c-.511-14.898 9.384-27.372 22.036-27.795a21.303 21.303 0 0 1 16.554 7.416 29.518 29.518 0 0 1 7.316 18.823 29.418 29.418 0 0 1-6.026 19.278 21.19 21.19 0 0 1-16.032 8.528l-.656.011ZM262.524 105.9a27.584 27.584 0 0 0 6.816 17.6 18.694 18.694 0 0 0 15.061 6.795 18.707 18.707 0 0 0 14.568-7.795 27.587 27.587 0 0 0 5.559-18.023 27.585 27.585 0 0 0-6.738-17.555 19.304 19.304 0 0 0-15.053-6.793c-11.63.356-20.68 11.93-20.213 25.771Z" fill="#010101"/><path d="M268.884 105.689c.322 9.617 7.171 17.188 15.276 16.922 8.105-.267 14.409-8.294 14.086-17.9-.322-9.606-7.126-17.21-15.287-16.933-8.161.278-14.42 8.294-14.075 17.911Z" fill="#F9CB0E"/><path d="M283.715 123.611c-8.428 0-15.476-7.905-15.821-17.855-.345-10.14 6.404-18.623 15.031-18.9a14.455 14.455 0 0 1 11.318 5.07 20.745 20.745 0 0 1 .879 25.871 14.452 14.452 0 0 1-10.951 5.814h-.456Zm-13.887-17.955c.301 9.072 6.671 16.265 14.287 15.987a12.598 12.598 0 0 0 9.484-5.092 18.049 18.049 0 0 0 3.68-11.84 18.044 18.044 0 0 0-4.448-11.552 12.635 12.635 0 0 0-9.817-4.447c-7.56.267-13.475 7.85-13.163 16.922l-.023.022Z" fill="#010101"/><path d="M275.554 105.467c.145 4.358 3.247 7.782 6.927 7.66 3.68-.122 6.537-3.758 6.392-8.116-.144-4.358-3.257-7.782-6.926-7.671-3.669.11-6.604 3.769-6.393 8.127ZM284.026 119.809a.467.467 0 0 1-.467-.4.486.486 0 0 1 .083-.363.476.476 0 0 1 .317-.193c4.926-.756 8.039-3.758 9.261-8.895.569-2.553.693-5.186.367-7.782a.49.49 0 0 1 .401-.556.504.504 0 0 1 .556.4c0 .334 1.189 8.05-2.68 13.342a11.326 11.326 0 0 1-7.782 4.447h-.056ZM284.182 128.314a13.64 13.64 0 0 1-2.801-.255.468.468 0 0 1-.378-.567.485.485 0 0 1 .567-.378c9.65 1.923 16.676-7.461 16.799-7.561a.487.487 0 0 1 .641-.05.488.488 0 0 1 .137.628c-.067.067-6.193 8.183-14.965 8.183ZM300.381 117.652a.484.484 0 0 1-.245 0 .502.502 0 0 1-.122-.711c0-.089 5.314-9.462 1.501-20.102a.46.46 0 0 1 .289-.611.476.476 0 0 1 .611.289c3.98 11.118-1.501 20.813-1.556 20.913a.48.48 0 0 1-.206.183c-.085.039-.18.053-.272.039Z" fill="#010101"/><path d="M286.678 210.398c16.422-.556 29.2-16.787 28.54-36.253-.659-19.466-14.506-34.795-30.928-34.238-16.422.556-29.2 16.787-28.54 36.252.659 19.466 14.506 34.795 30.928 34.239Z" fill="#fff"/><path d="M285.817 211.376c-16.533 0-30.363-15.565-31.031-35.177a39.546 39.546 0 0 1 8.072-25.849c5.559-7.071 13.164-11.118 21.391-11.396 8.227-.278 16.088 3.246 22.125 9.928a39.492 39.492 0 0 1 9.794 25.238c.679 19.957-12.541 36.689-29.462 37.245l-.889.011Zm-.656-70.51h-.845c-7.649.256-14.732 4.047-19.946 10.673a37.601 37.601 0 0 0-7.66 24.582c.634 18.567 13.608 33.354 29.107 33.354h.822c15.866-.534 28.251-16.343 27.606-35.244a37.566 37.566 0 0 0-9.306-24.015c-5.436-6.07-12.441-9.35-19.778-9.35Z" fill="#010101"/><path d="M265.615 175.865c.445 12.997 9.695 23.237 20.657 22.87 10.962-.367 19.512-11.218 19.067-24.215-.444-12.997-9.683-23.281-20.657-22.914-10.973.367-19.501 11.218-19.067 24.259Z" fill="#F9CB0E"/><path d="M285.694 199.68a19.344 19.344 0 0 1-14.454-6.749 26.736 26.736 0 0 1-6.67-17.066 26.82 26.82 0 0 1 5.536-17.477 18.731 18.731 0 0 1 22.838-6.11 18.728 18.728 0 0 1 6.736 5.11 27.722 27.722 0 0 1 1.112 34.543 19.308 19.308 0 0 1-14.542 7.782l-.556-.033Zm-.434-47.162h-.545a17.382 17.382 0 0 0-13.085 7.004 24.79 24.79 0 0 0-5.048 16.221 24.716 24.716 0 0 0 6.137 15.832 16.8 16.8 0 0 0 26.616-.9 25.773 25.773 0 0 0-1.111-32.053 17.452 17.452 0 0 0-12.964-6.104Z" fill="#010101"/><path d="M274.587 175.521c.2 5.892 4.447 10.54 9.361 10.373 4.914-.167 8.895-5.081 8.639-10.974-.256-5.892-4.392-10.539-9.361-10.373-4.97.167-8.784 5.081-8.639 10.974ZM286.128 194.766a.479.479 0 0 1-.388-.764.49.49 0 0 1 .31-.192c6.737-1.034 10.995-5.148 12.674-12.23.764-3.46.929-7.024.489-10.54a.494.494 0 0 1 .412-.545.479.479 0 0 1 .545.401c.066.433 1.601 10.806-3.592 17.877a15.147 15.147 0 0 1-10.384 6.004l-.066-.011ZM286.328 206.251a19.274 19.274 0 0 1-3.758-.367.502.502 0 0 1-.174-.072.506.506 0 0 1-.132-.133.476.476 0 0 1 0-.536.481.481 0 0 1 .495-.204c13.152 2.613 22.814-10.173 22.892-10.284a.447.447 0 0 1 .311-.198.457.457 0 0 1 .356.098.465.465 0 0 1 .111.667c-.1.122-8.316 11.029-20.101 11.029ZM308.23 191.842a.486.486 0 0 1-.466-.359.486.486 0 0 1 .043-.364c.078-.133 7.227-12.863 2.035-27.328a.48.48 0 0 1 .481-.644.5.5 0 0 1 .334.16.467.467 0 0 1 .096.162c5.348 14.898-2.034 27.995-2.101 28.128a.485.485 0 0 1-.422.245ZM273.242 230.543l26.283-.889a6.127 6.127 0 0 0 5.892-6.326 6.115 6.115 0 0 0-6.315-5.893l-26.271.89a6.137 6.137 0 0 0-5.904 6.315 6.137 6.137 0 0 0 6.315 5.903ZM244.035 141.756a.473.473 0 0 1-.441-.286.469.469 0 0 1-.037-.181l-1.356-73.523a.489.489 0 0 1 .285-.449.473.473 0 0 1 .182-.04.458.458 0 0 1 .458.288c.024.06.034.125.031.19l1.401 73.512a.466.466 0 0 1-.467.489h-.056ZM248.127 230.488a.49.49 0 0 1-.478-.49c.111-5.914-3.891-83.039-3.925-83.773a.478.478 0 0 1 .456-.511.458.458 0 0 1 .348.12.473.473 0 0 1 .152.335c0 .779 4.003 77.892 3.936 83.841a.49.49 0 0 1-.489.478ZM248.872 155.52a.482.482 0 0 1-.479-.467l-.878-25.961a.481.481 0 0 1 .816-.338c.09.09.14.212.14.338l.879 25.961a.49.49 0 0 1-.467.5l-.011-.033ZM257.066 99.919a.488.488 0 0 1-.49-.478c-.378-19.534 14.454-22.136 14.62-22.158a.49.49 0 1 1 .156.956c-.578.089-14.175 2.513-13.808 21.18a.502.502 0 0 1-.478.5ZM303.482 209.219a.475.475 0 0 1-.444-.3.478.478 0 0 1 .255-.623c12.942-5.459 14.631-19.056 14.654-19.2a.47.47 0 0 1 .533-.423.491.491 0 0 1 .423.534c0 .144-1.757 14.298-15.232 20.012a.545.545 0 0 1-.189 0ZM241.545 243.007l-32.598 7.582-8.616-179.21 34.854-16.32 6.36 187.948Z" fill="#010101"/><path d="m207.579 252.39-.077-1.734-8.661-180.177 37.712-17.666 6.481 191.339-35.455 8.238ZM201.82 72.28l8.483 176.508 29.763-6.916-6.259-184.557L201.82 72.28Z" fill="#010101"/><path d="m336.425 237.525-23.125 7.572-105.743 7.36 33.988-9.45 94.88-5.482Z" fill="#010101"/></g><g clip-path="url(#b)"><path d="m177.56 282.656-40.162-197.83 116.274-1.37 13.418 173.582-89.53 25.618ZM143.527 89.771l37.876 186.559 80.371-22.995-12.768-164.829-105.479 1.265Z" fill="#222221"/><path d="m251.339 85.999 13.093 169.193-84.945 24.295-39.025-192.188 110.877-1.3Z" fill="#FCDFEB"/><path d="m180.3 283.457-45.421-25.05-.244-1.16-31.793-142.206 36.784-31.05L180.3 283.457Zm-41.01-28.358 33.906 18.723L136.4 93.288l-27.987 23.634 30.877 138.177Z" fill="#222221"/><path d="m137.084 256.747-31.457-140.766 32.385-27.336 38.735 189.994-39.663-21.892Z" fill="#FCDFEB"/><path d="M243.747 100.148a5.69 5.69 0 0 1-5.653-4.98 5.716 5.716 0 0 1 2.824-5.673 5.713 5.713 0 0 1 7.791 2.105 5.7 5.7 0 0 1-.435 6.331 5.66 5.66 0 0 1-3.819 2.171 5.229 5.229 0 0 1-.708.046Zm0-7.231h-.197a1.557 1.557 0 0 0-1.01.58 1.51 1.51 0 0 0-.302 1.16 1.47 1.47 0 0 0 .581 1.01 1.423 1.423 0 0 0 1.16.302 1.545 1.545 0 0 0 1.022-.568 1.58 1.58 0 0 0 .302-1.161 1.534 1.534 0 0 0-1.544-1.323h-.012Z" fill="#222221"/><path d="M240.172 94.902a3.62 3.62 0 1 0 3.123-4.04 3.617 3.617 0 0 0-2.398 1.374 3.622 3.622 0 0 0-.725 2.666Z" fill="#FFCC32"/><path d="M149.586 101.216a5.714 5.714 0 0 1-5.659-6.281 5.714 5.714 0 0 1 6.067-5.128 5.711 5.711 0 0 1-.408 11.409Zm0-7.22h-.197a1.518 1.518 0 0 0-1.277 1.707 1.558 1.558 0 0 0 1.129 1.286 1.557 1.557 0 0 0 1.897-1.091c.052-.2.062-.41.027-.613a1.493 1.493 0 0 0-.569-1.01 1.52 1.52 0 0 0-.987-.279h-.023Z" fill="#222221"/><path d="M146.022 95.97a3.612 3.612 0 0 0 6.437 1.749 3.614 3.614 0 0 0 .277-4.002 3.608 3.608 0 0 0-4.927-1.339 3.615 3.615 0 0 0-1.787 3.592Z" fill="#FFCC32"/><path d="M184.455 275.993a5.68 5.68 0 0 1-3.482-1.161 5.713 5.713 0 0 1-1.021-8.009 5.711 5.711 0 1 1 5.304 9.124c-.265.035-.533.05-.801.046Zm0-7.22h-.185a1.549 1.549 0 0 0-1.022.569 1.58 1.58 0 0 0-.302 1.161 1.542 1.542 0 0 0 1.707 1.323 1.517 1.517 0 0 0 1.272-1.114c.052-.193.065-.394.039-.592a1.458 1.458 0 0 0-.58-1.01 1.498 1.498 0 0 0-.917-.337h-.012Z" fill="#222221"/><path d="M180.881 270.746a3.617 3.617 0 0 0 2.634 3.045 3.618 3.618 0 0 0 3.821-1.272 3.62 3.62 0 0 0 .283-4.017 3.627 3.627 0 0 0-6.01-.426 3.604 3.604 0 0 0-.728 2.67Z" fill="#FFCC32"/><path d="M256.54 255.738a5.726 5.726 0 0 1-5.665-4.98 5.71 5.71 0 0 1 4.933-6.384 5.648 5.648 0 0 1 4.226 1.161 5.695 5.695 0 0 1 2.172 3.786 5.69 5.69 0 0 1-1.151 4.211 5.617 5.617 0 0 1-3.796 2.171c-.238.028-.479.04-.719.035Zm-1.509-5.514a1.518 1.518 0 0 0 1.7 1.318 1.538 1.538 0 0 0 1.011-.578 1.517 1.517 0 0 0-1.4-2.435 1.523 1.523 0 0 0-1.311 1.695Z" fill="#222221"/><path d="M252.952 250.491a3.62 3.62 0 0 0 2.638 3.045 3.624 3.624 0 0 0 4.095-5.298 3.618 3.618 0 0 0-3.611-1.786 3.623 3.623 0 0 0-3.122 4.039Z" fill="#FFCC32"/><path d="M215.749 255.842c-19.373 0-36.587-16.448-39.466-38.654a46.433 46.433 0 0 1 7.197-31.921 36.214 36.214 0 0 1 25.537-16.25c10.261-1.324 20.487 1.985 28.775 9.286a47.811 47.811 0 0 1 7.824 60.998 36.214 36.214 0 0 1-25.537 16.251 34.641 34.641 0 0 1-4.33.29Zm-35.275-39.188c2.762 21.579 20.313 37.145 39.106 34.754a32.068 32.068 0 0 0 22.553-14.44 43.658 43.658 0 0 0-7.127-55.531 31.333 31.333 0 0 0-25.472-8.267 31.338 31.338 0 0 0-22.56 14.431 42.26 42.26 0 0 0-6.512 29.019l.012.034Z" fill="#222221"/><path d="M178.397 216.945c2.913 22.751 21.474 39.118 41.451 36.564 19.976-2.554 33.813-23.088 30.888-45.839-2.926-22.751-21.475-39.129-41.451-36.564-19.977 2.565-33.814 23.065-30.888 45.839Z" fill="#FFCC32"/><path d="M178.397 216.945c2.913 22.751 21.474 39.118 41.451 36.564 19.976-2.554 33.813-23.088 30.888-45.839-2.926-22.751-21.475-39.129-41.451-36.564-19.977 2.565-33.814 23.065-30.888 45.839Z" fill="#EF4050"/><path d="M216.83 249.446a29.166 29.166 0 0 1-19.733-7.963 40.07 40.07 0 0 1-6.385-50.075 28.801 28.801 0 0 1 20.453-13.349c16.924-2.159 32.734 12.037 35.252 31.654a38.789 38.789 0 0 1-5.664 26.175 28.753 28.753 0 0 1-20.453 13.338c-1.151.148-2.31.222-3.47.22Zm-2.229-67.464a22.35 22.35 0 0 0-2.902.186 24.67 24.67 0 0 0-17.481 11.48 34.63 34.63 0 0 0-5.015 23.355 34.596 34.596 0 0 0 10.749 21.335 23.862 23.862 0 0 0 19.813 6.699 23.857 23.857 0 0 0 17.482-11.482 34.62 34.62 0 0 0 5.015-23.354c-2.078-16.181-14.161-28.219-27.661-28.219Z" fill="#222221"/><path d="M187.125 217.27c2.321 18.502 17.109 31.863 32.907 29.831 15.798-2.031 26.698-18.665 24.307-37.144-2.391-18.48-17.11-31.886-32.908-29.867-15.798 2.02-26.674 18.677-24.306 37.18Z" fill="#FFCC32"/><path d="M218.733 235.772a18.898 18.898 0 0 1-12.768-5.142 24.82 24.82 0 0 1-7.743-15.287 24.877 24.877 0 0 1 3.692-16.739 18.575 18.575 0 0 1 13.221-8.613c10.911-1.393 21.091 7.696 22.716 20.279s-5.955 23.958-16.854 25.351c-.751.102-1.507.153-2.264.151Zm-1.37-41.73a14.11 14.11 0 0 0-1.694.105 14.479 14.479 0 0 0-10.25 6.756 20.604 20.604 0 0 0-2.983 13.929 20.673 20.673 0 0 0 6.396 12.768 14.452 14.452 0 0 0 11.607 3.935c8.613-1.161 14.545-10.365 13.233-20.661-1.207-9.681-8.346-16.832-16.309-16.832Z" fill="#222221"/><path d="M220.922 232.954c9.761-1.282 16.457-11.587 14.956-23.018-1.501-11.43-10.63-19.657-20.391-18.375-9.762 1.282-16.458 11.587-14.957 23.017 1.501 11.43 10.631 19.657 20.392 18.376Z" fill="#FFCC32"/><path d="M220.922 232.954c9.761-1.282 16.457-11.587 14.956-23.018-1.501-11.43-10.63-19.657-20.391-18.375-9.762 1.282-16.458 11.587-14.957 23.017 1.501 11.43 10.631 19.657 20.392 18.376Z" fill="#EF4050"/><path d="M219.36 231.048c-7.695 0-14.556-6.639-15.705-15.589-1.23-9.611 4.574-18.247 12.943-19.408a14.271 14.271 0 0 1 11.515 3.831 18.848 18.848 0 0 1 5.896 11.607c1.242 9.611-4.573 18.294-12.942 19.373a14.39 14.39 0 0 1-1.707.186Zm-11.549-16.123c.94 7.325 6.663 12.652 12.768 11.863 6.106-.789 10.261-7.371 9.286-14.695a14.79 14.79 0 0 0-4.561-9.077 10.223 10.223 0 0 0-8.184-2.786c-6.082.789-10.261 7.382-9.286 14.695h-.023Z" fill="#222221"/><path d="M205.733 215.192c1.091 8.485 7.835 14.602 15.09 13.674 7.255-.929 12.223-8.555 11.131-17.04-1.091-8.486-7.835-14.591-15.089-13.663-7.255.929-12.223 8.555-11.132 17.029Z" fill="#FFCC32"/><path d="M209.528 214.078c.824 6.419 5.931 11.05 11.41 10.342 5.479-.708 9.286-6.477 8.439-12.896-.848-6.419-5.943-11.051-11.422-10.343-5.479.709-9.252 6.478-8.427 12.897ZM206.417 165.302c-15.241 0-28.775-12.919-31.016-30.354a36.427 36.427 0 0 1 5.653-25.061 28.535 28.535 0 0 1 20.093-12.768c16.588-2.136 32.049 11.387 34.452 30.18 2.403 18.792-9.136 35.647-25.734 37.783a29.007 29.007 0 0 1-3.448.22Zm-26.86-30.888c2.113 16.448 15.473 28.346 29.774 26.512 14.3-1.834 24.225-16.715 22.124-33.175-2.101-16.459-15.473-28.346-29.785-26.512a24.39 24.39 0 0 0-9.776 3.62 24.387 24.387 0 0 0-7.369 7.373 32.208 32.208 0 0 0-4.968 22.182Z" fill="#222221"/><path d="M177.479 134.682c2.322 17.62 16.646 30.307 32.119 28.322 15.473-1.985 26.187-17.887 23.923-35.519-2.263-17.632-16.634-30.296-32.107-28.311-15.473 1.985-26.198 17.876-23.935 35.508Z" fill="#FFCC32"/><path d="M177.479 134.682c2.322 17.62 16.646 30.307 32.119 28.322 15.473-1.985 26.187-17.887 23.923-35.519-2.263-17.632-16.634-30.296-32.107-28.311-15.473 1.985-26.198 17.876-23.935 35.508Z" fill="#EF4050"/><path d="M207.312 160.474c-12.374 0-23.413-10.749-25.27-25.235-1.997-15.543 7.324-29.6 20.777-31.341 13.454-1.741 26.013 9.507 27.998 25.061a30.583 30.583 0 0 1-4.48 20.696 22.922 22.922 0 0 1-16.251 10.621 21.82 21.82 0 0 1-2.774.198Zm-1.753-52.235c-.726 0-1.451.047-2.171.14-10.992 1.416-18.572 13.197-16.889 26.279 1.683 13.082 11.968 22.589 22.948 21.173a18.508 18.508 0 0 0 13.105-8.613 26.164 26.164 0 0 0 3.785-17.667c-1.614-12.223-10.656-21.312-20.801-21.312h.023Z" fill="#222221"/><path d="M184.247 134.948c1.834 14.336 13.255 24.69 25.536 23.111 12.281-1.578 20.674-14.463 18.828-28.798-1.846-14.336-13.291-24.678-25.537-23.111-12.246 1.567-20.661 14.451-18.827 28.798Z" fill="#FFCC32"/><path d="M208.761 149.748c-8.009 0-15.09-6.965-16.343-16.251-1.277-10.006 4.759-19.048 13.464-20.174a14.903 14.903 0 0 1 11.979 3.993 20.339 20.339 0 0 1 3.262 25.421 14.874 14.874 0 0 1-10.586 6.883c-.588.083-1.182.126-1.776.128Zm-12.188-16.761c.987 7.719 6.965 13.314 13.43 12.501a10.775 10.775 0 0 0 4.367-1.666 10.784 10.784 0 0 0 3.248-3.36 16.148 16.148 0 0 0-2.577-20.023 10.743 10.743 0 0 0-8.625-2.937c-6.419.778-10.83 7.742-9.843 15.485Z" fill="#222221"/><path d="M194.542 133.253c1.161 8.869 8.207 15.276 15.775 14.301 7.568-.975 12.768-8.949 11.608-17.818-1.161-8.868-8.195-15.275-15.775-14.312-7.58.964-12.769 8.961-11.608 17.829Z" fill="#FFCC32"/><path d="M194.542 133.253c1.161 8.869 8.207 15.276 15.775 14.301 7.568-.975 12.768-8.949 11.608-17.818-1.161-8.868-8.195-15.275-15.775-14.312-7.58.964-12.769 8.961-11.608 17.829Z" fill="#EF4050"/><path d="M209.191 146.254a11.822 11.822 0 0 1-7.986-3.215 15.714 15.714 0 0 1-2.531-19.733 11.45 11.45 0 0 1 8.315-5.436 11.445 11.445 0 0 1 9.433 3.114 15.224 15.224 0 0 1 4.783 9.402c.998 7.789-3.75 14.847-10.575 15.717a10.09 10.09 0 0 1-1.439.151Zm-.72-23.935c-.28.002-.559.022-.836.058a7.267 7.267 0 0 0-5.142 3.401 11.261 11.261 0 0 0 1.788 13.929 7.273 7.273 0 0 0 5.803 1.997c4.376-.569 7.371-5.351 6.686-10.679a10.744 10.744 0 0 0-3.331-6.651 7.404 7.404 0 0 0-4.968-2.055Z" fill="#222221"/><path d="M198.663 133.369c.836 6.57 6.071 11.318 11.677 10.598 5.607-.72 9.472-6.628 8.625-13.198-.848-6.57-6.071-11.329-11.654-10.621-5.584.708-9.496 6.628-8.648 13.221Z" fill="#FFCC32"/><path d="M201.902 132.499c.592 4.643 4.283 7.975 8.229 7.464 3.947-.511 6.675-4.643 6.071-9.286-.603-4.643-4.248-7.975-8.218-7.464-3.97.511-6.674 4.666-6.082 9.286Z" fill="#222221"/></g><path d="M74.702 316.809 34.552 119.01l116.244-1.392 13.434 173.564-89.528 25.627ZM40.68 123.963l37.864 186.523 80.356-22.984-12.744-164.78-105.476 1.241Z" fill="#222221"/><path d="m148.476 120.186 13.089 169.161-84.942 24.3-39.007-192.166 110.86-1.295Z" fill="#7EBFDF"/><path d="m77.443 317.618-45.406-25.055-.248-1.079L0 149.223l36.785-31.044 40.658 199.439Zm-41.004-28.357 33.904 18.7-36.796-180.48-27.98 23.588L36.44 289.261Z" fill="#222221"/><path d="M34.238 290.912 2.784 150.162l32.382-27.332 38.727 189.965-39.655-21.883Z" fill="#7EBFDF"/><path d="M140.88 134.333a5.68 5.68 0 0 1-5.306-5.848 5.677 5.677 0 0 1 11.346 0 5.68 5.68 0 0 1-6.04 5.848Zm0-7.23h-.194a1.531 1.531 0 0 0-1.014.583 1.5 1.5 0 0 0-.303 1.079 1.538 1.538 0 0 0 .58 1.012 1.517 1.517 0 0 0 1.125.304 1.567 1.567 0 0 0 1.015-.572 1.532 1.532 0 0 0-1.209-2.46v.054Z" fill="#222221"/><path d="M137.309 129.089a3.613 3.613 0 0 0 4.739 2.963 3.61 3.61 0 0 0 2.452-3.182 3.614 3.614 0 0 0-4.073-3.828 3.627 3.627 0 0 0-3.118 4.047Z" fill="#FFCC32"/><path d="M46.734 135.401a5.658 5.658 0 0 1-5.28-5.828 5.653 5.653 0 0 1 9.584-3.877 5.652 5.652 0 0 1-3.56 9.705 5.78 5.78 0 0 1-.744 0Zm0-7.23h-.195a1.522 1.522 0 0 0-.744 2.709 1.52 1.52 0 0 0 1.133.302 1.547 1.547 0 0 0 1.003-.572c.235-.308.346-.693.313-1.079a1.511 1.511 0 0 0-.583-1.014 1.543 1.543 0 0 0-.906-.346h-.021Z" fill="#222221"/><path d="M43.162 130.157a3.615 3.615 0 1 0 3.13-4.047 3.625 3.625 0 0 0-3.13 4.047Z" fill="#FFCC32"/><path d="M81.597 310.151a5.653 5.653 0 1 1 4.304-9.705 5.654 5.654 0 0 1-4.304 9.705Zm0-7.229h-.194a1.456 1.456 0 0 0-1.014.572 1.5 1.5 0 0 0-.122 1.646c.098.174.232.326.392.447.307.236.693.345 1.079.302a1.517 1.517 0 0 0 1.316-1.705 1.522 1.522 0 0 0-1.5-1.327l.043.065Z" fill="#222221"/><path d="M78.025 304.907a3.615 3.615 0 1 0 3.13-4.046 3.633 3.633 0 0 0-3.13 4.046Z" fill="#FFCC32"/><path d="M153.667 289.909a5.722 5.722 0 0 1-5.654-4.985 5.71 5.71 0 0 1 2.823-5.679 5.71 5.71 0 0 1 6.327.434 5.706 5.706 0 0 1 2.015 6.01 5.703 5.703 0 0 1-4.777 4.166 6.026 6.026 0 0 1-.734.054Zm-1.511-5.514a1.525 1.525 0 0 0 1.705 1.316 1.524 1.524 0 0 0 1.317-1.705 1.55 1.55 0 0 0-.572-1.014 1.534 1.534 0 0 0-2.45 1.403Z" fill="#222221"/><path d="M150.084 284.654a3.611 3.611 0 0 0 2.638 3.028 3.612 3.612 0 0 0 3.807-1.278 3.617 3.617 0 0 0 .278-4.005 3.612 3.612 0 0 0-4.932-1.344 3.613 3.613 0 0 0-1.791 3.599Z" fill="#FFCC32"/><path d="M112.889 289.995c-19.368 0-36.579-16.434-39.428-38.641a46.4 46.4 0 0 1 7.198-31.918c6.172-9.161 15.225-14.934 25.497-16.25 10.273-1.316 20.502 1.975 28.767 9.291a47.812 47.812 0 0 1 7.834 60.987c-6.183 9.161-15.236 14.934-25.497 16.25-1.449.19-2.909.283-4.371.281Zm-35.273-39.169c2.762 21.58 20.307 37.151 39.104 34.745 9.053-1.166 17.071-6.291 22.563-14.438a43.616 43.616 0 0 0-7.122-55.516c-7.37-6.475-16.423-9.442-25.476-8.287-9.053 1.154-17.06 6.29-22.552 14.448a42.233 42.233 0 0 0-6.474 29.048h-.043Z" fill="#222221"/><path d="M75.544 251.096c2.914 22.746 21.473 39.115 41.446 36.547 19.973-2.569 33.807-23.081 30.882-45.827-2.924-22.746-21.473-39.115-41.446-36.558-19.973 2.557-33.806 23.081-30.882 45.838Z" fill="#FFCC32"/><path d="M75.544 251.096c2.914 22.746 21.473 39.115 41.446 36.547 19.973-2.569 33.807-23.081 30.882-45.827-2.924-22.746-21.473-39.115-41.446-36.558-19.973 2.557-33.806 23.081-30.882 45.838Z" fill="#E45933"/><path d="M113.969 283.564a29.251 29.251 0 0 1-19.693-7.963 40.078 40.078 0 0 1-6.42-50.068c4.931-7.553 12.193-12.279 20.448-13.348 16.919-2.158 32.727 12.032 35.241 31.649 1.285 9.12-.72 18.4-5.654 26.177-4.931 7.553-12.193 12.28-20.502 13.337-1.135.14-2.277.212-3.42.216Zm-2.234-67.408a23.69 23.69 0 0 0-2.892.184c-7.024.906-13.229 4.974-17.48 11.481a34.614 34.614 0 0 0-5.018 23.35 34.605 34.605 0 0 0 10.79 21.333c5.752 5.211 12.787 7.553 19.812 6.69 7.024-.863 13.229-4.975 17.48-11.481a34.619 34.619 0 0 0 5.018-23.351c-2.126-16.174-14.211-28.206-27.71-28.206Z" fill="#222221"/><path d="M84.273 251.419c2.374 18.495 17.103 31.853 32.9 29.825 15.798-2.029 26.674-18.668 24.3-37.162-2.373-18.495-17.102-31.864-32.899-29.836-15.798 2.029-26.707 18.689-24.3 37.173Z" fill="#FFCC32"/><path d="M115.879 269.936a18.882 18.882 0 0 1-12.722-5.137 24.816 24.816 0 0 1-7.726-15.279 24.82 24.82 0 0 1 3.625-16.747 18.598 18.598 0 0 1 13.219-8.632c10.909-1.392 21.095 7.705 22.659 20.275 1.565 12.571-5.945 23.955-16.843 25.347-.733.104-1.472.161-2.212.173Zm-1.371-41.727a12.635 12.635 0 0 0-1.694.108 14.499 14.499 0 0 0-10.262 6.755 20.6 20.6 0 0 0-2.978 13.909 20.602 20.602 0 0 0 6.399 12.711 14.492 14.492 0 0 0 11.621 3.949c8.632-1.079 14.556-10.38 13.24-20.664-1.241-9.614-8.373-16.768-16.326-16.768Z" fill="#222221"/><path d="M117.85 267.723c9.776-1.254 16.511-11.552 15.043-23.002-1.469-11.449-10.585-19.714-20.362-18.46-9.777 1.254-16.512 11.552-15.043 23.002 1.469 11.449 10.585 19.714 20.362 18.46Z" fill="#FFCC32"/><path d="M117.85 267.723c9.776-1.254 16.511-11.552 15.043-23.002-1.469-11.449-10.585-19.714-20.362-18.46-9.777 1.254-16.512 11.552-15.043 23.002 1.469 11.449 10.585 19.714 20.362 18.46Z" fill="#E45933"/><path d="M116.504 265.22c-7.704 0-14.556-6.636-15.711-15.592-1.23-9.614 4.575-18.344 12.949-19.423a14.258 14.258 0 0 1 11.513 3.842 18.836 18.836 0 0 1 5.902 11.643c1.231 9.614-4.575 18.343-12.948 19.422-.566.068-1.135.104-1.705.108Zm-11.556-16.121c.938 7.316 6.657 12.647 12.732 11.87 6.075-.777 10.262-7.37 9.323-14.697a14.682 14.682 0 0 0-4.553-9.074 10.193 10.193 0 0 0-3.78-2.303c-1.414-.481-2.915-.645-4.399-.481-6.075.777-10.262 7.369-9.323 14.696v-.011Z" fill="#222221"/><path d="M102.876 249.358c1.079 8.482 7.834 14.6 15.107 13.672 7.272-.928 12.225-8.557 11.135-17.027-1.089-8.471-7.844-14.6-15.106-13.672-7.262.928-12.226 8.557-11.136 17.027Z" fill="#FFCC32"/><path d="M106.685 248.236c.831 6.42 5.935 11.06 11.416 10.348 5.482-.712 9.258-6.474 8.427-12.894-.83-6.421-5.934-11.05-11.405-10.348-5.471.701-9.28 6.485-8.438 12.894ZM103.556 199.474c-15.236 0-28.767-12.948-31.012-30.353a36.44 36.44 0 0 1 5.654-25.045 28.522 28.522 0 0 1 20.081-12.797c16.596-2.158 32.059 11.384 34.454 30.127 2.395 18.743-9.139 35.716-25.724 37.842-1.145.15-2.299.225-3.453.226Zm-26.858-30.882c2.159 16.455 15.474 28.336 29.771 26.512 14.297-1.824 24.225-16.714 22.12-33.17-2.104-16.455-15.43-28.335-29.77-26.501a24.345 24.345 0 0 0-17.146 10.974 32.37 32.37 0 0 0-4.975 22.185Z" fill="#222221"/><path d="M74.627 168.862c2.255 17.621 16.638 30.299 32.112 28.314 15.473-1.986 26.188-17.88 23.922-35.501-2.266-17.62-16.639-30.31-32.112-28.324-15.474 1.985-26.188 17.879-23.922 35.511Z" fill="#FFCC32"/><path d="M74.627 168.862c2.255 17.621 16.638 30.299 32.112 28.314 15.473-1.986 26.188-17.88 23.922-35.501-2.266-17.62-16.639-30.31-32.112-28.324-15.474 1.985-26.188 17.879-23.922 35.511Z" fill="#E45933"/><path d="M104.43 194.64c-12.377 0-23.415-10.79-25.271-25.228-1.996-15.538 7.326-29.587 20.771-31.292 13.445-1.705 26.016 9.517 28.001 25.055a30.63 30.63 0 0 1-4.478 20.707 22.902 22.902 0 0 1-16.293 10.607c-.906.109-1.818.16-2.73.151Zm-1.759-52.204a16.215 16.215 0 0 0-2.158.141c-10.985 1.402-18.56 13.196-16.876 26.274 1.683 13.078 11.977 22.574 22.962 21.171a18.524 18.524 0 0 0 13.099-8.632 26.21 26.21 0 0 0 3.788-17.675c-1.586-12.204-10.672-21.279-20.815-21.279Z" fill="#222221"/><path d="M81.392 169.132c1.835 14.329 13.251 24.677 25.487 23.102 12.237-1.575 20.664-14.459 18.83-28.789-1.835-14.329-13.251-24.688-25.498-23.113-12.247 1.576-20.664 14.459-18.819 28.8Z" fill="#FFCC32"/><path d="M105.897 183.925c-8.006 0-15.106-6.906-16.336-16.185-1.284-10.003 4.758-19.045 13.466-20.168a14.85 14.85 0 0 1 11.967 3.993 20.298 20.298 0 0 1 3.237 25.411 14.853 14.853 0 0 1-10.586 6.874c-.58.066-1.164.091-1.748.075Zm-12.16-16.757c.992 7.715 7.013 13.315 13.434 12.495a10.79 10.79 0 0 0 7.607-5.018 16.187 16.187 0 0 0-2.568-20.027 10.785 10.785 0 0 0-8.633-2.934c-6.41.83-10.79 7.769-9.84 15.484Z" fill="#222221"/><path d="M91.643 167.438c1.133 8.869 8.2 15.268 15.776 14.297 7.575-.971 12.786-8.945 11.643-17.826-1.144-8.88-8.201-15.268-15.765-14.297-7.564.971-12.797 8.945-11.654 17.826Z" fill="#FFCC32"/><path d="M91.643 167.438c1.133 8.869 8.2 15.268 15.776 14.297 7.575-.971 12.786-8.945 11.643-17.826-1.144-8.88-8.201-15.268-15.765-14.297-7.564.971-12.797 8.945-11.654 17.826Z" fill="#E45933"/><path d="M106.329 180.429a11.87 11.87 0 0 1-7.985-3.237 15.72 15.72 0 0 1-2.535-19.649 11.464 11.464 0 0 1 8.333-5.404 11.47 11.47 0 0 1 9.427 3.127 15.238 15.238 0 0 1 4.77 9.409c1.003 7.78-3.744 14.837-10.575 15.711-.477.047-.956.061-1.435.043Zm-.723-23.965a5.366 5.366 0 0 0-.841 0 7.237 7.237 0 0 0-2.947 1.127 7.237 7.237 0 0 0-2.19 2.272 11.242 11.242 0 0 0 1.791 13.919 7.221 7.221 0 0 0 5.827 1.997c4.316-.561 7.37-5.396 6.68-10.672a10.792 10.792 0 0 0-3.324-6.647 7.403 7.403 0 0 0-4.996-1.996Z" fill="#222221"/><path d="M95.797 167.524c.842 6.561 6.075 11.308 11.686 10.585 5.611-.723 9.463-6.625 8.633-13.196-.831-6.572-6.075-11.309-11.676-10.586-5.6.723-9.484 6.626-8.643 13.197Z" fill="#FFCC32"/><path d="M99.046 166.682c.593 4.629 4.316 7.964 8.222 7.457 3.906-.508 6.668-4.662 6.075-9.291-.594-4.629-4.316-7.963-8.222-7.456-3.907.507-6.669 4.661-6.075 9.29Z" fill="#222221"/><path d="m302.406 6.506 48.118 49.264a.508.508 0 0 1-.22.822l-11.107 4.395a.517.517 0 0 0-.327.595.52.52 0 0 0 .109.22l27.919 30.855a.519.519 0 0 1-.015.678.505.505 0 0 1-.203.136l-10.563 4.177a.509.509 0 0 0-.274.331.509.509 0 0 0 .072.424l24.532 34.579a.505.505 0 0 1-.347.814.511.511 0 0 1-.342-.086l-53.718-33.444a.516.516 0 0 1 .083-.915l12.564-4.966a.52.52 0 0 0 .317-.382.514.514 0 0 0-.153-.472L302.862 60.45a.51.51 0 0 1-.158-.467.5.5 0 0 1 .313-.38l13.081-5.176a.51.51 0 0 0 .313-.396.52.52 0 0 0-.177-.473l-42.183-35.445a.504.504 0 0 1-.179-.475.506.506 0 0 1 .322-.392l27.598-10.928a.525.525 0 0 1 .614.189ZM266.052 206.266l48.49-27.24a.413.413 0 0 1 .536.15.415.415 0 0 1 .059.193l1.107 9.584a.418.418 0 0 0 .59.34l29.906-15.33a.41.41 0 0 1 .384.016.416.416 0 0 1 .206.324l1.051 9.113a.425.425 0 0 0 .2.284.423.423 0 0 0 .346.032l32.103-11.91a.409.409 0 0 1 .563.441.412.412 0 0 1-.138.249l-37.319 34.915a.417.417 0 0 1-.697-.256l-1.248-10.84a.412.412 0 0 0-.434-.367.407.407 0 0 0-.197.061l-33.331 21.16a.408.408 0 0 1-.629-.297l-1.302-11.287a.42.42 0 0 0-.452-.36.407.407 0 0 0-.198.072l-36.469 25.499a.406.406 0 0 1-.407.04.407.407 0 0 1-.239-.333l-2.756-23.814a.427.427 0 0 1 .275-.439Z" fill="#F9CB0E" stroke="#010101" stroke-width="2.75" stroke-miterlimit="10"/><defs><clipPath id="a"><path fill="#fff" transform="translate(198.841 52.457)" d="M0 0h138.04v200H0z"/></clipPath><clipPath id="b"><path fill="#fff" transform="translate(102.841 83.457)" d="M0 0h164.248v200H0z"/></clipPath></defs></svg>