<svg width="419" height="318" fill="none" xmlns="http://www.w3.org/2000/svg"><g clip-path="url(#a)"><path d="M139.377 317.777c-.181 0-.347-.15-.468-.407a2.133 2.133 0 0 1-.167-.966l2.722-96.876c0-.664.302-1.192.635-1.192h15.798c.317 0 .605.513.635 1.177l3.522 96.876c.019.33-.038.661-.166.966-.121.272-.302.422-.469.422h-22.042Z" fill="#231F20"/><path d="M161.374 316.495h-22.072l2.736-96.876h15.859l3.477 96.876Z" fill="#F47E49"/><path d="M155.357 274.494a6.064 6.064 0 0 1-3.774-1.133 6.036 6.036 0 0 1-2.273-3.214c-.091.272-.166.513-.257.74-.892 2.309-4.052 3.471-5.564 3.471a5.546 5.546 0 0 1-4.535-2.083 5.246 5.246 0 0 1-1.164-2.022 7.304 7.304 0 0 1-2.283 2.279 5.828 5.828 0 0 1-3.129.769 7.563 7.563 0 0 1-4.853-1.509 6.981 6.981 0 0 1-1.95-4.15 33.971 33.971 0 0 1-2.903 4.301 6.39 6.39 0 0 1-4.535 1.932 5.287 5.287 0 0 1-2.933-.891c-1.3-.89-1.935-3.018-2.238-4.95-.347.559-.71 1.072-1.013 1.509a5.675 5.675 0 0 1-4.777 2.717 8.482 8.482 0 0 1-2.101-.302 2.732 2.732 0 0 1-1.724-1.373 9.916 9.916 0 0 1-.257-5.841 15.66 15.66 0 0 1-6.198 3.29 7.7 7.7 0 0 1-1.769.227 3.858 3.858 0 0 1-3.024-1.298 4.775 4.775 0 0 1-.907-3.668.885.885 0 0 1 0-.286l38.869-95.08a1.283 1.283 0 0 1 1.194-.8h36.691a1.281 1.281 0 0 1 1.195.8l38.868 95.08c.046.09.077.186.091.286a4.87 4.87 0 0 1-.922 3.668 3.866 3.866 0 0 1-3.024 1.298 7.706 7.706 0 0 1-1.769-.227 15.66 15.66 0 0 1-6.198-3.29 9.803 9.803 0 0 1-.272 5.765 2.734 2.734 0 0 1-1.724 1.374 8.435 8.435 0 0 1-2.101.302 5.68 5.68 0 0 1-4.777-2.717 31.678 31.678 0 0 1-1.013-1.509c-.303 1.992-.938 4.06-2.238 4.95a5.244 5.244 0 0 1-2.933.89 6.407 6.407 0 0 1-4.535-1.931 34.214 34.214 0 0 1-2.827-4.181 6.302 6.302 0 0 1-2.102 4.09 7.865 7.865 0 0 1-4.807 1.992 6.91 6.91 0 0 1-2.086-.347 7.552 7.552 0 0 1-3.508-3.743 7.377 7.377 0 0 1-1.058 2.038 6.044 6.044 0 0 1-4.853 2.777Z" fill="#231F20"/><path d="m206.819 263.492-38.868-95.08h-36.752l-38.869 95.08s-.725 4.437 4.218 3.29c4.944-1.147 8.875-6.294 8.875-6.294s-3.024 9.372 0 10.157a4.542 4.542 0 0 0 5.518-1.932c1.149-1.509 3.023-4.784 3.023-4.784s0 6.565 1.935 7.924a4.68 4.68 0 0 0 5.79-.861 84.032 84.032 0 0 0 5.08-8.074s-.831 5.66 1.512 7.863a6.499 6.499 0 0 0 6.395.679 5.61 5.61 0 0 0 2.706-4.105c.423-2.218.635-3.365.635-3.365s.106 5.765 1.738 7.365a4.294 4.294 0 0 0 1.633 1.33c.647.3 1.359.434 2.071.39a5.448 5.448 0 0 0 4.369-2.656c.696-1.826 1.406-6.037 1.709-6.942.302.92-.635 9.734 5.775 9.734a4.832 4.832 0 0 0 3.795-2.279c1.511-1.796 1.935-6.942 1.935-6.942s.211 1.147.635 3.365a7.674 7.674 0 0 0 3.401 4.86c1.603.483 3.145.573 5.73-1.509 2.585-2.083 1.512-7.863 1.512-7.863a87.51 87.51 0 0 0 5.079 8.074 4.691 4.691 0 0 0 5.806.86c1.995-1.358 1.92-7.923 1.92-7.923s1.935 3.214 3.023 4.784a4.536 4.536 0 0 0 5.654 2.007c3.024-.785 0-10.157 0-10.157s3.931 5.147 8.875 6.294c4.943 1.147 4.142-3.29 4.142-3.29Z" fill="#00947B"/><path d="M135.235 215.937c-2.842 0-4.535-2.868-5.109-3.939a17.683 17.683 0 0 1-1.195-4 10.667 10.667 0 0 1-2.721 3.909 4.103 4.103 0 0 1-2.585.891 6.608 6.608 0 0 1-5.246-3.019 10.54 10.54 0 0 1-.786-4.724 6.836 6.836 0 0 1-4.294 2.43h-.196a2.454 2.454 0 0 1-1.966-.951c-1.133-1.509-.997-4.618-.604-7.304-.877.769-1.845 1.509-2.722 2.218-.317.227-.725.559-1.194.936-1.92 1.509-4.535 3.713-6.984 3.713a3.72 3.72 0 0 1-1.421-.272 3.022 3.022 0 0 1-1.618-1.751c-.862-2.203-.09-5.75.998-8.134.604-1.328 1.95-4.045 3.824-7.818 2.419-4.844 5.73-11.485 8.965-18.231 5.534-11.561 20.107-51.962 20.259-52.369a1.269 1.269 0 0 1 1.209-.846h.076l17.37 1.042h.272c1.406.392 13.833 3.969 15.451 9.055.121.347 11.565 35.134 28.996 59.629 1.709 2.399 6.047 8.255 7.665 10.443a4.66 4.66 0 0 1 0 6.384 5.33 5.33 0 0 1-3.643 1.132 7.182 7.182 0 0 1-3.992-1.087 18.982 18.982 0 0 0-2.418-1.388c.892 1.871 1.602 4.256-.106 5.795a5.398 5.398 0 0 1-3.765 1.585 8.286 8.286 0 0 1-3.628-1.011 19.473 19.473 0 0 1-4.218-3.411 6.258 6.258 0 0 1 0 3.577 5.108 5.108 0 0 1-4.777 3.682 5.776 5.776 0 0 1-4.309-2.158l-.831-.936c-.907-.981-1.769-1.946-2.434-2.641a10.563 10.563 0 0 1-2.389 4.528 4.603 4.603 0 0 1-3.553 1.705 7.558 7.558 0 0 1-5.034-2.445c-.51-.511-.98-1.061-1.406-1.645a7.86 7.86 0 0 1-1.829 3.683 5.883 5.883 0 0 1-4.384 1.811 8.144 8.144 0 0 1-1.663-.181c-2.51-.483-3.84-2.792-4.536-4.875a14.786 14.786 0 0 1-4.898 6.233 5.132 5.132 0 0 1-2.631.755Z" fill="#231F20"/><path d="M200.666 197.615c-1.602-2.098-5.941-7.999-7.71-10.474-16.388-23.061-27.711-55.463-29.163-59.991-1.451-4.527-14.574-8.164-14.574-8.164l-17.4-1.012s-14.68 40.749-20.304 52.49c-5.624 11.742-11.384 22.955-12.79 26.019-1.406 3.064-1.89 7.395 0 8.165 2.54 1.056 6.516-2.928 8.346-4.241a55.928 55.928 0 0 0 5.518-4.845s-2.722 10.882.635 10.655c3.356-.226 6.198-6.036 6.198-5.931 0 .106-1.225 6.324.121 8.92.65 1.267 3.84 3.335 5.881 1.705 2.524-2.037 3.915-8.044 3.915-8.044s1.074 7.018 1.92 8.482c1.074 1.871 2.903 4.527 5.911 2.716 3.009-1.811 5.277-7.214 5.7-8.904.423-1.69.453 6.58 4.717 7.425 5.427 1.072 6.682-3.954 6.546-6.399-.136-2.445 1.24.936 3.401 3.019 2.162 2.082 4.838 3.018 6.698.815a8.754 8.754 0 0 0 2.358-5.509c.076-1.283 1.603.513 5.276 4.528 2.767 3.018 6.047 1.63 6.894-1.057.847-2.686-1.421-5.629-1.512-7.078-.09-1.449 4.641 4.739 7.559 6.142 2.918 1.404 4.248 1.102 5.881-.377s-.937-5.508-1.512-6.655c-.574-1.147 3.78.89 5.564 2.143 1.784 1.252 5.17.981 5.941.135a3.359 3.359 0 0 0-.015-4.678Z" fill="#00A8A7"/><path d="M129.264 150.815a4.285 4.285 0 0 1-3.175-1.419c-1.421-1.509-1.648-4.89-1.603-7.32l-1.965 1.238a5.842 5.842 0 0 1-3.099.8 8.44 8.44 0 0 1-6.047-2.475 4.08 4.08 0 0 1-1.074-3.215c.197-1.509 1.845-3.728 5.004-7.833a75.719 75.719 0 0 0 7.952-11.787c7.333-15.197 16.403-41.835 17.144-44.415a4.063 4.063 0 0 1 3.916-2.868h.332l.877.09c3.311.408 4.067 1.766 7.378 13.206s16.115 38.938 18.187 42.469a34.486 34.486 0 0 0 5.155 6.459c.348.348.665.695.983 1.027a5.184 5.184 0 0 1 1.103 4.799 4.913 4.913 0 0 1-2.902 3.577 4.459 4.459 0 0 1-1.512.271 6.647 6.647 0 0 1-3.719-1.509 10.097 10.097 0 0 0-.741-.468 5.301 5.301 0 0 1-.998-.845 4.934 4.934 0 0 1-.695 2.777 2.211 2.211 0 0 1-1.905 1.011 7.559 7.559 0 0 1-3.523-1.509c-.468-.287-.937-.588-1.406-.83a15.293 15.293 0 0 1-3.023-2.309c-.053.99-.21 1.971-.469 2.928-.302 1.087-.983 3.622-3.19 3.622a6.726 6.726 0 0 1-2.902-.996l-.454-.226a7.653 7.653 0 0 1-2.056-1.51 9.076 9.076 0 0 1-4.414 5.796 5.082 5.082 0 0 1-2.691.815 7.923 7.923 0 0 1-4.354-1.902l-.167-.121a9.652 9.652 0 0 1-2.615-4.014 8.667 8.667 0 0 1-4.097 5.629 6.06 6.06 0 0 1-3.235 1.057Z" fill="#231F20"/><path d="M146.604 72.819a2.807 2.807 0 0 0-2.918 1.947c-.816 2.596-9.857 29.233-17.234 44.597-3.553 7.41-12.503 16.586-12.775 19.212-.408 3.215 5.488 5.358 8.209 3.652l4.082-2.581s-.68 6.943 1.119 8.86c1.149 1.237 2.812 1.403 4.747.166 2.418-1.51 3.023-2.883 3.84-5.871l.861-3.019s1.512 6.037 3.432 7.29c1.92 1.252 3.583 2.565 5.881 1.132a7.68 7.68 0 0 0 3.855-5.132 15.045 15.045 0 0 0 0-3.863 9.653 9.653 0 0 0 3.87 4.709c2.57 1.297 3.719 2.143 4.717-1.51a10.696 10.696 0 0 0 0-6.278 26.99 26.99 0 0 0 5.276 4.814c2.147 1.132 4.294 3.019 5.156 1.706.861-1.313.423-3.864 0-5.72-.424-1.856 1.995 2.581 3.431 3.441 1.437.86 2.858 2.279 4.868 1.509a4.14 4.14 0 0 0 1.388-1.182 4.136 4.136 0 0 0 .711-3.481 4.14 4.14 0 0 0-.814-1.63 41.135 41.135 0 0 1-6.289-7.712c-2.01-3.441-14.815-30.879-18.262-42.74-3.447-11.863-4.007-12.075-6.289-12.286l-.862-.03Z" fill="#00998A"/><path d="M306.023 319a1.51 1.51 0 0 1-1.119-.604 2.278 2.278 0 0 1-.408-1.509l6.592-95.94a1.703 1.703 0 0 1 1.512-1.781h38.293a1.71 1.71 0 0 1 1.512 1.751l8.436 96.015a2.229 2.229 0 0 1-.408 1.51c-.124.184-.29.336-.485.443a1.395 1.395 0 0 1-.634.175l-53.291-.06Z" fill="#231F20"/><path d="M359.314 317.083h-53.291l6.592-95.94h38.294l8.405 95.94Z" fill="#F47E49"/><path d="M340.159 303.078a9.08 9.08 0 0 1-5.649-1.682 9.05 9.05 0 0 1-3.421-4.793c-.121.393-.257.755-.378 1.087-1.331 3.456-6.047 5.177-8.315 5.177s-3.946-.212-6.879-3.109a8.038 8.038 0 0 1-1.738-3.019 10.753 10.753 0 0 1-3.417 3.381 8.476 8.476 0 0 1-4.656 1.162 11.387 11.387 0 0 1-7.257-2.339 10.564 10.564 0 0 1-2.918-6.188 53.697 53.697 0 0 1-4.324 6.414 9.593 9.593 0 0 1-6.742 2.868 7.746 7.746 0 0 1-4.4-1.329c-1.935-1.313-2.872-4.406-3.326-7.364a89.647 89.647 0 0 1-1.511 2.218 8.448 8.448 0 0 1-7.121 4.045 12.791 12.791 0 0 1-3.144-.438 4.069 4.069 0 0 1-2.57-2.068c-1.119-2.052-.938-5.463-.409-8.602a23.28 23.28 0 0 1-9.252 4.92 11.51 11.51 0 0 1-2.646.332 5.82 5.82 0 0 1-4.641-1.917 7.263 7.263 0 0 1-1.345-5.493c.019-.145.054-.286.106-.423l58.053-142.031a1.909 1.909 0 0 1 1.784-1.192h54.878a1.91 1.91 0 0 1 1.784 1.192l58.038 142.031c.063.134.104.276.121.423a7.269 7.269 0 0 1-1.346 5.493 5.818 5.818 0 0 1-4.641 1.917 11.456 11.456 0 0 1-2.646-.332 23.287 23.287 0 0 1-9.252-4.92c.529 3.139.711 6.55-.408 8.602a4.069 4.069 0 0 1-2.57 2.068c-1.025.282-2.082.43-3.145.438a8.503 8.503 0 0 1-7.135-4.045 59.911 59.911 0 0 1-1.512-2.218c-.454 3.018-1.391 6.036-3.326 7.364a7.778 7.778 0 0 1-4.399 1.329 9.594 9.594 0 0 1-6.743-2.868 51.039 51.039 0 0 1-4.218-6.248 9.427 9.427 0 0 1-3.144 6.112 11.626 11.626 0 0 1-7.182 3.019 10.17 10.17 0 0 1-3.099-.513c-1.769-.529-3.915-3.019-5.246-5.6a11.097 11.097 0 0 1-1.511 3.019c-2.268 2.882-4.551 4.12-7.182 4.12Z" fill="#231F20"/><path d="m417.019 286.658-58.053-142.031h-54.803L246.11 286.658s-1.058 6.61 6.305 4.905c7.362-1.706 13.258-9.388 13.258-9.388s-4.535 13.976-.106 15.093c4.43 1.116 6.516-.544 8.24-2.883 1.723-2.339 4.535-7.154 4.535-7.154s-.106 9.825 2.887 11.848a7.01 7.01 0 0 0 8.648-1.283c1.814-1.917 7.559-12.074 7.559-12.074s-1.24 8.452 2.358 11.742c2.208 2.007 7.469 2.414 9.54 1.011a8.352 8.352 0 0 0 4.036-6.127c.635-3.321.953-5.026.953-5.026s.151 8.602 2.585 11.002c2.434 2.4 3.825 2.551 5.533 2.551 1.708 0 5.548-1.434 6.516-3.955.968-2.52 2.101-8.979 2.555-10.368.453 1.389-.937 14.519 8.632 14.519 1.709 0 3.523-.725 5.67-3.396 2.146-2.671 2.887-10.353 2.887-10.353s.318 1.705.953 5.026c.634 3.32 3.567 6.806 5.019 7.244 2.388.724 4.717.86 8.556-2.128 3.84-2.989 2.359-11.742 2.359-11.742s5.775 10.142 7.559 12.074a7.006 7.006 0 0 0 8.647 1.283c3.024-2.023 2.888-11.848 2.888-11.848s2.887 4.8 4.535 7.154c1.648 2.354 3.75 4.06 8.24 2.883 4.49-1.178-.106-15.093-.106-15.093s5.881 7.682 13.243 9.388c7.363 1.705 6.425-4.905 6.425-4.905Z" fill="#00947B"/><path d="M310.12 215.635c-4.248 0-6.712-4.271-7.634-5.871a25.877 25.877 0 0 1-1.769-6.037 16.375 16.375 0 0 1-4.112 5.901 6.158 6.158 0 0 1-3.87 1.328 9.848 9.848 0 0 1-7.832-4.527 15.46 15.46 0 0 1-1.179-7.048 10.276 10.276 0 0 1-6.41 3.607h-.302a3.67 3.67 0 0 1-2.918-1.434c-1.708-2.173-1.512-6.882-.907-10.896-1.315 1.162-2.751 2.354-4.067 3.305-.468.332-1.088.83-1.784 1.403-2.887 2.339-6.818 5.539-10.431 5.539a5.467 5.467 0 0 1-2.117-.407 4.536 4.536 0 0 1-2.434-2.611c-1.285-3.275-.121-8.588 1.512-12.074.907-1.992 2.933-6.037 5.73-11.681 3.613-7.229 8.557-17.16 13.364-27.166 8.27-17.28 30.04-77.603 30.236-78.222a1.921 1.921 0 0 1 1.799-1.268h.121l25.928 1.51c.138.01.275.035.408.075 2.101.589 20.666 5.916 23.085 13.447.166.513 17.265 52.46 43.283 89.043 2.555 3.592 8.98 12.33 11.459 15.59 2.48 3.26 2.48 6.761 0 9.523-1.406 1.509-4.278 1.69-5.442 1.69a10.816 10.816 0 0 1-5.942-1.614 28.595 28.595 0 0 0-3.628-2.083c1.346 2.807 2.389 6.354-.151 8.678a8.154 8.154 0 0 1-5.518 2.384 12.287 12.287 0 0 1-5.397-1.509 28.725 28.725 0 0 1-6.32-5.101 9.362 9.362 0 0 1 0 5.358 7.645 7.645 0 0 1-2.667 3.899 7.67 7.67 0 0 1-4.453 1.594 8.607 8.607 0 0 1-6.44-3.214l-1.255-1.389a134.16 134.16 0 0 0-3.629-3.954 15.654 15.654 0 0 1-3.583 6.776 6.858 6.858 0 0 1-2.385 1.853 6.9 6.9 0 0 1-2.951.653 11.107 11.107 0 0 1-7.484-3.668 22.325 22.325 0 0 1-2.116-2.43 11.603 11.603 0 0 1-2.737 5.479 8.763 8.763 0 0 1-6.53 2.701 12.15 12.15 0 0 1-2.495-.256c-3.749-.74-5.73-4.166-6.833-7.29-1.663 3.456-4.203 7.426-7.378 9.282a7.575 7.575 0 0 1-3.825 1.132Z" fill="#231F20"/><path d="M407.813 188.273c-2.389-3.139-8.875-11.938-11.505-15.635-24.476-34.425-41.378-82.825-43.54-89.632-2.162-6.806-21.77-12.073-21.77-12.073l-25.927-1.51s-21.937 60.746-30.342 78.328c-8.406 17.582-16.993 34.274-19.079 38.847-2.086 4.573-2.842 11.047 0 12.179 3.779 1.509 9.736-4.362 12.472-6.308a86.857 86.857 0 0 0 8.24-7.26s-4.067 16.27.937 15.922c5.004-.347 9.267-8.964 9.252-8.859-.015.106-1.829 9.433.182 13.312.982 1.901 5.744 4.98 8.783 2.55 3.78-3.018 5.851-12.074 5.851-12.074s1.587 10.474 2.857 12.678c1.603 2.777 4.354 6.67 8.844 4.044 4.49-2.626 7.861-10.76 8.496-13.281.635-2.52.681 9.81 7.045 11.078 8.104 1.585 9.993-5.916 9.782-9.568-.212-3.653 1.844 1.403 5.079 4.527 3.236 3.124 7.212 4.452 9.993 1.223a13.134 13.134 0 0 0 3.493-8.301c.105-1.917 2.373.77 7.846 6.822 4.157 4.527 9.071 2.43 10.31-1.51 1.24-3.939-2.131-8.406-2.222-10.564-.091-2.158 6.939 7.063 11.233 9.176 4.293 2.113 6.334 1.645 8.768-.573 2.721-2.46-1.391-8.226-2.147-9.946-.756-1.721 5.654 1.343 8.33 3.214 2.676 1.872 7.726 1.51 8.875.197 1.33-1.464 2.252-3.879-.136-7.003Z" fill="#00A8A7"/><path d="M301.14 118.382a6.347 6.347 0 0 1-4.686-2.173c-2.117-2.249-2.449-7.305-2.389-10.927l-2.948 1.871a8.643 8.643 0 0 1-4.626 1.193 12.6 12.6 0 0 1-8.965-3.698 5.942 5.942 0 0 1-1.603-4.8c.273-2.263 2.752-5.568 7.454-11.695 4.082-5.328 9.161-11.938 11.882-17.613 10.9-22.638 24.446-62.511 25.701-66.314a6.036 6.036 0 0 1 2.2-3.063A6.055 6.055 0 0 1 326.75 0h.484l1.33.136c4.929.619 6.048 2.641 11.006 19.725 5.035 17.371 23.993 58.104 27.077 63.387a51.503 51.503 0 0 0 7.695 9.643c.514.524 1.018 1.027 1.511 1.51a7.724 7.724 0 0 1 1.679 7.168 7.45 7.45 0 0 1-4.354 5.343 7.04 7.04 0 0 1-2.268.392 9.898 9.898 0 0 1-5.533-2.188l-1.104-.724a7.17 7.17 0 0 1-1.512-1.238 7.415 7.415 0 0 1-1.043 4.075 3.34 3.34 0 0 1-2.842 1.509 11.234 11.234 0 0 1-5.246-2.203c-.711-.423-1.421-.861-2.117-1.238a22.187 22.187 0 0 1-4.444-3.456 21.139 21.139 0 0 1-.711 4.392c-.438 1.63-1.512 5.418-4.747 5.418a9.99 9.99 0 0 1-4.339-1.509l-.68-.332a11.648 11.648 0 0 1-3.024-2.34 13.599 13.599 0 0 1-6.727 8.739 7.571 7.571 0 0 1-4.006 1.222 11.76 11.76 0 0 1-6.577-2.852l-.257-.181a14.246 14.246 0 0 1-3.9-6.037 12.91 12.91 0 0 1-6.123 8.421 9.08 9.08 0 0 1-4.838 1.6Z" fill="#231F20"/><path d="M327.082 1.932a4.208 4.208 0 0 0-4.354 2.913c-1.209 3.863-14.709 43.63-25.7 66.57-5.307 11.048-18.686 24.797-19.17 28.675-.604 4.8 8.194 8.014 12.261 5.448l6.047-3.848s-1.013 10.368 1.678 13.236c1.724 1.841 4.188 2.082 7.091.241 3.613-2.294 4.444-4.286 5.729-8.768l1.285-4.528s2.359 8.965 5.125 10.881c2.767 1.917 5.352 3.834 8.769 1.706a11.48 11.48 0 0 0 5.775-7.682 22.886 22.886 0 0 0 0-5.765s1.92 5.116 5.775 7.048c3.855 1.932 5.548 3.199 7.045-2.355a16.19 16.19 0 0 0 0-9.387s4.717 5.554 7.922 7.259c3.205 1.706 6.41 4.528 7.695 2.551 1.285-1.977.635-5.75 0-8.527-.635-2.777 3.023 3.833 5.125 5.116 2.101 1.283 4.278 3.411 7.272 2.355 2.993-1.057 4.701-6.415 1.92-9.403a61.55 61.55 0 0 1-9.404-11.515c-3.023-5.131-22.133-46.106-27.212-63.809-5.08-17.703-6.047-17.93-9.404-18.352l-1.27-.06Z" fill="#00998A"/><path d="M189.342 317.959a1.741 1.741 0 0 1-1.693-1.374 1.7 1.7 0 0 1 .998-1.916c17.764-7.712 20.606-38.002 20.999-44.16v-91.11a1.726 1.726 0 0 1 1.723-1.721h30.236a1.722 1.722 0 0 1 1.724 1.721v91.11c.393 6.158 3.25 36.448 20.999 44.16a1.723 1.723 0 0 1 .392 2.895c-.302.25-.681.389-1.073.395h-74.305Z" fill="#231F20"/><path d="M263.602 316.238h-74.259c18.595-8.074 21.588-38.786 22.027-45.668v-91.171h30.236v91.171c.393 6.882 3.401 37.594 21.996 45.668Z" fill="#F47E49"/><path d="M253.866 263.824c-7.559 0-19.88-13.885-27.394-23.303-7.559 9.418-19.88 23.303-27.393 23.303a7.152 7.152 0 0 1-.802 0 5.784 5.784 0 0 1-4.187-2.732c-2.873-4.331-1.905-13.402-.711-19.771-7.831 9.056-19.653 21.491-25.534 21.491a3.972 3.972 0 0 1-1.754-.392c-5.155-2.52-3.023-14.851-.332-24.721-15.632 12.798-29.087 13.87-33.109 13.87-5.76 0-9.796-1.751-10.582-4.528-.318-1.207-.273-3.546 3.567-5.689 11.188-6.249 34.59-40.839 34.772-41.202a186.264 186.264 0 0 0 12.896-24.403c1.723-3.743 3.235-6.958 4.535-9.327a1.708 1.708 0 0 1 1.512-.906h94.049c.445.004.872.177 1.194.483 2.056 1.962 4.097 6.792 6.939 13.462a186.186 186.186 0 0 0 13.924 27.966c10.507 16.601 26.986 31.301 31.748 33.927 3.84 2.143 3.885 4.527 3.583 5.689-.741 2.807-4.778 4.528-10.583 4.528-4.021 0-17.476-1.072-33.108-13.87 2.691 9.901 4.822 22.201-.333 24.721-.546.266-1.146.4-1.754.392-5.805 0-17.718-12.526-25.534-21.506 1.194 6.384 2.162 15.47-.695 19.786a5.85 5.85 0 0 1-4.188 2.671 7.06 7.06 0 0 1-.726.061Z" fill="#231F20"/><path d="M283.83 232.417c.181.574 8.209 25.491 2.253 28.418-5.957 2.928-28.936-25.052-29.753-26.033.272.966 6.985 26.048-1.889 27.165-7.438.981-22.783-17.688-27.969-24.328-5.2 6.746-20.575 25.415-27.983 24.434-8.859-1.162-2.162-26.245-1.89-27.166-.801.981-23.826 28.932-29.752 26.034-5.926-2.898 2.071-27.845 2.253-28.418-27.5 26.049-54.229 16.873-42.558 10.368 11.671-6.505 35.407-41.745 35.407-41.745 7.559-11.303 13.606-26.803 17.491-33.881h94.049c4.052 3.863 9.283 23.257 20.591 41.095 10.462 16.496 26.955 31.543 32.322 34.531 11.671 6.459-15.072 15.635-42.572-10.474Z" fill="#00947B"/><path d="M249.331 199.124c-6.335 0-16.524-11.892-22.859-20.163-6.334 8.271-16.63 20.163-22.873 20.163a5.272 5.272 0 0 1-.711 0 5.105 5.105 0 0 1-3.613-2.309c-2.389-3.562-1.814-10.927-.877-16.601-6.561 7.817-16.07 18.11-20.863 18.11a3.401 3.401 0 0 1-1.617-.377c-4.445-2.279-2.676-13.055-.62-21.038-12.835 10.685-23.811 11.59-27.122 11.59-4.898 0-8.375-1.509-9.071-4.105-.302-1.101-.302-3.275 3.024-5.252 2.252-1.584 21.377-26.396 39.08-53.727 12.714-19.62 24.703-40.266 31.869-52.596 3.658-6.309 5.881-10.112 6.652-11.183 2.706-3.683 4.535-6.354 5.215-7.335v-.12a1.757 1.757 0 0 1 1.391-.695h.136a1.682 1.682 0 0 1 1.315.785c.091.136 1.648 2.445 4.415 6.263 1.829 2.505 5.367 9.055 10.265 18.201 8.073 15.002 19.124 35.542 31.37 54.603 15.193 23.649 33.743 44.038 36.767 45.789 3.386 1.977 3.371 4.135 3.023 5.252-.68 2.536-4.157 4.105-9.07 4.105-3.311 0-14.302-.905-27.107-11.59 2.041 7.983 3.81 18.744-.635 21.038-.5.257-1.055.387-1.618.377-4.792 0-14.301-10.262-20.847-18.11.937 5.659 1.512 13.024-.892 16.601a5.076 5.076 0 0 1-3.613 2.309 5.623 5.623 0 0 1-.711 0l.197.015Z" fill="#231F20"/><path d="M274.336 171.491s6.924 22.26 1.889 24.856c-5.034 2.596-24.188-21.913-24.823-22.759.211.846 5.82 22.774-1.512 23.785-6.198.846-19.019-15.469-23.342-21.264-4.339 5.795-17.144 22.11-23.358 21.264-7.392-1.011-1.799-22.939-1.511-23.785-.666.846-19.881 25.295-24.824 22.759-4.944-2.535 1.89-24.856 1.89-24.856-22.965 22.774-45.264 14.76-35.528 9.055 2.313-1.358 21.816-26.758 39.655-54.331 18.928-29.204 36.283-60.67 38.46-63.689 3.281-4.527 5.261-7.425 5.291-7.455.031-.03 1.678 2.49 4.536 6.354 4.429 6.49 21.603 41.97 41.363 72.788 15.012 23.363 33.698 44.205 37.356 46.348 9.736 5.69-12.593 13.704-35.542-9.07Z" fill="#00A8A7"/><path d="M244.372 137.941c-4.883 0-12.094-9.674-17.9-18.699-5.745 9.04-13.016 18.699-17.915 18.699a4.92 4.92 0 0 1-.665 0 4.308 4.308 0 0 1-2.827-1.886c-2.026-3.019-1.784-9.493-1.134-14.866-5.82 8.301-12.094 15.967-15.783 15.967a2.878 2.878 0 0 1-1.512-.437c-3.416-2.128-2.252-11.697-.74-19.152-9.283 8.904-17.326 9.991-20.652 9.991-4.081 0-7.014-1.509-7.649-3.849-.242-.875-.439-3.018 2.736-4.92 10.794-6.308 31.597-43.238 57.222-101.388a9.676 9.676 0 0 1 3.574-4.212 9.701 9.701 0 0 1 14.174 4.212c13.168 30.048 38.173 83.187 57.675 101.539a5.157 5.157 0 0 1 1.799 5.69c-.876 2.203-3.492 3.501-7.014 3.501-2.51 0-10.704-.845-20.667-10.564 1.512 7.47 2.646 16.993-.74 19.106a3.025 3.025 0 0 1-1.512.438c-3.613 0-9.978-7.682-15.783-15.982.65 5.387.892 11.907-1.134 14.88a4.27 4.27 0 0 1-2.827 1.887 4.898 4.898 0 0 1-.726.045Z" fill="#231F20"/><path d="M263.965 111.681s5.412 21.129 1.512 23.589c-3.9 2.46-18.913-20.797-19.442-21.597.182.785 4.536 21.627-1.239 22.638-4.853.815-14.892-14.684-18.278-20.193-3.402 5.509-13.425 21.008-18.293 20.193-5.805-.951-1.406-21.793-1.24-22.638-.529.8-15.571 24.012-19.441 21.597-3.871-2.415 1.511-23.589 1.511-23.589-17.99 21.627-35.92 13.296-27.832 8.602 15.436-9.055 44.372-71.475 57.917-102.172a7.976 7.976 0 0 1 14.589 0c12.352 28.176 38.067 83.277 58.053 102.097 6.818 6.429-9.842 13.039-27.817-8.527Z" fill="#00998A"/></g><g clip-path="url(#b)"><path d="M34.374 271.979c.92 3.82-.471 7.834-.277 11.683a.589.589 0 0 1 .295.212.697.697 0 0 1-.053.828.585.585 0 0 1-.277.165c-.504.07-1.012.1-1.52.088-14.477-.629-27.042-12.876-29.942-26.71A72.863 72.863 0 0 1 .86 246.797c-.318-4.819 9.03-.788 11.199.247 10.379 4.977 18.224 14.322 22.314 24.935ZM72.078 263.816c2.988-.658 2.198 3.62 1.768 5.342-2.735 9.403-10.25 19.294-18.955 23.966a31.884 31.884 0 0 1-10.686 3.402c-.854.041-1.827.453-2.617 0a1.34 1.34 0 0 1-.483-.587 3.647 3.647 0 0 1-.236-1.176 25.4 25.4 0 0 1 .118-3.209c0-.358.06-.716.077-1.081l-.112-.047a.684.684 0 0 1-.307-.764c-.028-.816.04-1.632.2-2.433.3-1.46.811-2.869 1.516-4.184 3.607-7.863 10.945-13.517 19.143-15.997a185.151 185.151 0 0 1 10.574-3.232Z" fill="#4E985C"/><path d="M39.926 246.791c1.179.394 1.403 1.046 1.315 2.433-.195 5.507-.354 11.013-.26 16.525-.141 7.153-.33 14.299-.147 21.451-.162.8-.229 1.617-.2 2.433a.68.68 0 0 0 .306.764v1.116a25.412 25.412 0 0 0-.118 3.209c.013.402.093.799.236 1.175.082 2.61.187 5.217.312 7.822.112 2.745.254 5.566-.518 8.228-.649 2.474-3.537 4.496-6 3.273-2.87-1.357-2.199-4.983-2.116-7.575.147-3.303.389-6.605.642-9.902a880 880 0 0 0 .925-13.076.7.7 0 0 0 .053-.829l.142-2.409c.53-9.956.825-19.858 1.409-29.79.053-1.821.188-3.661.094-5.483a.583.583 0 0 1 .424-.587 9.066 9.066 0 0 0 3.501 1.222Z" fill="#91C755"/><path d="M39.973 249.806c-.984.194-5.304-1.37-3.849-2.662a.653.653 0 0 1 .065-.688c.725-.735 1.957.458 2.806.588a8.5 8.5 0 0 0 1.32.288.635.635 0 0 1 .49.526.636.636 0 0 1-.307.649c.89.406.365 1.446-.525 1.299Z" fill="#010101"/><path d="M35.365 316.39c-4.209-.823-4.008-4.796-3.437-8.163.33-2.815.59-5.642.814-8.469.495-5.876.748-11.806 1.02-17.706.53-12.253 1.408-24.495 1.526-36.754a.64.64 0 0 1 .675-.608.643.643 0 0 1 .61.673c.035 5.712-.342 11.413-.59 17.113-.589 11.754-1.013 23.566-1.809 35.337-.283 3.785-.59 7.57-1.073 11.342-.772 3.75.283 6.823 4.715 5.877 4.18-1.175 2.806-8.815 2.782-12.147a244.856 244.856 0 0 1-.389-8.815c-.241-12.441-.165-24.894-.059-37.341.036-3.174.048-6.353.095-9.527a.643.643 0 0 1 1.279.059c-.171 14.263-.26 28.526-.118 42.789.059 3.99.177 7.945.418 11.924.319 5.219 1.792 15.715-6.46 14.416Z" fill="#010101"/><path d="M35.282 271.697a45.709 45.709 0 0 0-2.487-5.401c-4.922-9.185-12.808-16.931-22.545-20.845-2.717-1.022-5.788-2.139-8.717-1.516-1.839.482-1.61 2.574-1.38 4.049.702 6.57 1.97 13.235 5.24 19.058 5.446 9.538 15.077 18.13 26.523 18.559.708-.105 2.706.388 2.777-.587-.048-1.099-1.427-.541-2.14-.647a23.822 23.822 0 0 1-11.747-3.285 38.02 38.02 0 0 1-11.238-9.964 37.9 37.9 0 0 1-6.49-13.525 71.858 71.858 0 0 1-1.804-11.413 1.244 1.244 0 0 1 .04-.376l.042.035c11.535 11.325 17.423 30.559 32.417 37.641a.646.646 0 0 0 .487-.033.64.64 0 0 0 .32-.367.645.645 0 0 0-.394-.805 11.901 11.901 0 0 1-1.81-.881 32.224 32.224 0 0 1-6.483-5.125c-8.97-9.091-14.01-21.215-22.792-30.43-.218-.188-.46-.517-.72-.787a10.764 10.764 0 0 1 1.999.082c9.43 1.763 17.558 8.063 23.316 15.556a47.735 47.735 0 0 1 6.142 10.813c.153.417.383 1.211 1.031.987a.647.647 0 0 0 .413-.793ZM71.276 263.158c-2.528.723-5.027 1.54-7.526 2.351-10.468 3.138-19.545 9.714-23.505 20.163a.637.637 0 0 0 .97.719.649.649 0 0 0 .173-.178 28.173 28.173 0 0 1 4.126-7.288c4.544-6.235 11.534-10.02 18.82-12.247 2.492-.823 4.992-1.645 7.52-2.351a6.14 6.14 0 0 1 .949-.199c-5.305 7.369-13.114 12.605-20.517 17.689-1.391 1.046-13.385 8.909-11.682 10.196.713.535 1.179-.464 1.65-.864a40.22 40.22 0 0 1 3.944-3.403c5.027-3.872 10.485-7.21 15.554-11.042 4.184-3.262 8.251-6.8 11.534-10.984.124-.17.271-.37.419-.587.524 2.55-1.656 7.204-2.517 9.297-3.601 7.375-9.065 13.928-16.273 18.077a27.264 27.264 0 0 1-10.02 3.402 15.317 15.317 0 0 1-3.643.147c-1.013.053-.801 1.375.16 1.299 16.008.212 29.21-14.245 33.253-28.796.831-2.827.702-6.888-3.389-5.401Z" fill="#010101"/><path d="M72.573 210.578c2.882 2.198 5.51 6.071 3.713 9.72-.153.406-.59.823-.3 1.27 2.734 4.243 3.3 10.743-.932 14.222-2.51 1.821-6.017 2.256-8.734.646-.855 3.168-4.126 5.565-7.427 5.201-2.74-.253-4.715-2.239-6.737-3.861-2.357 4.396-6.147 9.326-11.682 9.097-.182 0-.37 0-.548-.053a9.028 9.028 0 0 1-3.465-1.175 12.774 12.774 0 0 1-4.875-5.489c-.5-.923-.884-1.898-1.414-2.803a.247.247 0 0 0-.3-.147c-2.441 1.34-4.828 3.156-7.734 3.273a7.993 7.993 0 0 1-5.926-1.671 7.96 7.96 0 0 1-2.968-5.381c-.076-.587-.742-.629-1.179-.587-3.006.476-6.595-.136-7.992-3.174a9.174 9.174 0 0 1 .053-7.922c.342-.987 1.238-1.81 1.45-2.791-3.73-5.448.413-10.902 5.705-13.111 3.596-1.581 7.58-1.828 11.44-1.481 2.279.186 4.537.567 6.75 1.14.104.028.2.082.276.158.543-.834 1.715-.217 1.026.841-.66 1.316-1.314 2.985-.619 4.266.12.494.397.935.79 1.258a22.438 22.438 0 0 0 3.076 1.422 23.633 23.633 0 0 0 13.621 2.251 14.537 14.537 0 0 0 3.59-1.175 1.591 1.591 0 0 0 1.031-.9.645.645 0 0 0 .43-.56.642.642 0 0 0-.347-.615c-.077-1.763-.772-3.438-1.179-5.142.004-.121.018-.24.041-.359a.662.662 0 0 1-.614-.621.657.657 0 0 1 .544-.683c.412-.088.83-.165 1.25-.235 1.815-.982 5.204-.529 6.789-.318a.7.7 0 0 1 .324.153 25.57 25.57 0 0 1 13.073 5.336Z" fill="#EC4851"/><path d="M52.334 212.435a.644.644 0 0 1 .347.615.642.642 0 0 1-.43.561h-.047c-1.03.486-2.1.88-3.2 1.175-1.835.459-3.73.634-5.618.517-3.2-.171-6.359-.804-9.377-1.88A22.444 22.444 0 0 1 30.932 212a2.349 2.349 0 0 1-.79-1.257c-.477-1.834.814-4.431 1.769-5.759 6.855-8.645 19.868-3.221 20.299 7.404a.418.418 0 0 1 .123.047Z" fill="#FFCC3A"/><path d="M45.254 239.104a1.443 1.443 0 0 1-.967-1.763c.416-1.128.77-2.278 1.062-3.444.414-1.918.592-3.88.53-5.841a15.351 15.351 0 0 0-.383-2.856 1.461 1.461 0 0 1 .807-1.869 1.449 1.449 0 0 1 1.868.764c.914 3.173.679 6.582.113 9.797a27.75 27.75 0 0 1-1.18 4.019 1.517 1.517 0 0 1-1.85 1.193ZM62.1 234.861c-1.952-.141-1.262-2.533-1.645-3.843a5.853 5.853 0 0 0-.395-1.334 1.442 1.442 0 0 1 .802-1.869c2.646-.764 2.563 3.99 2.71 5.642a1.445 1.445 0 0 1-1.473 1.404ZM72.726 227.374a15.686 15.686 0 0 0-6.896-8.116 1.442 1.442 0 0 1-.218-2.021 1.466 1.466 0 0 1 1.88-.318 20.369 20.369 0 0 1 4.055 3.215 18.435 18.435 0 0 1 3.86 6.176 1.436 1.436 0 0 1-.826 1.822 1.444 1.444 0 0 1-1.855-.758Z" fill="#fff" style="mix-blend-mode:soft-light"/><path d="M78.043 224.847c-.438-1.147-1.001-2.243-1.68-3.267.328-.28.595-.624.784-1.011 1.179-1.963.701-4.425-.265-6.376-3.608-6.759-11.912-9.162-19.08-9.727-.789-.041-5.54-.246-7.166.547-3.572-4.748-10.786-6.588-16.044-3.479a10.168 10.168 0 0 0-3.624 3.585c-1.621-.952-6.083-1.528-7.014-1.593-5.305-.476-10.987.165-15.507 3.138-4.09 2.433-6.873 8.228-3.319 12.201-3.165 4.113-4.055 10.642.637 13.91 2.027 1.269 4.591 1.099 6.801.47.366 3.914 3.425 7.511 7.433 7.987 3.477.482 6.949-1.023 9.513-3.327 0 .053 0 .106.053.159 1.862 4.784 6.106 9.291 11.534 9.456 5.216.27 9.224-3.985 10.88-8.627a15.378 15.378 0 0 0 4.604 2.991 7.727 7.727 0 0 0 6.015-.069 7.68 7.68 0 0 0 4.129-4.362c.67.181 1.35.318 2.039.411 7.797.794 11.788-6.129 9.277-13.017Zm-1.527-6.182a4.49 4.49 0 0 1-.89 1.857 28.85 28.85 0 0 0-8.381-7.146 32.69 32.69 0 0 0-11.523-4.026 14.939 14.939 0 0 0-3.112-.17 8.996 8.996 0 0 0-.336-1.07 11.269 11.269 0 0 0-.89-1.969c8.376-1.904 25.344 2.087 25.132 12.524Zm-43.545-14.152c4.327-5.03 13.25-3.884 16.804 1.534a11.794 11.794 0 0 1 2.028 7c-2.847 1.721-6.29 2.156-9.584 1.98-4.126-.347-8.44-1.563-11.694-4.284a11.7 11.7 0 0 1 .219-1.469 9.761 9.761 0 0 1 2.227-4.761Zm-1.326 8.639v.071a.337.337 0 0 1 0-.071ZM7.957 208.61c4.42-3.65 10.498-4.326 16.067-3.826 2.174.191 4.31.684 6.348 1.463a11.954 11.954 0 0 0-.801 2.351c-1.804-.223-5.44.37-6.036.541-6.212 1.334-12.595 3.69-17.134 8.303-.147.141-.294.288-.436.435l-.035-.029c-2.358-2.944-.737-7.182 2.027-9.238Zm4.515 23.313c-5.906 2.004-9.59-1.998-8.499-7.828 1.114-4.602 5.092-7.869 9.112-9.991 5.04-2.509 10.568-4.266 16.25-4.26l-.036.282c0 .205-.076.441-.088.658-.626.263-1.234.565-1.821.905-6.336 3.814-14.523 12.435-14.847 20.228l-.07.006Zm16.621 4.642a.672.672 0 0 0-.135.089c-3.425 3.485-9.938 5.013-13.344.705-6.484-8.128 6.36-21.586 13.556-25.182.188-.082.436-.171.648-.288.55.485 1.155.903 1.804 1.246-.796 1.175-1.668 2.35-2.47 3.567a.639.639 0 0 0 .223.846.645.645 0 0 0 .862-.164 86.656 86.656 0 0 1 1.591-2.281c.242-.458.725-.881.943-1.375.955.465 1.957.888 2.823 1.217-.171.21-.358.406-.56.587a26.58 26.58 0 0 0-4.355 6.624c-2.01 4.46-2.9 9.649-1.586 14.409Zm9.295 9.127c-3.82-1.428-6.56-4.966-7.863-8.768-1.632-4.978-.542-10.525 1.769-15.133a25.913 25.913 0 0 1 3.813-5.506c.194-.265.59-.559.837-.882.232.073.468.132.707.176.848.21 1.705.377 2.57.5a1.442 1.442 0 0 0 0 .147.267.267 0 0 1 0-.118c0 1.928-.165 3.856-.247 5.777a.645.645 0 0 0 .589.664.638.638 0 0 0 .66-.587c.094-1.893.236-3.785.248-5.683a21.89 21.89 0 0 0 5.116-.088c.066.146.154.283.259.405.435.707.829 1.439 1.179 2.192a37.271 37.271 0 0 1 3.742 13.534c.39 7.123-5.287 16.297-13.379 13.37Zm27.407-9.514a6.459 6.459 0 0 1-1.36 2.723 6.486 6.486 0 0 1-5.47 2.284 6.498 6.498 0 0 1-2.9-.947 11.717 11.717 0 0 1-3.472-2.662.604.604 0 0 0-.171-.147c1.45-5.206.035-10.713-1.692-15.685-.336-.67-1.62-4.307-2.77-5.877a18.12 18.12 0 0 0 1.562-.405c.165-.071.46-.176.801-.3a132.434 132.434 0 0 1 1.94 3.162c.088.13.221.222.374.26a.638.638 0 0 0 .757-.848c-.525-.864-1.043-1.763-1.58-2.597-.088-.135-.182-.3-.282-.453.307-.136.603-.297.884-.482.13.071.265.124.389.182 2.947 1.564 5.234 4.05 7.403 6.506 3.489 4.161 6.395 9.697 5.587 15.286Zm10.155-2.151a8.33 8.33 0 0 1-8.84 2.174 7.464 7.464 0 0 0 .13-2.063c-.195-6.687-4.215-12.558-8.89-17.095-.589-.553-3.535-3.362-5.304-3.955a8.601 8.601 0 0 0-.182-2.657c9.106.318 18.99 5.46 23.422 13.593 1.515 3.045 1.774 7.17-.336 10.003Z" fill="#010101"/><path d="M124.753 285.108c-.938 2.773-.177 5.876-.59 8.686a.386.386 0 0 0-.224.141.504.504 0 0 0 0 .587.443.443 0 0 0 .195.141c.367.088.742.143 1.12.165 10.774.511 20.923-7.728 24.018-17.795a54.342 54.342 0 0 0 2.062-8.374c.56-3.527-6.642-1.176-8.34-.588-8.021 3.038-14.505 9.444-18.241 17.037ZM97.34 276.516c-2.17-.688-1.875 2.539-1.657 3.849 1.391 7.17 6.301 14.998 12.437 19.053a23.915 23.915 0 0 0 7.662 3.238c.636.088 1.326.458 1.945.17a.976.976 0 0 0 .395-.405c.135-.273.223-.568.259-.87a18.84 18.84 0 0 0 .13-2.386v-.805l.082-.029a.512.512 0 0 0 .283-.547 8.162 8.162 0 0 0 0-1.822 11.362 11.362 0 0 0-.843-3.203c-2.145-6.07-7.202-10.772-13.12-13.152-2.475-1.097-5-2.127-7.573-3.091Z" fill="#4E985C"/><path d="M122.342 266.055c-.902.212-1.114.682-1.143 1.716-.224 4.114-.478 8.192-.92 12.277-.383 5.289-.731 10.625-1.344 15.914a8.162 8.162 0 0 1 0 1.822.506.506 0 0 1-.283.547l-.053.393-.047.441c.007.797-.036 1.594-.129 2.386a2.708 2.708 0 0 1-.26.87 318.886 318.886 0 0 1-.76 5.783c-.271 2.027-.589 4.113-.171 6.141.312 1.874 2.299 3.567 4.226 2.827 2.222-.811 1.969-3.527 2.086-5.472.112-2.462.16-4.925.195-7.387.039-3.256.106-6.509.2-9.761a.51.51 0 0 1 0-.588l.053-1.798c.283-7.417.737-14.786.973-22.191.082-1.352.106-2.727.301-4.073a.451.451 0 0 0-.272-.476 6.742 6.742 0 0 1-2.652.629Z" fill="#91C755"/><path d="M122.1 268.288c.719.212 4.02-.658 3.041-1.716a.48.48 0 0 0 0-.511c-.489-.588-1.479.206-2.121.241a6.285 6.285 0 0 1-1.014.106.472.472 0 0 0-.384.354.48.48 0 0 0 .172.492c-.684.276-.378 1.076.306 1.034Z" fill="#010101"/><path d="M120.998 317.982c3.177-.329 3.295-3.285 3.1-5.824a173.68 173.68 0 0 1-.029-6.335c.029-4.401.242-8.815.442-13.205.442-9.121.589-18.259 1.356-27.356a.474.474 0 0 0-.456-.448.48.48 0 0 0-.493.407c-.419 4.231-.525 8.486-.731 12.735-.36 8.774-.843 17.548-1.049 26.328a226.473 226.473 0 0 0 0 8.486c.318 2.832-.672 5.042-3.902 4.049-3.024-1.14-1.485-6.723-1.244-9.203.338-2.167.635-4.341.89-6.524 1.02-9.214 1.81-18.453 2.57-27.691.189-2.351.395-4.701.589-7.052a.46.46 0 0 0-.125-.343.481.481 0 0 0-.516-.125.47.47 0 0 0-.313.427 1648.794 1648.794 0 0 1-2.812 31.734c-.312 2.939-.666 5.877-1.12 8.816-.548 3.849-2.357 11.536 3.843 11.124Z" fill="#010101"/><path d="M124.104 284.82a33.94 33.94 0 0 1 2.205-3.838c4.279-6.464 10.65-11.671 18.136-13.922 2.086-.588 4.432-1.175 6.566-.541 1.332.482 1.019 2.022.748 3.097-.961 4.825-2.358 9.685-5.175 13.787-4.686 6.706-12.413 12.43-20.941 11.977-.519-.123-2.034.106-2.022-.64.112-.811 1.096-.306 1.633-.341a17.682 17.682 0 0 0 8.935-1.64 28.358 28.358 0 0 0 8.999-6.618 28.278 28.278 0 0 0 5.736-9.572 54.154 54.154 0 0 0 2.11-8.363.89.89 0 0 0 0-.282h-.035c-9.319 7.64-14.989 21.485-26.588 25.734a.483.483 0 0 1-.368-.049.472.472 0 0 1-.221-.297.48.48 0 0 1 .353-.588c.481-.141.95-.32 1.403-.535a23.834 23.834 0 0 0 5.169-3.367c7.244-6.13 11.788-14.786 18.949-21.045.171-.123.371-.347.59-.529a7.317 7.317 0 0 0-1.486-.076c-7.126.646-13.556 4.801-18.354 9.99a35.74 35.74 0 0 0-5.304 7.64c-.136.3-.366.87-.831.658a.473.473 0 0 1-.239-.277.463.463 0 0 1 .032-.363ZM97.982 276.081c1.828.711 3.625 1.487 5.423 2.268 7.55 3.015 13.815 8.516 16.073 16.52a.41.41 0 0 0-.047-.112.478.478 0 0 1-.843.441 20.873 20.873 0 0 0-2.564-5.689c-2.947-4.924-7.874-8.227-13.126-10.343-1.798-.781-3.595-1.557-5.422-2.256a4.412 4.412 0 0 0-.684-.212c3.412 5.818 8.87 10.231 14.016 14.498.955.87 9.318 7.516 7.968 8.357-.589.347-.842-.429-1.178-.752a28.578 28.578 0 0 0-2.694-2.786c-3.466-3.215-7.291-6.059-10.786-9.244a48.422 48.422 0 0 1-7.815-8.927 17.79 17.79 0 0 1-.266-.458c-.589 1.862.737 5.459 1.238 7.052 2.17 5.712 5.776 10.936 10.839 14.504a20.369 20.369 0 0 0 7.203 3.197c.881.222 1.784.342 2.693.358.749.1.501 1.07-.206.946-11.888-.917-20.7-12.529-22.716-23.583-.412-2.151-.04-5.154 2.894-3.779Z" fill="#010101"/><path d="M100.582 236.977c-2.287 1.434-4.498 4.114-3.413 6.958.082.311.377.652.136.964-2.317 2.938-3.172 7.745-.272 10.613a6.029 6.029 0 0 0 6.437 1.064 5.327 5.327 0 0 0 1.8 3.095 5.359 5.359 0 0 0 3.357 1.266c2.045 0 3.66-1.346 5.257-2.416 1.433 3.42 3.926 7.334 8.046 7.534h.412a6.737 6.737 0 0 0 2.652-.658 9.528 9.528 0 0 0 3.985-3.738c.436-.652.79-1.351 1.243-1.986a.18.18 0 0 1 .097-.091.18.18 0 0 1 .133.003c1.721 1.175 3.366 2.662 5.517 2.938a5.943 5.943 0 0 0 7.073-4.619c.1-.429.589-.411.919-.347 2.193.588 4.898.347 6.142-1.816a6.857 6.857 0 0 0 .483-5.876c-.188-.753-.796-1.423-.89-2.163 3.142-3.791.436-8.116-3.342-10.108a17.274 17.274 0 0 0-8.375-1.857 29.808 29.808 0 0 0-5.063.394.43.43 0 0 0-.212.094c-.348-.653-1.262-.271-.82.587.401 1.017.773 2.304.166 3.203-.121.36-.355.671-.666.888-.766.336-1.553.619-2.358.846a17.615 17.615 0 0 1-10.256.746 10.902 10.902 0 0 1-2.581-1.122 1.174 1.174 0 0 1-.707-.735.48.48 0 0 1 0-.876c.176-1.316.807-2.497 1.243-3.731v-.271a.492.492 0 0 0 .481-.422.495.495 0 0 0-.339-.541c-.301-.094-.59-.183-.914-.259-1.279-.846-3.819-.74-5.01-.688a.472.472 0 0 0-.253.089 19.05 19.05 0 0 0-10.108 3.038Z" fill="#DF719E"/><path d="M115.464 239.739a.485.485 0 0 0-.205.698c.05.077.121.139.205.178h.035c.724.437 1.485.809 2.275 1.11 1.329.46 2.72.715 4.126.759a24.828 24.828 0 0 0 7.073-.759 17.753 17.753 0 0 0 2.358-.846c.323-.212.567-.524.695-.887.483-1.323-.295-3.338-.913-4.384-4.509-6.894-14.529-3.773-15.572 4.113a.248.248 0 0 0-.077.018Z" fill="#FFCC3A"/><path d="M118.912 259.996a1.078 1.078 0 0 0 .837-1.263 23.357 23.357 0 0 1-.554-2.627 18.024 18.024 0 0 1 0-4.367c.095-.71.255-1.41.477-2.092a1.079 1.079 0 0 0 .096-.836 1.072 1.072 0 0 0-2.006-.134c-.89 2.292-.949 4.837-.742 7.264.119 1.032.316 2.054.589 3.056a1.126 1.126 0 0 0 .847.978c.149.038.304.045.456.021ZM106.682 255.712c1.461 0 1.108-1.763 1.485-2.739.086-.336.215-.66.383-.963a1.076 1.076 0 0 0-.466-1.44c-1.915-.747-2.175 2.791-2.393 4.002a1.06 1.06 0 0 0 .991 1.14ZM99.326 249.447a11.697 11.697 0 0 1 5.67-5.559 1.071 1.071 0 0 0 .321-1.418 1.075 1.075 0 0 0-1.394-.427 15.295 15.295 0 0 0-3.23 2.109 13.652 13.652 0 0 0-3.277 4.326 1.065 1.065 0 0 0 .491 1.393 1.078 1.078 0 0 0 1.419-.424Z" fill="#fff" style="mix-blend-mode:soft-light"/><path d="M101.542 257.493c.516-.021 1.03-.076 1.538-.165a5.73 5.73 0 0 0 4.953 4.186 5.739 5.739 0 0 0 2.274-.225 11.46 11.46 0 0 0 3.63-1.922c.92 3.526 3.596 6.976 7.486 7.129 4.037.241 7.491-2.815 9.2-6.241l.047-.106c1.768 1.875 4.22 3.226 6.831 3.103 3-.082 5.517-2.545 6.053-5.424 1.598.587 3.484.916 5.075.111 3.702-2.109 3.484-7.005 1.415-10.278 2.905-2.715 1.232-7.187-1.633-9.268-3.153-2.515-7.332-3.367-11.293-3.373-.695 0-4.043.135-5.304.729a7.495 7.495 0 0 0-2.446-2.898c-3.684-2.662-9.165-1.763-12.136 1.499-1.179-.699-4.715-.87-5.275-.887-5.358-.065-11.682 1.175-14.812 5.923-.849 1.381-1.373 3.18-.624 4.702.114.299.286.572.506.805a12.691 12.691 0 0 0-1.467 2.309c-2.334 4.966.159 10.355 5.982 10.291Zm15.053-22.332c-.31.44-.574.911-.789 1.404a5.763 5.763 0 0 0-.325.764 11.35 11.35 0 0 0-2.316-.076c-3.06.173-6.059.921-8.841 2.204a21.545 21.545 0 0 0-6.701 4.737 3.387 3.387 0 0 1-.53-1.434c.565-7.781 13.42-9.603 19.502-7.628v.029Zm15.095 3.714c.048.366.07.736.065 1.105-2.6 1.798-5.894 2.415-8.965 2.392-2.452-.094-4.975-.647-6.973-2.116a8.769 8.769 0 0 1 1.981-5.054c3-3.779 9.695-4.031 12.566 0a7.272 7.272 0 0 1 1.326 3.644v.029Zm-.914 2.85v-.058.058Zm18.743 5.142h-.029c-.095-.117-.189-.235-.295-.352-3.053-3.726-7.627-5.877-12.147-7.311a17.532 17.532 0 0 0-4.433-.793 9.232 9.232 0 0 0-.442-1.763 17.57 17.57 0 0 1 4.81-.653c4.161 0 8.623.911 11.658 3.914 1.91 1.693 2.835 4.943.878 6.953v.005Zm-5.894 9.991c.295-5.8-5.198-12.747-9.636-16.02a12.204 12.204 0 0 0-1.291-.793v-.706c4.22.376 8.198 2.051 11.788 4.255 2.835 1.863 5.57 4.555 6.082 8.04.413 4.395-2.587 7.11-6.831 5.23l-.112-.006Zm-12.778-8.451a19.749 19.749 0 0 0-2.776-5.189 3.08 3.08 0 0 1-.371-.494c.66-.182 1.438-.429 2.175-.705.123.376.459.723.589 1.081.348.588.684 1.176 1.02 1.799a.49.49 0 0 0 .642.205.472.472 0 0 0 .206-.64c-.512-.946-1.084-1.863-1.591-2.809a7.252 7.252 0 0 0 1.426-.805c.148.1.324.182.46.258 5.087 3.15 13.727 13.999 8.346 19.588-2.823 2.938-7.55 1.392-9.849-1.423a.917.917 0 0 0-.094-.07c1.338-3.444 1.031-7.352-.183-10.796Zm-16.309 6.13a27.75 27.75 0 0 1 3.684-9.832 15.06 15.06 0 0 1 1.032-1.546c.085-.085.159-.182.218-.288a16.1 16.1 0 0 0 3.789.412c-.123 1.41-.141 2.82-.206 4.231a.479.479 0 0 0 .955.053c.071-1.434.065-2.88.206-4.308.01.029.01.06 0 .088a.614.614 0 0 0 0-.105c.65-.035 1.297-.101 1.939-.2.181-.017.36-.044.537-.083.159.253.436.5.589.712a19.573 19.573 0 0 1 2.452 4.337c1.385 3.573 1.821 7.763.271 11.342-1.232 2.732-3.495 5.177-6.424 5.976-6.224 1.669-9.826-5.541-9.042-10.789Zm-5.499-9.051c1.768-1.674 3.66-3.361 5.93-4.325.094-.035.2-.065.3-.106.197.154.406.291.625.412-.083.111-.165.229-.242.317-.453.588-.896 1.217-1.343 1.822a.473.473 0 0 0 .151.635.479.479 0 0 0 .644-.112 83.468 83.468 0 0 1 1.656-2.216c.248.118.454.212.59.277.369.152.746.288 1.131.405-.954 1.076-2.157 3.685-2.451 4.161-1.633 3.561-3.036 7.551-2.317 11.512a.46.46 0 0 0-.135.1 8.819 8.819 0 0 1-2.753 1.763 4.841 4.841 0 0 1-4.439-.067 4.824 4.824 0 0 1-2.516-3.647c-.23-4.178 2.311-8.086 5.169-10.931Zm-12.159 1.24c3.831-5.735 11.517-8.879 18.271-8.503a6.284 6.284 0 0 0-.312 1.957c-1.314.323-3.725 2.209-4.185 2.58-3.766 3.038-7.143 7.128-7.744 12.071a5.919 5.919 0 0 0-.042 1.539 6.223 6.223 0 0 1-6.412-2.204c-1.344-2.244-.879-5.289.436-7.44h-.012Z" fill="#010101"/></g><defs><clipPath id="a"><path fill="#fff" transform="translate(91)" d="M0 0h328v319H0z"/></clipPath><clipPath id="b"><path fill="#fff" transform="translate(0 200)" d="M0 0h152v118H0z"/></clipPath></defs></svg>