<svg width="1080" height="831" viewBox="0 0 1080 831" fill="none" xmlns="http://www.w3.org/2000/svg">
<g clip-path="url(#clip0_134_322)">
<path d="M378.306 4H705.763C719.28 4 730.238 14.9576 730.238 28.4746V117.966C730.238 131.483 719.28 142.441 705.763 142.441H378.306C364.789 142.441 353.831 131.483 353.831 117.966V28.4746C353.831 14.9576 364.789 4 378.306 4Z" fill="black" stroke="white" stroke-width="8"/>
<path d="M299.906 573.56H770.018C780.506 573.56 790.145 567.795 795.106 558.554L868.262 422.283C878.446 403.313 864.704 380.34 843.174 380.34H237.508C216.764 380.34 202.982 401.809 211.618 420.669L274.016 556.94C278.653 567.067 288.768 573.56 299.906 573.56Z" fill="#FBBF24"/>
<path d="M625.465 51.8768H615.995V63.9826H625.367V77.5528H615.995V93.0755H625.562V106.646H600.375V38.3066H625.465V51.8768Z" fill="white"/>
<path d="M577.952 54.122V90.8298C577.952 91.3504 578.017 91.8386 578.148 92.2942C578.278 92.6847 578.408 93.0101 578.538 93.2704C578.733 93.5308 578.961 93.726 579.222 93.8562C579.482 93.9864 579.775 94.0515 580.1 94.0515C580.426 94.0515 580.718 93.9864 580.979 93.8562C581.304 93.661 581.565 93.4006 581.76 93.0752C581.955 92.7498 582.118 92.3267 582.248 91.806C582.443 91.2854 582.541 90.6996 582.541 90.0488V79.0169H579.71V68.8637H598.161V106.645H587.52V100.495H586.446C585.795 102.838 584.493 104.628 582.541 105.864C580.588 107.036 578.441 107.622 576.097 107.622C574.47 107.622 572.811 107.296 571.118 106.645C569.491 105.929 568.027 104.856 566.725 103.424C565.424 101.927 564.35 100.072 563.504 97.8589C562.723 95.581 562.332 92.8149 562.332 89.5606V55.2935C562.332 52.2996 562.723 49.6962 563.504 47.4833C564.35 45.2053 565.521 43.3179 567.018 41.8209C568.515 40.324 570.337 39.2175 572.485 38.5016C574.698 37.7206 577.204 37.3301 580.003 37.3301C582.801 37.3301 585.307 37.7206 587.52 38.5016C589.798 39.2826 591.718 40.4216 593.28 41.9186C594.842 43.4155 596.046 45.303 596.892 47.5809C597.738 49.7938 598.161 52.3647 598.161 55.2935V66.2277H582.541V54.122C582.541 53.4711 582.476 52.9504 582.346 52.5599C582.215 52.1694 582.053 51.844 581.857 51.5836C581.662 51.3233 581.434 51.1606 581.174 51.0955C580.914 50.9653 580.588 50.9003 580.198 50.9003C579.937 50.9003 579.645 50.9653 579.319 51.0955C579.059 51.1606 578.831 51.3233 578.636 51.5836C578.441 51.844 578.278 52.1694 578.148 52.5599C578.017 52.9504 577.952 53.4711 577.952 54.122Z" fill="white"/>
<path d="M531.665 38.3066H555.974L561.832 106.646H546.212L544.161 65.2517H543.185L541.135 106.646H525.515L531.665 38.3066ZM548.945 91.1229H538.011V77.5528H548.945V91.1229Z" fill="white"/>
<path d="M528.42 38.3066V51.8768H519.048V106.646H503.427V51.8768H494.055V38.3066H528.42Z" fill="white"/>
<path d="M492.523 62.1274H476.903V54.122C476.903 53.0806 476.707 52.2996 476.317 51.7789C475.926 51.1931 475.373 50.9003 474.657 50.9003C473.941 50.9003 473.388 51.1931 472.998 51.7789C472.672 52.2996 472.509 53.0806 472.509 54.122V59.1986C472.509 60.0447 472.575 60.7931 472.705 61.444C472.835 62.0298 473.16 62.6155 473.681 63.2013C474.267 63.787 475.08 64.4053 476.122 65.0562C477.228 65.707 478.725 66.5206 480.613 67.4969L483.639 68.9613C485.396 69.8725 486.828 70.8813 487.935 71.9877C489.106 73.0291 490.017 74.2982 490.668 75.7952C491.384 77.2271 491.872 78.9518 492.133 80.9694C492.458 82.9871 492.621 85.3952 492.621 88.1938V89.5606C492.621 95.3532 491.026 99.8115 487.837 102.936C484.713 106.06 480.255 107.622 474.462 107.622C468.669 107.622 464.276 106.092 461.282 103.033C458.288 99.9091 456.792 95.4182 456.792 89.5606V82.8243H472.412V90.8298C472.412 91.8711 472.607 92.6847 472.998 93.2704C473.388 93.7911 473.941 94.0515 474.657 94.0515C475.438 94.0515 476.024 93.7911 476.415 93.2704C476.805 92.7498 477 91.9362 477 90.8298V85.5579C477 84.6467 476.935 83.8982 476.805 83.3125C476.675 82.7267 476.349 82.1735 475.829 81.6528C475.308 81.067 474.527 80.4813 473.486 79.8955C472.509 79.2447 471.175 78.4637 469.483 77.5525L466.066 75.8928C464.309 74.9165 462.812 73.8752 461.575 72.7687C460.404 71.6623 459.46 70.3606 458.744 68.8637C458.093 67.3016 457.605 65.5118 457.28 63.4942C457.019 61.4765 456.889 59.0684 456.889 56.2697V55.2935C456.889 49.4358 458.386 44.9775 461.38 41.9186C464.439 38.8596 468.8 37.3301 474.462 37.3301C480.255 37.3301 484.713 38.8921 487.837 42.0162C490.961 45.1403 492.523 49.566 492.523 55.2935V62.1274Z" fill="white"/>
<path d="M338.77 211.459C344.086 206.285 351.212 203.391 358.63 203.391H463.944V355.933H240.38C222.126 355.933 213.113 333.749 226.195 321.018L338.77 211.459Z" fill="#EA580C"/>
<path d="M433.165 290.898V245.99L432.676 245.258H429.341V233.949H446.182V290.898H433.165Z" fill="white"/>
<path d="M414.425 233.949V245.258H406.615V290.898H393.598V245.258H385.788V233.949H414.425Z" fill="white"/>
<path d="M363.024 233.949H383.282L388.163 290.898H375.146L373.438 256.403H372.624L370.916 290.898H357.899L363.024 233.949ZM377.424 277.963H368.312V266.654H377.424V277.963Z" fill="white"/>
<path d="M340.659 247.128V277.718C340.659 278.206 340.713 278.613 340.822 278.938C340.93 279.264 341.066 279.535 341.229 279.752C341.391 279.969 341.581 280.131 341.798 280.24C342.069 280.348 342.313 280.403 342.53 280.403C342.856 280.403 343.127 280.348 343.344 280.24C343.561 280.131 343.751 279.969 343.913 279.752C344.076 279.535 344.212 279.264 344.32 278.938C344.429 278.613 344.483 278.206 344.483 277.718V263.969H357.5V276.66C357.5 279.155 357.147 281.352 356.442 283.25C355.737 285.094 354.734 286.64 353.432 287.887C352.13 289.135 350.53 290.084 348.632 290.735C346.788 291.386 344.7 291.711 342.368 291.711C340.035 291.711 337.947 291.413 336.103 290.816C334.313 290.165 332.795 289.216 331.547 287.969C330.3 286.667 329.323 285.094 328.618 283.25C327.968 281.352 327.642 279.155 327.642 276.66V248.104C327.642 245.609 327.968 243.44 328.618 241.596C329.323 239.697 330.3 238.125 331.547 236.877C332.795 235.63 334.313 234.708 336.103 234.111C337.947 233.46 340.035 233.135 342.368 233.135C344.7 233.135 346.788 233.46 348.632 234.111C350.53 234.762 352.13 235.711 353.432 236.958C354.734 238.206 355.737 239.779 356.442 241.677C357.147 243.521 357.5 245.664 357.5 248.104V260.877H344.483V247.128C344.483 246.586 344.429 246.152 344.32 245.826C344.212 245.501 344.076 245.23 343.913 245.013C343.751 244.796 343.561 244.66 343.344 244.606C343.127 244.497 342.856 244.443 342.53 244.443C342.313 244.443 342.069 244.497 341.798 244.606C341.581 244.66 341.391 244.796 341.229 245.013C341.066 245.23 340.93 245.501 340.822 245.826C340.713 246.152 340.659 246.586 340.659 247.128Z" fill="white"/>
<path d="M435.929 330.222C437.491 327.944 438.663 325.569 439.444 323.096C440.225 320.601 440.615 318.062 440.615 315.481C440.615 312.877 440.225 310.35 439.444 307.898C438.663 305.425 437.491 303.049 435.929 300.771H439.021C440.821 302.811 442.177 305.067 443.089 307.54C444 310.014 444.455 312.66 444.455 315.481C444.455 318.279 444 320.915 443.089 323.388C442.177 325.862 440.821 328.14 439.021 330.222H435.929Z" fill="white"/>
<path d="M419.581 325.015V300.381H423.258V316.88L421.826 316.522L430.645 307.41H435.233L428.595 314.472L435.526 325.015H431.296L425.113 315.676L427.293 315.383L422.086 320.915L423.258 318.474V325.015H419.581Z" fill="white"/>
<path d="M407.77 325.406C406.447 325.406 405.286 325.113 404.288 324.527C403.29 323.92 402.509 323.085 401.945 322.022C401.403 320.937 401.131 319.689 401.131 318.279V307.41H404.809V317.954C404.809 318.757 404.971 319.462 405.297 320.069C405.622 320.677 406.078 321.154 406.664 321.501C407.249 321.826 407.922 321.989 408.681 321.989C409.462 321.989 410.146 321.816 410.731 321.468C411.317 321.121 411.773 320.633 412.098 320.004C412.445 319.375 412.619 318.637 412.619 317.791V307.41H416.264V325.016H412.782V321.566L413.172 322.022C412.76 323.106 412.076 323.942 411.122 324.527C410.167 325.113 409.05 325.406 407.77 325.406Z" fill="white"/>
<path d="M388.8 325.406C387.108 325.406 385.589 325.005 384.244 324.202C382.921 323.377 381.869 322.271 381.088 320.883C380.328 319.494 379.949 317.932 379.949 316.196C379.949 314.461 380.339 312.899 381.12 311.51C381.901 310.122 382.953 309.026 384.277 308.224C385.6 307.421 387.097 307.02 388.768 307.02C390.178 307.02 391.425 307.302 392.51 307.866C393.595 308.43 394.452 309.211 395.081 310.209L394.528 311.055V300.381H398.172V325.015H394.69V321.436L395.113 322.119C394.506 323.182 393.638 323.996 392.51 324.56C391.382 325.124 390.145 325.406 388.8 325.406ZM389.158 321.989C390.178 321.989 391.089 321.74 391.892 321.241C392.716 320.742 393.356 320.058 393.812 319.19C394.289 318.301 394.528 317.303 394.528 316.196C394.528 315.09 394.289 314.103 393.812 313.235C393.356 312.367 392.716 311.684 391.892 311.185C391.089 310.686 390.178 310.436 389.158 310.436C388.139 310.436 387.217 310.686 386.392 311.185C385.568 311.684 384.928 312.367 384.472 313.235C384.017 314.103 383.789 315.09 383.789 316.196C383.789 317.303 384.017 318.301 384.472 319.19C384.928 320.058 385.557 320.742 386.36 321.241C387.184 321.74 388.117 321.989 389.158 321.989Z" fill="white"/>
<path d="M368.853 325.406C367.53 325.406 366.369 325.113 365.371 324.527C364.373 323.92 363.592 323.085 363.028 322.022C362.486 320.937 362.215 319.689 362.215 318.279V307.41H365.892V317.954C365.892 318.757 366.055 319.462 366.38 320.069C366.706 320.677 367.161 321.154 367.747 321.501C368.333 321.826 369.005 321.989 369.765 321.989C370.546 321.989 371.229 321.816 371.815 321.468C372.401 321.121 372.856 320.633 373.182 320.004C373.529 319.375 373.702 318.637 373.702 317.791V307.41H377.347V325.016H373.865V321.566L374.256 322.022C373.843 323.106 373.16 323.942 372.205 324.527C371.251 325.113 370.133 325.406 368.853 325.406Z" fill="white"/>
<path d="M339.787 325.016V300.771H347.727C350.244 300.771 352.424 301.281 354.268 302.301C356.134 303.299 357.576 304.709 358.596 306.531C359.616 308.354 360.126 310.469 360.126 312.877C360.126 315.264 359.616 317.379 358.596 319.223C357.576 321.045 356.134 322.466 354.268 323.486C352.424 324.506 350.244 325.016 347.727 325.016H339.787ZM343.627 321.599H347.792C349.506 321.599 350.992 321.241 352.25 320.525C353.53 319.809 354.517 318.8 355.212 317.498C355.906 316.197 356.253 314.656 356.253 312.877C356.253 311.098 355.895 309.569 355.179 308.289C354.485 306.987 353.509 305.978 352.25 305.262C350.992 304.546 349.506 304.188 347.792 304.188H343.627V321.599Z" fill="white"/>
<path d="M334.17 330.222C332.391 328.14 331.046 325.862 330.135 323.388C329.224 320.915 328.768 318.279 328.768 315.481C328.768 312.66 329.224 310.014 330.135 307.54C331.046 305.067 332.391 302.811 334.17 300.771H337.262C335.721 303.049 334.55 305.425 333.747 307.898C332.966 310.35 332.576 312.877 332.576 315.481C332.576 318.062 332.966 320.601 333.747 323.096C334.55 325.569 335.721 327.944 337.262 330.222H334.17Z" fill="white"/>
<path d="M463.944 203.391H616.486V355.933H463.944V203.391Z" fill="#059669"/>
<path d="M549.794 233.947H564.275C569.102 233.947 572.818 235.574 575.421 238.829C578.024 242.029 579.326 247.127 579.326 254.124V254.286C579.326 257.866 579.028 260.876 578.431 263.317C577.835 265.757 576.885 267.71 575.584 269.174C574.336 270.639 572.763 271.724 570.865 272.429C568.967 273.079 566.716 273.405 564.113 273.405H562.811V290.896H549.794V233.947ZM562.811 245.256V262.096H564.113C565.035 262.096 565.631 261.879 565.902 261.446C566.174 261.012 566.309 260.225 566.309 259.086V248.347C566.309 247.208 566.174 246.422 565.902 245.988C565.631 245.5 565.035 245.256 564.113 245.256H562.811Z" fill="white"/>
<path d="M534.937 233.947H547.954V290.896H534.937V233.947Z" fill="white"/>
<path d="M503.301 233.947H516.318L518.026 276.496H518.84L520.548 233.947H533.565L528.44 290.896H508.182L503.301 233.947Z" fill="white"/>
<path d="M589.555 330.22C591.117 327.942 592.289 325.567 593.07 323.094C593.851 320.599 594.241 318.06 594.241 315.479C594.241 312.875 593.851 310.348 593.07 307.896C592.289 305.423 591.117 303.047 589.555 300.77H592.647C594.447 302.809 595.803 305.065 596.715 307.538C597.626 310.012 598.081 312.658 598.081 315.479C598.081 318.277 597.626 320.913 596.715 323.386C595.803 325.86 594.447 328.138 592.647 330.22H589.555Z" fill="white"/>
<path d="M573.207 325.013V300.379H576.884V316.878L575.452 316.52L584.271 307.408H588.859L582.221 314.47L589.152 325.013H584.922L578.739 315.674L580.919 315.381L575.712 320.913L576.884 318.472V325.013H573.207Z" fill="white"/>
<path d="M561.396 325.404C560.073 325.404 558.912 325.111 557.914 324.525C556.916 323.918 556.135 323.083 555.571 322.02C555.029 320.935 554.757 319.688 554.757 318.277V307.408H558.435V317.952C558.435 318.755 558.597 319.46 558.923 320.067C559.248 320.675 559.704 321.152 560.29 321.499C560.875 321.824 561.548 321.987 562.307 321.987C563.088 321.987 563.772 321.814 564.357 321.467C564.943 321.119 565.399 320.631 565.724 320.002C566.071 319.373 566.245 318.635 566.245 317.789V307.408H569.89V325.014H566.408V321.564L566.798 322.02C566.386 323.104 565.702 323.94 564.748 324.525C563.793 325.111 562.676 325.404 561.396 325.404Z" fill="white"/>
<path d="M542.426 325.404C540.734 325.404 539.215 325.003 537.87 324.2C536.547 323.376 535.495 322.269 534.714 320.881C533.954 319.492 533.575 317.93 533.575 316.195C533.575 314.459 533.965 312.897 534.746 311.508C535.527 310.12 536.579 309.024 537.903 308.222C539.226 307.419 540.723 307.018 542.394 307.018C543.804 307.018 545.051 307.3 546.136 307.864C547.221 308.428 548.078 309.209 548.707 310.207L548.154 311.053V300.379H551.798V325.013H548.316V321.434L548.739 322.117C548.132 323.18 547.264 323.994 546.136 324.558C545.008 325.122 543.771 325.404 542.426 325.404ZM542.784 321.987C543.804 321.987 544.715 321.738 545.518 321.239C546.342 320.74 546.982 320.056 547.438 319.188C547.915 318.299 548.154 317.301 548.154 316.195C548.154 315.088 547.915 314.101 547.438 313.233C546.982 312.365 546.342 311.682 545.518 311.183C544.715 310.684 543.804 310.435 542.784 310.435C541.765 310.435 540.843 310.684 540.018 311.183C539.194 311.682 538.554 312.365 538.098 313.233C537.643 314.101 537.415 315.088 537.415 316.195C537.415 317.301 537.643 318.299 538.098 319.188C538.554 320.056 539.183 320.74 539.986 321.239C540.81 321.738 541.743 321.987 542.784 321.987Z" fill="white"/>
<path d="M522.479 325.404C521.156 325.404 519.995 325.111 518.997 324.525C517.999 323.918 517.218 323.083 516.654 322.02C516.112 320.935 515.841 319.688 515.841 318.277V307.408H519.518V317.952C519.518 318.755 519.681 319.46 520.006 320.067C520.332 320.675 520.787 321.152 521.373 321.499C521.959 321.824 522.631 321.987 523.391 321.987C524.172 321.987 524.855 321.814 525.441 321.467C526.027 321.119 526.482 320.631 526.808 320.002C527.155 319.373 527.328 318.635 527.328 317.789V307.408H530.973V325.014H527.491V321.564L527.882 322.02C527.469 323.104 526.786 323.94 525.831 324.525C524.877 325.111 523.759 325.404 522.479 325.404Z" fill="white"/>
<path d="M493.413 325.014V300.77H501.353C503.87 300.77 506.05 301.279 507.894 302.299C509.76 303.297 511.202 304.707 512.222 306.53C513.242 308.352 513.752 310.467 513.752 312.875C513.752 315.262 513.242 317.377 512.222 319.221C511.202 321.043 509.76 322.464 507.894 323.484C506.05 324.504 503.87 325.014 501.353 325.014H493.413ZM497.253 321.597H501.418C503.132 321.597 504.618 321.239 505.876 320.523C507.156 319.807 508.143 318.798 508.838 317.496C509.532 316.195 509.879 314.654 509.879 312.875C509.879 311.096 509.521 309.567 508.805 308.287C508.111 306.985 507.135 305.976 505.876 305.26C504.618 304.544 503.132 304.186 501.418 304.186H497.253V321.597Z" fill="white"/>
<path d="M487.796 330.22C486.017 328.138 484.672 325.86 483.761 323.386C482.85 320.913 482.394 318.277 482.394 315.479C482.394 312.658 482.85 310.012 483.761 307.538C484.672 305.065 486.017 302.809 487.796 300.77H490.888C489.347 303.047 488.176 305.423 487.373 307.896C486.592 310.348 486.202 312.875 486.202 315.479C486.202 318.06 486.592 320.599 487.373 323.094C488.176 325.567 489.347 327.942 490.888 330.22H487.796Z" fill="white"/>
<path d="M741.66 211.459C736.344 206.285 729.219 203.391 721.801 203.391H616.486V355.933H840.05C858.304 355.933 867.317 333.749 854.236 321.018L741.66 211.459Z" fill="#EA580C"/>
<path d="M736.217 290.898V245.99L735.729 245.258H732.393V233.949H749.234V290.898H736.217Z" fill="white"/>
<path d="M717.477 233.949V245.258H709.667V290.898H696.65V245.258H688.84V233.949H717.477Z" fill="white"/>
<path d="M666.077 233.949H686.334L691.216 290.898H678.199L676.49 256.403H675.677L673.968 290.898H660.951L666.077 233.949ZM680.477 277.963H671.365V266.654H680.477V277.963Z" fill="white"/>
<path d="M643.711 247.128V277.718C643.711 278.206 643.766 278.613 643.874 278.938C643.982 279.264 644.118 279.535 644.281 279.752C644.443 279.969 644.633 280.131 644.85 280.24C645.121 280.348 645.366 280.403 645.582 280.403C645.908 280.403 646.179 280.348 646.396 280.24C646.613 280.131 646.803 279.969 646.966 279.752C647.128 279.535 647.264 279.264 647.372 278.938C647.481 278.613 647.535 278.206 647.535 277.718V263.969H660.552V276.66C660.552 279.155 660.199 281.352 659.494 283.25C658.789 285.094 657.786 286.64 656.484 287.887C655.182 289.135 653.582 290.084 651.684 290.735C649.84 291.386 647.752 291.711 645.42 291.711C643.088 291.711 640.999 291.413 639.155 290.816C637.366 290.165 635.847 289.216 634.599 287.969C633.352 286.667 632.376 285.094 631.671 283.25C631.02 281.352 630.694 279.155 630.694 276.66V248.104C630.694 245.609 631.02 243.44 631.671 241.596C632.376 239.697 633.352 238.125 634.599 236.877C635.847 235.63 637.366 234.708 639.155 234.111C640.999 233.46 643.088 233.135 645.42 233.135C647.752 233.135 649.84 233.46 651.684 234.111C653.582 234.762 655.182 235.711 656.484 236.958C657.786 238.206 658.789 239.779 659.494 241.677C660.199 243.521 660.552 245.664 660.552 248.104V260.877H647.535V247.128C647.535 246.586 647.481 246.152 647.372 245.826C647.264 245.501 647.128 245.23 646.966 245.013C646.803 244.796 646.613 244.66 646.396 244.606C646.179 244.497 645.908 244.443 645.582 244.443C645.366 244.443 645.121 244.497 644.85 244.606C644.633 244.66 644.443 244.796 644.281 245.013C644.118 245.23 643.982 245.501 643.874 245.826C643.766 246.152 643.711 246.586 643.711 247.128Z" fill="white"/>
<path d="M738.981 330.222C740.543 327.944 741.715 325.569 742.496 323.096C743.277 320.601 743.668 318.062 743.668 315.481C743.668 312.877 743.277 310.35 742.496 307.898C741.715 305.425 740.543 303.049 738.981 300.771H742.073C743.874 302.811 745.23 305.067 746.141 307.54C747.052 310.014 747.508 312.66 747.508 315.481C747.508 318.279 747.052 320.915 746.141 323.388C745.23 325.862 743.874 328.14 742.073 330.222H738.981Z" fill="white"/>
<path d="M722.633 325.015V300.381H726.31V316.88L724.878 316.522L733.697 307.41H738.286L731.647 314.472L738.579 325.015H734.348L728.165 315.676L730.345 315.383L725.139 320.915L726.31 318.474V325.015H722.633Z" fill="white"/>
<path d="M710.822 325.406C709.499 325.406 708.338 325.113 707.34 324.527C706.342 323.92 705.561 323.085 704.997 322.022C704.455 320.937 704.184 319.689 704.184 318.279V307.41H707.861V317.954C707.861 318.757 708.024 319.462 708.349 320.069C708.674 320.677 709.13 321.154 709.716 321.501C710.302 321.826 710.974 321.989 711.733 321.989C712.514 321.989 713.198 321.816 713.784 321.468C714.369 321.121 714.825 320.633 715.15 320.004C715.497 319.375 715.671 318.637 715.671 317.791V307.41H719.316V325.016H715.834V321.566L716.224 322.022C715.812 323.106 715.129 323.942 714.174 324.527C713.22 325.113 712.102 325.406 710.822 325.406Z" fill="white"/>
<path d="M691.853 325.406C690.16 325.406 688.642 325.005 687.297 324.202C685.973 323.377 684.921 322.271 684.14 320.883C683.381 319.494 683.001 317.932 683.001 316.196C683.001 314.461 683.391 312.899 684.173 311.51C684.954 310.122 686.006 309.026 687.329 308.224C688.653 307.421 690.149 307.02 691.82 307.02C693.23 307.02 694.478 307.302 695.562 307.866C696.647 308.43 697.504 309.211 698.133 310.209L697.58 311.055V300.381H701.225V325.015H697.743V321.436L698.166 322.119C697.558 323.182 696.69 323.996 695.562 324.56C694.434 325.124 693.198 325.406 691.853 325.406ZM692.21 321.989C693.23 321.989 694.141 321.74 694.944 321.241C695.768 320.742 696.408 320.058 696.864 319.19C697.341 318.301 697.58 317.303 697.58 316.196C697.58 315.09 697.341 314.103 696.864 313.235C696.408 312.367 695.768 311.684 694.944 311.185C694.141 310.686 693.23 310.436 692.21 310.436C691.191 310.436 690.269 310.686 689.444 311.185C688.62 311.684 687.98 312.367 687.524 313.235C687.069 314.103 686.841 315.09 686.841 316.196C686.841 317.303 687.069 318.301 687.524 319.19C687.98 320.058 688.609 320.742 689.412 321.241C690.236 321.74 691.169 321.989 692.21 321.989Z" fill="white"/>
<path d="M671.906 325.406C670.582 325.406 669.422 325.113 668.424 324.527C667.426 323.92 666.645 323.085 666.081 322.022C665.538 320.937 665.267 319.689 665.267 318.279V307.41H668.944V317.954C668.944 318.757 669.107 319.462 669.433 320.069C669.758 320.677 670.214 321.154 670.799 321.501C671.385 321.826 672.058 321.989 672.817 321.989C673.598 321.989 674.281 321.816 674.867 321.468C675.453 321.121 675.908 320.633 676.234 320.004C676.581 319.375 676.755 318.637 676.755 317.791V307.41H680.399V325.016H676.917V321.566L677.308 322.022C676.896 323.106 676.212 323.942 675.258 324.527C674.303 325.113 673.186 325.406 671.906 325.406Z" fill="white"/>
<path d="M642.839 325.016V300.771H650.779C653.296 300.771 655.476 301.281 657.32 302.301C659.186 303.299 660.629 304.709 661.648 306.531C662.668 308.354 663.178 310.469 663.178 312.877C663.178 315.264 662.668 317.379 661.648 319.223C660.629 321.045 659.186 322.466 657.32 323.486C655.476 324.506 653.296 325.016 650.779 325.016H642.839ZM646.679 321.599H650.844C652.558 321.599 654.044 321.241 655.303 320.525C656.583 319.809 657.57 318.8 658.264 317.498C658.958 316.197 659.305 314.656 659.305 312.877C659.305 311.098 658.947 309.569 658.231 308.289C657.537 306.987 656.561 305.978 655.303 305.262C654.044 304.546 652.558 304.188 650.844 304.188H646.679V321.599Z" fill="white"/>
<path d="M637.222 330.222C635.443 328.14 634.098 325.862 633.187 323.388C632.276 320.915 631.82 318.279 631.82 315.481C631.82 312.66 632.276 310.014 633.187 307.54C634.098 305.067 635.443 302.811 637.222 300.771H640.314C638.774 303.049 637.602 305.425 636.799 307.898C636.018 310.35 635.628 312.877 635.628 315.481C635.628 318.062 636.018 320.601 636.799 323.096C637.602 325.569 638.774 327.944 640.314 330.222H637.222Z" fill="white"/>
<path d="M576.833 454.587V445.393C576.833 440.62 578.135 436.932 580.738 434.329C583.341 431.726 587.057 430.424 591.884 430.424C596.657 430.424 600.291 431.698 602.786 434.248C605.335 436.797 606.609 440.512 606.609 445.393V446.207C606.609 448.593 606.474 450.844 606.203 452.959C605.931 455.075 605.47 457 604.819 458.736C604.169 460.471 603.355 462.017 602.379 463.373C601.403 464.675 600.209 465.759 598.799 466.627L596.521 467.929C595.057 468.797 593.864 469.502 592.941 470.044C592.074 470.587 591.396 471.102 590.908 471.59C590.474 472.078 590.175 472.566 590.013 473.054C589.904 473.542 589.85 474.112 589.85 474.763V475.739H606.447V488.187H576.833V476.959C576.833 474.573 576.969 472.539 577.24 470.858C577.511 469.176 577.945 467.739 578.541 466.546C579.138 465.353 579.925 464.322 580.901 463.454C581.877 462.532 583.097 461.637 584.562 460.77L586.514 459.712C588.087 458.844 589.335 458.112 590.257 457.515C591.179 456.865 591.884 456.268 592.372 455.726C592.86 455.129 593.186 454.532 593.348 453.936C593.511 453.285 593.592 452.471 593.592 451.495V444.417C593.592 443.549 593.43 442.898 593.104 442.465C592.779 441.976 592.318 441.732 591.721 441.732C591.125 441.732 590.664 441.976 590.338 442.465C590.013 442.898 589.85 443.549 589.85 444.417V454.587H576.833Z" fill="black"/>
<path d="M561.999 431.238V442.547H554.188V488.187H541.172V442.547H533.361V431.238H561.999Z" fill="black"/>
<path d="M510.598 431.238H530.856L535.737 488.187H522.72L521.012 453.693H520.198L518.49 488.187H505.473L510.598 431.238ZM524.998 475.252H515.886V463.943H524.998V475.252Z" fill="black"/>
<path d="M488.233 444.417V475.007C488.233 475.495 488.287 475.902 488.395 476.227C488.504 476.553 488.64 476.824 488.802 477.041C488.965 477.258 489.155 477.42 489.372 477.529C489.643 477.637 489.887 477.692 490.104 477.692C490.429 477.692 490.701 477.637 490.918 477.529C491.134 477.42 491.324 477.258 491.487 477.041C491.65 476.824 491.785 476.553 491.894 476.227C492.002 475.902 492.057 475.495 492.057 475.007V461.258H505.073V473.949C505.073 476.444 504.721 478.641 504.016 480.539C503.311 482.383 502.307 483.929 501.006 485.176C499.704 486.424 498.104 487.373 496.206 488.024C494.362 488.675 492.273 489 489.941 489C487.609 489 485.521 488.702 483.677 488.105C481.887 487.454 480.368 486.505 479.121 485.258C477.873 483.956 476.897 482.383 476.192 480.539C475.541 478.641 475.216 476.444 475.216 473.949V445.393C475.216 442.898 475.541 440.729 476.192 438.885C476.897 436.987 477.873 435.414 479.121 434.166C480.368 432.919 481.887 431.997 483.677 431.4C485.521 430.749 487.609 430.424 489.941 430.424C492.273 430.424 494.362 430.749 496.206 431.4C498.104 432.051 499.704 433 501.006 434.248C502.307 435.495 503.311 437.068 504.016 438.966C504.721 440.81 505.073 442.953 505.073 445.393V458.166H492.057V444.417C492.057 443.875 492.002 443.441 491.894 443.115C491.785 442.79 491.65 442.519 491.487 442.302C491.324 442.085 491.134 441.949 490.918 441.895C490.701 441.787 490.429 441.732 490.104 441.732C489.887 441.732 489.643 441.787 489.372 441.895C489.155 441.949 488.965 442.085 488.802 442.302C488.64 442.519 488.504 442.79 488.395 443.115C488.287 443.441 488.233 443.875 488.233 444.417Z" fill="black"/>
<path d="M589.518 527.511C591.08 525.233 592.251 522.858 593.032 520.385C593.813 517.89 594.204 515.351 594.204 512.77C594.204 510.166 593.813 507.639 593.032 505.187C592.251 502.714 591.08 500.339 589.518 498.061H592.609C594.41 500.1 595.766 502.356 596.677 504.829C597.588 507.303 598.044 509.949 598.044 512.77C598.044 515.568 597.588 518.204 596.677 520.678C595.766 523.151 594.41 525.429 592.609 527.511H589.518Z" fill="black"/>
<path d="M583.656 522.305V504.699H587.334V522.305H583.656ZM583.656 502.291V498.061H587.334V502.291H583.656Z" fill="black"/>
<path d="M572.842 522.304V504.699H576.357V508.246L576.031 507.725C576.422 506.575 577.051 505.751 577.919 505.252C578.787 504.731 579.828 504.471 581.043 504.471H582.117V507.823H580.587C579.372 507.823 578.385 508.202 577.626 508.962C576.888 509.699 576.52 510.762 576.52 512.151V522.304H572.842Z" fill="black"/>
<path d="M565.842 522.305V504.699H569.519V522.305H565.842ZM565.842 502.291V498.061H569.519V502.291H565.842Z" fill="black"/>
<path d="M553.153 522.695C551.461 522.695 549.942 522.294 548.597 521.491C547.273 520.667 546.221 519.56 545.44 518.172C544.681 516.783 544.301 515.221 544.301 513.486C544.301 511.75 544.692 510.188 545.473 508.799C546.254 507.411 547.306 506.315 548.629 505.513C549.953 504.71 551.45 504.309 553.12 504.309C554.53 504.309 555.778 504.591 556.863 505.155C557.947 505.719 558.804 506.5 559.433 507.498L558.88 508.344V497.67H562.525V522.305H559.043V518.725L559.466 519.408C558.859 520.471 557.991 521.285 556.863 521.849C555.734 522.413 554.498 522.695 553.153 522.695ZM553.511 519.278C554.53 519.278 555.442 519.029 556.244 518.53C557.069 518.031 557.709 517.347 558.164 516.479C558.642 515.59 558.88 514.592 558.88 513.486C558.88 512.379 558.642 511.392 558.164 510.524C557.709 509.656 557.069 508.973 556.244 508.474C555.442 507.975 554.53 507.726 553.511 507.726C552.491 507.726 551.569 507.975 550.745 508.474C549.92 508.973 549.28 509.656 548.825 510.524C548.369 511.392 548.141 512.379 548.141 513.486C548.141 514.592 548.369 515.59 548.825 516.479C549.28 517.347 549.909 518.031 550.712 518.53C551.537 519.029 552.469 519.278 553.511 519.278Z" fill="black"/>
<path d="M534.203 522.304V504.699H537.718V508.246L537.392 507.725C537.783 506.575 538.412 505.751 539.28 505.252C540.148 504.731 541.189 504.471 542.404 504.471H543.478V507.823H541.948C540.733 507.823 539.746 508.202 538.987 508.962C538.249 509.699 537.88 510.762 537.88 512.151V522.304H534.203Z" fill="black"/>
<path d="M523.488 522.695C521.73 522.695 520.168 522.294 518.801 521.491C517.456 520.667 516.404 519.56 515.645 518.172C514.886 516.761 514.506 515.189 514.506 513.453C514.506 511.674 514.886 510.101 515.645 508.734C516.426 507.368 517.467 506.294 518.769 505.513C520.071 504.71 521.546 504.309 523.195 504.309C524.518 504.309 525.7 504.536 526.742 504.992C527.783 505.448 528.662 506.077 529.378 506.879C530.094 507.66 530.636 508.561 531.005 509.58C531.395 510.6 531.591 511.685 531.591 512.835C531.591 513.117 531.58 513.41 531.558 513.713C531.536 514.017 531.493 514.299 531.428 514.559H517.402V511.631H529.345L527.588 512.965C527.805 511.902 527.729 510.958 527.36 510.134C527.013 509.288 526.471 508.626 525.733 508.149C525.017 507.65 524.171 507.4 523.195 507.4C522.218 507.4 521.351 507.65 520.591 508.149C519.832 508.626 519.246 509.32 518.834 510.231C518.422 511.121 518.259 512.206 518.346 513.486C518.237 514.679 518.4 515.72 518.834 516.61C519.29 517.499 519.919 518.193 520.721 518.692C521.546 519.191 522.479 519.441 523.52 519.441C524.583 519.441 525.483 519.202 526.221 518.725C526.98 518.248 527.577 517.629 528.011 516.87L531.005 518.334C530.658 519.159 530.115 519.907 529.378 520.58C528.662 521.231 527.794 521.751 526.774 522.142C525.776 522.511 524.681 522.695 523.488 522.695Z" fill="black"/>
<path d="M494.024 522.305V498.061H504.243C505.761 498.061 507.074 498.332 508.18 498.874C509.287 499.395 510.133 500.154 510.719 501.152C511.304 502.128 511.597 503.289 511.597 504.634C511.597 505.806 511.294 506.88 510.686 507.856C510.1 508.81 509.178 509.57 507.92 510.134V508.507C509.026 508.941 509.927 509.494 510.621 510.166C511.315 510.817 511.814 511.555 512.118 512.379C512.443 513.204 512.606 514.071 512.606 514.983C512.606 517.261 511.858 519.05 510.361 520.352C508.885 521.654 506.857 522.305 504.275 522.305H494.024ZM497.864 518.888H504.568C505.848 518.888 506.868 518.541 507.627 517.846C508.386 517.13 508.766 516.187 508.766 515.015C508.766 513.822 508.386 512.878 507.627 512.184C506.868 511.468 505.848 511.11 504.568 511.11H497.864V518.888ZM497.864 507.726H504.34C505.382 507.726 506.217 507.433 506.846 506.847C507.475 506.24 507.79 505.448 507.79 504.471C507.79 503.495 507.475 502.736 506.846 502.193C506.217 501.651 505.382 501.38 504.34 501.38H497.864V507.726Z" fill="black"/>
<path d="M488.408 527.511C486.629 525.429 485.284 523.151 484.373 520.678C483.461 518.204 483.006 515.568 483.006 512.77C483.006 509.949 483.461 507.303 484.373 504.829C485.284 502.356 486.629 500.1 488.408 498.061H491.499C489.959 500.339 488.788 502.714 487.985 505.187C487.204 507.639 486.813 510.166 486.813 512.77C486.813 515.351 487.204 517.89 487.985 520.385C488.788 522.858 489.959 525.233 491.499 527.511H488.408Z" fill="black"/>
<path d="M1056 291C1069.25 291 1080.05 301.771 1079.48 315.013C1066.91 602.104 830.187 831 540 831C249.813 831 13.0872 602.104 0.524233 315.013C-0.0552388 301.771 10.745 291 23.9999 291H105C118.255 291 128.927 301.769 129.689 315.002C142.117 530.82 321.068 702 540 702C758.932 702 937.883 530.82 950.311 315.002C951.073 301.769 961.745 291 975 291H1056Z" fill="#2563EB"/>
<path d="M612.022 720.051H625.039V777H610.883L605.106 742.912H604.374L607.303 777H594.286V720.051H608.361L614.462 754.383H615.195L612.022 720.051Z" fill="white"/>
<path d="M562.823 720.051H575.84V763.82C575.84 764.308 575.894 764.715 576.002 765.041C576.111 765.366 576.219 765.637 576.328 765.854C576.491 766.071 576.68 766.234 576.897 766.342C577.169 766.451 577.413 766.505 577.63 766.505C577.901 766.505 578.145 766.451 578.362 766.342C578.579 766.234 578.769 766.071 578.931 765.854C579.094 765.637 579.202 765.366 579.257 765.041C579.365 764.715 579.419 764.308 579.419 763.82V720.051H592.436V762.763C592.436 765.258 592.084 767.454 591.379 769.353C590.728 771.197 589.752 772.742 588.45 773.99C587.202 775.237 585.63 776.186 583.731 776.837C581.887 777.488 579.799 777.814 577.467 777.814C575.135 777.814 573.046 777.515 571.202 776.919C569.413 776.268 567.894 775.319 566.646 774.071C565.399 772.769 564.45 771.197 563.799 769.353C563.148 767.454 562.823 765.258 562.823 762.763V720.051Z" fill="white"/>
<path d="M530.965 720.051H545.365C550.192 720.051 553.908 721.271 556.511 723.712C559.115 726.098 560.416 729.542 560.416 734.044V734.451C560.416 736.512 560.172 738.356 559.684 739.983C559.196 741.61 558.545 742.966 557.731 744.051C556.972 745.136 556.077 745.976 555.047 746.573C554.07 747.115 553.094 747.414 552.118 747.468V748.281C553.094 748.336 554.125 748.688 555.209 749.339C556.294 749.99 557.27 750.912 558.138 752.105C559.06 753.298 559.82 754.708 560.416 756.336C561.013 757.963 561.311 759.834 561.311 761.949V762.925C561.311 767.373 559.901 770.844 557.081 773.339C554.314 775.78 550.437 777 545.447 777H530.965V720.051ZM543.982 731.359V742.261H545.203C546.07 742.261 546.64 742.071 546.911 741.691C547.237 741.312 547.399 740.58 547.399 739.495V734.044C547.399 733.014 547.237 732.308 546.911 731.929C546.64 731.549 546.07 731.359 545.203 731.359H543.982ZM543.982 753.569V765.691H545.284C546.206 765.691 546.83 765.502 547.155 765.122C547.481 764.742 547.643 764.01 547.643 762.925V756.336C547.643 755.251 547.481 754.519 547.155 754.139C546.83 753.759 546.206 753.569 545.284 753.569H543.982Z" fill="white"/>
<path d="M516.108 720.051H529.125V777H516.108V720.051Z" fill="white"/>
<path d="M484.567 720.051H499.048C503.875 720.051 507.591 721.298 510.194 723.793C512.797 726.288 514.099 730.112 514.099 735.264V735.671C514.099 738.003 513.828 740.037 513.286 741.773C512.797 743.508 512.147 744.973 511.333 746.166C510.574 747.359 509.679 748.254 508.648 748.851C507.672 749.447 506.723 749.773 505.801 749.827V750.722C506.723 750.776 507.672 751.156 508.648 751.861C509.679 752.512 510.574 753.434 511.333 754.627C512.147 755.82 512.797 757.258 513.286 758.939C513.828 760.62 514.099 762.546 514.099 764.715V765.447C514.099 767.725 514.153 769.786 514.262 771.63C514.37 773.475 514.587 775.264 514.913 777H501.896C501.516 775.264 501.272 773.447 501.164 771.549C501.109 769.597 501.082 767.508 501.082 765.285V758.695C501.082 757.664 500.919 756.959 500.594 756.58C500.323 756.146 499.753 755.929 498.886 755.929H497.584V777H484.567V720.051ZM497.584 731.359V744.62H498.886C499.753 744.62 500.323 744.43 500.594 744.051C500.919 743.617 501.082 742.858 501.082 741.773V734.125C501.082 733.095 500.919 732.39 500.594 732.01C500.323 731.576 499.753 731.359 498.886 731.359H497.584Z" fill="white"/>
<path d="M483.08 720.051V731.359H475.27V777H462.253V731.359H454.442V720.051H483.08Z" fill="white"/>
<path d="M588.442 816.324C590.004 814.046 591.176 811.67 591.957 809.197C592.738 806.702 593.128 804.164 593.128 801.582C593.128 798.979 592.738 796.451 591.957 794C591.176 791.527 590.004 789.151 588.442 786.873H591.534C593.335 788.912 594.691 791.169 595.602 793.642C596.513 796.115 596.968 798.762 596.968 801.582C596.968 804.381 596.513 807.017 595.602 809.49C594.691 811.963 593.335 814.241 591.534 816.324H588.442Z" fill="white"/>
<path d="M572.094 811.117V786.482H575.771V802.981L574.339 802.623L583.158 793.512H587.747L581.108 800.573L588.04 811.117H583.809L577.626 801.777L579.806 801.484L574.6 807.017L575.771 804.576V811.117H572.094Z" fill="white"/>
<path d="M560.283 811.508C558.96 811.508 557.799 811.215 556.801 810.629C555.803 810.022 555.022 809.186 554.458 808.123C553.916 807.039 553.645 805.791 553.645 804.381V793.512H557.322V804.055C557.322 804.858 557.485 805.563 557.81 806.171C558.135 806.778 558.591 807.255 559.177 807.603C559.762 807.928 560.435 808.091 561.194 808.091C561.975 808.091 562.659 807.917 563.245 807.57C563.83 807.223 564.286 806.735 564.611 806.106C564.958 805.476 565.132 804.739 565.132 803.893V793.512H568.777V811.117H565.295V807.668L565.685 808.123C565.273 809.208 564.59 810.043 563.635 810.629C562.68 811.215 561.563 811.508 560.283 811.508Z" fill="white"/>
<path d="M541.313 811.508C539.621 811.508 538.103 811.106 536.758 810.303C535.434 809.479 534.382 808.373 533.601 806.984C532.842 805.596 532.462 804.034 532.462 802.298C532.462 800.562 532.852 799 533.633 797.612C534.414 796.223 535.467 795.128 536.79 794.325C538.113 793.522 539.61 793.121 541.281 793.121C542.691 793.121 543.939 793.403 545.023 793.967C546.108 794.531 546.965 795.312 547.594 796.31L547.041 797.156V786.482H550.686V811.117H547.204V807.537L547.627 808.221C547.019 809.284 546.151 810.097 545.023 810.661C543.895 811.225 542.659 811.508 541.313 811.508ZM541.671 808.091C542.691 808.091 543.602 807.841 544.405 807.342C545.229 806.843 545.869 806.16 546.325 805.292C546.802 804.402 547.041 803.404 547.041 802.298C547.041 801.192 546.802 800.204 546.325 799.337C545.869 798.469 545.229 797.785 544.405 797.286C543.602 796.788 542.691 796.538 541.671 796.538C540.652 796.538 539.73 796.788 538.905 797.286C538.081 797.785 537.441 798.469 536.985 799.337C536.53 800.204 536.302 801.192 536.302 802.298C536.302 803.404 536.53 804.402 536.985 805.292C537.441 806.16 538.07 806.843 538.873 807.342C539.697 807.841 540.63 808.091 541.671 808.091Z" fill="white"/>
<path d="M521.367 811.508C520.043 811.508 518.883 811.215 517.885 810.629C516.887 810.022 516.106 809.186 515.542 808.123C514.999 807.039 514.728 805.791 514.728 804.381V793.512H518.405V804.055C518.405 804.858 518.568 805.563 518.893 806.171C519.219 806.778 519.674 807.255 520.26 807.603C520.846 807.928 521.519 808.091 522.278 808.091C523.059 808.091 523.742 807.917 524.328 807.57C524.914 807.223 525.369 806.735 525.695 806.106C526.042 805.476 526.215 804.739 526.215 803.893V793.512H529.86V811.117H526.378V807.668L526.769 808.123C526.357 809.208 525.673 810.043 524.719 810.629C523.764 811.215 522.647 811.508 521.367 811.508Z" fill="white"/>
<path d="M492.3 811.117V786.873H500.24C502.757 786.873 504.937 787.383 506.781 788.403C508.647 789.401 510.09 790.811 511.109 792.633C512.129 794.455 512.639 796.571 512.639 798.979C512.639 801.365 512.129 803.481 511.109 805.325C510.09 807.147 508.647 808.568 506.781 809.588C504.937 810.607 502.757 811.117 500.24 811.117H492.3ZM496.14 807.7H500.305C502.019 807.7 503.505 807.342 504.764 806.626C506.044 805.91 507.031 804.902 507.725 803.6C508.419 802.298 508.766 800.758 508.766 798.979C508.766 797.2 508.408 795.67 507.692 794.39C506.998 793.089 506.022 792.08 504.764 791.364C503.505 790.648 502.019 790.29 500.305 790.29H496.14V807.7Z" fill="white"/>
<path d="M486.683 816.324C484.904 814.241 483.559 811.963 482.648 809.49C481.737 807.017 481.281 804.381 481.281 801.582C481.281 798.762 481.737 796.115 482.648 793.642C483.559 791.169 484.904 788.912 486.683 786.873H489.775C488.234 789.151 487.063 791.527 486.26 794C485.479 796.451 485.089 798.979 485.089 801.582C485.089 804.164 485.479 806.702 486.26 809.197C487.063 811.67 488.234 814.046 489.775 816.324H486.683Z" fill="white"/>
</g>
<defs>
<clipPath id="clip0_134_322">
<rect width="1080" height="831" fill="white"/>
</clipPath>
</defs>
</svg>
