<svg width="1080" height="831" viewBox="0 0 1080 831" fill="none" xmlns="http://www.w3.org/2000/svg">
<g clip-path="url(#clip0_134_294)">
<path d="M378.306 4H705.763C719.28 4 730.238 14.9576 730.238 28.4746V117.966C730.238 131.483 719.28 142.441 705.763 142.441H378.306C364.789 142.441 353.831 131.483 353.831 117.966V28.4746C353.831 14.9576 364.789 4 378.306 4Z" fill="black" stroke="white" stroke-width="8"/>
<path d="M299.906 573.56H770.018C780.506 573.56 790.145 567.795 795.106 558.554L868.262 422.283C878.446 403.313 864.704 380.34 843.174 380.34H237.508C216.764 380.34 202.982 401.809 211.618 420.669L274.016 556.94C278.653 567.067 288.768 573.56 299.906 573.56Z" fill="#FBBF24"/>
<path d="M625.464 51.8768H615.994V63.9826H625.367V77.5528H615.994V93.0755H625.562V106.646H600.374V38.3066H625.464V51.8768Z" fill="white"/>
<path d="M577.951 54.122V90.8298C577.951 91.3504 578.016 91.8386 578.147 92.2942C578.277 92.6847 578.407 93.0101 578.537 93.2704C578.732 93.5308 578.96 93.726 579.221 93.8562C579.481 93.9864 579.774 94.0515 580.099 94.0515C580.425 94.0515 580.718 93.9864 580.978 93.8562C581.303 93.661 581.564 93.4006 581.759 93.0752C581.954 92.7498 582.117 92.3267 582.247 91.806C582.442 91.2854 582.54 90.6996 582.54 90.0488V79.0169H579.709V68.8637H598.16V106.645H587.519V100.495H586.445C585.794 102.838 584.492 104.628 582.54 105.864C580.587 107.036 578.44 107.622 576.096 107.622C574.469 107.622 572.81 107.296 571.118 106.645C569.49 105.929 568.026 104.856 566.724 103.424C565.423 101.927 564.349 100.072 563.503 97.8589C562.722 95.581 562.331 92.8149 562.331 89.5606V55.2935C562.331 52.2996 562.722 49.6962 563.503 47.4833C564.349 45.2053 565.52 43.3179 567.017 41.8209C568.514 40.324 570.336 39.2175 572.484 38.5016C574.697 37.7206 577.203 37.3301 580.002 37.3301C582.8 37.3301 585.306 37.7206 587.519 38.5016C589.797 39.2826 591.717 40.4216 593.279 41.9186C594.841 43.4155 596.045 45.303 596.891 47.5809C597.737 49.7938 598.16 52.3647 598.16 55.2935V66.2277H582.54V54.122C582.54 53.4711 582.475 52.9504 582.345 52.5599C582.214 52.1694 582.052 51.844 581.856 51.5836C581.661 51.3233 581.433 51.1606 581.173 51.0955C580.913 50.9653 580.587 50.9003 580.197 50.9003C579.936 50.9003 579.644 50.9653 579.318 51.0955C579.058 51.1606 578.83 51.3233 578.635 51.5836C578.44 51.844 578.277 52.1694 578.147 52.5599C578.016 52.9504 577.951 53.4711 577.951 54.122Z" fill="white"/>
<path d="M531.665 38.3066H555.974L561.832 106.646H546.212L544.161 65.2517H543.185L541.135 106.646H525.515L531.665 38.3066ZM548.945 91.1229H538.011V77.5528H548.945V91.1229Z" fill="white"/>
<path d="M528.419 38.3066V51.8768H519.047V106.646H503.427V51.8768H494.055V38.3066H528.419Z" fill="white"/>
<path d="M492.523 62.1274H476.902V54.122C476.902 53.0806 476.707 52.2996 476.316 51.7789C475.926 51.1931 475.373 50.9003 474.657 50.9003C473.941 50.9003 473.388 51.1931 472.997 51.7789C472.672 52.2996 472.509 53.0806 472.509 54.122V59.1986C472.509 60.0447 472.574 60.7931 472.704 61.444C472.834 62.0298 473.16 62.6155 473.681 63.2013C474.266 63.787 475.08 64.4053 476.121 65.0562C477.228 65.707 478.725 66.5206 480.612 67.4969L483.638 68.9613C485.396 69.8725 486.828 70.8813 487.934 71.9877C489.106 73.0291 490.017 74.2982 490.668 75.7952C491.384 77.2271 491.872 78.9518 492.132 80.9694C492.457 82.9871 492.62 85.3952 492.62 88.1938V89.5606C492.62 95.3532 491.026 99.8115 487.836 102.936C484.712 106.06 480.254 107.622 474.462 107.622C468.669 107.622 464.276 106.092 461.282 103.033C458.288 99.9091 456.791 95.4182 456.791 89.5606V82.8243H472.411V90.8298C472.411 91.8711 472.607 92.6847 472.997 93.2704C473.388 93.7911 473.941 94.0515 474.657 94.0515C475.438 94.0515 476.024 93.7911 476.414 93.2704C476.805 92.7498 477 91.9362 477 90.8298V85.5579C477 84.6467 476.935 83.8982 476.805 83.3125C476.674 82.7267 476.349 82.1735 475.828 81.6528C475.308 81.067 474.527 80.4813 473.485 79.8955C472.509 79.2447 471.175 78.4637 469.483 77.5525L466.066 75.8928C464.308 74.9165 462.811 73.8752 461.575 72.7687C460.403 71.6623 459.459 70.3606 458.744 68.8637C458.093 67.3016 457.605 65.5118 457.279 63.4942C457.019 61.4765 456.889 59.0684 456.889 56.2697V55.2935C456.889 49.4358 458.386 44.9775 461.379 41.9186C464.438 38.8596 468.799 37.3301 474.462 37.3301C480.254 37.3301 484.712 38.8921 487.836 42.0162C490.961 45.1403 492.523 49.566 492.523 55.2935V62.1274Z" fill="white"/>
<path d="M338.77 211.459C344.086 206.285 351.212 203.391 358.63 203.391H463.944V355.933H240.38C222.126 355.933 213.113 333.749 226.195 321.018L338.77 211.459Z" fill="#EA580C"/>
<path d="M433.166 290.898V245.99L432.677 245.258H429.342V233.949H446.182V290.898H433.166Z" fill="white"/>
<path d="M414.425 233.949V245.258H406.615V290.898H393.598V245.258H385.788V233.949H414.425Z" fill="white"/>
<path d="M363.025 233.949H383.282L388.164 290.898H375.147L373.438 256.403H372.625L370.916 290.898H357.899L363.025 233.949ZM377.425 277.963H368.313V266.654H377.425V277.963Z" fill="white"/>
<path d="M340.66 247.128V277.718C340.66 278.206 340.714 278.613 340.822 278.938C340.931 279.264 341.066 279.535 341.229 279.752C341.392 279.969 341.582 280.131 341.799 280.24C342.07 280.348 342.314 280.403 342.531 280.403C342.856 280.403 343.127 280.348 343.344 280.24C343.561 280.131 343.751 279.969 343.914 279.752C344.076 279.535 344.212 279.264 344.321 278.938C344.429 278.613 344.483 278.206 344.483 277.718V263.969H357.5V276.66C357.5 279.155 357.148 281.352 356.443 283.25C355.738 285.094 354.734 286.64 353.432 287.887C352.131 289.135 350.531 290.084 348.632 290.735C346.788 291.386 344.7 291.711 342.368 291.711C340.036 291.711 337.948 291.413 336.104 290.816C334.314 290.165 332.795 289.216 331.548 287.969C330.3 286.667 329.324 285.094 328.619 283.25C327.968 281.352 327.643 279.155 327.643 276.66V248.104C327.643 245.609 327.968 243.44 328.619 241.596C329.324 239.697 330.3 238.125 331.548 236.877C332.795 235.63 334.314 234.708 336.104 234.111C337.948 233.46 340.036 233.135 342.368 233.135C344.7 233.135 346.788 233.46 348.632 234.111C350.531 234.762 352.131 235.711 353.432 236.958C354.734 238.206 355.738 239.779 356.443 241.677C357.148 243.521 357.5 245.664 357.5 248.104V260.877H344.483V247.128C344.483 246.586 344.429 246.152 344.321 245.826C344.212 245.501 344.076 245.23 343.914 245.013C343.751 244.796 343.561 244.66 343.344 244.606C343.127 244.497 342.856 244.443 342.531 244.443C342.314 244.443 342.07 244.497 341.799 244.606C341.582 244.66 341.392 244.796 341.229 245.013C341.066 245.23 340.931 245.501 340.822 245.826C340.714 246.152 340.66 246.586 340.66 247.128Z" fill="white"/>
<path d="M435.93 330.222C437.492 327.944 438.663 325.569 439.444 323.096C440.225 320.601 440.616 318.062 440.616 315.481C440.616 312.877 440.225 310.35 439.444 307.898C438.663 305.425 437.492 303.049 435.93 300.771H439.021C440.822 302.811 442.178 305.067 443.089 307.54C444 310.014 444.456 312.66 444.456 315.481C444.456 318.279 444 320.915 443.089 323.388C442.178 325.862 440.822 328.14 439.021 330.222H435.93Z" fill="white"/>
<path d="M419.581 325.015V300.381H423.258V316.88L421.826 316.522L430.645 307.41H435.234L428.595 314.472L435.527 325.015H431.296L425.113 315.676L427.294 315.383L422.087 320.915L423.258 318.474V325.015H419.581Z" fill="white"/>
<path d="M407.77 325.406C406.447 325.406 405.286 325.113 404.288 324.527C403.29 323.92 402.509 323.085 401.945 322.022C401.403 320.937 401.132 319.689 401.132 318.279V307.41H404.809V317.954C404.809 318.757 404.972 319.462 405.297 320.069C405.623 320.677 406.078 321.154 406.664 321.501C407.25 321.826 407.922 321.989 408.682 321.989C409.463 321.989 410.146 321.816 410.732 321.468C411.318 321.121 411.773 320.633 412.099 320.004C412.446 319.375 412.619 318.637 412.619 317.791V307.41H416.264V325.016H412.782V321.566L413.173 322.022C412.76 323.106 412.077 323.942 411.122 324.527C410.168 325.113 409.05 325.406 407.77 325.406Z" fill="white"/>
<path d="M388.801 325.406C387.109 325.406 385.59 325.005 384.245 324.202C382.921 323.377 381.869 322.271 381.088 320.883C380.329 319.494 379.949 317.932 379.949 316.196C379.949 314.461 380.34 312.899 381.121 311.51C381.902 310.122 382.954 309.026 384.277 308.224C385.601 307.421 387.098 307.02 388.768 307.02C390.178 307.02 391.426 307.302 392.511 307.866C393.595 308.43 394.452 309.211 395.081 310.209L394.528 311.055V300.381H398.173V325.015H394.691V321.436L395.114 322.119C394.507 323.182 393.639 323.996 392.511 324.56C391.382 325.124 390.146 325.406 388.801 325.406ZM389.159 321.989C390.178 321.989 391.09 321.74 391.892 321.241C392.717 320.742 393.357 320.058 393.812 319.19C394.29 318.301 394.528 317.303 394.528 316.196C394.528 315.09 394.29 314.103 393.812 313.235C393.357 312.367 392.717 311.684 391.892 311.185C391.09 310.686 390.178 310.436 389.159 310.436C388.139 310.436 387.217 310.686 386.393 311.185C385.568 311.684 384.928 312.367 384.473 313.235C384.017 314.103 383.789 315.09 383.789 316.196C383.789 317.303 384.017 318.301 384.473 319.19C384.928 320.058 385.557 320.742 386.36 321.241C387.184 321.74 388.117 321.989 389.159 321.989Z" fill="white"/>
<path d="M368.854 325.406C367.531 325.406 366.37 325.113 365.372 324.527C364.374 323.92 363.593 323.085 363.029 322.022C362.487 320.937 362.216 319.689 362.216 318.279V307.41H365.893V317.954C365.893 318.757 366.056 319.462 366.381 320.069C366.707 320.677 367.162 321.154 367.748 321.501C368.334 321.826 369.006 321.989 369.766 321.989C370.547 321.989 371.23 321.816 371.816 321.468C372.402 321.121 372.857 320.633 373.183 320.004C373.53 319.375 373.703 318.637 373.703 317.791V307.41H377.348V325.016H373.866V321.566L374.257 322.022C373.844 323.106 373.161 323.942 372.206 324.527C371.252 325.113 370.134 325.406 368.854 325.406Z" fill="white"/>
<path d="M339.787 325.016V300.771H347.727C350.244 300.771 352.424 301.281 354.268 302.301C356.134 303.299 357.577 304.709 358.597 306.531C359.616 308.354 360.126 310.469 360.126 312.877C360.126 315.264 359.616 317.379 358.597 319.223C357.577 321.045 356.134 322.466 354.268 323.486C352.424 324.506 350.244 325.016 347.727 325.016H339.787ZM343.627 321.599H347.793C349.506 321.599 350.993 321.241 352.251 320.525C353.531 319.809 354.518 318.8 355.212 317.498C355.906 316.197 356.254 314.656 356.254 312.877C356.254 311.098 355.896 309.569 355.18 308.289C354.485 306.987 353.509 305.978 352.251 305.262C350.993 304.546 349.506 304.188 347.793 304.188H343.627V321.599Z" fill="white"/>
<path d="M334.171 330.222C332.392 328.14 331.047 325.862 330.135 323.388C329.224 320.915 328.769 318.279 328.769 315.481C328.769 312.66 329.224 310.014 330.135 307.54C331.047 305.067 332.392 302.811 334.171 300.771H337.262C335.722 303.049 334.55 305.425 333.748 307.898C332.967 310.35 332.576 312.877 332.576 315.481C332.576 318.062 332.967 320.601 333.748 323.096C334.55 325.569 335.722 327.944 337.262 330.222H334.171Z" fill="white"/>
<path d="M463.944 203.391H616.487V355.933H463.944V203.391Z" fill="#059669"/>
<path d="M549.794 233.947H564.275C569.102 233.947 572.818 235.574 575.421 238.829C578.024 242.029 579.326 247.127 579.326 254.124V254.286C579.326 257.866 579.028 260.876 578.431 263.317C577.835 265.757 576.885 267.71 575.584 269.174C574.336 270.639 572.763 271.724 570.865 272.429C568.967 273.079 566.716 273.405 564.113 273.405H562.811V290.896H549.794V233.947ZM562.811 245.256V262.096H564.113C565.035 262.096 565.631 261.879 565.902 261.446C566.174 261.012 566.309 260.225 566.309 259.086V248.347C566.309 247.208 566.174 246.422 565.902 245.988C565.631 245.5 565.035 245.256 564.113 245.256H562.811Z" fill="white"/>
<path d="M534.937 233.947H547.953V290.896H534.937V233.947Z" fill="white"/>
<path d="M503.301 233.947H516.318L518.026 276.496H518.84L520.548 233.947H533.565L528.44 290.896H508.182L503.301 233.947Z" fill="white"/>
<path d="M589.556 330.22C591.118 327.942 592.289 325.567 593.07 323.094C593.851 320.599 594.242 318.06 594.242 315.479C594.242 312.875 593.851 310.348 593.07 307.896C592.289 305.423 591.118 303.047 589.556 300.77H592.647C594.448 302.809 595.804 305.065 596.715 307.538C597.626 310.012 598.082 312.658 598.082 315.479C598.082 318.277 597.626 320.913 596.715 323.386C595.804 325.86 594.448 328.138 592.647 330.22H589.556Z" fill="white"/>
<path d="M573.207 325.013V300.379H576.884V316.878L575.452 316.52L584.271 307.408H588.86L582.221 314.47L589.153 325.013H584.922L578.739 315.674L580.92 315.381L575.713 320.913L576.884 318.472V325.013H573.207Z" fill="white"/>
<path d="M561.396 325.404C560.073 325.404 558.912 325.111 557.914 324.525C556.916 323.918 556.135 323.083 555.571 322.02C555.029 320.935 554.758 319.688 554.758 318.277V307.408H558.435V317.952C558.435 318.755 558.598 319.46 558.923 320.067C559.249 320.675 559.704 321.152 560.29 321.499C560.876 321.824 561.548 321.987 562.308 321.987C563.089 321.987 563.772 321.814 564.358 321.467C564.944 321.119 565.399 320.631 565.725 320.002C566.072 319.373 566.245 318.635 566.245 317.789V307.408H569.89V325.014H566.408V321.564L566.798 322.02C566.386 323.104 565.703 323.94 564.748 324.525C563.794 325.111 562.676 325.404 561.396 325.404Z" fill="white"/>
<path d="M542.427 325.404C540.735 325.404 539.216 325.003 537.871 324.2C536.547 323.376 535.495 322.269 534.714 320.881C533.955 319.492 533.575 317.93 533.575 316.195C533.575 314.459 533.966 312.897 534.747 311.508C535.528 310.12 536.58 309.024 537.903 308.222C539.227 307.419 540.724 307.018 542.394 307.018C543.804 307.018 545.052 307.3 546.137 307.864C547.221 308.428 548.078 309.209 548.707 310.207L548.154 311.053V300.379H551.799V325.013H548.317V321.434L548.74 322.117C548.132 323.18 547.265 323.994 546.137 324.558C545.008 325.122 543.772 325.404 542.427 325.404ZM542.785 321.987C543.804 321.987 544.716 321.738 545.518 321.239C546.343 320.74 546.983 320.056 547.438 319.188C547.916 318.299 548.154 317.301 548.154 316.195C548.154 315.088 547.916 314.101 547.438 313.233C546.983 312.365 546.343 311.682 545.518 311.183C544.716 310.684 543.804 310.435 542.785 310.435C541.765 310.435 540.843 310.684 540.019 311.183C539.194 311.682 538.554 312.365 538.099 313.233C537.643 314.101 537.415 315.088 537.415 316.195C537.415 317.301 537.643 318.299 538.099 319.188C538.554 320.056 539.183 320.74 539.986 321.239C540.81 321.738 541.743 321.987 542.785 321.987Z" fill="white"/>
<path d="M522.48 325.404C521.157 325.404 519.996 325.111 518.998 324.525C518 323.918 517.219 323.083 516.655 322.02C516.113 320.935 515.842 319.688 515.842 318.277V307.408H519.519V317.952C519.519 318.755 519.682 319.46 520.007 320.067C520.333 320.675 520.788 321.152 521.374 321.499C521.96 321.824 522.632 321.987 523.392 321.987C524.173 321.987 524.856 321.814 525.442 321.467C526.028 321.119 526.483 320.631 526.809 320.002C527.156 319.373 527.329 318.635 527.329 317.789V307.408H530.974V325.014H527.492V321.564L527.882 322.02C527.47 323.104 526.787 323.94 525.832 324.525C524.878 325.111 523.76 325.404 522.48 325.404Z" fill="white"/>
<path d="M493.413 325.014V300.77H501.353C503.87 300.77 506.05 301.279 507.894 302.299C509.76 303.297 511.203 304.707 512.223 306.53C513.242 308.352 513.752 310.467 513.752 312.875C513.752 315.262 513.242 317.377 512.223 319.221C511.203 321.043 509.76 322.464 507.894 323.484C506.05 324.504 503.87 325.014 501.353 325.014H493.413ZM497.253 321.597H501.419C503.132 321.597 504.619 321.239 505.877 320.523C507.157 319.807 508.144 318.798 508.838 317.496C509.532 316.195 509.88 314.654 509.88 312.875C509.88 311.096 509.522 309.567 508.806 308.287C508.111 306.985 507.135 305.976 505.877 305.26C504.619 304.544 503.132 304.186 501.419 304.186H497.253V321.597Z" fill="white"/>
<path d="M487.797 330.22C486.018 328.138 484.672 325.86 483.761 323.386C482.85 320.913 482.395 318.277 482.395 315.479C482.395 312.658 482.85 310.012 483.761 307.538C484.672 305.065 486.018 302.809 487.797 300.77H490.888C489.348 303.047 488.176 305.423 487.374 307.896C486.592 310.348 486.202 312.875 486.202 315.479C486.202 318.06 486.592 320.599 487.374 323.094C488.176 325.567 489.348 327.942 490.888 330.22H487.797Z" fill="white"/>
<path d="M741.66 211.459C736.344 206.285 729.219 203.391 721.801 203.391H616.487V355.933H840.051C858.304 355.933 867.317 333.749 854.236 321.018L741.66 211.459Z" fill="#EA580C"/>
<path d="M736.217 290.898V245.99L735.729 245.258H732.394V233.949H749.234V290.898H736.217Z" fill="white"/>
<path d="M717.477 233.949V245.258H709.667V290.898H696.65V245.258H688.84V233.949H717.477Z" fill="white"/>
<path d="M666.077 233.949H686.334L691.216 290.898H678.199L676.49 256.403H675.677L673.968 290.898H660.951L666.077 233.949ZM680.477 277.963H671.365V266.654H680.477V277.963Z" fill="white"/>
<path d="M643.711 247.128V277.718C643.711 278.206 643.766 278.613 643.874 278.938C643.982 279.264 644.118 279.535 644.281 279.752C644.443 279.969 644.633 280.131 644.85 280.24C645.121 280.348 645.366 280.403 645.582 280.403C645.908 280.403 646.179 280.348 646.396 280.24C646.613 280.131 646.803 279.969 646.966 279.752C647.128 279.535 647.264 279.264 647.372 278.938C647.481 278.613 647.535 278.206 647.535 277.718V263.969H660.552V276.66C660.552 279.155 660.199 281.352 659.494 283.25C658.789 285.094 657.786 286.64 656.484 287.887C655.182 289.135 653.582 290.084 651.684 290.735C649.84 291.386 647.752 291.711 645.42 291.711C643.088 291.711 640.999 291.413 639.155 290.816C637.366 290.165 635.847 289.216 634.599 287.969C633.352 286.667 632.376 285.094 631.671 283.25C631.02 281.352 630.694 279.155 630.694 276.66V248.104C630.694 245.609 631.02 243.44 631.671 241.596C632.376 239.697 633.352 238.125 634.599 236.877C635.847 235.63 637.366 234.708 639.155 234.111C640.999 233.46 643.088 233.135 645.42 233.135C647.752 233.135 649.84 233.46 651.684 234.111C653.582 234.762 655.182 235.711 656.484 236.958C657.786 238.206 658.789 239.779 659.494 241.677C660.199 243.521 660.552 245.664 660.552 248.104V260.877H647.535V247.128C647.535 246.586 647.481 246.152 647.372 245.826C647.264 245.501 647.128 245.23 646.966 245.013C646.803 244.796 646.613 244.66 646.396 244.606C646.179 244.497 645.908 244.443 645.582 244.443C645.366 244.443 645.121 244.497 644.85 244.606C644.633 244.66 644.443 244.796 644.281 245.013C644.118 245.23 643.982 245.501 643.874 245.826C643.766 246.152 643.711 246.586 643.711 247.128Z" fill="white"/>
<path d="M738.981 330.222C740.543 327.944 741.715 325.569 742.496 323.096C743.277 320.601 743.668 318.062 743.668 315.481C743.668 312.877 743.277 310.35 742.496 307.898C741.715 305.425 740.543 303.049 738.981 300.771H742.073C743.874 302.811 745.23 305.067 746.141 307.54C747.052 310.014 747.508 312.66 747.508 315.481C747.508 318.279 747.052 320.915 746.141 323.388C745.23 325.862 743.874 328.14 742.073 330.222H738.981Z" fill="white"/>
<path d="M722.633 325.015V300.381H726.31V316.88L724.878 316.522L733.697 307.41H738.286L731.647 314.472L738.579 325.015H734.348L728.165 315.676L730.345 315.383L725.139 320.915L726.31 318.474V325.015H722.633Z" fill="white"/>
<path d="M710.822 325.406C709.499 325.406 708.338 325.113 707.34 324.527C706.342 323.92 705.561 323.085 704.997 322.022C704.455 320.937 704.184 319.689 704.184 318.279V307.41H707.861V317.954C707.861 318.757 708.024 319.462 708.349 320.069C708.674 320.677 709.13 321.154 709.716 321.501C710.302 321.826 710.974 321.989 711.733 321.989C712.514 321.989 713.198 321.816 713.784 321.468C714.369 321.121 714.825 320.633 715.15 320.004C715.497 319.375 715.671 318.637 715.671 317.791V307.41H719.316V325.016H715.834V321.566L716.224 322.022C715.812 323.106 715.129 323.942 714.174 324.527C713.22 325.113 712.102 325.406 710.822 325.406Z" fill="white"/>
<path d="M691.853 325.406C690.16 325.406 688.642 325.005 687.297 324.202C685.973 323.377 684.921 322.271 684.14 320.883C683.381 319.494 683.001 317.932 683.001 316.196C683.001 314.461 683.391 312.899 684.173 311.51C684.954 310.122 686.006 309.026 687.329 308.224C688.653 307.421 690.149 307.02 691.82 307.02C693.23 307.02 694.478 307.302 695.562 307.866C696.647 308.43 697.504 309.211 698.133 310.209L697.58 311.055V300.381H701.225V325.015H697.743V321.436L698.166 322.119C697.558 323.182 696.69 323.996 695.562 324.56C694.434 325.124 693.198 325.406 691.853 325.406ZM692.21 321.989C693.23 321.989 694.141 321.74 694.944 321.241C695.768 320.742 696.408 320.058 696.864 319.19C697.341 318.301 697.58 317.303 697.58 316.196C697.58 315.09 697.341 314.103 696.864 313.235C696.408 312.367 695.768 311.684 694.944 311.185C694.141 310.686 693.23 310.436 692.21 310.436C691.191 310.436 690.269 310.686 689.444 311.185C688.62 311.684 687.98 312.367 687.524 313.235C687.069 314.103 686.841 315.09 686.841 316.196C686.841 317.303 687.069 318.301 687.524 319.19C687.98 320.058 688.609 320.742 689.412 321.241C690.236 321.74 691.169 321.989 692.21 321.989Z" fill="white"/>
<path d="M671.906 325.406C670.583 325.406 669.422 325.113 668.424 324.527C667.426 323.92 666.645 323.085 666.081 322.022C665.539 320.937 665.268 319.689 665.268 318.279V307.41H668.945V317.954C668.945 318.757 669.108 319.462 669.433 320.069C669.758 320.677 670.214 321.154 670.8 321.501C671.386 321.826 672.058 321.989 672.817 321.989C673.598 321.989 674.282 321.816 674.868 321.468C675.453 321.121 675.909 320.633 676.234 320.004C676.581 319.375 676.755 318.637 676.755 317.791V307.41H680.4V325.016H676.918V321.566L677.308 322.022C676.896 323.106 676.213 323.942 675.258 324.527C674.304 325.113 673.186 325.406 671.906 325.406Z" fill="white"/>
<path d="M642.839 325.016V300.771H650.779C653.296 300.771 655.476 301.281 657.32 302.301C659.186 303.299 660.629 304.709 661.648 306.531C662.668 308.354 663.178 310.469 663.178 312.877C663.178 315.264 662.668 317.379 661.648 319.223C660.629 321.045 659.186 322.466 657.32 323.486C655.476 324.506 653.296 325.016 650.779 325.016H642.839ZM646.679 321.599H650.844C652.558 321.599 654.044 321.241 655.303 320.525C656.583 319.809 657.57 318.8 658.264 317.498C658.958 316.197 659.305 314.656 659.305 312.877C659.305 311.098 658.947 309.569 658.231 308.289C657.537 306.987 656.561 305.978 655.303 305.262C654.044 304.546 652.558 304.188 650.844 304.188H646.679V321.599Z" fill="white"/>
<path d="M637.222 330.222C635.443 328.14 634.098 325.862 633.187 323.388C632.276 320.915 631.82 318.279 631.82 315.481C631.82 312.66 632.276 310.014 633.187 307.54C634.098 305.067 635.443 302.811 637.222 300.771H640.314C638.774 303.049 637.602 305.425 636.799 307.898C636.018 310.35 635.628 312.877 635.628 315.481C635.628 318.062 636.018 320.601 636.799 323.096C637.602 325.569 638.774 327.944 640.314 330.222H637.222Z" fill="white"/>
<path d="M575.617 454.587V445.393C575.617 440.62 576.919 436.932 579.522 434.329C582.126 431.726 585.841 430.424 590.668 430.424C595.441 430.424 599.075 431.698 601.57 434.248C604.119 436.797 605.393 440.512 605.393 445.393V446.207C605.393 448.593 605.258 450.844 604.987 452.959C604.716 455.075 604.254 457 603.604 458.736C602.953 460.471 602.139 462.017 601.163 463.373C600.187 464.675 598.993 465.759 597.583 466.627L595.305 467.929C593.841 468.797 592.648 469.502 591.726 470.044C590.858 470.587 590.18 471.102 589.692 471.59C589.258 472.078 588.96 472.566 588.797 473.054C588.688 473.542 588.634 474.112 588.634 474.763V475.739H605.231V488.187H575.617V476.959C575.617 474.573 575.753 472.539 576.024 470.858C576.295 469.176 576.729 467.739 577.326 466.546C577.922 465.353 578.709 464.322 579.685 463.454C580.661 462.532 581.882 461.637 583.346 460.77L585.299 459.712C586.871 458.844 588.119 458.112 589.041 457.515C589.963 456.865 590.668 456.268 591.156 455.726C591.644 455.129 591.97 454.532 592.132 453.936C592.295 453.285 592.377 452.471 592.377 451.495V444.417C592.377 443.549 592.214 442.898 591.888 442.465C591.563 441.976 591.102 441.732 590.505 441.732C589.909 441.732 589.448 441.976 589.122 442.465C588.797 442.898 588.634 443.549 588.634 444.417V454.587H575.617Z" fill="black"/>
<path d="M560.783 431.238V442.547H552.973V488.187H539.956V442.547H532.146V431.238H560.783Z" fill="black"/>
<path d="M509.382 431.238H529.64L534.521 488.187H521.504L519.796 453.693H518.982L517.274 488.187H504.257L509.382 431.238ZM523.782 475.252H514.67V463.943H523.782V475.252Z" fill="black"/>
<path d="M487.017 444.417V475.007C487.017 475.495 487.071 475.902 487.18 476.227C487.288 476.553 487.424 476.824 487.586 477.041C487.749 477.258 487.939 477.42 488.156 477.529C488.427 477.637 488.671 477.692 488.888 477.692C489.214 477.692 489.485 477.637 489.702 477.529C489.919 477.42 490.108 477.258 490.271 477.041C490.434 476.824 490.57 476.553 490.678 476.227C490.786 475.902 490.841 475.495 490.841 475.007V461.258H503.858V473.949C503.858 476.444 503.505 478.641 502.8 480.539C502.095 482.383 501.092 483.929 499.79 485.176C498.488 486.424 496.888 487.373 494.99 488.024C493.146 488.675 491.058 489 488.725 489C486.393 489 484.305 488.702 482.461 488.105C480.671 487.454 479.153 486.505 477.905 485.258C476.658 483.956 475.681 482.383 474.976 480.539C474.325 478.641 474 476.444 474 473.949V445.393C474 442.898 474.325 440.729 474.976 438.885C475.681 436.987 476.658 435.414 477.905 434.166C479.153 432.919 480.671 431.997 482.461 431.4C484.305 430.749 486.393 430.424 488.725 430.424C491.058 430.424 493.146 430.749 494.99 431.4C496.888 432.051 498.488 433 499.79 434.248C501.092 435.495 502.095 437.068 502.8 438.966C503.505 440.81 503.858 442.953 503.858 445.393V458.166H490.841V444.417C490.841 443.875 490.786 443.441 490.678 443.115C490.57 442.79 490.434 442.519 490.271 442.302C490.108 442.085 489.919 441.949 489.702 441.895C489.485 441.787 489.214 441.732 488.888 441.732C488.671 441.732 488.427 441.787 488.156 441.895C487.939 441.949 487.749 442.085 487.586 442.302C487.424 442.519 487.288 442.79 487.18 443.115C487.071 443.441 487.017 443.875 487.017 444.417Z" fill="black"/>
<path d="M588.127 527.511C589.689 525.233 590.861 522.858 591.642 520.385C592.423 517.89 592.813 515.351 592.813 512.77C592.813 510.166 592.423 507.639 591.642 505.187C590.861 502.714 589.689 500.339 588.127 498.061H591.218C593.019 500.1 594.375 502.356 595.286 504.829C596.197 507.303 596.653 509.949 596.653 512.77C596.653 515.568 596.197 518.204 595.286 520.678C594.375 523.151 593.019 525.429 591.218 527.511H588.127Z" fill="black"/>
<path d="M571.778 522.305V497.67H575.456V514.169L574.024 513.811L582.843 504.699H587.431L580.793 511.761L587.724 522.305H583.494L577.311 512.965L579.491 512.672L574.284 518.204L575.456 515.763V522.305H571.778Z" fill="black"/>
<path d="M559.968 522.695C558.644 522.695 557.484 522.402 556.486 521.817C555.488 521.209 554.707 520.374 554.143 519.311C553.6 518.226 553.329 516.979 553.329 515.568V504.699H557.006V515.243C557.006 516.046 557.169 516.751 557.495 517.358C557.82 517.966 558.276 518.443 558.861 518.79C559.447 519.115 560.12 519.278 560.879 519.278C561.66 519.278 562.343 519.105 562.929 518.758C563.515 518.41 563.97 517.922 564.296 517.293C564.643 516.664 564.817 515.926 564.817 515.08V504.699H568.461V522.305H564.979V518.855L565.37 519.311C564.958 520.395 564.274 521.231 563.32 521.817C562.365 522.402 561.248 522.695 559.968 522.695Z" fill="black"/>
<path d="M540.998 522.695C539.306 522.695 537.787 522.294 536.442 521.491C535.119 520.667 534.066 519.56 533.285 518.172C532.526 516.783 532.146 515.221 532.146 513.486C532.146 511.75 532.537 510.188 533.318 508.799C534.099 507.411 535.151 506.315 536.475 505.513C537.798 504.71 539.295 504.309 540.965 504.309C542.376 504.309 543.623 504.591 544.708 505.155C545.793 505.719 546.65 506.5 547.279 507.498L546.725 508.344V497.67H550.37V522.305H546.888V518.725L547.311 519.408C546.704 520.471 545.836 521.285 544.708 521.849C543.58 522.413 542.343 522.695 540.998 522.695ZM541.356 519.278C542.376 519.278 543.287 519.029 544.09 518.53C544.914 518.031 545.554 517.347 546.01 516.479C546.487 515.59 546.725 514.592 546.725 513.486C546.725 512.379 546.487 511.392 546.01 510.524C545.554 509.656 544.914 508.973 544.09 508.474C543.287 507.975 542.376 507.726 541.356 507.726C540.336 507.726 539.414 507.975 538.59 508.474C537.765 508.973 537.125 509.656 536.67 510.524C536.214 511.392 535.986 512.379 535.986 513.486C535.986 514.592 536.214 515.59 536.67 516.479C537.125 517.347 537.755 518.031 538.557 518.53C539.382 519.029 540.315 519.278 541.356 519.278Z" fill="black"/>
<path d="M521.052 522.695C519.728 522.695 518.568 522.402 517.57 521.817C516.572 521.209 515.791 520.374 515.227 519.311C514.684 518.226 514.413 516.979 514.413 515.568V504.699H518.09V515.243C518.09 516.046 518.253 516.751 518.579 517.358C518.904 517.966 519.36 518.443 519.945 518.79C520.531 519.115 521.204 519.278 521.963 519.278C522.744 519.278 523.427 519.105 524.013 518.758C524.599 518.41 525.054 517.922 525.38 517.293C525.727 516.664 525.901 515.926 525.901 515.08V504.699H529.545V522.305H526.063V518.855L526.454 519.311C526.042 520.395 525.358 521.231 524.404 521.817C523.449 522.402 522.332 522.695 521.052 522.695Z" fill="black"/>
<path d="M491.984 522.305V498.061H499.925C502.441 498.061 504.622 498.57 506.466 499.59C508.332 500.588 509.774 501.998 510.794 503.821C511.814 505.643 512.323 507.758 512.323 510.166C512.323 512.553 511.814 514.668 510.794 516.512C509.774 518.334 508.332 519.755 506.466 520.775C504.622 521.795 502.441 522.305 499.925 522.305H491.984ZM495.824 518.888H499.99C501.704 518.888 503.19 518.53 504.448 517.814C505.728 517.098 506.715 516.089 507.409 514.787C508.104 513.486 508.451 511.945 508.451 510.166C508.451 508.387 508.093 506.858 507.377 505.578C506.683 504.276 505.706 503.267 504.448 502.551C503.19 501.835 501.704 501.477 499.99 501.477H495.824V518.888Z" fill="black"/>
<path d="M486.368 527.511C484.589 525.429 483.244 523.151 482.333 520.678C481.421 518.204 480.966 515.568 480.966 512.77C480.966 509.949 481.421 507.303 482.333 504.829C483.244 502.356 484.589 500.1 486.368 498.061H489.459C487.919 500.339 486.748 502.714 485.945 505.187C485.164 507.639 484.773 510.166 484.773 512.77C484.773 515.351 485.164 517.89 485.945 520.385C486.748 522.858 487.919 525.233 489.459 527.511H486.368Z" fill="black"/>
<path d="M1056 291C1069.25 291 1080.05 301.771 1079.48 315.013C1066.91 602.104 830.187 831 540 831C249.813 831 13.0872 602.104 0.524233 315.013C-0.0552388 301.771 10.745 291 23.9999 291H105C118.255 291 128.927 301.769 129.689 315.002C142.117 530.82 321.068 702 540 702C758.932 702 937.883 530.82 950.311 315.002C951.073 301.769 961.745 291 975 291H1056Z" fill="#2563EB"/>
<path d="M612.022 720.051H625.039V777H610.883L605.106 742.912H604.374L607.303 777H594.286V720.051H608.361L614.462 754.383H615.195L612.022 720.051Z" fill="white"/>
<path d="M562.822 720.051H575.839V763.82C575.839 764.308 575.893 764.715 576.002 765.041C576.11 765.366 576.219 765.637 576.327 765.854C576.49 766.071 576.68 766.234 576.897 766.342C577.168 766.451 577.412 766.505 577.629 766.505C577.9 766.505 578.144 766.451 578.361 766.342C578.578 766.234 578.768 766.071 578.931 765.854C579.093 765.637 579.202 765.366 579.256 765.041C579.365 764.715 579.419 764.308 579.419 763.82V720.051H592.436V762.763C592.436 765.258 592.083 767.454 591.378 769.353C590.727 771.197 589.751 772.742 588.449 773.99C587.202 775.237 585.629 776.186 583.731 776.837C581.887 777.488 579.799 777.814 577.466 777.814C575.134 777.814 573.046 777.515 571.202 776.919C569.412 776.268 567.893 775.319 566.646 774.071C565.399 772.769 564.449 771.197 563.799 769.353C563.148 767.454 562.822 765.258 562.822 762.763V720.051Z" fill="white"/>
<path d="M530.965 720.051H545.365C550.192 720.051 553.907 721.271 556.511 723.712C559.114 726.098 560.416 729.542 560.416 734.044V734.451C560.416 736.512 560.172 738.356 559.684 739.983C559.195 741.61 558.545 742.966 557.731 744.051C556.972 745.136 556.077 745.976 555.046 746.573C554.07 747.115 553.094 747.414 552.117 747.468V748.281C553.094 748.336 554.124 748.688 555.209 749.339C556.294 749.99 557.27 750.912 558.138 752.105C559.06 753.298 559.819 754.708 560.416 756.336C561.012 757.963 561.311 759.834 561.311 761.949V762.925C561.311 767.373 559.9 770.844 557.08 773.339C554.314 775.78 550.436 777 545.446 777H530.965V720.051ZM543.982 731.359V742.261H545.202C546.07 742.261 546.639 742.071 546.911 741.691C547.236 741.312 547.399 740.58 547.399 739.495V734.044C547.399 733.014 547.236 732.308 546.911 731.929C546.639 731.549 546.07 731.359 545.202 731.359H543.982ZM543.982 753.569V765.691H545.283C546.206 765.691 546.829 765.502 547.155 765.122C547.48 764.742 547.643 764.01 547.643 762.925V756.336C547.643 755.251 547.48 754.519 547.155 754.139C546.829 753.759 546.206 753.569 545.283 753.569H543.982Z" fill="white"/>
<path d="M516.108 720.051H529.125V777H516.108V720.051Z" fill="white"/>
<path d="M484.567 720.051H499.049C503.876 720.051 507.591 721.298 510.195 723.793C512.798 726.288 514.1 730.112 514.1 735.264V735.671C514.1 738.003 513.828 740.037 513.286 741.773C512.798 743.508 512.147 744.973 511.333 746.166C510.574 747.359 509.679 748.254 508.649 748.851C507.672 749.447 506.723 749.773 505.801 749.827V750.722C506.723 750.776 507.672 751.156 508.649 751.861C509.679 752.512 510.574 753.434 511.333 754.627C512.147 755.82 512.798 757.258 513.286 758.939C513.828 760.62 514.1 762.546 514.1 764.715V765.447C514.1 767.725 514.154 769.786 514.262 771.63C514.371 773.475 514.588 775.264 514.913 777H501.896C501.517 775.264 501.272 773.447 501.164 771.549C501.11 769.597 501.083 767.508 501.083 765.285V758.695C501.083 757.664 500.92 756.959 500.595 756.58C500.323 756.146 499.754 755.929 498.886 755.929H497.584V777H484.567V720.051ZM497.584 731.359V744.62H498.886C499.754 744.62 500.323 744.43 500.595 744.051C500.92 743.617 501.083 742.858 501.083 741.773V734.125C501.083 733.095 500.92 732.39 500.595 732.01C500.323 731.576 499.754 731.359 498.886 731.359H497.584Z" fill="white"/>
<path d="M483.08 720.051V731.359H475.27V777H462.253V731.359H454.442V720.051H483.08Z" fill="white"/>
<path d="M588.442 816.324C590.004 814.046 591.176 811.67 591.957 809.197C592.738 806.702 593.128 804.164 593.128 801.582C593.128 798.979 592.738 796.451 591.957 794C591.176 791.527 590.004 789.151 588.442 786.873H591.534C593.335 788.912 594.691 791.169 595.602 793.642C596.513 796.115 596.968 798.762 596.968 801.582C596.968 804.381 596.513 807.017 595.602 809.49C594.691 811.963 593.335 814.241 591.534 816.324H588.442Z" fill="white"/>
<path d="M572.094 811.117V786.482H575.771V802.981L574.339 802.623L583.158 793.512H587.747L581.108 800.573L588.04 811.117H583.809L577.626 801.777L579.806 801.484L574.6 807.017L575.771 804.576V811.117H572.094Z" fill="white"/>
<path d="M560.283 811.508C558.96 811.508 557.799 811.215 556.801 810.629C555.803 810.022 555.022 809.186 554.458 808.123C553.916 807.039 553.645 805.791 553.645 804.381V793.512H557.322V804.055C557.322 804.858 557.485 805.563 557.81 806.171C558.135 806.778 558.591 807.255 559.177 807.603C559.762 807.928 560.435 808.091 561.194 808.091C561.975 808.091 562.659 807.917 563.245 807.57C563.83 807.223 564.286 806.735 564.611 806.106C564.958 805.476 565.132 804.739 565.132 803.893V793.512H568.777V811.117H565.295V807.668L565.685 808.123C565.273 809.208 564.59 810.043 563.635 810.629C562.68 811.215 561.563 811.508 560.283 811.508Z" fill="white"/>
<path d="M541.313 811.508C539.621 811.508 538.103 811.106 536.758 810.303C535.434 809.479 534.382 808.373 533.601 806.984C532.842 805.596 532.462 804.034 532.462 802.298C532.462 800.562 532.852 799 533.633 797.612C534.414 796.223 535.467 795.128 536.79 794.325C538.113 793.522 539.61 793.121 541.281 793.121C542.691 793.121 543.939 793.403 545.023 793.967C546.108 794.531 546.965 795.312 547.594 796.31L547.041 797.156V786.482H550.686V811.117H547.204V807.537L547.627 808.221C547.019 809.284 546.151 810.097 545.023 810.661C543.895 811.225 542.659 811.508 541.313 811.508ZM541.671 808.091C542.691 808.091 543.602 807.841 544.405 807.342C545.229 806.843 545.869 806.16 546.325 805.292C546.802 804.402 547.041 803.404 547.041 802.298C547.041 801.192 546.802 800.204 546.325 799.337C545.869 798.469 545.229 797.785 544.405 797.286C543.602 796.788 542.691 796.538 541.671 796.538C540.652 796.538 539.73 796.788 538.905 797.286C538.081 797.785 537.441 798.469 536.985 799.337C536.53 800.204 536.302 801.192 536.302 802.298C536.302 803.404 536.53 804.402 536.985 805.292C537.441 806.16 538.07 806.843 538.873 807.342C539.697 807.841 540.63 808.091 541.671 808.091Z" fill="white"/>
<path d="M521.367 811.508C520.044 811.508 518.883 811.215 517.885 810.629C516.887 810.022 516.106 809.186 515.542 808.123C515 807.039 514.729 805.791 514.729 804.381V793.512H518.406V804.055C518.406 804.858 518.569 805.563 518.894 806.171C519.219 806.778 519.675 807.255 520.261 807.603C520.846 807.928 521.519 808.091 522.278 808.091C523.059 808.091 523.743 807.917 524.329 807.57C524.914 807.223 525.37 806.735 525.695 806.106C526.042 805.476 526.216 804.739 526.216 803.893V793.512H529.861V811.117H526.379V807.668L526.769 808.123C526.357 809.208 525.674 810.043 524.719 810.629C523.764 811.215 522.647 811.508 521.367 811.508Z" fill="white"/>
<path d="M492.3 811.117V786.873H500.24C502.757 786.873 504.937 787.383 506.781 788.403C508.647 789.401 510.09 790.811 511.109 792.633C512.129 794.455 512.639 796.571 512.639 798.979C512.639 801.365 512.129 803.481 511.109 805.325C510.09 807.147 508.647 808.568 506.781 809.588C504.937 810.607 502.757 811.117 500.24 811.117H492.3ZM496.14 807.7H500.305C502.019 807.7 503.505 807.342 504.764 806.626C506.044 805.91 507.031 804.902 507.725 803.6C508.419 802.298 508.766 800.758 508.766 798.979C508.766 797.2 508.408 795.67 507.692 794.39C506.998 793.089 506.022 792.08 504.764 791.364C503.505 790.648 502.019 790.29 500.305 790.29H496.14V807.7Z" fill="white"/>
<path d="M486.683 816.324C484.904 814.241 483.559 811.963 482.648 809.49C481.737 807.017 481.281 804.381 481.281 801.582C481.281 798.762 481.737 796.115 482.648 793.642C483.559 791.169 484.904 788.912 486.683 786.873H489.775C488.234 789.151 487.063 791.527 486.26 794C485.479 796.451 485.089 798.979 485.089 801.582C485.089 804.164 485.479 806.702 486.26 809.197C487.063 811.67 488.234 814.046 489.775 816.324H486.683Z" fill="white"/>
</g>
<defs>
<clipPath id="clip0_134_294">
<rect width="1080" height="831" fill="white"/>
</clipPath>
</defs>
</svg>
