<svg width="1080" height="1080" viewBox="0 0 1080 1080" fill="none" xmlns="http://www.w3.org/2000/svg">
<rect width="1080" height="1080" fill="white"/>
<path fill-rule="evenodd" clip-rule="evenodd" d="M741.951 838.037C682.333 878.418 611.992 900 540 900C468.008 900 397.667 878.418 338.049 838.037L540 578.734L741.951 838.037ZM540 180C608.734 179.955 676.042 199.612 733.96 236.645C791.878 273.679 837.982 326.539 866.815 388.971C895.648 451.402 906.005 520.792 896.658 588.928C887.312 657.065 858.654 721.097 814.076 773.446L540 421.766L265.923 773.446C221.346 721.097 192.688 657.065 183.342 588.928C173.995 520.792 184.352 451.402 213.185 388.971C242.018 326.539 288.122 273.679 346.04 236.645C403.958 199.612 471.266 179.955 540 180Z" fill="#62B54C"/>
</svg>
