<svg width="1080" height="1080" viewBox="0 0 1080 1080" fill="none" xmlns="http://www.w3.org/2000/svg">
<rect width="1080" height="1080" fill="#FDF9E1"/>
<path d="M899.983 584.76C899.89 583.733 899.283 583.22 898.163 583.22C897.136 583.22 896.623 583.733 896.623 584.76L894.523 617.8C894.43 618.453 894.616 619.013 895.083 619.48C895.55 619.947 896.063 620.18 896.623 620.18H899.983C900.543 620.18 901.01 619.947 901.383 619.48C901.85 619.013 902.083 618.453 902.083 617.8L899.983 584.76ZM928.403 654.62C928.403 655.273 928.216 655.833 927.843 656.3C927.376 656.767 926.863 657 926.303 657H906.563C906.003 657 905.49 656.813 905.023 656.44C904.65 656.067 904.463 655.6 904.463 655.04L903.903 646.36C903.903 645.8 903.67 645.333 903.203 644.96C902.83 644.587 902.363 644.4 901.803 644.4H894.803C894.243 644.4 893.73 644.587 893.263 644.96C892.89 645.333 892.703 645.8 892.703 646.36L892.143 655.04C892.143 655.6 891.91 656.067 891.443 656.44C891.07 656.813 890.603 657 890.043 657H870.303C869.65 657 869.136 656.767 868.763 656.3C868.39 655.833 868.203 655.273 868.203 654.62L878.563 560.96C878.75 559.653 879.496 559 880.803 559H915.803C916.363 559 916.83 559.187 917.203 559.56C917.67 559.933 917.903 560.4 917.903 560.96L928.403 654.62Z" fill="#697E00"/>
<path d="M841.27 561.1C841.27 560.54 841.456 560.073 841.83 559.7C842.296 559.233 842.81 559 843.37 559H863.39C863.95 559 864.416 559.233 864.79 559.7C865.256 560.073 865.49 560.54 865.49 561.1V654.9C865.49 655.46 865.256 655.973 864.79 656.44C864.416 656.813 863.95 657 863.39 657H843.37C842.81 657 842.296 656.813 841.83 656.44C841.456 655.973 841.27 655.46 841.27 654.9V561.1Z" fill="black"/>
<path d="M777.156 630.4C777.156 629.28 777.67 628.58 778.696 628.3L798.716 621.86C799.37 621.58 799.976 621.673 800.536 622.14C801.19 622.513 801.516 623.027 801.516 623.68L801.656 626.34V626.48C801.75 628.44 802.356 629.98 803.476 631.1C804.596 632.22 806.043 632.78 807.816 632.78C809.59 632.78 811.036 632.22 812.156 631.1C813.276 629.98 813.836 628.393 813.836 626.34C813.836 624.753 813.323 623.353 812.296 622.14C811.27 620.927 809.87 619.993 808.096 619.34C806.416 618.593 804.456 617.8 802.216 616.96C800.07 616.12 797.83 615.327 795.496 614.58C793.163 613.833 790.876 612.76 788.636 611.36C786.49 609.96 784.576 608.42 782.896 606.74C781.216 604.967 779.816 602.633 778.696 599.74C777.67 596.847 777.156 593.533 777.156 589.8C777.156 580 779.956 572.44 785.556 567.12C791.25 561.707 798.576 559 807.536 559C816.03 559 823.123 561.38 828.816 566.14C834.603 570.807 837.683 577.293 838.056 585.6C838.15 586.627 837.683 587.327 836.656 587.7L816.496 594.14C815.843 594.42 815.19 594.373 814.536 594C813.976 593.533 813.696 592.973 813.696 592.32L813.556 589.66V589.52C813.556 587.56 812.996 586.02 811.876 584.9C810.756 583.78 809.31 583.22 807.536 583.22C805.763 583.22 804.27 583.78 803.056 584.9C801.936 586.02 801.376 587.607 801.376 589.66C801.376 591.433 802.03 592.973 803.336 594.28C804.736 595.587 806.51 596.66 808.656 597.5C810.896 598.34 813.276 599.18 815.796 600.02C818.41 600.86 821.023 601.933 823.636 603.24C826.25 604.453 828.63 605.993 830.776 607.86C833.016 609.633 834.79 612.107 836.096 615.28C837.403 618.36 838.056 622 838.056 626.2C838.056 636 835.21 643.607 829.516 649.02C823.916 654.34 816.683 657 807.816 657C799.23 657 792.043 654.667 786.256 650C780.563 645.24 777.53 638.707 777.156 630.4Z" fill="#520000"/>
<path d="M715.211 561.1C715.211 560.54 715.398 560.073 715.771 559.7C716.238 559.233 716.751 559 717.311 559H773.731C774.291 559 774.758 559.233 775.131 559.7C775.598 560.073 775.831 560.54 775.831 561.1V581.12C775.831 581.68 775.598 582.193 775.131 582.66C774.758 583.033 774.291 583.22 773.731 583.22H741.671C741.018 583.22 740.458 583.453 739.991 583.92C739.618 584.293 739.431 584.76 739.431 585.32V593.72C739.431 594.28 739.618 594.793 739.991 595.26C740.458 595.633 741.018 595.82 741.671 595.82H766.311C766.871 595.82 767.338 596.053 767.711 596.52C768.178 596.893 768.411 597.407 768.411 598.06V617.94C768.411 618.593 768.178 619.153 767.711 619.62C767.338 619.993 766.871 620.18 766.311 620.18H741.671C741.018 620.18 740.458 620.413 739.991 620.88C739.618 621.253 739.431 621.72 739.431 622.28V630.54C739.431 631.193 739.618 631.753 739.991 632.22C740.458 632.593 741.018 632.78 741.671 632.78H773.731C774.291 632.78 774.758 633.013 775.131 633.48C775.598 633.853 775.831 634.32 775.831 634.88V654.9C775.831 655.46 775.598 655.973 775.131 656.44C774.758 656.813 774.291 657 773.731 657H717.311C716.751 657 716.238 656.813 715.771 656.44C715.398 655.973 715.211 655.46 715.211 654.9V561.1Z" fill="black"/>
<path d="M648.969 561.1C648.969 560.54 649.155 560.073 649.529 559.7C649.995 559.233 650.509 559 651.069 559H671.649C672.769 559 673.469 559.513 673.749 560.54L682.429 594.84C682.615 595.68 683.175 596.007 684.109 595.82C684.949 595.727 685.369 595.26 685.369 594.42V561.1C685.369 560.54 685.555 560.073 685.929 559.7C686.395 559.233 686.909 559 687.469 559H707.489C708.049 559 708.515 559.233 708.889 559.7C709.355 560.073 709.589 560.54 709.589 561.1V654.9C709.589 655.46 709.355 655.973 708.889 656.44C708.515 656.813 708.049 657 707.489 657H686.909C685.789 657 685.089 656.487 684.809 655.46L676.129 621.16C675.942 620.32 675.382 619.993 674.449 620.18C673.609 620.273 673.189 620.74 673.189 621.58V654.9C673.189 655.46 672.955 655.973 672.489 656.44C672.115 656.813 671.649 657 671.089 657H651.069C650.509 657 649.995 656.813 649.529 656.44C649.155 655.973 648.969 655.46 648.969 654.9V561.1Z" fill="#7B0972"/>
<path d="M614.841 632.78C615.774 632.78 616.614 632.453 617.361 631.8C618.108 631.053 618.668 629.98 619.041 628.58C619.508 627.18 619.881 625.827 620.161 624.52C620.441 623.213 620.628 621.58 620.721 619.62C620.814 617.567 620.861 616.027 620.861 615C620.861 613.88 620.861 612.433 620.861 610.66C620.861 608.887 620.861 608 620.861 608C620.861 605.48 620.861 603.567 620.861 602.26C620.861 600.953 620.768 599.18 620.581 596.94C620.488 594.607 620.301 592.787 620.021 591.48C619.834 590.173 619.508 588.82 619.041 587.42C618.668 585.927 618.108 584.853 617.361 584.2C616.614 583.547 615.728 583.22 614.701 583.22C613.768 583.22 612.928 583.547 612.181 584.2C611.528 584.853 610.968 585.927 610.501 587.42C610.034 588.82 609.661 590.173 609.381 591.48C609.194 592.787 609.054 594.607 608.961 596.94C608.868 599.18 608.774 600.953 608.681 602.26C608.681 603.567 608.681 605.48 608.681 608C608.681 608.187 608.681 608.84 608.681 609.96C608.681 611.08 608.681 612.06 608.681 612.9C608.681 613.74 608.681 614.907 608.681 616.4C608.774 617.8 608.868 619.06 608.961 620.18C609.054 621.3 609.194 622.56 609.381 623.96C609.568 625.267 609.801 626.433 610.081 627.46C610.361 628.393 610.688 629.28 611.061 630.12C611.528 630.96 612.088 631.613 612.741 632.08C613.394 632.547 614.094 632.78 614.841 632.78ZM584.461 615.84C584.461 613.88 584.461 611.267 584.461 608C584.461 604.733 584.461 602.167 584.461 600.3C584.554 598.34 584.694 595.82 584.881 592.74C585.068 589.567 585.301 587.047 585.581 585.18C585.954 583.22 586.468 580.933 587.121 578.32C587.868 575.707 588.754 573.607 589.781 572.02C590.808 570.34 592.068 568.613 593.561 566.84C595.148 564.973 596.921 563.527 598.881 562.5C600.841 561.473 603.174 560.633 605.881 559.98C608.588 559.327 611.574 559 614.841 559C618.108 559 621.048 559.327 623.661 559.98C626.368 560.633 628.701 561.473 630.661 562.5C632.621 563.527 634.348 564.973 635.841 566.84C637.428 568.613 638.734 570.34 639.761 572.02C640.788 573.607 641.628 575.707 642.281 578.32C643.028 580.933 643.588 583.22 643.961 585.18C644.334 587.047 644.614 589.567 644.801 592.74C644.988 595.82 645.081 598.34 645.081 600.3C645.081 602.167 645.081 604.733 645.081 608C645.081 611.267 645.081 613.88 645.081 615.84C645.081 617.707 644.988 620.227 644.801 623.4C644.614 626.48 644.334 629 643.961 630.96C643.588 632.827 643.028 635.067 642.281 637.68C641.628 640.293 640.788 642.44 639.761 644.12C638.734 645.707 637.428 647.433 635.841 649.3C634.348 651.073 632.621 652.473 630.661 653.5C628.701 654.527 626.368 655.367 623.661 656.02C621.048 656.673 618.108 657 614.841 657C611.574 657 608.588 656.673 605.881 656.02C603.174 655.367 600.841 654.527 598.881 653.5C596.921 652.473 595.148 651.073 593.561 649.3C592.068 647.433 590.808 645.707 589.781 644.12C588.754 642.44 587.868 640.293 587.121 637.68C586.468 635.067 585.954 632.78 585.581 630.82C585.301 628.86 585.068 626.34 584.881 623.26C584.694 620.18 584.554 617.707 584.461 615.84Z" fill="#697E00"/>
<path d="M558.076 609.96C558.076 608.84 558.076 608.187 558.076 608C558.076 607.813 558.076 607.16 558.076 606.04C558.076 604.92 558.076 603.94 558.076 603.1C558.076 602.167 558.076 601 558.076 599.6C558.076 598.2 557.982 596.94 557.796 595.82C557.702 594.7 557.562 593.487 557.376 592.18C557.189 590.78 556.956 589.613 556.676 588.68C556.396 587.653 556.022 586.72 555.556 585.88C555.182 585.04 554.669 584.387 554.016 583.92C553.456 583.453 552.802 583.22 552.056 583.22H548.136C547.482 583.22 546.922 583.453 546.456 583.92C546.082 584.293 545.896 584.76 545.896 585.32V630.54C545.896 631.193 546.082 631.753 546.456 632.22C546.922 632.593 547.482 632.78 548.136 632.78H552.056C552.802 632.78 553.456 632.547 554.016 632.08C554.669 631.613 555.182 630.96 555.556 630.12C556.022 629.28 556.396 628.393 556.676 627.46C556.956 626.433 557.189 625.267 557.376 623.96C557.562 622.56 557.702 621.3 557.796 620.18C557.889 619.06 557.936 617.8 557.936 616.4C558.029 614.907 558.076 613.74 558.076 612.9C558.076 612.06 558.076 611.08 558.076 609.96ZM521.676 561.1C521.676 560.54 521.862 560.073 522.236 559.7C522.702 559.233 523.216 559 523.776 559H553.176H553.316C557.329 559.093 560.876 559.747 563.956 560.96C567.129 562.173 569.696 563.573 571.656 565.16C573.709 566.747 575.436 569.033 576.836 572.02C578.236 574.913 579.262 577.48 579.916 579.72C580.662 581.96 581.222 585.087 581.596 589.1C581.969 593.02 582.156 596.053 582.156 598.2C582.249 600.347 582.296 603.473 582.296 607.58C582.296 607.767 582.296 607.907 582.296 608C582.296 608.093 582.296 608.187 582.296 608.28C582.296 612.387 582.249 615.56 582.156 617.8C582.156 619.947 581.969 622.98 581.596 626.9C581.222 630.82 580.662 633.947 579.916 636.28C579.262 638.52 578.236 641.133 576.836 644.12C575.436 647.013 573.709 649.253 571.656 650.84C569.696 652.427 567.129 653.827 563.956 655.04C560.876 656.253 557.329 656.907 553.316 657H553.176H523.776C523.216 657 522.702 656.813 522.236 656.44C521.862 655.973 521.676 655.46 521.676 654.9V561.1Z" fill="black"/>
<path d="M455.434 561.1C455.434 560.54 455.62 560.073 455.994 559.7C456.46 559.233 456.974 559 457.534 559H478.114C479.234 559 479.934 559.513 480.214 560.54L488.894 594.84C489.08 595.68 489.64 596.007 490.574 595.82C491.414 595.727 491.834 595.26 491.834 594.42V561.1C491.834 560.54 492.02 560.073 492.394 559.7C492.86 559.233 493.374 559 493.934 559H513.954C514.514 559 514.98 559.233 515.354 559.7C515.82 560.073 516.054 560.54 516.054 561.1V654.9C516.054 655.46 515.82 655.973 515.354 656.44C514.98 656.813 514.514 657 513.954 657H493.374C492.254 657 491.554 656.487 491.274 655.46L482.594 621.16C482.407 620.32 481.847 619.993 480.914 620.18C480.074 620.273 479.654 620.74 479.654 621.58V654.9C479.654 655.46 479.42 655.973 478.954 656.44C478.58 656.813 478.114 657 477.554 657H457.534C456.974 657 456.46 656.813 455.994 656.44C455.62 655.973 455.434 655.46 455.434 654.9V561.1Z" fill="black"/>
<path d="M425.422 561.1C425.422 560.54 425.609 560.073 425.982 559.7C426.449 559.233 426.962 559 427.522 559H447.542C448.102 559 448.569 559.233 448.942 559.7C449.409 560.073 449.642 560.54 449.642 561.1V654.9C449.642 655.46 449.409 655.973 448.942 656.44C448.569 656.813 448.102 657 447.542 657H427.522C426.962 657 426.449 656.813 425.982 656.44C425.609 655.973 425.422 655.46 425.422 654.9V561.1Z" fill="black"/>
<path d="M367.98 632.78C368.913 632.78 369.753 632.453 370.5 631.8C371.246 631.053 371.806 629.98 372.18 628.58C372.646 627.18 373.02 625.827 373.3 624.52C373.58 623.213 373.766 621.58 373.86 619.62C373.953 617.567 374 616.027 374 615C374 613.88 374 612.433 374 610.66C374 608.887 374 608 374 608C374 605.48 374 603.567 374 602.26C374 600.953 373.906 599.18 373.72 596.94C373.626 594.607 373.44 592.787 373.16 591.48C372.973 590.173 372.646 588.82 372.18 587.42C371.806 585.927 371.246 584.853 370.5 584.2C369.753 583.547 368.866 583.22 367.84 583.22C366.906 583.22 366.066 583.547 365.32 584.2C364.666 584.853 364.106 585.927 363.64 587.42C363.173 588.82 362.8 590.173 362.52 591.48C362.333 592.787 362.193 594.607 362.1 596.94C362.006 599.18 361.913 600.953 361.82 602.26C361.82 603.567 361.82 605.48 361.82 608C361.82 608.187 361.82 608.84 361.82 609.96C361.82 611.08 361.82 612.06 361.82 612.9C361.82 613.74 361.82 614.907 361.82 616.4C361.913 617.8 362.006 619.06 362.1 620.18C362.193 621.3 362.333 622.56 362.52 623.96C362.706 625.267 362.94 626.433 363.22 627.46C363.5 628.393 363.826 629.28 364.2 630.12C364.666 630.96 365.226 631.613 365.88 632.08C366.533 632.547 367.233 632.78 367.98 632.78ZM337.6 615.84C337.6 613.88 337.6 611.267 337.6 608C337.6 604.733 337.6 602.167 337.6 600.3C337.693 598.34 337.833 595.82 338.02 592.74C338.206 589.567 338.44 587.047 338.72 585.18C339.093 583.22 339.606 580.933 340.26 578.32C341.006 575.707 341.893 573.607 342.92 572.02C343.946 570.34 345.206 568.613 346.7 566.84C348.286 564.973 350.06 563.527 352.02 562.5C353.98 561.473 356.313 560.633 359.02 559.98C361.726 559.327 364.713 559 367.98 559C371.246 559 374.186 559.327 376.8 559.98C379.506 560.633 381.84 561.473 383.8 562.5C385.76 563.527 387.486 564.973 388.98 566.84C390.566 568.613 391.873 570.34 392.9 572.02C393.926 573.607 394.766 575.707 395.42 578.32C396.166 580.933 396.726 583.22 397.1 585.18C397.473 587.047 397.753 589.567 397.94 592.74C398.126 595.82 398.22 598.34 398.22 600.3C398.22 602.167 398.22 604.733 398.22 608C398.22 611.267 398.22 613.88 398.22 615.84C398.22 617.707 398.126 620.227 397.94 623.4C397.753 626.48 397.473 629 397.1 630.96C396.726 632.827 396.166 635.067 395.42 637.68C394.766 640.293 393.926 642.44 392.9 644.12C391.873 645.707 390.566 647.433 388.98 649.3C387.486 651.073 385.76 652.473 383.8 653.5C381.84 654.527 379.506 655.367 376.8 656.02C374.186 656.673 371.246 657 367.98 657C364.713 657 361.726 656.673 359.02 656.02C356.313 655.367 353.98 654.527 352.02 653.5C350.06 652.473 348.286 651.073 346.7 649.3C345.206 647.433 343.946 645.707 342.92 644.12C341.893 642.44 341.006 640.293 340.26 637.68C339.606 635.067 339.093 632.78 338.72 630.82C338.44 628.86 338.206 626.34 338.02 623.26C337.833 620.18 337.693 617.707 337.6 615.84Z" fill="black"/>
<path d="M306.976 608C307.909 608 308.749 607.907 309.496 607.72C310.242 607.44 310.802 606.973 311.176 606.32C311.642 605.667 312.016 605.107 312.296 604.64C312.576 604.173 312.762 603.427 312.856 602.4C312.949 601.373 312.996 600.673 312.996 600.3C312.996 599.833 312.996 598.993 312.996 597.78C312.996 596.567 312.996 595.867 312.996 595.68C312.996 595.4 312.996 594.7 312.996 593.58C312.996 592.367 312.996 591.527 312.996 591.06C312.996 590.593 312.949 589.847 312.856 588.82C312.762 587.793 312.576 587.047 312.296 586.58C312.016 586.113 311.642 585.6 311.176 585.04C310.802 584.387 310.242 583.92 309.496 583.64C308.749 583.36 307.909 583.22 306.976 583.22H303.056C302.402 583.22 301.842 583.453 301.376 583.92C301.002 584.293 300.816 584.76 300.816 585.32V605.9C300.816 606.46 301.002 606.973 301.376 607.44C301.842 607.813 302.402 608 303.056 608H306.976ZM276.596 561.1C276.596 560.54 276.782 560.073 277.156 559.7C277.622 559.233 278.136 559 278.696 559H306.976C312.296 559 316.962 559.98 320.976 561.94C324.989 563.9 328.116 566.653 330.356 570.2C332.689 573.653 334.416 577.527 335.536 581.82C336.656 586.02 337.216 590.64 337.216 595.68C337.216 600.627 336.656 605.247 335.536 609.54C334.416 613.74 332.689 617.613 330.356 621.16C328.116 624.613 324.989 627.32 320.976 629.28C316.962 631.24 312.296 632.22 306.976 632.22H303.056C302.402 632.22 301.842 632.453 301.376 632.92C301.002 633.293 300.816 633.76 300.816 634.32V654.9C300.816 655.46 300.582 655.973 300.116 656.44C299.742 656.813 299.276 657 298.716 657H278.696C278.136 657 277.622 656.813 277.156 656.44C276.782 655.973 276.596 655.46 276.596 654.9V561.1Z" fill="black"/>
<path d="M231.983 608.7C232.169 608.233 232.169 607.767 231.983 607.3L215.743 561.8C215.463 561.147 215.509 560.54 215.882 559.98C216.349 559.327 216.956 559 217.703 559H238.423C238.983 559 239.449 559.187 239.823 559.56C240.289 559.933 240.522 560.4 240.522 560.96L243.323 594.42C243.416 595.353 243.976 595.82 245.003 595.82C246.029 595.82 246.589 595.353 246.683 594.42L249.483 560.96C249.576 560.4 249.809 559.933 250.183 559.56C250.649 559.187 251.163 559 251.723 559H272.303C273.049 559 273.656 559.327 274.123 559.98C274.496 560.54 274.589 561.147 274.403 561.8L258.162 607.3C257.976 607.767 257.976 608.233 258.162 608.7L274.403 654.2C274.589 654.853 274.449 655.507 273.983 656.16C273.609 656.72 273.049 657 272.303 657H251.723C251.163 657 250.649 656.813 250.183 656.44C249.809 656.067 249.623 655.6 249.623 655.04L246.683 621.58C246.683 620.647 246.123 620.18 245.003 620.18C243.976 620.18 243.463 620.647 243.463 621.58L240.522 655.04C240.522 655.6 240.289 656.067 239.823 656.44C239.449 656.813 238.983 657 238.423 657H217.703C216.956 657 216.396 656.72 216.022 656.16C215.556 655.507 215.463 654.853 215.743 654.2L231.983 608.7Z" fill="black"/>
<path d="M154.637 561.1C154.637 560.54 154.823 560.073 155.197 559.7C155.663 559.233 156.177 559 156.737 559H213.157C213.717 559 214.183 559.233 214.557 559.7C215.023 560.073 215.257 560.54 215.257 561.1V581.12C215.257 581.68 215.023 582.193 214.557 582.66C214.183 583.033 213.717 583.22 213.157 583.22H181.097C180.443 583.22 179.883 583.453 179.417 583.92C179.043 584.293 178.857 584.76 178.857 585.32V593.72C178.857 594.28 179.043 594.793 179.417 595.26C179.883 595.633 180.443 595.82 181.097 595.82H205.737C206.297 595.82 206.763 596.053 207.137 596.52C207.603 596.893 207.837 597.407 207.837 598.06V617.94C207.837 618.593 207.603 619.153 207.137 619.62C206.763 619.993 206.297 620.18 205.737 620.18H181.097C180.443 620.18 179.883 620.413 179.417 620.88C179.043 621.253 178.857 621.72 178.857 622.28V630.54C178.857 631.193 179.043 631.753 179.417 632.22C179.883 632.593 180.443 632.78 181.097 632.78H213.157C213.717 632.78 214.183 633.013 214.557 633.48C215.023 633.853 215.257 634.32 215.257 634.88V654.9C215.257 655.46 215.023 655.973 214.557 656.44C214.183 656.813 213.717 657 213.157 657H156.737C156.177 657 155.663 656.813 155.197 656.44C154.823 655.973 154.637 655.46 154.637 654.9V561.1Z" fill="#B50019"/>
<path d="M929.801 421.1C929.801 420.54 929.987 420.073 930.361 419.7C930.827 419.233 931.341 419 931.901 419H988.321C988.881 419 989.347 419.233 989.721 419.7C990.187 420.073 990.421 420.54 990.421 421.1V441.12C990.421 441.68 990.187 442.193 989.721 442.66C989.347 443.033 988.881 443.22 988.321 443.22H956.261C955.607 443.22 955.047 443.453 954.581 443.92C954.207 444.293 954.021 444.76 954.021 445.32V453.72C954.021 454.28 954.207 454.793 954.581 455.26C955.047 455.633 955.607 455.82 956.261 455.82H980.901C981.461 455.82 981.927 456.053 982.301 456.52C982.767 456.893 983.001 457.407 983.001 458.06V477.94C983.001 478.593 982.767 479.153 982.301 479.62C981.927 479.993 981.461 480.18 980.901 480.18H956.261C955.607 480.18 955.047 480.413 954.581 480.88C954.207 481.253 954.021 481.72 954.021 482.28V490.54C954.021 491.193 954.207 491.753 954.581 492.22C955.047 492.593 955.607 492.78 956.261 492.78H988.321C988.881 492.78 989.347 493.013 989.721 493.48C990.187 493.853 990.421 494.32 990.421 494.88V514.9C990.421 515.46 990.187 515.973 989.721 516.44C989.347 516.813 988.881 517 988.321 517H931.901C931.341 517 930.827 516.813 930.361 516.44C929.987 515.973 929.801 515.46 929.801 514.9V421.1Z" fill="black"/>
<path d="M899.789 421.1C899.789 420.54 899.976 420.073 900.349 419.7C900.816 419.233 901.329 419 901.889 419H921.909C922.469 419 922.936 419.233 923.309 419.7C923.776 420.073 924.009 420.54 924.009 421.1V514.9C924.009 515.46 923.776 515.973 923.309 516.44C922.936 516.813 922.469 517 921.909 517H901.889C901.329 517 900.816 516.813 900.349 516.44C899.976 515.973 899.789 515.46 899.789 514.9V421.1Z" fill="black"/>
<path d="M866.251 468C867.184 468 868.024 467.907 868.771 467.72C869.518 467.44 870.078 466.973 870.451 466.32C870.918 465.667 871.291 465.107 871.571 464.64C871.851 464.173 872.038 463.427 872.131 462.4C872.224 461.373 872.271 460.673 872.271 460.3C872.271 459.833 872.271 458.993 872.271 457.78C872.271 456.567 872.271 455.867 872.271 455.68C872.271 455.4 872.271 454.7 872.271 453.58C872.271 452.367 872.271 451.527 872.271 451.06C872.271 450.593 872.224 449.847 872.131 448.82C872.038 447.793 871.851 447.047 871.571 446.58C871.291 446.113 870.918 445.6 870.451 445.04C870.078 444.387 869.518 443.92 868.771 443.64C868.024 443.36 867.184 443.22 866.251 443.22H862.331C861.678 443.22 861.118 443.453 860.651 443.92C860.278 444.293 860.091 444.76 860.091 445.32V465.9C860.091 466.46 860.278 466.973 860.651 467.44C861.118 467.813 861.678 468 862.331 468H866.251ZM864.431 493.76C864.058 492.733 863.358 492.22 862.331 492.22C861.678 492.22 861.118 492.453 860.651 492.92C860.278 493.293 860.091 493.76 860.091 494.32V514.9C860.091 515.46 859.858 515.973 859.391 516.44C859.018 516.813 858.551 517 857.991 517H837.971C837.411 517 836.898 516.813 836.431 516.44C836.058 515.973 835.871 515.46 835.871 514.9V421.1C835.871 420.54 836.058 420.073 836.431 419.7C836.898 419.233 837.411 419 837.971 419H866.251C871.571 419 876.238 419.98 880.251 421.94C884.264 423.9 887.391 426.653 889.631 430.2C891.964 433.653 893.691 437.527 894.811 441.82C895.931 446.02 896.491 450.64 896.491 455.68C896.491 468.093 893.411 477.567 887.251 484.1C886.691 484.66 886.551 485.36 886.831 486.2L895.651 514.2C895.838 514.947 895.698 515.6 895.231 516.16C894.858 516.72 894.298 517 893.551 517H873.251C872.224 517 871.571 516.487 871.291 515.46L864.431 493.76Z" fill="#B50019"/>
<path d="M771.406 421.1C771.406 420.54 771.593 420.073 771.966 419.7C772.433 419.233 772.946 419 773.506 419H829.926C830.486 419 830.953 419.233 831.326 419.7C831.793 420.073 832.026 420.54 832.026 421.1V441.12C832.026 441.68 831.793 442.193 831.326 442.66C830.953 443.033 830.486 443.22 829.926 443.22H797.866C797.213 443.22 796.653 443.453 796.186 443.92C795.813 444.293 795.626 444.76 795.626 445.32V453.72C795.626 454.28 795.813 454.793 796.186 455.26C796.653 455.633 797.213 455.82 797.866 455.82H822.506C823.066 455.82 823.533 456.053 823.906 456.52C824.373 456.893 824.606 457.407 824.606 458.06V477.94C824.606 478.593 824.373 479.153 823.906 479.62C823.533 479.993 823.066 480.18 822.506 480.18H797.866C797.213 480.18 796.653 480.413 796.186 480.88C795.813 481.253 795.626 481.72 795.626 482.28V490.54C795.626 491.193 795.813 491.753 796.186 492.22C796.653 492.593 797.213 492.78 797.866 492.78H829.926C830.486 492.78 830.953 493.013 831.326 493.48C831.793 493.853 832.026 494.32 832.026 494.88V514.9C832.026 515.46 831.793 515.973 831.326 516.44C830.953 516.813 830.486 517 829.926 517H773.506C772.946 517 772.433 516.813 771.966 516.44C771.593 515.973 771.406 515.46 771.406 514.9V421.1Z" fill="black"/>
<path d="M707.289 490.4C707.289 489.28 707.802 488.58 708.829 488.3L728.849 481.86C729.502 481.58 730.109 481.673 730.669 482.14C731.322 482.513 731.649 483.027 731.649 483.68L731.789 486.34V486.48C731.882 488.44 732.489 489.98 733.609 491.1C734.729 492.22 736.176 492.78 737.949 492.78C739.722 492.78 741.169 492.22 742.289 491.1C743.409 489.98 743.969 488.393 743.969 486.34C743.969 484.753 743.456 483.353 742.429 482.14C741.402 480.927 740.002 479.993 738.229 479.34C736.549 478.593 734.589 477.8 732.349 476.96C730.202 476.12 727.962 475.327 725.629 474.58C723.296 473.833 721.009 472.76 718.769 471.36C716.622 469.96 714.709 468.42 713.029 466.74C711.349 464.967 709.949 462.633 708.829 459.74C707.802 456.847 707.289 453.533 707.289 449.8C707.289 440 710.089 432.44 715.689 427.12C721.382 421.707 728.709 419 737.669 419C746.162 419 753.256 421.38 758.949 426.14C764.736 430.807 767.816 437.293 768.189 445.6C768.282 446.627 767.816 447.327 766.789 447.7L746.629 454.14C745.976 454.42 745.322 454.373 744.669 454C744.109 453.533 743.829 452.973 743.829 452.32L743.689 449.66V449.52C743.689 447.56 743.129 446.02 742.009 444.9C740.889 443.78 739.442 443.22 737.669 443.22C735.896 443.22 734.402 443.78 733.189 444.9C732.069 446.02 731.509 447.607 731.509 449.66C731.509 451.433 732.162 452.973 733.469 454.28C734.869 455.587 736.642 456.66 738.789 457.5C741.029 458.34 743.409 459.18 745.929 460.02C748.542 460.86 751.156 461.933 753.769 463.24C756.382 464.453 758.762 465.993 760.909 467.86C763.149 469.633 764.922 472.107 766.229 475.28C767.536 478.36 768.189 482 768.189 486.2C768.189 496 765.342 503.607 759.649 509.02C754.049 514.34 746.816 517 737.949 517C729.362 517 722.176 514.667 716.389 510C710.696 505.24 707.662 498.707 707.289 490.4Z" fill="black"/>
<path d="M645.695 490.4C645.695 489.28 646.209 488.58 647.235 488.3L667.255 481.86C667.909 481.58 668.515 481.673 669.075 482.14C669.729 482.513 670.055 483.027 670.055 483.68L670.195 486.34V486.48C670.289 488.44 670.895 489.98 672.015 491.1C673.135 492.22 674.582 492.78 676.355 492.78C678.129 492.78 679.575 492.22 680.695 491.1C681.815 489.98 682.375 488.393 682.375 486.34C682.375 484.753 681.862 483.353 680.835 482.14C679.809 480.927 678.409 479.993 676.635 479.34C674.955 478.593 672.995 477.8 670.755 476.96C668.609 476.12 666.369 475.327 664.035 474.58C661.702 473.833 659.415 472.76 657.175 471.36C655.029 469.96 653.115 468.42 651.435 466.74C649.755 464.967 648.355 462.633 647.235 459.74C646.209 456.847 645.695 453.533 645.695 449.8C645.695 440 648.495 432.44 654.095 427.12C659.789 421.707 667.115 419 676.075 419C684.569 419 691.662 421.38 697.355 426.14C703.142 430.807 706.222 437.293 706.595 445.6C706.689 446.627 706.222 447.327 705.195 447.7L685.035 454.14C684.382 454.42 683.729 454.373 683.075 454C682.515 453.533 682.235 452.973 682.235 452.32L682.095 449.66V449.52C682.095 447.56 681.535 446.02 680.415 444.9C679.295 443.78 677.849 443.22 676.075 443.22C674.302 443.22 672.809 443.78 671.595 444.9C670.475 446.02 669.915 447.607 669.915 449.66C669.915 451.433 670.569 452.973 671.875 454.28C673.275 455.587 675.049 456.66 677.195 457.5C679.435 458.34 681.815 459.18 684.335 460.02C686.949 460.86 689.562 461.933 692.175 463.24C694.789 464.453 697.169 465.993 699.315 467.86C701.555 469.633 703.329 472.107 704.635 475.28C705.942 478.36 706.595 482 706.595 486.2C706.595 496 703.749 503.607 698.055 509.02C692.455 514.34 685.222 517 676.355 517C667.769 517 660.582 514.667 654.795 510C649.102 505.24 646.069 498.707 645.695 490.4Z" fill="#7B0972"/>
<path d="M617.237 444.76C617.144 443.733 616.537 443.22 615.417 443.22C614.39 443.22 613.877 443.733 613.877 444.76L611.777 477.8C611.684 478.453 611.87 479.013 612.337 479.48C612.804 479.947 613.317 480.18 613.877 480.18H617.237C617.797 480.18 618.264 479.947 618.637 479.48C619.104 479.013 619.337 478.453 619.337 477.8L617.237 444.76ZM645.657 514.62C645.657 515.273 645.47 515.833 645.097 516.3C644.63 516.767 644.117 517 643.557 517H623.817C623.257 517 622.744 516.813 622.277 516.44C621.904 516.067 621.717 515.6 621.717 515.04L621.157 506.36C621.157 505.8 620.924 505.333 620.457 504.96C620.084 504.587 619.617 504.4 619.057 504.4H612.057C611.497 504.4 610.984 504.587 610.517 504.96C610.144 505.333 609.957 505.8 609.957 506.36L609.397 515.04C609.397 515.6 609.164 516.067 608.697 516.44C608.324 516.813 607.857 517 607.297 517H587.557C586.904 517 586.39 516.767 586.017 516.3C585.644 515.833 585.457 515.273 585.457 514.62L595.817 420.96C596.004 419.653 596.75 419 598.057 419H633.057C633.617 419 634.084 419.187 634.457 419.56C634.924 419.933 635.157 420.4 635.157 420.96L645.657 514.62Z" fill="black"/>
<path d="M554.997 468C555.93 468 556.771 467.907 557.517 467.72C558.264 467.44 558.824 466.973 559.197 466.32C559.664 465.667 560.037 465.107 560.317 464.64C560.597 464.173 560.784 463.427 560.877 462.4C560.971 461.373 561.017 460.673 561.017 460.3C561.017 459.833 561.017 458.993 561.017 457.78C561.017 456.567 561.017 455.867 561.017 455.68C561.017 455.4 561.017 454.7 561.017 453.58C561.017 452.367 561.017 451.527 561.017 451.06C561.017 450.593 560.971 449.847 560.877 448.82C560.784 447.793 560.597 447.047 560.317 446.58C560.037 446.113 559.664 445.6 559.197 445.04C558.824 444.387 558.264 443.92 557.517 443.64C556.771 443.36 555.93 443.22 554.997 443.22H551.077C550.424 443.22 549.864 443.453 549.397 443.92C549.024 444.293 548.837 444.76 548.837 445.32V465.9C548.837 466.46 549.024 466.973 549.397 467.44C549.864 467.813 550.424 468 551.077 468H554.997ZM553.177 493.76C552.804 492.733 552.104 492.22 551.077 492.22C550.424 492.22 549.864 492.453 549.397 492.92C549.024 493.293 548.837 493.76 548.837 494.32V514.9C548.837 515.46 548.604 515.973 548.137 516.44C547.764 516.813 547.297 517 546.737 517H526.717C526.157 517 525.644 516.813 525.177 516.44C524.804 515.973 524.617 515.46 524.617 514.9V421.1C524.617 420.54 524.804 420.073 525.177 419.7C525.644 419.233 526.157 419 526.717 419H554.997C560.317 419 564.984 419.98 568.997 421.94C573.01 423.9 576.137 426.653 578.377 430.2C580.71 433.653 582.437 437.527 583.557 441.82C584.677 446.02 585.237 450.64 585.237 455.68C585.237 468.093 582.157 477.567 575.997 484.1C575.437 484.66 575.297 485.36 575.577 486.2L584.397 514.2C584.584 514.947 584.444 515.6 583.977 516.16C583.604 516.72 583.044 517 582.297 517H561.997C560.97 517 560.317 516.487 560.037 515.46L553.177 493.76Z" fill="black"/>
<path d="M496.55 452.74V449.38C496.55 447.7 495.944 446.253 494.73 445.04C493.517 443.827 492.07 443.22 490.39 443.22H486.47C485.91 443.22 485.397 443.453 484.93 443.92C484.557 444.293 484.37 444.76 484.37 445.32V456.66C484.37 457.313 484.557 457.827 484.93 458.2C485.397 458.573 485.91 458.76 486.47 458.76H490.53C492.117 458.76 493.517 458.2 494.73 457.08C495.944 455.867 496.55 454.42 496.55 452.74ZM484.37 490.54C484.37 491.193 484.557 491.753 484.93 492.22C485.397 492.593 485.91 492.78 486.47 492.78H490.39C492.07 492.78 493.517 492.173 494.73 490.96C495.944 489.747 496.55 488.3 496.55 486.62V483.26C496.55 481.58 495.944 480.133 494.73 478.92C493.517 477.707 492.07 477.1 490.39 477.1H486.47C485.91 477.1 485.397 477.333 484.93 477.8C484.557 478.173 484.37 478.687 484.37 479.34V490.54ZM460.15 514.9V421.1C460.15 420.54 460.337 420.073 460.71 419.7C461.177 419.233 461.69 419 462.25 419H491.65C499.864 419 506.77 421.567 512.37 426.7C517.97 431.74 520.77 438.227 520.77 446.16C520.77 447.933 520.724 449.52 520.63 450.92C520.537 452.32 520.164 454.093 519.51 456.24C518.857 458.293 517.97 460.02 516.85 461.42C515.73 462.82 514.05 464.033 511.81 465.06C509.57 466.087 506.91 466.6 503.83 466.6C502.804 466.6 502.29 467.067 502.29 468C502.29 468.933 502.804 469.4 503.83 469.4C506.91 469.4 509.57 469.913 511.81 470.94C514.05 471.967 515.73 473.18 516.85 474.58C517.97 475.98 518.857 477.753 519.51 479.9C520.164 481.953 520.537 483.68 520.63 485.08C520.724 486.48 520.77 488.067 520.77 489.84C520.77 497.773 517.97 504.307 512.37 509.44C506.77 514.48 499.864 517 491.65 517H462.25C461.69 517 461.177 516.813 460.71 516.44C460.337 515.973 460.15 515.46 460.15 514.9Z" fill="black"/>
<path d="M391.802 492.78V492.64H395.722C396.375 492.64 396.889 492.453 397.262 492.08C397.729 491.613 397.962 491.053 397.962 490.4V479.34C397.962 478.78 397.729 478.267 397.262 477.8C396.889 477.333 396.375 477.1 395.722 477.1H391.802C390.309 477.1 389.002 477.94 387.882 479.62C386.762 481.207 386.062 482.98 385.782 484.94C385.502 486.9 385.875 488.72 386.902 490.4C387.929 491.987 389.562 492.78 391.802 492.78ZM391.802 419H419.942C420.595 419 421.109 419.233 421.482 419.7C421.949 420.073 422.182 420.587 422.182 421.24V440.98C422.182 441.633 421.949 442.193 421.482 442.66C421.109 443.033 420.595 443.22 419.942 443.22H391.802C389.562 443.22 387.929 444.06 386.902 445.74C385.875 447.327 385.502 449.1 385.782 451.06C386.062 452.927 386.762 454.7 387.882 456.38C389.002 457.967 390.309 458.76 391.802 458.76H429.882C430.535 458.76 431.049 458.993 431.422 459.46C431.889 459.927 432.122 460.44 432.122 461V475C432.122 475.56 431.889 476.073 431.422 476.54C431.049 476.913 430.535 477.1 429.882 477.1H424.422C423.862 477.1 423.349 477.333 422.882 477.8C422.415 478.267 422.182 478.78 422.182 479.34V490.4C422.182 490.96 422.415 491.473 422.882 491.94C423.349 492.407 423.862 492.64 424.422 492.64H429.882C430.535 492.64 431.049 492.873 431.422 493.34C431.889 493.713 432.122 494.227 432.122 494.88V514.62C432.122 515.273 431.889 515.833 431.422 516.3C431.049 516.673 430.535 516.86 429.882 516.86C425.682 516.86 419.335 516.907 410.842 517C402.349 517 396.002 517 391.802 517C380.975 517 372.622 512.94 366.742 504.82C362.075 498.287 360.395 491.427 361.702 484.24C363.009 477.24 366.835 472.667 373.182 470.52C375.329 469.773 377.709 469.4 380.322 469.4C380.882 469.4 381.162 468.933 381.162 468C381.162 467.067 380.882 466.6 380.322 466.6C371.829 466.6 366.042 463.147 362.962 456.24C360.162 449.987 360.395 443.267 363.662 436.08C367.302 428.147 373.369 422.92 381.862 420.4C384.942 419.467 388.255 419 391.802 419Z" fill="black"/>
<path d="M274.203 421.1C274.203 420.54 274.39 420.073 274.763 419.7C275.23 419.233 275.743 419 276.303 419H332.723C333.283 419 333.75 419.233 334.123 419.7C334.59 420.073 334.823 420.54 334.823 421.1V441.12C334.823 441.68 334.59 442.193 334.123 442.66C333.75 443.033 333.283 443.22 332.723 443.22H300.663C300.01 443.22 299.45 443.453 298.983 443.92C298.61 444.293 298.423 444.76 298.423 445.32V453.72C298.423 454.28 298.61 454.793 298.983 455.26C299.45 455.633 300.01 455.82 300.663 455.82H325.303C325.863 455.82 326.33 456.053 326.703 456.52C327.17 456.893 327.403 457.407 327.403 458.06V477.94C327.403 478.593 327.17 479.153 326.703 479.62C326.33 479.993 325.863 480.18 325.303 480.18H300.663C300.01 480.18 299.45 480.413 298.983 480.88C298.61 481.253 298.423 481.72 298.423 482.28V490.54C298.423 491.193 298.61 491.753 298.983 492.22C299.45 492.593 300.01 492.78 300.663 492.78H332.723C333.283 492.78 333.75 493.013 334.123 493.48C334.59 493.853 334.823 494.32 334.823 494.88V514.9C334.823 515.46 334.59 515.973 334.123 516.44C333.75 516.813 333.283 517 332.723 517H276.303C275.743 517 275.23 516.813 274.763 516.44C274.39 515.973 274.203 515.46 274.203 514.9V421.1Z" fill="#697E00"/>
<path d="M211.924 421.1C211.924 420.54 212.11 420.073 212.484 419.7C212.95 419.233 213.464 419 214.024 419H270.444C271.004 419 271.471 419.233 271.844 419.7C272.311 420.073 272.544 420.54 272.544 421.1V441.12C272.544 441.68 272.311 442.193 271.844 442.66C271.471 443.033 271.004 443.22 270.444 443.22H238.244C237.684 443.22 237.17 443.453 236.704 443.92C236.33 444.293 236.144 444.76 236.144 445.32V453.72C236.144 454.28 236.33 454.793 236.704 455.26C237.17 455.633 237.684 455.82 238.244 455.82H263.024C263.584 455.82 264.05 456.053 264.424 456.52C264.89 456.893 265.124 457.407 265.124 458.06V477.94C265.124 478.593 264.89 479.153 264.424 479.62C264.05 479.993 263.584 480.18 263.024 480.18H238.244C237.684 480.18 237.17 480.413 236.704 480.88C236.33 481.253 236.144 481.72 236.144 482.28V514.9C236.144 515.46 235.91 515.973 235.444 516.44C235.07 516.813 234.604 517 234.044 517H214.024C213.464 517 212.95 516.813 212.484 516.44C212.11 515.973 211.924 515.46 211.924 514.9V421.1Z" fill="black"/>
<path d="M180.944 444.76C180.851 443.733 180.244 443.22 179.124 443.22C178.097 443.22 177.584 443.733 177.584 444.76L175.484 477.8C175.391 478.453 175.577 479.013 176.044 479.48C176.511 479.947 177.024 480.18 177.584 480.18H180.944C181.504 480.18 181.971 479.947 182.344 479.48C182.811 479.013 183.044 478.453 183.044 477.8L180.944 444.76ZM209.364 514.62C209.364 515.273 209.177 515.833 208.804 516.3C208.337 516.767 207.824 517 207.264 517H187.524C186.964 517 186.451 516.813 185.984 516.44C185.611 516.067 185.424 515.6 185.424 515.04L184.864 506.36C184.864 505.8 184.631 505.333 184.164 504.96C183.791 504.587 183.324 504.4 182.764 504.4H175.764C175.204 504.4 174.691 504.587 174.224 504.96C173.851 505.333 173.664 505.8 173.664 506.36L173.104 515.04C173.104 515.6 172.871 516.067 172.404 516.44C172.031 516.813 171.564 517 171.004 517H151.264C150.611 517 150.097 516.767 149.724 516.3C149.351 515.833 149.164 515.273 149.164 514.62L159.524 420.96C159.711 419.653 160.457 419 161.764 419H196.764C197.324 419 197.791 419.187 198.164 419.56C198.631 419.933 198.864 420.4 198.864 420.96L209.364 514.62Z" fill="#520000"/>
<path d="M89.5137 468.42C89.5137 468.233 89.5137 468.093 89.5137 468C89.5137 467.907 89.5137 467.767 89.5137 467.58C89.5137 463.473 89.5137 460.3 89.5137 458.06C89.607 455.82 89.8403 452.74 90.2137 448.82C90.587 444.807 91.147 441.68 91.8937 439.44C92.6403 437.107 93.7137 434.493 95.1137 431.6C96.607 428.613 98.3803 426.327 100.434 424.74C102.58 423.153 105.287 421.8 108.554 420.68C111.82 419.56 115.554 419 119.754 419C125.074 419 129.6 419.793 133.334 421.38C137.16 422.967 140.147 425.253 142.294 428.24C144.44 431.227 146.074 434.4 147.194 437.76C148.314 441.027 149.107 444.853 149.574 449.24C149.667 450.453 149.154 451.247 148.034 451.62L128.434 457.92C127.78 458.2 127.174 458.153 126.614 457.78C126.054 457.313 125.727 456.753 125.634 456.1C125.074 447.513 123.114 443.22 119.754 443.22C118.82 443.22 117.98 443.547 117.234 444.2C116.487 444.853 115.88 445.927 115.414 447.42C115.04 448.82 114.714 450.173 114.434 451.48C114.247 452.787 114.107 454.607 114.014 456.94C113.92 459.18 113.827 460.953 113.734 462.26C113.734 463.567 113.734 465.48 113.734 468C113.734 470.52 113.734 472.433 113.734 473.74C113.827 474.953 113.92 476.727 114.014 479.06C114.107 481.393 114.247 483.213 114.434 484.52C114.714 485.827 115.04 487.227 115.414 488.72C115.88 490.12 116.487 491.147 117.234 491.8C117.98 492.453 118.82 492.78 119.754 492.78C123.114 492.78 125.074 488.487 125.634 479.9C125.727 479.247 126.054 478.733 126.614 478.36C127.174 477.893 127.78 477.8 128.434 478.08L148.034 484.52C149.154 484.8 149.667 485.547 149.574 486.76C149.107 491.147 148.314 495.02 147.194 498.38C146.074 501.647 144.44 504.773 142.294 507.76C140.147 510.747 137.16 513.033 133.334 514.62C129.6 516.207 125.12 517 119.894 517C115.694 517 111.914 516.44 108.554 515.32C105.287 514.2 102.58 512.847 100.434 511.26C98.3803 509.673 96.607 507.433 95.1137 504.54C93.7137 501.553 92.6403 498.94 91.8937 496.7C91.147 494.367 90.587 491.24 90.2137 487.32C89.8403 483.307 89.607 480.18 89.5137 477.94C89.5137 475.7 89.5137 472.527 89.5137 468.42Z" fill="black"/>
</svg>
