<svg width="1080" height="1080" viewBox="0 0 1080 1080" fill="none" xmlns="http://www.w3.org/2000/svg">
<rect width="1080" height="1080" fill="#B50019"/>
<path d="M843.978 733.991L842.281 728.634H824.144L822.447 733.991H805.901L821.97 689.444H844.455L860.577 733.991H843.978ZM827.909 716.809H838.516L834.591 704.505H831.834L827.909 716.809Z" fill="white"/>
<path d="M787.979 733.991V689.444H803.994V733.991H787.979Z" fill="white"/>
<path d="M762.065 735.475C746.102 735.422 738.837 730.65 739.314 718.718H753.686C753.792 721.369 756.019 722.907 762.065 723.013C767.262 723.066 769.489 721.687 769.489 720.096C769.489 719.248 769.277 717.763 765.246 717.233L759.413 716.331C751.034 715.005 740.322 714.422 740.322 702.437C740.322 693.475 747.481 687.96 762.224 687.96C775.375 687.96 784.55 691.353 784.179 704.611H769.86C769.383 702.013 767.102 700.422 761.852 700.422C757.345 700.422 755.701 701.695 755.701 703.286C755.701 704.028 756.072 705.513 759.095 705.99L763.762 706.733C772.724 708.217 785.451 708.058 785.451 720.786C785.451 730.756 777.815 735.529 762.065 735.475Z" fill="white"/>
<path d="M695.816 733.991V689.444H736.809V702.225H711.831V706.573H735.855V716.862H711.831V721.157H736.809V733.991H695.816Z" fill="white"/>
<path d="M644.048 733.991V689.444H662.397L675.231 711.558H676.716V689.444H692.36V733.991H674.382L661.125 711.877H659.693V733.991H644.048Z" fill="white"/>
<path d="M615.822 735.475C600.284 735.475 590.367 726.089 590.367 711.717C590.367 697.346 600.284 687.96 615.822 687.96C631.413 687.96 641.33 697.346 641.33 711.717C641.33 726.089 631.413 735.475 615.822 735.475ZM615.822 721.634C620.966 721.634 625.367 718.187 625.367 711.717C625.367 705.248 620.966 701.801 615.822 701.801C610.731 701.801 606.276 705.248 606.276 711.717C606.276 718.187 610.731 721.634 615.822 721.634Z" fill="white"/>
<path d="M563.529 689.444C581.931 689.444 588.241 698.831 588.241 711.717C588.241 724.551 581.931 733.991 563.529 733.991H540.513V689.444H563.529ZM563.529 720.574C568.249 720.574 572.12 718.346 572.12 711.717C572.12 705.036 568.249 702.861 563.529 702.861H556.635L556.582 720.574H563.529Z" fill="white"/>
<path d="M488.746 733.991V689.444H507.095L519.928 711.558H521.413V689.444H537.057V733.991H519.08L505.822 711.877H504.39V733.991H488.746Z" fill="white"/>
<path d="M469.232 733.991V689.444H485.247V733.991H469.232Z" fill="white"/>
<path d="M637.449 671.475C621.91 671.475 611.994 662.089 611.994 647.717C611.994 633.346 621.91 623.96 637.449 623.96C653.04 623.96 662.957 633.346 662.957 647.717C662.957 662.089 653.04 671.475 637.449 671.475ZM637.449 657.634C642.593 657.634 646.994 654.187 646.994 647.717C646.994 641.248 642.593 637.801 637.449 637.801C632.358 637.801 627.903 641.248 627.903 647.717C627.903 654.187 632.358 657.634 637.449 657.634Z" fill="white"/>
<path d="M564.191 669.991V625.444H590.123C602.373 625.444 609.851 630.747 609.851 643.21C609.851 655.619 602.373 660.922 590.176 660.922H580.206V669.991H564.191ZM580.206 647.611H588.691C591.661 647.611 593.623 646.127 593.623 643.21C593.623 640.24 591.661 638.755 588.744 638.755H580.206V647.611Z" fill="white"/>
<path d="M511.819 669.991L527.092 647.771V646.975L512.244 625.444H529.426L536.426 636.475H537.964L544.911 625.444H562.146L547.403 646.975V647.771L562.517 669.991H545.123L537.964 658.324H536.426L529.267 669.991H511.819Z" fill="white"/>
<path d="M469.232 669.991V625.444H510.225V638.225H485.247V642.573H509.271V652.862H485.247V657.157H510.225V669.991H469.232Z" fill="white"/>
<path d="M805.008 561.444V574.808H789.205V605.991H773.136V574.808H757.386V561.444H805.008Z" fill="white"/>
<path d="M748.211 605.991L746.514 600.634H728.377L726.68 605.991H710.135L726.203 561.444H748.688L764.81 605.991H748.211ZM732.142 588.808H742.749L738.824 576.505H736.067L732.142 588.808Z" fill="white"/>
<path d="M669.528 605.991V561.444H685.544V592.627H708.665V605.991H669.528Z" fill="white"/>
<path d="M625.032 605.991V561.444H666.025V574.225H641.047V578.573H665.07V588.861H641.047V593.157H666.025V605.991H625.032Z" fill="white"/>
<path d="M623.85 605.991H607.517L596.486 590.983H595.479L589.91 596.975V605.991H573.948V561.444H589.91V577.884H590.971L605.608 561.444H623.426L605.448 581.278L623.85 605.991Z" fill="white"/>
<path d="M545.721 607.475C530.183 607.475 520.266 598.089 520.266 583.717C520.266 569.346 530.183 559.959 545.721 559.959C561.312 559.959 571.229 569.346 571.229 583.717C571.229 598.089 561.312 607.475 545.721 607.475ZM545.721 593.634C550.865 593.634 555.267 590.187 555.267 583.717C555.267 577.248 550.865 573.801 545.721 573.801C540.63 573.801 536.176 577.248 536.176 583.717C536.176 590.187 540.63 593.634 545.721 593.634Z" fill="white"/>
<path d="M493.679 607.475C478.459 607.475 468.436 598.089 468.436 583.717C468.436 569.346 478.459 559.959 493.679 559.959C504.869 559.959 516.43 564.891 517.649 580.589H502.376C501.369 575.975 498.24 573.801 493.679 573.801C488.535 573.801 484.346 577.566 484.346 583.717C484.346 589.816 488.535 593.634 493.679 593.634C498.24 593.634 501.369 591.46 502.376 586.74H517.649C516.43 602.544 505.028 607.475 493.679 607.475Z" fill="white"/>
<path d="M637.404 442.602C642.325 442.602 646.293 446.727 645.532 451.59C639.382 490.843 605.438 521.807 562.683 526.982C557.833 527.568 553.77 523.622 553.77 518.736V451.231C553.77 446.465 557.633 442.602 562.399 442.602H637.404Z" fill="white"/>
<path d="M545.141 518.601C545.141 523.521 541.023 527.48 536.145 526.834C489.392 520.642 453.46 483.569 453.46 438.759C453.46 393.949 489.392 356.876 536.145 350.684C541.023 350.038 545.141 353.997 545.141 358.917V518.601Z" fill="white"/>
<path d="M553.77 358.782C553.77 353.897 557.833 349.95 562.683 350.537C605.061 355.665 638.784 386.132 645.363 424.894C646.193 429.784 642.212 433.973 637.252 433.973H562.399C557.633 433.973 553.77 430.11 553.77 425.344V358.782Z" fill="white"/>
<path d="M821.263 359.55C821.263 354.785 825.126 350.921 829.892 350.921H891.372C896.138 350.921 900.001 354.785 900.001 359.55V519.183C900.001 523.949 896.138 527.812 891.372 527.812H829.892C825.126 527.812 821.263 523.949 821.263 519.183V359.55Z" fill="white"/>
<path d="M653.003 359.551C653.003 354.785 656.866 350.922 661.632 350.922H792.142C796.908 350.922 800.771 354.785 800.771 359.551V389.751C800.771 394.517 796.908 398.38 792.142 398.38H661.632C656.866 398.38 653.003 394.517 653.003 389.751V359.551Z" fill="white"/>
<path d="M653.003 484.668C653.003 479.902 656.866 476.039 661.632 476.039H792.142C796.908 476.039 800.771 479.902 800.771 484.668V514.869C800.771 519.634 796.908 523.498 792.142 523.498H661.632C656.866 523.498 653.003 519.634 653.003 514.869V484.668Z" fill="white"/>
<path d="M653.003 422.109C653.003 417.344 656.866 413.48 661.632 413.48H729.583C734.349 413.48 738.212 417.344 738.212 422.109V452.31C738.212 457.076 734.349 460.939 729.583 460.939H661.632C656.866 460.939 653.003 457.076 653.003 452.31V422.109Z" fill="white"/>
<path d="M221.019 427.49C221.019 424.793 226.304 424.47 232.345 427.49C232.353 427.498 248.885 443.131 253.378 449.061V496.52L250.681 499.217H243.29L302.487 525.165V509.464C302.487 506.767 307.772 506.444 313.812 509.464C313.839 509.489 330.355 525.108 334.846 531.035V539.35L356.478 548.833H384.461V509.464C384.461 506.767 389.746 506.444 395.786 509.464C395.786 509.464 412.325 525.103 416.819 531.035V578.494L416.787 578.526V699.309C416.787 718.371 401.334 733.824 382.271 733.824H215.089C196.026 733.824 180.573 718.371 180.573 699.309V556.384L180.572 556.383C180.023 555.285 179.624 553.357 180.573 551.629V474.41L180.572 474.409C179.673 472.612 179.17 468.584 184.347 466.858H221.019V427.49ZM302.487 427.49C302.487 424.793 307.772 424.47 313.812 427.49C313.864 427.539 330.358 443.138 334.846 449.061V496.52L332.148 499.217H286.847L262.04 474.409C261.141 472.612 260.637 468.584 265.814 466.858H302.487V427.49ZM384.461 427.49C384.461 424.793 389.746 424.47 395.786 427.49C395.811 427.513 412.328 443.134 416.819 449.061V496.52L414.123 499.217H368.821L344.014 474.409C343.115 472.612 342.612 468.584 347.789 466.858H384.461V427.49ZM221.019 347.145C221.019 344.449 226.305 344.125 232.345 347.145C232.345 347.145 248.884 362.785 253.378 368.718V416.176L250.68 418.872H205.38L180.572 394.064C179.673 392.267 179.17 388.241 184.347 386.515H221.019V347.145ZM302.487 347.145C302.487 344.449 307.772 344.125 313.812 347.145C313.812 347.145 330.351 362.785 334.846 368.718V416.176L332.148 418.872H286.847L262.04 394.064C261.141 392.267 260.637 388.241 265.814 386.515H302.487V347.145ZM384.461 347.145C384.461 344.449 389.746 344.126 395.786 347.145C395.786 347.145 412.325 362.785 416.819 368.718V416.176L414.123 418.872H368.821L344.014 394.064C343.115 392.267 342.612 388.24 347.789 386.515H384.461V347.145Z" fill="white"/>
</svg>
