<svg width="1080" height="1080" viewBox="0 0 1080 1080" fill="none" xmlns="http://www.w3.org/2000/svg">
<rect width="1080" height="1080" fill="#09090B"/>
<path d="M706.135 724.4C695.735 724.4 686.202 721.934 677.535 717C669.002 712.067 662.202 705.334 657.135 696.8C652.069 688.267 649.535 678.6 649.535 667.8C649.535 656.867 652.069 647.2 657.135 638.8C662.202 630.267 669.002 623.6 677.535 618.8C686.068 613.867 695.602 611.4 706.135 611.4C716.802 611.4 726.335 613.867 734.735 618.8C743.269 623.6 750.002 630.267 754.935 638.8C760.002 647.2 762.535 656.867 762.535 667.8C762.535 678.734 760.002 688.467 754.935 697C749.869 705.534 743.068 712.267 734.535 717.2C726.002 722 716.535 724.4 706.135 724.4ZM706.135 703.4C712.535 703.4 718.202 701.867 723.135 698.8C728.069 695.734 731.935 691.534 734.735 686.2C737.669 680.734 739.135 674.6 739.135 667.8C739.135 661 737.669 654.934 734.735 649.6C731.935 644.267 728.069 640.067 723.135 637C718.202 633.934 712.535 632.4 706.135 632.4C699.869 632.4 694.202 633.934 689.135 637C684.202 640.067 680.268 644.267 677.335 649.6C674.535 654.934 673.135 661 673.135 667.8C673.135 674.6 674.535 680.734 677.335 686.2C680.268 691.534 684.202 695.734 689.135 698.8C694.202 701.867 699.869 703.4 706.135 703.4Z" fill="white"/>
<path d="M529.949 762V613.8H551.549V636.2L548.949 631C552.949 624.867 558.283 620.067 564.949 616.6C571.616 613.134 579.216 611.4 587.749 611.4C598.016 611.4 607.216 613.867 615.349 618.8C623.616 623.734 630.083 630.467 634.749 639C639.549 647.534 641.949 657.134 641.949 667.8C641.949 678.467 639.549 688.067 634.749 696.6C630.083 705.134 623.683 711.934 615.549 717C607.416 721.934 598.149 724.4 587.749 724.4C579.349 724.4 571.683 722.667 564.749 719.2C557.949 715.734 552.683 710.734 548.949 704.2L552.549 700V762H529.949ZM585.549 703.4C591.949 703.4 597.616 701.867 602.549 698.8C607.483 695.734 611.349 691.534 614.149 686.2C617.083 680.734 618.549 674.6 618.549 667.8C618.549 661 617.083 654.934 614.149 649.6C611.349 644.267 607.483 640.067 602.549 637C597.616 633.934 591.949 632.4 585.549 632.4C579.283 632.4 573.616 633.934 568.549 637C563.616 640.067 559.683 644.267 556.749 649.6C553.949 654.934 552.549 661 552.549 667.8C552.549 674.6 553.949 680.734 556.749 686.2C559.683 691.534 563.616 695.734 568.549 698.8C573.616 701.867 579.283 703.4 585.549 703.4Z" fill="white"/>
<path d="M422.119 722L459.919 667.8L422.119 613.8H448.719L479.719 659H466.919L497.919 613.8H524.519L486.519 667.8L524.319 722H497.719L467.119 676.6H479.519L448.719 722H422.119Z" fill="white"/>
<path d="M325.002 722V573H423.202V594H348.602V636.8H419.202V657.8H348.602V701H423.202V722H325.002Z" fill="white"/>
<path d="M872.971 566C865.104 566 857.838 564.734 851.171 562.2C844.504 559.667 838.771 556.134 833.971 551.6C829.171 547.2 825.571 542 823.171 536L843.971 527.4C845.838 532.467 849.238 536.667 854.171 540C859.238 543.334 865.438 545 872.771 545C878.504 545 883.638 543.867 888.171 541.6C892.704 539.467 896.304 536.267 898.971 532C901.638 527.867 902.971 522.867 902.971 517V492.6L906.971 497.2C903.238 504.134 898.038 509.4 891.371 513C884.838 516.6 877.438 518.4 869.171 518.4C859.171 518.4 850.171 516.067 842.171 511.4C834.171 506.734 827.838 500.334 823.171 492.2C818.638 484.067 816.371 474.934 816.371 464.8C816.371 454.534 818.638 445.4 823.171 437.4C827.838 429.4 834.104 423.067 841.971 418.4C849.838 413.734 858.838 411.4 868.971 411.4C877.238 411.4 884.571 413.2 890.971 416.8C897.504 420.267 902.838 425.334 906.971 432L903.971 437.6V413.8H925.371V517C925.371 526.334 923.104 534.667 918.571 542C914.171 549.467 908.038 555.334 900.171 559.6C892.304 563.867 883.238 566 872.971 566ZM871.771 497.4C877.771 497.4 883.104 496 887.771 493.2C892.438 490.267 896.104 486.4 898.771 481.6C901.571 476.667 902.971 471.134 902.971 465C902.971 458.867 901.571 453.334 898.771 448.4C895.971 443.467 892.238 439.6 887.571 436.8C882.904 433.867 877.638 432.4 871.771 432.4C865.638 432.4 860.171 433.867 855.371 436.8C850.571 439.6 846.771 443.467 843.971 448.4C841.304 453.2 839.971 458.734 839.971 465C839.971 471 841.304 476.467 843.971 481.4C846.771 486.334 850.571 490.267 855.371 493.2C860.171 496 865.638 497.4 871.771 497.4Z" fill="white"/>
<path d="M713.582 522V413.8H735.182V435L732.582 432.2C735.249 425.4 739.515 420.267 745.382 416.8C751.249 413.2 758.049 411.4 765.782 411.4C773.782 411.4 780.849 413.134 786.982 416.6C793.115 420.067 797.915 424.867 801.382 431C804.849 437.134 806.582 444.2 806.582 452.2V522H784.182V458.2C784.182 452.734 783.182 448.134 781.182 444.4C779.182 440.534 776.315 437.6 772.582 435.6C768.982 433.467 764.849 432.4 760.182 432.4C755.515 432.4 751.315 433.467 747.582 435.6C743.982 437.6 741.182 440.534 739.182 444.4C737.182 448.267 736.182 452.867 736.182 458.2V522H713.582Z" fill="white"/>
<path d="M674.559 522V413.8H697.159V522H674.559ZM674.559 399V373H697.159V399H674.559Z" fill="white"/>
<path d="M567.371 522V413.8H588.971V435L586.371 432.2C589.038 425.4 593.304 420.267 599.171 416.8C605.038 413.2 611.838 411.4 619.571 411.4C627.571 411.4 634.638 413.134 640.771 416.6C646.904 420.067 651.704 424.867 655.171 431C658.638 437.134 660.371 444.2 660.371 452.2V522H637.971V458.2C637.971 452.734 636.971 448.134 634.971 444.4C632.971 440.534 630.104 437.6 626.371 435.6C622.771 433.467 618.638 432.4 613.971 432.4C609.304 432.4 605.104 433.467 601.371 435.6C597.771 437.6 594.971 440.534 592.971 444.4C590.971 448.267 589.971 452.867 589.971 458.2V522H567.371Z" fill="white"/>
<path d="M494.148 524.4C486.814 524.4 480.348 523.134 474.748 520.6C469.281 517.934 465.014 514.334 461.948 509.8C458.881 505.134 457.348 499.667 457.348 493.4C457.348 487.534 458.614 482.267 461.148 477.6C463.814 472.934 467.881 469 473.348 465.8C478.814 462.6 485.681 460.334 493.948 459L531.548 452.8V470.6L498.348 476.4C492.348 477.467 487.948 479.4 485.148 482.2C482.348 484.867 480.948 488.334 480.948 492.6C480.948 496.734 482.481 500.134 485.548 502.8C488.748 505.334 492.814 506.6 497.748 506.6C503.881 506.6 509.214 505.267 513.748 502.6C518.414 499.934 522.014 496.4 524.548 492C527.081 487.467 528.348 482.467 528.348 477V449.2C528.348 443.867 526.348 439.534 522.348 436.2C518.481 432.734 513.281 431 506.748 431C500.748 431 495.481 432.6 490.948 435.8C486.548 438.867 483.281 442.867 481.148 447.8L462.348 438.4C464.348 433.067 467.614 428.4 472.148 424.4C476.681 420.267 481.948 417.067 487.948 414.8C494.081 412.534 500.548 411.4 507.348 411.4C515.881 411.4 523.414 413 529.948 416.2C536.614 419.4 541.748 423.867 545.348 429.6C549.081 435.2 550.948 441.734 550.948 449.2V522H529.348V502.4L533.948 503C531.414 507.4 528.148 511.2 524.148 514.4C520.281 517.6 515.814 520.067 510.748 521.8C505.814 523.534 500.281 524.4 494.148 524.4Z" fill="white"/>
<path d="M400.868 524.4C390.068 524.4 380.468 521.934 372.068 517C363.801 511.934 357.335 505.134 352.668 496.6C348.001 487.934 345.668 478.267 345.668 467.6C345.668 456.667 348.001 447 352.668 438.6C357.468 430.2 363.868 423.6 371.868 418.8C379.868 413.867 388.935 411.4 399.068 411.4C407.201 411.4 414.468 412.8 420.868 415.6C427.268 418.4 432.668 422.267 437.068 427.2C441.468 432 444.801 437.534 447.068 443.8C449.468 450.067 450.668 456.734 450.668 463.8C450.668 465.534 450.601 467.334 450.468 469.2C450.335 471.067 450.068 472.8 449.668 474.4H363.468V456.4H436.868L426.068 464.6C427.401 458.067 426.935 452.267 424.668 447.2C422.535 442 419.201 437.934 414.668 435C410.268 431.934 405.068 430.4 399.068 430.4C393.068 430.4 387.735 431.934 383.068 435C378.401 437.934 374.801 442.2 372.268 447.8C369.735 453.267 368.735 459.934 369.268 467.8C368.601 475.134 369.601 481.534 372.268 487C375.068 492.467 378.935 496.734 383.868 499.8C388.935 502.867 394.668 504.4 401.068 504.4C407.601 504.4 413.135 502.934 417.668 500C422.335 497.067 426.001 493.267 428.668 488.6L447.068 497.6C444.935 502.667 441.601 507.267 437.068 511.4C432.668 515.4 427.335 518.6 421.068 521C414.935 523.267 408.201 524.4 400.868 524.4Z" fill="white"/>
<path d="M311.043 522V370.6H333.643V522H311.043Z" fill="white"/>
<path d="M237.175 524.4C226.642 524.4 216.842 522.466 207.775 518.6C198.842 514.733 191.042 509.4 184.375 502.6C177.842 495.666 172.708 487.533 168.975 478.2C165.242 468.866 163.375 458.6 163.375 447.4C163.375 436.333 165.175 426.133 168.775 416.8C172.508 407.333 177.708 399.2 184.375 392.4C191.042 385.466 198.842 380.133 207.775 376.4C216.708 372.533 226.508 370.6 237.175 370.6C247.708 370.6 257.108 372.4 265.375 376C273.775 379.6 280.842 384.333 286.575 390.2C292.308 395.933 296.442 402.2 298.975 409L277.775 419C274.575 411 269.442 404.533 262.375 399.6C255.442 394.533 247.042 392 237.175 392C227.308 392 218.575 394.333 210.975 399C203.375 403.666 197.442 410.133 193.175 418.4C189.042 426.666 186.975 436.333 186.975 447.4C186.975 458.466 189.042 468.2 193.175 476.6C197.442 484.866 203.375 491.333 210.975 496C218.575 500.533 227.308 502.8 237.175 502.8C247.042 502.8 255.442 500.333 262.375 495.4C269.442 490.466 274.575 484 277.775 476L298.975 486C296.442 492.666 292.308 498.933 286.575 504.8C280.842 510.666 273.775 515.4 265.375 519C257.108 522.6 247.708 524.4 237.175 524.4Z" fill="white"/>
</svg>
