<svg width="1080" height="1080" viewBox="0 0 1080 1080" fill="none" xmlns="http://www.w3.org/2000/svg">
<rect width="1080" height="1080" fill="#0E1420"/>
<path d="M208.199 509.06C215.746 516.636 223.293 524.197 230.869 531.744L208.199 509.06Z" fill="url(#paint0_linear_2545_5195)"/>
<path d="M410.615 609.793C407.127 599.535 401.002 591.021 393.323 583.445C378.947 569.23 306.482 496.59 292.209 482.287C283.754 490.728 275.313 499.183 266.857 507.624C281.878 522.601 355.207 595.769 370.125 610.848C380.867 620.798 381.131 638.588 370.682 648.92C372.704 651.074 374.741 653.184 376.808 655.279C374.741 653.184 372.69 651.059 370.682 648.92C361.626 658.078 344.847 660.115 335.263 650.942C321.796 637.988 308.93 624.667 295.829 611.405L292.194 607.566L266.857 633.313L289.073 655.323C297.675 663.515 305.544 672.689 314.733 680.206C338.736 698.245 374.888 695.989 395.682 673.92C412.915 658.24 418.147 631.584 410.629 609.822L410.615 609.793Z" fill="url(#paint1_linear_2545_5195)"/>
<path d="M207.263 507.596L206.809 508.065L231.911 533.153L233.303 531.76L207.263 507.596Z" fill="url(#paint2_linear_2545_5195)"/>
<path d="M396.608 408.107C393.179 404.4 388.372 400.399 384.196 397.864H384.269C384.269 397.864 370.04 387.533 349.964 388.016H350.008C334.87 388.295 325.052 394.787 325.052 394.787C296.066 412.035 232.95 484.763 207.262 507.594C214.97 516.343 223.586 524.96 232.335 532.682C247.136 517.926 317.285 447.805 332.115 433.078C342.227 422.087 360.427 422.703 371.227 432.741C379.609 442.193 381.602 458.195 372.458 467.72C356.822 483.693 345.494 494.772 329.683 510.555L355.064 535.936C369.703 520.651 380.958 510.218 395.656 495.021C419.835 472.029 419.982 431.642 396.608 408.107Z" fill="url(#paint3_linear_2545_5195)"/>
<path d="M152.94 468.645C142.96 458.431 144.616 441.857 153.878 432.083C163.784 422.982 180.739 421.356 190.484 431.306C206.164 446.561 217.55 458.299 232.996 473.803L258.362 448.481C244.397 434.544 232.175 422.396 218.283 408.372C203.57 396.048 198.807 389.996 171.009 388.208H171.053C150.053 389.981 141.129 395.887 128.892 407.17C121.258 415.831 114.429 421.107 110.443 444.436V444.392C108.758 464.043 115.821 481.76 129.259 495.462C156.325 522.469 202.471 568.703 229.948 596.297C238.374 587.856 246.815 579.43 255.241 570.989C239.737 555.515 168.254 484.325 152.94 468.659V468.645ZM135.208 413.325C139.414 417.428 143.605 421.561 147.738 425.752C143.605 421.561 139.429 417.428 135.208 413.325Z" fill="url(#paint4_linear_2545_5195)"/>
<path d="M293.836 546.472C278.303 562.02 206.102 634.675 190.29 649.945C180.237 659.778 164.191 658.898 153.875 648.934C149.625 652.993 145.434 657.125 141.287 661.302C145.434 657.125 149.61 652.993 153.875 648.934C144.232 639.262 143.324 622.175 153.054 612.313C168.397 596.691 177.512 587.84 193.016 572.38L167.591 546.941C152.189 563.588 135 577.524 121.035 595.431L121.152 595.08C121.152 595.08 110.278 608.928 110 629.004V628.96C111.055 649.652 116.199 660.496 128.977 673.919C146.093 691.738 173.819 697.175 196.577 687.577C228.977 670.08 290.803 596.31 319.144 571.765C310.718 563.324 302.292 554.898 293.851 546.457L293.836 546.472Z" fill="url(#paint5_linear_2545_5195)"/>
<path d="M871.726 402.381C880.149 400.908 889.374 402.029 896.452 407.122C900.536 409.924 903.482 414.152 905.372 418.636C899.767 420.349 894.226 422.095 888.701 423.969C887.26 421.006 884.858 418.412 881.527 417.707C877.859 416.938 872.991 416.938 870.637 420.365C870.124 422.527 872.094 424.113 873.872 424.785C882.584 427.956 892.641 427.908 900.168 433.834C905.917 437.933 907.758 445.652 906.894 452.362C906.125 459.248 901.208 465.094 895.123 468.136C884.65 473.437 871.774 473.501 861.092 468.729C854.046 465.606 848.265 459.2 847.144 451.369C853.389 450.152 859.651 448.823 865.913 447.558C868.203 455.373 879.173 458.56 885.514 453.707C887.564 452.074 885.803 449.175 883.785 448.487C876.979 445.588 869.42 444.803 862.63 441.889C857.441 439.551 852.477 435.435 851.42 429.574C850.571 424.241 850.395 418.204 853.55 413.543C857.665 407.41 864.632 403.823 871.71 402.413" fill="#1EFAF5"/>
<path d="M593.876 402.862C601.051 402.782 608.177 402.862 615.351 402.798C622.35 425.522 629.332 448.247 636.298 470.971C629.332 471.035 622.334 470.987 615.303 470.987C613.974 466.583 612.661 462.163 611.3 457.727C605.406 457.775 599.497 457.727 593.588 457.727C592.387 462.179 591.09 466.583 589.824 470.987C576.853 470.971 563.849 470.987 550.893 471.003C547.482 462.355 544.199 453.691 540.788 445.06C538.819 445.06 536.865 445.06 534.911 445.06C534.959 453.675 534.847 462.323 534.959 470.939C527.977 471.035 521.011 470.939 514.06 470.987V402.958C523.701 402.958 533.342 403.006 543.014 402.894C550.541 402.766 558.757 402.686 565.258 407.17C574.819 413.479 576.292 428.597 568.573 436.908C566.7 439.038 564.201 440.464 561.607 441.601C565.579 450.985 569.374 460.418 573.25 469.818C579.992 447.462 587.118 425.186 593.876 402.862ZM534.911 417.563C534.959 421.887 534.959 426.195 534.735 430.503C538.354 430.503 541.957 430.615 545.545 430.471C548.812 430.407 551.918 427.812 551.918 424.465C552.271 420.878 548.988 417.755 545.545 417.643C542.005 417.451 538.466 417.611 534.927 417.563M602.636 423.52C600.762 429.958 599.097 436.428 597.239 442.866C600.794 442.882 604.35 442.754 607.953 442.754C606.111 436.364 604.333 429.974 602.652 423.52" fill="#1EFAF5"/>
<path d="M718.34 403.711C727.404 400.684 737.829 402.253 745.869 407.266C753.379 411.942 757.063 420.91 757.063 429.542C750.769 429.894 744.427 429.798 738.134 430.342C737.814 426.387 737.109 422.015 733.906 419.309C731.504 417.051 727.436 416.906 725.034 419.261C721.271 422.704 720.214 428.036 719.589 432.873C719.205 438.958 719.301 445.412 721.879 451.017C723.384 454.188 726.539 457.263 730.319 456.51C735.427 455.277 738.07 449.816 738.294 444.916C744.507 445.284 750.721 445.764 756.935 446.197C756.582 452.202 754.629 458.224 750.545 462.724C740.808 473.95 722.263 475.343 710.621 466.295C702.646 460.129 698.53 449.944 698.53 440.015C698.274 432.504 699.283 424.85 702.598 418.043C705.737 411.461 711.39 406.033 718.324 403.711" fill="#1EFAF5"/>
<path d="M461.805 403.134H509.849C509.897 408.563 509.849 413.976 509.881 419.421C500.544 419.421 491.192 419.421 481.887 419.421C481.887 423.04 481.887 426.707 481.887 430.342H503.203C503.138 435.515 503.203 440.72 503.138 445.876H481.855C481.855 454.284 481.855 462.66 481.855 471.019C475.145 471.003 468.419 471.003 461.709 471.019C461.741 448.407 461.645 425.746 461.741 403.134" fill="#1EFAF5"/>
<path d="M638.092 402.91C644.562 402.91 651.015 402.894 657.469 402.91C664.996 415.657 672.571 428.341 680.066 441.12C679.713 435.019 678.897 428.965 678.48 422.848C678.432 416.218 678.48 409.54 678.48 402.91C684.085 402.91 689.674 402.878 695.279 402.91V470.923C689.546 471.019 683.845 470.907 678.112 470.827C672.251 460.674 665.733 450.985 660.144 440.72C657.629 436.444 655.644 431.96 653.273 427.652C653.834 430.663 654.667 433.657 654.667 436.764V471.019C649.158 471.003 643.633 471.003 638.14 471.019C638.076 448.311 638.092 425.618 638.092 402.91Z" fill="#1EFAF5"/>
<path d="M761.707 403.086H782.302C782.302 411.397 782.285 419.725 782.398 428.036C787.602 428.036 792.807 428.02 798.012 428.036V403.086H818.462C818.43 423.04 818.494 442.978 818.558 462.948C818.494 465.574 818.558 468.233 818.814 470.875C811.864 471.083 804.93 470.923 797.996 470.955C797.996 462.115 797.948 453.307 797.996 444.467H782.382V470.971C775.511 470.955 768.641 470.971 761.803 470.971C761.787 448.343 761.883 425.73 761.707 403.086Z" fill="#1EFAF5"/>
<path d="M824.147 403.086C831.065 402.894 838.064 403.022 844.982 402.99C844.982 425.65 844.982 448.311 845.014 470.955C838.048 470.971 831.065 470.971 824.115 470.955C824.131 448.343 824.115 425.73 824.131 403.086" fill="#1EFAF5"/>
<path d="M911.426 403.134H961.551C961.551 408.371 961.551 413.623 961.551 418.86C951.59 418.86 941.629 418.86 931.652 418.86C931.7 422.047 931.7 425.234 931.7 428.453C939.739 428.421 947.81 428.453 955.866 428.421C955.93 433.593 955.882 438.766 955.914 443.923H931.732C931.732 447.574 931.732 451.241 931.732 454.893C941.709 454.861 951.67 454.893 961.599 454.893C961.599 460.209 961.599 465.542 961.599 470.891C944.896 470.939 928.225 470.779 911.506 470.955C911.586 448.327 911.346 425.73 911.458 403.118" fill="#1EFAF5"/>
<path d="M478.2 517.206C478.232 507.981 486.704 500.07 495.8 499.974C500.396 499.686 505.04 500.983 508.788 503.641C512.231 506.011 515.145 509.391 516.058 513.554C515.834 513.875 515.434 514.483 515.225 514.803C511.494 512.465 507.971 509.342 503.423 508.798C496.328 507.629 488.561 512.193 486.864 519.287C485.535 523.948 487.601 528.64 490.067 532.499C494.983 533.62 499.755 535.814 503.391 539.353C504.384 540.378 505.521 541.948 504.656 543.373C503.615 543.934 502.51 543.309 501.517 543.069C497.77 541.804 493.702 541.628 489.875 542.588C484.75 543.725 480.362 547.345 477.944 551.925C475.366 556.665 474.997 562.27 475.526 567.571C476.15 574.137 479.321 580.575 484.59 584.642C490.547 589.398 498.699 590.648 506.081 589.463C512.487 588.534 518.556 585.139 522.416 579.95C525.731 575.562 527.028 569.797 526.211 564.368C525.539 560.589 523.585 557.242 521.391 554.167C516.939 557.033 512.455 559.868 508.483 563.375C506.049 565.521 503.807 568.067 502.814 571.206C502.062 573.368 502.638 575.69 502.366 577.9C501.773 578.092 501.165 578.06 500.556 578.06C499.195 575.098 499.323 571.767 499.371 568.58C499.531 563.039 501.917 557.626 506.017 553.895C511.686 548.546 518.38 544.478 524.946 540.298C528.774 537.912 532.713 535.622 536.028 532.531C537.133 531.522 537.95 530.177 537.79 528.608C535.259 529.168 532.617 530.481 530.055 529.312C526.051 527.871 525.875 521.93 528.806 519.351C531.832 516.341 537.437 517.446 539.375 521.193C541.953 526.029 541.089 532.083 538.638 536.807C535.372 543.037 529.991 547.857 524.354 551.941C527.733 556.361 529.863 561.854 529.622 567.475C529.654 574.441 526.307 581.231 520.975 585.699C514.265 591.608 505.088 593.915 496.296 593.738C487.264 593.802 478.024 590.616 471.554 584.178C465.293 578.012 461.545 569.316 461.753 560.524C461.513 553.046 464.155 545.423 469.456 540.09C473.636 535.718 479.465 533.156 485.407 532.403C481.595 528.223 477.816 523.179 478.2 517.222" fill="white"/>
<path d="M609.025 491.341H623.198V504.457C618.49 504.457 613.813 504.457 609.137 504.457C609.041 500.085 609.009 495.729 609.025 491.357" fill="#1EFAF5"/>
<path d="M579.158 487.609C583.306 487.641 587.406 487.609 591.553 487.641C591.553 522.249 591.505 556.84 591.617 591.447C587.502 591.447 583.37 591.447 579.254 591.447C579.126 556.84 579.19 522.233 579.174 487.625" fill="#1EFAF5"/>
<path d="M720.549 516.179C727.82 514.033 735.875 514.081 743.066 516.659C749.792 519.142 755.012 524.843 757.575 531.393C760.697 539 760.553 547.359 760.393 555.43C743.466 555.382 726.475 555.366 709.563 555.43C709.964 562.509 711.149 570.148 716.434 575.368C721.83 581.101 730.206 582.607 737.733 581.71C745.596 580.989 752.642 577.066 759.048 572.694C759.096 577.338 759.048 581.998 759.048 586.706C751.377 589.941 743.29 593.112 734.77 592.968C725.178 593.272 714.976 590.822 707.85 584C701.636 578.331 698.417 569.987 697.505 561.724C696.528 552.243 697.136 542.315 701.22 533.555C704.951 525.483 711.886 518.709 720.533 516.163M709.74 545.614C722.631 545.646 735.523 545.662 748.43 545.598C747.918 540.153 747.293 534.115 743.338 529.935C738.485 524.619 730.35 524.298 723.816 525.964C715.297 528.414 710.092 537.094 709.74 545.614Z" fill="#1EFAF5"/>
<path d="M785.103 524.907C790.724 519.846 797.45 515.266 805.217 514.722C812.072 514.065 819.454 516.179 824.002 521.544C829.127 527.469 830.296 535.589 830.424 543.131C830.456 559.13 830.424 575.112 830.44 591.126H817.901V548.608C817.837 543.195 817.901 537.526 815.723 532.45C813.945 528.462 809.429 526.636 805.266 526.636C797.499 526.284 790.821 531.04 785.071 535.669C785.119 554.133 785.071 572.646 785.183 591.142C781.02 591.126 776.84 591.142 772.66 591.094C772.676 566.304 772.676 541.53 772.66 516.772C776.808 516.708 780.972 516.724 785.103 516.724V524.907Z" fill="#1EFAF5"/>
<path d="M923.484 516.884C930.594 514.129 938.634 513.873 946 515.811C953.671 517.732 959.836 523.866 962.735 531.104C965.906 538.743 965.778 547.199 965.778 555.318C948.787 555.35 931.827 555.27 914.884 555.318C915.124 562.525 916.534 570.372 922.01 575.592C927.503 581.214 935.975 582.575 943.486 581.55C951.125 580.733 958.011 576.954 964.176 572.582C964.273 577.274 964.241 581.966 964.192 586.674C958.107 589.205 951.893 591.687 945.296 592.584C936.087 593.497 926.254 592.648 918.151 587.779C911.025 583.536 906.012 576.201 904.026 568.194C901.608 558.649 901.768 548.512 904.379 539.016C907.117 529.343 914.003 520.599 923.484 516.868M922.475 529.503C917.607 533.411 915.621 539.544 914.852 545.533C927.728 545.565 940.619 545.549 953.511 545.549C953.511 538.535 951.525 530.192 944.703 526.861C937.625 523.706 928.48 524.314 922.475 529.503Z" fill="#1EFAF5"/>
<path d="M645.122 524.699C651.399 517.909 660.896 514.914 669.928 514.978C677.343 515.058 684.373 517.556 690.987 520.631C690.987 525.499 691.035 530.352 690.987 535.204C684.581 530.432 677.278 525.932 669.063 525.996C662.209 525.772 655.595 529.791 652.264 535.717C647.796 543.484 647.588 552.932 648.613 561.58C649.67 569.715 654.186 578.395 662.497 580.973C672.73 584.096 683.476 579.484 690.923 572.47C691.051 577.338 690.987 582.238 690.987 587.107C682.771 591.303 673.579 593.977 664.275 592.648C655.835 591.799 647.444 587.779 642.511 580.733C636.618 572.614 634.984 562.236 635.225 552.42C635.337 542.491 638.299 532.161 645.106 524.699" fill="#1EFAF5"/>
<path d="M863.206 515.538C873.439 513.761 884.297 515.587 893.489 520.359C893.393 524.923 893.489 529.487 893.393 534.083C887.82 530.224 881.702 526.765 874.864 525.916C869.82 525.339 864.311 525.403 859.955 528.35C854.414 531.777 854.59 541.418 860.499 544.364C869.419 549.089 880.613 547.791 889.021 553.893C894.129 557.432 896.291 563.902 896.003 569.939C896.179 577.354 892.096 584.625 885.722 588.452C878.451 593.304 869.227 593.433 860.771 592.632C854.558 591.783 848.633 589.541 842.979 586.819C843.011 581.95 842.947 577.082 843.043 572.229C850.202 577.867 858.93 582.303 868.25 582.367C872.526 582.03 877.266 581.614 880.613 578.635C883.944 575.737 883.992 570.516 882.423 566.721C880.469 563.165 876.321 562.044 872.734 561.035C864.807 558.922 855.887 558.345 849.401 552.74C843.444 547.455 842.243 538.535 844.197 531.137C846.631 522.681 854.782 516.948 863.19 515.555" fill="#1EFAF5"/>
<path d="M609.938 516.724C614.022 516.74 618.121 516.74 622.205 516.708C622.205 541.61 622.429 566.496 622.317 591.399C618.201 591.447 614.07 591.447 609.954 591.447C609.874 566.528 609.954 541.642 609.954 516.74" fill="#1EFAF5"/>
<path d="M463.213 623.541H481.469V627.048H474.503V649.708H470.211V627.048H463.213V623.541Z" fill="white"/>
<path d="M506.164 638.242H493.864V649.676H489.573V623.525H493.864V634.735H506.164V623.525H510.455V649.676H506.164V638.242Z" fill="white"/>
<path d="M534.317 627H524.164V634.671H533.196V638.178H524.164V646.185H534.317V649.692H519.872V623.509H534.317V627.016V627Z" fill="white"/>
<path d="M565.945 639.075H561.205V649.692H556.913V623.541H565.945C572.159 623.541 575.202 627.08 575.202 631.324C575.202 635.055 572.751 639.075 565.945 639.075ZM565.945 635.568C569.292 635.568 570.798 633.95 570.798 631.308C570.798 628.665 569.292 627.016 565.945 627.016H561.205V635.552H565.945V635.568Z" fill="white"/>
<path d="M592.097 623.541C598.31 623.541 601.353 627.112 601.353 631.372C601.353 634.463 599.704 637.762 595.3 638.867L601.769 649.708H596.645L590.623 639.251H587.356V649.708H583.065V623.557H592.097V623.541ZM592.097 627.048H587.356V635.824H592.097C595.444 635.824 596.949 633.982 596.949 631.388C596.949 628.794 595.444 627.064 592.097 627.064V627.048Z" fill="white"/>
<path d="M625.07 627H614.917V634.671H623.949V638.178H614.917V646.185H625.07V649.692H610.625V623.509H625.07V627.016V627Z" fill="white"/>
<path d="M634.119 623.541H638.747L647.923 644.055L657.067 623.541H661.663V649.692H657.371V631.772L649.396 649.692H646.418L638.41 631.772V649.692H634.119V623.541Z" fill="white"/>
<path d="M671.08 623.541H675.372V649.692H671.08V623.541Z" fill="white"/>
<path d="M699.233 627H689.08V634.671H698.112V638.178H689.08V646.185H699.233V649.692H684.788V623.509H699.233V627.016V627Z" fill="white"/>
<path d="M717.297 623.541C723.511 623.541 726.554 627.112 726.554 631.372C726.554 634.463 724.904 637.762 720.5 638.867L726.97 649.708H721.845L715.824 639.251H712.557V649.708H708.265V623.557H717.297V623.541ZM717.297 627.048H712.557V635.824H717.297C720.644 635.824 722.15 633.982 722.15 631.388C722.15 628.794 720.644 627.064 717.297 627.064V627.048Z" fill="white"/>
<path d="M471.973 684.075H463.918V663.945H471.588C475.848 663.945 478.106 666.283 478.106 669.134C478.106 671.568 476.633 673.041 474.695 673.746C476.841 674.114 478.571 676.26 478.571 678.662C478.571 681.737 476.072 684.075 471.973 684.075ZM471.3 666.636H467.216V672.401H471.3C473.446 672.401 474.743 671.392 474.743 669.534C474.743 667.677 473.446 666.636 471.3 666.636ZM471.556 675.091H467.216V681.369H471.668C473.894 681.369 475.256 680.232 475.256 678.294C475.256 676.356 473.75 675.075 471.556 675.075V675.091Z" fill="white"/>
<path d="M485.024 663.945H488.323V676.773C488.323 679.896 490.085 681.385 492.872 681.385C495.658 681.385 497.452 679.912 497.452 676.773V663.945H500.751V676.709C500.751 681.833 497.051 684.267 492.84 684.267C488.628 684.267 485.024 681.833 485.024 676.709V663.945Z" fill="white"/>
<path d="M514.555 684.283C510.535 684.283 507.429 682.089 507.429 678.518H510.968C511.112 680.168 512.265 681.497 514.555 681.497C516.845 681.497 518.174 680.248 518.174 678.55C518.174 673.682 507.493 676.837 507.493 669.422C507.493 665.883 510.295 663.689 514.411 663.689C518.27 663.689 520.977 665.723 521.281 669.166H517.63C517.518 667.805 516.333 666.556 514.235 666.507C512.329 666.443 510.84 667.372 510.84 669.31C510.84 673.858 521.489 671.024 521.489 678.374C521.489 681.385 519.023 684.283 514.539 684.283H514.555Z" fill="white"/>
<path d="M528.311 663.945H531.61V684.075H528.311V663.945Z" fill="white"/>
<path d="M555.392 663.913V684.059H552.093L542.164 669.038V684.059H538.865V663.913H542.164L552.093 678.919V663.913H555.392Z" fill="white"/>
<path d="M573.744 666.62H565.929V672.529H572.88V675.219H565.929V681.385H573.744V684.075H562.63V663.929H573.744V666.62Z" fill="white"/>
<path d="M587.324 684.283C583.305 684.283 580.198 682.089 580.198 678.518H583.737C583.881 680.168 585.034 681.497 587.324 681.497C589.615 681.497 590.944 680.248 590.944 678.55C590.944 673.682 580.262 676.837 580.262 669.422C580.262 665.883 583.065 663.689 587.18 663.689C591.024 663.689 593.746 665.723 594.051 669.166H590.399C590.287 667.805 589.102 666.556 587.004 666.507C585.098 666.443 583.609 667.372 583.609 669.31C583.609 673.858 594.259 671.024 594.259 678.374C594.259 681.385 591.792 684.283 587.308 684.283H587.324Z" fill="white"/>
<path d="M607.695 684.283C603.675 684.283 600.568 682.089 600.568 678.518H604.108C604.252 680.168 605.405 681.497 607.695 681.497C609.985 681.497 611.314 680.248 611.314 678.55C611.314 673.682 600.632 676.837 600.632 669.422C600.632 665.883 603.435 663.689 607.551 663.689C611.394 663.689 614.117 665.723 614.421 669.166H610.77C610.657 667.805 609.472 666.556 607.374 666.507C605.469 666.443 603.979 667.372 603.979 669.31C603.979 673.858 614.629 671.024 614.629 678.374C614.629 681.385 612.163 684.283 607.679 684.283H607.695Z" fill="white"/>
<path d="M638.507 684.283C634.487 684.283 631.38 682.089 631.38 678.518H634.919C635.063 680.168 636.216 681.497 638.507 681.497C640.797 681.497 642.126 680.248 642.126 678.55C642.126 673.682 631.444 676.837 631.444 669.422C631.444 665.883 634.247 663.689 638.362 663.689C642.206 663.689 644.928 665.723 645.233 669.166H641.581C641.469 667.805 640.284 666.556 638.186 666.507C636.281 666.443 634.791 667.372 634.791 669.31C634.791 673.858 645.441 671.024 645.441 678.374C645.441 681.385 642.975 684.283 638.491 684.283H638.507Z" fill="white"/>
<path d="M665.026 675.267H655.562V684.075H652.263V663.945H655.562V672.577H665.026V663.945H668.325V684.075H665.026V675.267Z" fill="white"/>
<path d="M684.74 684.283C679.071 684.283 674.459 680.024 674.459 673.97C674.459 667.917 679.071 663.689 684.74 663.689C690.409 663.689 695.021 667.949 695.021 673.97C695.021 679.992 690.473 684.283 684.74 684.283ZM684.74 681.417C688.744 681.417 691.626 678.518 691.626 673.97C691.626 669.422 688.728 666.588 684.74 666.588C680.753 666.588 677.854 669.422 677.854 673.97C677.854 678.518 680.753 681.417 684.74 681.417Z" fill="white"/>
<path d="M699.537 663.945H703.045L707.208 680.328L711.724 663.945H715.424L719.619 680.248L723.815 663.945H727.354L721.381 684.075H717.65L713.422 668.846L708.938 684.075L705.239 684.107L699.537 663.961V663.945Z" fill="white"/>
<path d="M862.726 658.499C862.726 647.498 862.726 636.496 862.726 625.494C862.726 624.357 862.822 624.245 863.927 624.245C866.33 624.245 868.748 624.245 871.15 624.245C872.031 624.245 872.255 624.437 872.271 625.318C872.271 626.455 872.271 627.592 872.223 628.729C872.223 629.097 872.159 629.481 872.559 629.658C872.96 629.85 873.296 629.658 873.616 629.369C875.506 627.656 877.684 626.391 879.926 625.222C881.287 624.517 882.68 623.908 884.154 623.524C885.659 623.14 887.164 622.723 888.75 622.787C889.102 622.787 889.454 622.691 889.807 622.643C890.095 622.611 890.383 622.547 890.672 622.563C891.504 622.627 892.337 622.739 893.186 622.835C895.156 623.06 897.061 623.556 898.871 624.421C900.44 625.174 901.866 626.07 903.163 627.223C904.652 628.553 905.837 630.122 906.91 631.803C908.175 633.789 909.136 635.903 909.745 638.177C910.017 639.218 910.369 640.227 910.593 641.284C910.882 642.741 911.186 644.231 911.282 645.704C911.458 648.202 911.554 650.7 911.538 653.215C911.522 654.832 911.17 656.434 911.074 658.067C910.946 660.405 910.321 662.631 909.584 664.809C909.04 666.395 908.383 667.964 907.615 669.453C906.189 672.208 904.284 674.642 901.994 676.74C899.575 678.966 896.773 680.631 893.618 681.528C890.271 682.473 886.812 682.649 883.369 682.185C881.735 681.961 880.086 681.672 878.517 681.16C876.867 680.615 875.282 679.799 873.712 679.046C872.639 678.533 872.303 678.678 872.303 679.863C872.303 683.706 872.303 687.55 872.303 691.393C872.303 692.407 871.801 692.914 870.798 692.914C868.588 692.914 866.378 692.914 864.152 692.914C863.895 692.914 863.623 692.914 863.367 692.914C862.919 692.914 862.742 692.642 862.758 692.226C862.758 691.905 862.758 691.569 862.758 691.249C862.758 680.343 862.758 669.437 862.758 658.531L862.726 658.499ZM872.271 654.48C872.271 659.172 872.271 663.848 872.271 668.54C872.271 668.989 872.271 669.453 872.271 669.902C872.303 670.43 872.527 670.863 873.024 671.071C874.753 671.791 876.483 672.512 878.228 673.169C879.862 673.777 881.607 673.889 883.321 673.969C886.588 674.114 889.791 674.017 892.801 672.368C895.124 671.103 896.917 669.373 898.31 667.179C899.287 665.642 900.088 664.024 900.488 662.215C900.841 660.629 901.401 659.06 901.481 657.475C901.689 653.423 901.882 649.355 901.241 645.304C900.793 642.421 899.976 639.683 898.535 637.136C897.75 635.727 896.677 634.574 895.364 633.629C893.042 631.948 890.367 631.451 887.613 631.531C884.778 631.611 882.008 632.188 879.461 633.501C877.267 634.622 875.202 635.951 873.216 637.441C872.479 637.985 872.239 638.658 872.239 639.538C872.239 644.519 872.239 649.499 872.239 654.48H872.271Z" fill="#1EFAF5"/>
<path d="M779.227 653.695C772.918 653.695 766.592 653.695 760.282 653.695C758.985 653.695 758.665 653.967 758.761 655.233C758.953 657.763 759.193 660.293 760.042 662.711C761.323 666.379 763.533 669.373 766.768 671.535C768.45 672.656 770.307 673.377 772.277 673.905C775.56 674.754 778.875 674.642 782.174 674.322C784.496 674.097 786.77 673.457 788.948 672.56C790.165 672.048 791.414 671.583 792.567 670.943C794.041 670.142 795.45 669.197 796.891 668.316C797.083 668.204 797.259 668.028 797.452 667.932C797.932 667.692 798.172 667.836 798.252 668.38C798.268 668.573 798.252 668.765 798.252 668.973C798.252 671.615 798.22 674.242 798.268 676.884C798.268 677.605 797.996 677.989 797.404 678.213C795.402 678.982 793.4 679.719 791.398 680.487C789.012 681.4 786.514 681.784 784.032 682.297C783.936 682.313 783.839 682.345 783.743 682.345C781.806 682.489 779.852 682.857 777.93 682.697C775.256 682.473 772.533 682.569 769.907 681.816C769.01 681.56 768.049 681.48 767.168 681.192C766.144 680.872 765.151 680.471 764.19 680.007C763.021 679.446 761.884 678.822 760.779 678.181C757.96 676.532 755.734 674.258 753.925 671.567C752.723 669.79 751.811 667.852 751.09 665.834C750.497 664.185 750.145 662.471 749.793 660.757C748.912 656.37 749.088 651.95 749.457 647.546C749.601 645.816 750.129 644.119 750.497 642.405C750.978 640.163 751.907 638.097 752.964 636.079C754.261 633.629 755.926 631.435 757.96 629.545C760.058 627.592 762.396 625.974 765.071 624.869C766.848 624.133 768.69 623.652 770.564 623.252C773.766 622.579 776.969 622.803 780.188 622.98C781.597 623.044 782.991 623.492 784.368 623.86C788.035 624.853 791.078 626.887 793.576 629.722C795.098 631.467 796.235 633.453 797.131 635.599C798.365 638.546 798.925 641.636 799.165 644.791C799.357 647.385 799.389 649.98 799.469 652.59C799.502 653.551 799.309 653.695 798.3 653.695C791.959 653.695 785.601 653.695 779.259 653.695V653.727L779.227 653.695ZM774.407 646.665C774.599 646.665 774.791 646.665 774.999 646.665C779.451 646.665 783.92 646.665 788.372 646.665C789.973 646.665 790.309 646.312 790.069 644.759C789.909 643.702 789.669 642.661 789.525 641.604C789.252 639.618 788.532 637.809 787.507 636.079C785.889 633.357 783.471 631.643 780.476 630.955C776.777 630.106 773.03 630.042 769.346 631.371C766.272 632.476 763.853 634.398 761.964 636.976C760.122 639.458 759.241 642.341 758.905 645.4C758.809 646.2 759.097 646.553 759.882 646.665C760.106 646.697 760.33 646.681 760.571 646.681C765.183 646.681 769.811 646.681 774.423 646.681L774.407 646.665Z" fill="#1EFAF5"/>
<path d="M944.031 682.793C943.215 682.793 942.398 682.889 941.597 682.777C939.772 682.521 937.946 682.217 936.136 681.832C933.83 681.336 931.732 680.295 929.779 679.014C928.546 678.197 927.44 677.188 926.319 676.211C925.006 675.074 923.981 673.697 923.005 672.272C922.668 671.791 922.348 671.311 922.092 670.799C921.083 668.877 920.122 666.907 919.561 664.793C919.161 663.288 918.985 661.734 918.585 660.229C918.072 658.243 918.152 656.225 918.104 654.224C918.056 651.821 918.104 649.403 918.28 647.017C918.392 645.576 918.809 644.151 919.081 642.709C919.433 640.884 919.978 639.106 920.763 637.425C921.659 635.487 922.652 633.597 923.997 631.916C925.423 630.138 927.008 628.52 928.85 627.159C930.259 626.118 931.812 625.286 933.43 624.597C934.983 623.94 936.617 623.524 938.282 623.172C939.371 622.931 940.46 622.867 941.549 622.787C942.382 622.723 943.231 622.531 944.063 622.563C945.681 622.627 947.314 622.659 948.916 622.947C952.807 623.652 956.475 624.981 959.645 627.464C961.087 628.585 962.4 629.834 963.489 631.275C964.386 632.46 965.283 633.661 966.035 634.942C966.676 636.063 967.124 637.28 967.605 638.481C968.005 639.474 968.341 640.483 968.662 641.508C968.87 642.181 968.998 642.901 969.142 643.59C969.27 644.263 969.43 644.935 969.494 645.608C969.767 648.843 970.167 652.094 969.927 655.345C969.767 657.507 969.526 659.685 969.142 661.83C968.662 664.537 967.797 667.163 966.564 669.645C965.299 672.192 963.681 674.482 961.583 676.42C959.758 678.117 957.756 679.478 955.498 680.535C953.352 681.528 951.11 682.073 948.804 682.489C947.218 682.777 945.633 682.745 944.063 682.793H944.031ZM944.111 674.85C946.45 675.026 948.724 674.482 950.854 673.441C954.393 671.711 956.747 668.845 958.188 665.226C959.678 661.478 960.094 657.539 960.19 653.551C960.27 650.556 960.014 647.562 959.469 644.615C959.117 642.661 958.54 640.756 957.66 638.962C956.747 637.12 955.546 635.487 953.992 634.11C952.023 632.348 949.701 631.275 947.154 630.859C944.416 630.41 941.693 630.458 938.955 631.323C936.697 632.044 934.759 633.197 933.126 634.846C931.412 636.576 930.227 638.674 929.458 640.98C929.09 642.117 928.802 643.286 928.562 644.455C928.305 645.752 928.033 647.081 927.985 648.394C927.857 651.902 927.633 655.425 928.257 658.916C928.449 660.037 928.497 661.19 928.802 662.279C929.49 664.649 930.371 666.939 931.828 668.973C933.03 670.638 934.487 672.016 936.248 672.992C938.651 674.322 941.245 675.01 944.079 674.834L944.111 674.85Z" fill="#1EFAF5"/>
<path d="M854.511 624.325C854.287 624.741 854.207 624.949 854.079 625.125C852.605 627.223 851.132 629.305 849.643 631.387C847.865 633.869 846.055 636.304 844.294 638.786C842.42 641.428 840.578 644.103 838.705 646.745C837.584 648.33 836.415 649.9 835.262 651.453C834.685 652.222 834.669 652.462 835.23 653.279C836.751 655.457 838.272 657.635 839.794 659.829C842.548 663.8 845.303 667.772 848.057 671.727C849.595 673.937 851.132 676.131 852.669 678.341C853.15 679.03 853.63 679.719 854.111 680.423C854.239 680.599 854.303 680.824 854.463 681.144C854.111 681.208 853.838 681.288 853.582 681.288C850.363 681.288 847.128 681.288 843.909 681.304C843.301 681.304 842.869 681.112 842.516 680.583C841.443 678.934 840.338 677.284 839.249 675.635C837.199 672.512 835.15 669.405 833.1 666.282C831.883 664.409 830.666 662.519 829.448 660.645C828.936 659.861 828.44 659.877 827.895 660.677C826.63 662.567 825.397 664.473 824.132 666.347C822.37 668.957 820.576 671.535 818.799 674.13C817.566 675.955 816.333 677.797 815.1 679.622C814.923 679.895 814.715 680.151 814.539 680.423C814.139 681.032 813.61 681.304 812.826 681.288C810.023 681.24 807.22 681.272 804.434 681.272C804.13 681.272 803.809 681.24 803.361 681.208C803.521 680.84 803.585 680.599 803.713 680.407C805.251 678.229 806.788 676.067 808.341 673.905C810.167 671.343 812.009 668.781 813.834 666.234C815.148 664.393 816.477 662.535 817.79 660.693C819.455 658.371 821.105 656.049 822.77 653.727C823.187 653.135 823.171 652.942 822.69 652.254C820.592 649.211 818.479 646.168 816.381 643.142C814.299 640.163 812.217 637.184 810.151 634.206C808.342 631.595 806.564 628.969 804.754 626.359C804.434 625.91 804.082 625.478 803.761 625.029C803.681 624.917 803.665 624.741 803.601 624.517C803.825 624.469 804.002 624.389 804.178 624.389C807.397 624.389 810.632 624.421 813.85 624.389C814.779 624.389 815.388 624.693 815.868 625.446C817.149 627.464 818.447 629.481 819.76 631.483C820.737 632.972 821.729 634.462 822.722 635.935C823.859 637.633 824.98 639.33 826.117 641.028C826.934 642.277 827.751 643.526 828.568 644.775C829.08 645.544 829.497 645.544 830.009 644.759C831.13 643.062 832.235 641.332 833.372 639.634C834.525 637.905 835.726 636.223 836.879 634.51C838.208 632.54 839.506 630.57 840.819 628.601C841.523 627.544 842.244 626.503 842.933 625.446C843.461 624.613 844.134 624.197 845.191 624.229C847.929 624.293 850.668 624.245 853.39 624.245C853.694 624.245 853.999 624.293 854.495 624.325H854.511Z" fill="#1EFAF5"/>
<defs>
<linearGradient id="paint0_linear_2545_5195" x1="208.199" y1="520.402" x2="230.869" y2="520.402" gradientUnits="userSpaceOnUse">
<stop stop-color="#1E78D2"/>
<stop offset="0.35" stop-color="#1EA6DE"/>
<stop offset="1" stop-color="#1EFAF5"/>
</linearGradient>
<linearGradient id="paint1_linear_2545_5195" x1="266.857" y1="587.255" x2="413.971" y2="587.255" gradientUnits="userSpaceOnUse">
<stop stop-color="#1E78D2"/>
<stop offset="0.35" stop-color="#1EA6DE"/>
<stop offset="1" stop-color="#1EFAF5"/>
</linearGradient>
<linearGradient id="paint2_linear_2545_5195" x1="206.809" y1="520.374" x2="233.303" y2="520.374" gradientUnits="userSpaceOnUse">
<stop stop-color="#1E78D2"/>
<stop offset="0.35" stop-color="#1EA6DE"/>
<stop offset="1" stop-color="#1EFAF5"/>
</linearGradient>
<linearGradient id="paint3_linear_2545_5195" x1="207.262" y1="461.961" x2="413.973" y2="461.961" gradientUnits="userSpaceOnUse">
<stop stop-color="#1E78D2"/>
<stop offset="0.35" stop-color="#1EA6DE"/>
<stop offset="1" stop-color="#1EFAF5"/>
</linearGradient>
<linearGradient id="paint4_linear_2545_5195" x1="110.208" y1="492.253" x2="258.362" y2="492.253" gradientUnits="userSpaceOnUse">
<stop stop-color="#1E78D2"/>
<stop offset="0.35" stop-color="#1EA6DE"/>
<stop offset="1" stop-color="#1EFAF5"/>
</linearGradient>
<linearGradient id="paint5_linear_2545_5195" x1="110" y1="619.376" x2="319.13" y2="619.376" gradientUnits="userSpaceOnUse">
<stop stop-color="#1E78D2"/>
<stop offset="0.35" stop-color="#1EA6DE"/>
<stop offset="1" stop-color="#1EFAF5"/>
</linearGradient>
</defs>
</svg>
