<svg width="1080" height="1080" viewBox="0 0 1080 1080" fill="none" xmlns="http://www.w3.org/2000/svg">
<rect width="1080" height="1080" fill="white"/>
<path d="M1015.54 527.662L967.481 515.291L958.143 535.216H951.719L939.823 527.662L949.756 511.841L929.593 506.666L919.779 475.559L905.504 418.995H892.716L866.129 399.129L850.368 418.995L839.602 461.7L836.45 462.414L830.264 434.995L824.911 429.404V419.233H815.394L796.48 399.367L783.276 412.393L711.367 403.59L688.884 419.054L641.717 399.367H569.808L557.912 419.233H554.284V420.958L514.79 399.367L499.029 419.114H418.852L417.543 419.471C415.117 419.761 412.749 420.423 410.525 421.433L407.253 422.326L376.027 399.248H268.193L260.461 415.069L253.264 399.248H164.879L149.236 419.114V519.454L119.497 532.658L118.664 535.513H94.3374C92.0177 535.513 89.817 535.513 87.7353 535.513L83.8097 522.369L67.5126 543.246C64.747 546.066 62.7061 549.516 61.5648 553.298C60.4127 558.006 59.8927 562.846 60.0184 567.691V640.85C59.97 645.585 60.55 650.305 61.7432 654.887C62.9115 658.956 65.1264 662.648 68.1669 665.593C71.2768 668.501 75.0891 670.551 79.2299 671.541C83.8484 672.634 88.5804 673.173 93.3263 673.147H153.875L169.28 658.158C170.54 660.682 172.163 663.007 174.098 665.058C176.754 667.744 179.938 669.85 183.45 671.243C186.962 672.635 190.724 673.284 194.499 673.147H256.713C258.709 673.161 260.701 672.982 262.661 672.612C268.221 671.699 273.413 669.247 277.65 665.534L278.126 665.117L293.055 657.802V673.147H345.515L358.541 659.17L369.306 680.047L394.109 652.805V672.85H446.807L453.944 663.868V672.85H506.404L515.504 655.601C516.757 659.227 518.787 662.536 521.452 665.296C524.577 668.215 528.411 670.266 532.574 671.244C537.183 672.396 541.92 672.956 546.671 672.909H641.242L649.509 642.099C649.524 646.38 650.104 650.639 651.234 654.768C652.399 658.76 654.57 662.385 657.539 665.296C660.633 668.322 664.537 670.388 668.78 671.244C673.369 672.392 678.086 672.952 682.817 672.909H744.02L761.864 662.203C762.569 663.17 763.345 664.085 764.183 664.939C766.825 667.648 770.006 669.773 773.52 671.176C777.034 672.58 780.803 673.231 784.585 673.088H846.68C850.55 673.079 854.391 672.415 858.04 671.125H858.397C861.762 669.791 864.878 667.901 867.616 665.534L869.401 663.749L882.783 648.642V673.326H934.827L945.414 656.017L955.169 673.326H1004.24L1020 652.032L1015.54 527.662Z" fill="#09090B"/>
<path d="M209.557 399.248H164.889V512.079H209.557V399.248Z" fill="#09090B"/>
<path d="M271.055 512.079L256.899 486.979V512.079H212.588V399.248H253.628L267.903 424.943V399.248H312.274V512.079H271.055Z" fill="#09090B"/>
<path d="M314.828 512.022V399.012H382.217C386.219 398.921 390.217 399.341 394.113 400.261H394.47C397.877 401.338 401.018 403.121 403.689 405.495C406.261 408.253 408.065 411.637 408.923 415.309C409.999 419.18 410.5 423.188 410.41 427.205V481.985C410.897 486.562 410.595 491.189 409.518 495.665C408.661 499.268 406.854 502.575 404.284 505.241C401.591 508.199 398.066 510.273 394.172 511.189C390.283 512.156 386.284 512.615 382.277 512.557L314.828 512.022ZM367.05 472.29V438.744H358.783V472.29H367.05Z" fill="#09090B"/>
<path d="M437.299 512.082C434.122 512.203 430.954 511.675 427.988 510.529C425.022 509.384 422.321 507.645 420.05 505.42H419.753C415.743 500.769 413.621 494.785 413.805 488.647V423.221C413.609 416.939 415.846 410.823 420.05 406.151C422.316 403.926 425.019 402.197 427.988 401.071C430.957 399.944 434.128 399.446 437.299 399.608H488.272C491.444 399.448 494.615 399.959 497.576 401.106C500.538 402.254 503.225 404.014 505.461 406.269C507.641 408.484 509.349 411.117 510.484 414.01C511.619 416.903 512.156 419.996 512.063 423.102V488.528C512.142 491.886 511.407 495.212 509.922 498.223C508.683 500.989 506.926 503.492 504.747 505.599C502.376 507.743 499.579 509.365 496.539 510.357C493.5 511.506 490.271 512.071 487.023 512.023H437.299V512.082ZM467.633 472.291V438.804H457.938V472.291H467.633Z" fill="#09090B"/>
<path d="M573.262 512.079L558.987 486.86V512.079H514.557V399.308H555.656L569.812 424.943V399.308H614.421V512.079H573.262Z" fill="#09090B"/>
<path d="M616.797 512.079V399.308H696.082L704.111 438.861H696.498V472.288H704.706L695.011 512.079H616.797Z" fill="#09090B"/>
<path d="M710.42 512.08L702.391 472.289H715.654C712.621 471.351 709.905 469.595 707.806 467.212C705.707 464.83 704.307 461.915 703.759 458.787C702.8 455.039 702.36 451.176 702.45 447.308V427.323C702.342 423.309 702.823 419.302 703.878 415.427C704.594 411.691 706.442 408.265 709.171 405.613C711.947 402.935 715.438 401.117 719.223 400.379C723.119 399.465 727.121 399.085 731.119 399.249H785.66L793.868 438.802H777.988C781.236 439.601 784.226 441.218 786.672 443.501C789.305 446.115 791.158 449.41 792.025 453.018C792.952 456.812 793.372 460.712 793.274 464.616V484.244C793.363 488.261 792.862 492.269 791.787 496.14C790.828 499.698 788.915 502.928 786.255 505.478C783.547 507.601 780.428 509.14 777.096 509.998C773.204 510.952 769.205 511.392 765.2 511.307L710.42 512.08Z" fill="#09090B"/>
<path d="M840.742 399.368H796.371V512.08H840.742V399.368Z" fill="#09090B"/>
<path d="M903.488 512.08L901.525 501.374H886.774L884.574 512.08H838.121L866.492 399.368H921.688L950.178 512.378L903.488 512.08ZM894.209 466.936L893.912 465.925V467.233L894.209 466.936Z" fill="#09090B"/>
<path d="M698.996 653.164C694.269 653.199 689.555 652.66 684.959 651.558C680.724 650.679 676.826 648.617 673.717 645.61C670.741 642.671 668.553 639.03 667.353 635.023C666.123 630.427 665.543 625.682 665.628 620.926V547.827C665.498 542.845 666.119 537.872 667.472 533.076C668.735 529.004 670.982 525.307 674.015 522.311C677.268 519.693 681.07 517.843 685.137 516.898H685.554C690.186 516.07 694.885 515.671 699.591 515.708H759.069L768.883 562.161H718.445V607.068H771.262L759.783 653.58L698.996 653.164Z" fill="#09090B"/>
<path d="M800.111 653.165C796.33 653.308 792.561 652.657 789.047 651.254C785.533 649.85 782.352 647.725 779.71 645.016C777.188 642.365 775.22 639.237 773.923 635.815C772.626 632.394 772.025 628.748 772.156 625.091V543.546C772.027 539.839 772.633 536.143 773.939 532.672C775.246 529.201 777.228 526.024 779.77 523.323C782.413 520.64 785.588 518.539 789.091 517.157C792.594 515.774 796.348 515.139 800.111 515.293H863.872C867.618 515.155 871.352 515.78 874.849 517.13C878.346 518.479 881.532 520.526 884.214 523.144C889.33 528.615 892.086 535.88 891.886 543.367V625.091C891.896 628.952 891.127 632.775 889.626 636.332C888.023 639.589 885.847 642.53 883.202 645.016C880.47 647.392 877.353 649.282 873.983 650.607H873.567C869.935 651.878 866.114 652.522 862.266 652.51L800.111 653.165ZM839.724 606.652V561.508H824.319V606.652H839.724Z" fill="#09090B"/>
<path d="M970.82 653.163L950.478 617.118V653.163H898.494V515.291H947.207L967.489 552.108V515.291H1019.89V653.163H970.82Z" fill="#09090B"/>
<path d="M109.155 653.165C104.389 653.193 99.6373 652.654 94.9991 651.559C90.8453 650.603 87.0244 648.549 83.9362 645.611C80.8956 642.665 78.6808 638.974 77.5125 634.905C76.347 630.317 75.7674 625.601 75.7876 620.868V547.828C75.8174 542.879 76.5177 537.957 77.8694 533.196C78.9074 529.144 80.9535 525.42 83.8172 522.371V522.074C87.3105 519.35 91.3788 517.458 95.7129 516.542C100.304 515.703 104.964 515.304 109.631 515.353H169.109L179.161 561.805H128.664V606.712H181.6L169.704 653.224L109.155 653.165Z" fill="#09090B"/>
<path d="M210.32 653.164C206.542 653.323 202.773 652.685 199.258 651.291C195.743 649.898 192.561 647.78 189.919 645.075C187.389 642.414 185.414 639.278 184.107 635.847C182.8 632.416 182.188 628.76 182.305 625.09V543.545C182.086 536.077 184.797 528.818 189.859 523.323C192.52 520.63 195.716 518.525 199.239 517.142C202.763 515.759 206.538 515.129 210.32 515.293H274.14C277.88 515.171 281.606 515.809 285.092 517.169C288.578 518.528 291.752 520.582 294.422 523.204C297.021 525.902 299.058 529.09 300.416 532.582C301.774 536.073 302.426 539.8 302.333 543.545V625.09C302.39 629.032 301.557 632.936 299.894 636.51C298.401 639.999 296.145 643.109 293.292 645.611C290.536 647.922 287.422 649.77 284.073 651.083C280.397 652.439 276.512 653.144 272.594 653.164H210.32ZM249.694 606.652V561.508H234.587V606.652H249.694Z" fill="#09090B"/>
<path d="M361.454 613.609V653.163H308.578V515.291H368.77L385.424 554.547L402.97 515.291H462.687V653.163H409.989V612.955L385.186 660.359L361.454 613.609Z" fill="#09090B"/>
<path d="M522.292 515.291H469.832V653.163H522.292V515.291Z" fill="#09090B"/>
<path d="M562.791 653.162C558.044 653.194 553.311 652.655 548.694 651.556C544.56 650.548 540.752 648.5 537.631 645.608C534.866 642.602 532.831 639 531.683 635.08C530.526 630.553 529.966 625.894 530.018 621.222V547.825C529.917 542.837 530.579 537.862 531.981 533.074C533.155 528.963 535.415 525.244 538.523 522.309C541.764 519.826 545.463 518.007 549.408 516.956H549.884C554.536 516.127 559.255 515.729 563.98 515.766H623.459L633.035 562.219H582.478V607.125H635.295L623.399 653.638L562.791 653.162Z" fill="#09090B"/>
<path d="M202.95 405.852H171.486V505.478H202.95V405.852Z" fill="white"/>
<path d="M219.186 405.852H249.757L274.5 450.461V405.852H305.667V505.478H274.917L250.293 461.88V505.478H219.186V405.852Z" fill="white"/>
<path d="M321.729 405.851H382.218C385.678 405.716 389.14 406.056 392.508 406.862C395.072 407.651 397.443 408.968 399.467 410.728C401.324 412.68 402.6 415.11 403.154 417.747C404.085 421.115 404.507 424.603 404.404 428.096V482.876C404.561 486.449 404.14 490.025 403.154 493.463C402.615 496.087 401.335 498.502 399.467 500.422C397.576 502.353 395.154 503.678 392.508 504.229C389.136 505.017 385.681 505.396 382.218 505.359H321.729V405.851ZM369.311 478.831C370.72 478.971 372.137 478.659 373.356 477.939C373.992 476.755 374.281 475.414 374.188 474.073V436.958C374.261 435.656 373.973 434.36 373.356 433.211C372.182 432.376 370.745 431.996 369.311 432.141H352.181V478.831H369.311Z" fill="white"/>
<path d="M437.3 505.477C434.984 505.599 432.667 505.239 430.497 504.42C428.326 503.601 426.35 502.341 424.691 500.719C421.662 497.323 420.045 492.897 420.171 488.347V422.921C419.998 418.275 421.616 413.74 424.691 410.252C426.36 408.656 428.343 407.425 430.514 406.636C432.685 405.848 434.996 405.52 437.3 405.672H488.273C490.565 405.522 492.862 405.857 495.014 406.657C497.167 407.457 499.126 408.702 500.764 410.311C502.378 411.963 503.634 413.93 504.453 416.09C505.272 418.249 505.636 420.555 505.522 422.861V488.288C505.631 490.659 505.118 493.017 504.035 495.128C503.099 497.227 501.766 499.126 500.11 500.719C498.388 502.256 496.361 503.411 494.162 504.109C491.841 504.972 489.381 505.395 486.905 505.358H437.3V505.477ZM469.478 478.831C470.803 479.003 472.144 478.663 473.225 477.879C473.985 476.762 474.342 475.419 474.237 474.073V436.958C474.369 435.618 473.986 434.278 473.166 433.211C472.069 432.408 470.71 432.047 469.359 432.2H456.096C454.192 432.2 452.884 432.497 452.408 433.211C451.989 433.721 451.679 434.311 451.494 434.945C451.31 435.579 451.257 436.243 451.337 436.898V474.073C451.261 475.435 451.708 476.776 452.586 477.82C453.062 478.415 454.371 478.712 456.274 478.712L469.478 478.831Z" fill="white"/>
<path d="M521.154 405.911H551.726L576.41 450.461V405.911H607.814V505.478H577.124L552.38 461.881V505.478H521.154V405.911Z" fill="white"/>
<path d="M654.394 432.321V444.335H689.903V467.829H654.394V478.833H696.327L689.844 505.479H623.406V405.912H690.676L696.029 432.321H654.394Z" fill="white"/>
<path d="M714.942 501.613L710.243 479.13H752.235C752.765 479.181 753.296 479.033 753.722 478.714C754.013 478.188 754.137 477.587 754.079 476.989V469.97C754.079 468.424 753.306 467.591 751.878 467.591H729.752C726.336 467.706 722.918 467.386 719.582 466.639C717.201 466.188 714.995 465.074 713.217 463.428C711.571 461.823 710.469 459.743 710.065 457.48C709.224 454.238 708.844 450.894 708.935 447.547V427.324C708.828 423.894 709.229 420.466 710.125 417.153C710.578 414.594 711.827 412.242 713.693 410.432C715.628 408.618 718.044 407.4 720.652 406.923C723.946 406.162 727.326 405.842 730.704 405.971H780.487L785.96 432.32H741.589C741.117 432.227 740.632 432.227 740.161 432.32C739.86 432.907 739.736 433.568 739.804 434.224V442.134C739.764 442.674 739.889 443.213 740.161 443.681C740.384 443.887 740.647 444.046 740.933 444.148C741.219 444.25 741.523 444.293 741.827 444.275H766.094C769.444 444.232 772.79 444.511 776.086 445.108C778.454 445.631 780.647 446.758 782.45 448.379C784.12 450.119 785.291 452.277 785.841 454.625C786.625 457.916 786.984 461.294 786.911 464.677V484.305C787.026 487.755 786.625 491.203 785.722 494.535C785.082 497.012 783.787 499.272 781.974 501.078C779.985 502.621 777.696 503.735 775.253 504.349C771.959 505.113 768.583 505.472 765.202 505.42H715.834L714.942 501.613Z" fill="white"/>
<path d="M834.135 405.911H802.969V505.419H834.135V405.911Z" fill="white"/>
<path d="M846.451 505.478L871.492 405.911H916.517L941.617 505.478H909.082L907.119 494.772H881.306L879.105 505.478H846.451ZM885.588 473.538H902.301L893.855 432.558L885.588 473.538Z" fill="white"/>
<path d="M699.002 646.62C694.814 646.627 690.64 646.128 686.571 645.133C683.479 644.566 680.623 643.096 678.363 640.91C676.152 638.737 674.534 636.034 673.665 633.059C672.657 629.176 672.177 625.174 672.237 621.163V547.826C672.119 543.491 672.64 539.162 673.784 534.978C674.733 531.994 676.386 529.281 678.601 527.068C681.081 525.061 683.993 523.656 687.107 522.964C691.344 522.192 695.647 521.833 699.954 521.893H754.02L761.098 555.142H717.798C716.114 554.981 714.427 555.424 713.039 556.391C712.088 557.762 711.665 559.431 711.85 561.09V606.293C711.79 607.514 711.91 608.736 712.207 609.922C712.207 610.695 712.801 611.409 713.039 612.063C713.695 612.525 714.448 612.83 715.24 612.955C716.63 613.23 718.049 613.329 719.463 613.252H762.823L754.615 646.62H699.002Z" fill="white"/>
<path d="M800.109 646.621C797.241 646.765 794.374 646.311 791.691 645.287C789.009 644.263 786.568 642.692 784.525 640.674C782.544 638.641 780.996 636.228 779.973 633.58C778.951 630.933 778.476 628.105 778.578 625.269V543.545C778.47 540.663 778.941 537.789 779.962 535.092C780.984 532.395 782.536 529.93 784.525 527.843C786.564 525.818 789.004 524.243 791.687 523.219C794.371 522.195 797.24 521.744 800.109 521.895H863.87C866.764 521.758 869.655 522.216 872.366 523.239C875.076 524.262 877.549 525.828 879.631 527.843C881.616 529.934 883.164 532.399 884.185 535.095C885.206 537.791 885.68 540.664 885.579 543.545V625.09C885.576 628.07 884.99 631.02 883.854 633.774C882.594 636.339 880.881 638.656 878.799 640.614C876.639 642.502 874.162 643.992 871.483 645.016C868.537 646.045 865.443 646.587 862.323 646.621H800.109ZM840.435 613.254C842.039 613.457 843.659 613.031 844.955 612.064C846.012 610.647 846.5 608.886 846.323 607.128V561.091C846.323 558.593 845.907 556.987 844.955 556.214C843.595 555.236 841.923 554.792 840.257 554.965H823.543C821.857 554.777 820.161 555.222 818.785 556.214C817.973 557.64 817.6 559.275 817.714 560.913V607.187C817.576 608.921 817.949 610.658 818.785 612.183C820.19 613.104 821.874 613.504 823.543 613.313L840.435 613.254Z" fill="white"/>
<path d="M905.094 521.895H943.279L974.089 577.745V521.895H1013.34V646.621H974.683L943.874 592.02V646.621H905.094V521.895Z" fill="white"/>
<path d="M109.149 646.621C104.922 646.623 100.709 646.124 96.5992 645.134C93.5654 644.498 90.7662 643.037 88.5101 640.911C86.2679 638.763 84.645 636.051 83.8113 633.06C82.8161 629.173 82.3165 625.176 82.3244 621.164V547.827C82.2461 543.498 82.7462 539.177 83.8113 534.98C84.676 531.971 86.3171 529.243 88.5696 527.069C91.1462 525.074 94.1318 523.673 97.3129 522.965C101.49 522.187 105.734 521.828 109.982 521.895H163.869L171.245 555.143H127.944C126.315 554.965 124.678 555.412 123.364 556.392C122.842 557.048 122.457 557.801 122.233 558.609C122.008 559.416 121.948 560.26 122.056 561.091V606.295C122.01 607.512 122.11 608.73 122.353 609.923C122.437 610.731 122.794 611.486 123.364 612.064C123.986 612.508 124.696 612.813 125.446 612.956C126.799 613.207 128.175 613.307 129.55 613.254H173.029L164.464 646.621H109.149Z" fill="#FDEE1E"/>
<path d="M210.33 646.621C207.443 646.77 204.557 646.319 201.854 645.295C199.151 644.271 196.69 642.697 194.627 640.673C192.655 638.634 191.112 636.22 190.09 633.574C189.068 630.928 188.589 628.103 188.68 625.268V543.544C188.585 540.664 189.063 537.793 190.083 535.098C191.104 532.403 192.649 529.937 194.627 527.842C196.686 525.811 199.146 524.234 201.85 523.209C204.554 522.185 207.443 521.737 210.33 521.894H274.15C277.016 521.772 279.876 522.236 282.556 523.259C285.236 524.282 287.678 525.841 289.733 527.842C291.726 529.927 293.279 532.392 294.301 535.089C295.323 537.787 295.792 540.662 295.681 543.544V625.089C295.765 628.096 295.111 631.077 293.778 633.773C292.75 636.425 291.073 638.777 288.901 640.613C284.314 644.452 278.525 646.557 272.544 646.561L210.33 646.621ZM250.359 613.253C252.011 613.362 253.656 612.946 255.058 612.063C255.944 610.579 256.32 608.845 256.128 607.127V561.09C256.33 559.39 255.953 557.672 255.058 556.213C253.655 555.34 252.001 554.963 250.359 555.142H233.705C232.876 554.865 231.987 554.824 231.136 555.024C230.286 555.224 229.508 555.658 228.89 556.275C228.272 556.893 227.839 557.671 227.639 558.522C227.438 559.372 227.479 560.262 227.757 561.09V607.424C227.757 610.041 227.757 611.528 228.828 612.42C230.241 613.375 231.955 613.777 233.645 613.55L250.359 613.253Z" fill="#FDEE1E"/>
<path d="M315.188 521.895H364.376L385.313 571.024L407.26 521.895H456.092V646.621H416.598V586.072L385.313 645.967L354.86 586.072V646.621H315.188V521.895Z" fill="#FDEE1E"/>
<path d="M515.685 521.895H476.43V646.562H515.685V521.895Z" fill="#FDEE1E"/>
<path d="M562.789 646.622C558.581 646.629 554.387 646.13 550.299 645.135C547.127 644.542 544.183 643.08 541.793 640.912C539.622 638.719 538.028 636.021 537.154 633.061C536.179 629.172 535.699 625.175 535.726 621.165V547.828C535.608 543.485 536.17 539.15 537.392 534.981C538.223 531.944 539.893 529.203 542.21 527.07C544.704 525.121 547.582 523.723 550.656 522.966C554.914 522.197 559.236 521.838 563.562 521.896H617.628L625.063 555.144H581.584C579.919 554.982 578.251 555.425 576.886 556.393C576.387 557.059 576.025 557.817 575.821 558.624C575.617 559.43 575.574 560.269 575.696 561.092V606.296C575.522 607.499 575.522 608.721 575.696 609.924C575.763 610.713 576.075 611.462 576.588 612.065C577.244 612.527 577.997 612.833 578.789 612.957C580.143 613.2 581.518 613.3 582.893 613.255H626.372L618.045 646.622H562.789Z" fill="#FDEE1E"/>
<path d="M203.668 506.131H170.836V405.018H203.668V506.131ZM172.204 504.763H202.3V406.445H172.204V504.763Z" fill="#939393"/>
<path d="M306.326 506.131H274.505L250.714 464.496V506.131H218.477V405.018H250.357L274.148 447.723V405.137H306.683L306.326 506.131ZM275.338 504.763H305.077V406.445H275.338V453.017L249.346 406.445H219.607V504.763H249.346V459.322L275.338 504.763Z" fill="#939393"/>
<path d="M382.217 506.131H320.717V405.018H382.217C385.736 404.903 389.254 405.243 392.686 406.029C395.35 406.838 397.806 408.218 399.883 410.073C401.867 412.084 403.23 414.624 403.808 417.389C404.77 420.893 405.172 424.526 404.998 428.155V482.935C405.18 486.587 404.758 490.245 403.749 493.76C403.142 496.467 401.805 498.957 399.883 500.957C397.924 502.99 395.393 504.38 392.626 504.942C389.218 505.762 385.723 506.161 382.217 506.131ZM322.085 504.763H382.217C385.642 504.814 389.059 504.434 392.388 503.633C394.876 503.123 397.155 501.88 398.931 500.065C400.72 498.221 401.956 495.914 402.5 493.403C403.477 490.004 403.899 486.469 403.749 482.935V428.155C403.848 424.721 403.427 421.292 402.5 417.984C401.97 415.451 400.732 413.121 398.931 411.263C397.007 409.594 394.759 408.338 392.329 407.575C389.012 406.836 385.614 406.516 382.217 406.624L322.085 406.445V504.763ZM368.775 479.545H351.467V431.486H368.716C370.299 431.31 371.891 431.734 373.177 432.675C373.817 433.946 374.124 435.358 374.069 436.779V473.894C374.157 475.363 373.827 476.828 373.117 478.117C371.854 479.033 370.336 479.532 368.775 479.545ZM352.835 478.177H368.775C369.989 478.283 371.208 478.035 372.285 477.463C372.817 476.415 373.064 475.246 372.998 474.072V436.958C373.05 435.805 372.805 434.658 372.285 433.627C371.223 433.014 369.997 432.744 368.775 432.854H352.835V478.177Z" fill="#939393"/>
<path d="M437.293 506.131C434.888 506.264 432.483 505.893 430.229 505.043C427.976 504.193 425.925 502.882 424.208 501.194C421.025 497.685 419.32 493.083 419.449 488.347V422.92C419.277 418.106 420.983 413.414 424.208 409.835C425.929 408.159 427.984 406.864 430.238 406.034C432.492 405.204 434.896 404.858 437.293 405.017H488.266C490.644 404.864 493.029 405.213 495.263 406.043C497.497 406.874 499.531 408.166 501.232 409.835C502.906 411.597 504.201 413.683 505.04 415.963C505.879 418.244 506.243 420.672 506.109 423.099V488.525C506.235 490.986 505.744 493.439 504.682 495.663C503.754 497.886 502.4 499.906 500.697 501.611C498.87 503.218 496.721 504.414 494.392 505.12C492.029 506.062 489.502 506.527 486.957 506.488L437.293 506.131ZM437.293 406.623C435.118 406.489 432.939 406.805 430.892 407.552C428.845 408.299 426.974 409.461 425.397 410.965C422.544 414.266 421 418.498 421.055 422.861V488.287C420.94 492.671 422.516 496.93 425.457 500.183C426.959 501.645 428.737 502.792 430.688 503.558C432.638 504.324 434.722 504.693 436.817 504.644H487.195C489.586 504.734 491.972 504.35 494.214 503.514C496.421 502.895 498.456 501.775 500.162 500.243C501.747 498.755 503.003 496.951 503.849 494.949C504.91 492.915 505.423 490.639 505.336 488.347V422.92C505.425 420.73 505.065 418.544 504.277 416.499C503.489 414.453 502.291 412.59 500.756 411.025C499.137 409.393 497.178 408.138 495.02 407.346C492.862 406.555 490.556 406.247 488.266 406.445L437.293 406.623ZM469.471 479.544H456.088C455.34 479.648 454.579 479.596 453.852 479.391C453.125 479.186 452.449 478.833 451.865 478.354C450.93 477.134 450.504 475.6 450.676 474.072V436.898C450.535 435.41 450.96 433.923 451.865 432.734C452.46 431.902 453.768 431.545 456.088 431.545H469.352C470.872 431.356 472.405 431.761 473.634 432.675C474.59 433.886 475.038 435.422 474.883 436.957V474.072C475.014 475.596 474.592 477.116 473.694 478.354C473.106 478.827 472.43 479.176 471.704 479.381C470.978 479.585 470.218 479.641 469.471 479.544ZM456.088 432.853C453.887 432.853 453.174 433.27 452.936 433.567C452.567 434.032 452.298 434.567 452.145 435.14C451.991 435.713 451.957 436.311 452.044 436.898V474.072C451.882 475.267 452.179 476.478 452.876 477.462C452.876 477.462 453.649 478.176 456.088 478.176H469.471C470.619 478.325 471.782 478.05 472.742 477.403C473.341 476.4 473.612 475.236 473.515 474.072V436.957C473.611 435.786 473.318 434.615 472.683 433.626C471.688 433.007 470.517 432.735 469.352 432.853H456.088Z" fill="#939393"/>
<path d="M608.472 506.131H576.711L552.92 464.496V506.131H520.504V405.018H552.146L575.938 447.604V405.255H608.651L608.472 506.131ZM577.484 504.763H607.223V406.445H577.484V452.898L551.373 406.445H521.634V504.585H551.373V459.322L577.484 504.763Z" fill="#939393"/>
<path d="M690.493 506.131H622.688V405.018H691.266L696.857 432.735H655.222V443.381H690.909V468.243H655.222V477.938H697.333L690.493 506.131ZM624.174 504.763H689.601L695.549 479.544H653.914V467.113H689.601V444.987H653.914V431.605H695.549L690.493 406.624H624.056L624.174 504.763Z" fill="#939393"/>
<path d="M765.201 506.131H715.24L709.292 478.177H752.116C752.889 478.177 753.068 478.177 753.068 478.177C753.068 478.177 753.068 477.701 753.068 476.927V469.968C753.068 468.422 752.176 468.244 751.521 468.244H729.752C726.276 468.36 722.8 468.04 719.403 467.292C716.903 466.775 714.584 465.606 712.682 463.902C710.931 462.118 709.787 459.829 709.411 457.359C708.559 454.079 708.178 450.694 708.281 447.307V427.322C708.145 423.828 708.567 420.335 709.53 416.973C709.964 414.295 711.259 411.831 713.217 409.955C715.229 408.016 717.779 406.731 720.533 406.267C723.86 405.46 727.283 405.12 730.704 405.256H781.082L787.03 432.973H741.826C741.511 432.922 741.19 432.922 740.875 432.973C740.791 433.425 740.791 433.889 740.875 434.341V442.132C740.779 442.503 740.779 442.892 740.875 443.263C741.205 443.49 741.605 443.595 742.005 443.56H766.272C769.664 443.521 773.051 443.82 776.383 444.452C778.891 444.921 781.205 446.119 783.036 447.896C784.866 449.673 786.131 451.951 786.673 454.445C787.49 457.791 787.87 461.23 787.803 464.675V484.303C787.907 487.835 787.487 491.363 786.554 494.771C785.857 497.334 784.504 499.671 782.629 501.552C780.562 503.189 778.169 504.365 775.61 505.001C772.202 505.815 768.705 506.194 765.201 506.131ZM716.37 504.763H765.201C768.522 504.851 771.841 504.511 775.075 503.752C777.433 503.167 779.641 502.093 781.558 500.6C783.199 498.936 784.404 496.893 785.067 494.652C785.984 491.384 786.385 487.992 786.257 484.6V464.734C786.339 461.41 785.979 458.09 785.186 454.861C784.737 452.591 783.61 450.512 781.953 448.897C780.296 447.283 778.188 446.21 775.908 445.82C772.67 445.236 769.384 444.957 766.094 444.987H741.826C741.068 445.018 740.325 444.764 739.745 444.274C739.35 443.699 739.161 443.007 739.209 442.311V434.519C739.131 433.727 739.319 432.932 739.745 432.259C740.288 432.018 740.876 431.897 741.47 431.902H785.008L779.714 406.445H730.466C727.147 406.319 723.826 406.639 720.593 407.397C718.097 407.842 715.784 408.998 713.931 410.728C712.169 412.438 711.001 414.669 710.6 417.092C709.676 420.36 709.255 423.749 709.351 427.144V447.129C709.25 450.418 709.631 453.704 710.481 456.883C710.816 459.131 711.858 461.214 713.455 462.831C715.131 464.356 717.185 465.403 719.403 465.864C722.707 466.556 726.081 466.856 729.455 466.757H751.581C751.984 466.737 752.387 466.805 752.762 466.956C753.136 467.107 753.474 467.338 753.751 467.632C754.028 467.926 754.238 468.276 754.366 468.659C754.495 469.042 754.539 469.448 754.495 469.85V476.63C754.565 477.384 754.377 478.139 753.96 478.771C753.687 479.016 753.367 479.2 753.018 479.313C752.67 479.426 752.302 479.464 751.938 479.426H710.779L716.37 504.763Z" fill="#939393"/>
<path d="M834.783 506.131H802.248V405.018H834.783V506.131ZM803.497 504.763H833.236V406.445H803.497V504.763Z" fill="#939393"/>
<path d="M942.387 506.131H908.366L906.403 495.662H881.719L879.578 506.369H845.557L870.954 405.255H916.931V405.79L942.387 506.131ZM909.496 504.763H940.663L915.86 406.444H872.025L847.281 504.584H878.448L880.649 493.878H907.533L909.496 504.763ZM903.132 474.191H884.753L893.853 429.165L903.132 474.191ZM886.418 472.882H901.466L893.853 436.184L886.418 472.882Z" fill="#939393"/>
<path d="M755.146 647.275H698.999C694.749 647.321 690.511 646.821 686.389 645.788C683.189 645.172 680.235 643.643 677.884 641.386C675.606 639.141 673.929 636.359 673.007 633.297C671.964 629.259 671.483 625.095 671.579 620.926V547.826C671.445 543.432 671.967 539.042 673.126 534.8C674.105 531.702 675.819 528.886 678.122 526.592C680.693 524.481 683.732 523.013 686.984 522.31C691.264 521.552 695.604 521.193 699.95 521.239H754.551L761.867 555.856H717.734C716.236 555.729 714.736 556.084 713.452 556.867C712.639 558.117 712.282 559.608 712.441 561.09V606.294C712.367 607.456 712.488 608.621 712.798 609.744C712.865 610.162 713.006 610.564 713.214 610.933C713.235 611.091 713.235 611.251 713.214 611.409C713.748 611.777 714.358 612.021 714.998 612.123C716.361 612.296 717.74 612.296 719.102 612.123H763.354L755.146 647.275ZM699.95 522.369C695.686 522.332 691.427 522.67 687.222 523.381C684.229 524.064 681.425 525.405 679.014 527.306C676.916 529.476 675.348 532.102 674.434 534.979C673.325 539.087 672.824 543.335 672.947 547.588V620.926C672.867 624.934 673.327 628.935 674.315 632.821C675.153 635.683 676.709 638.284 678.835 640.375C681.02 642.468 683.77 643.874 686.746 644.42C690.756 645.398 694.871 645.878 698.999 645.847H754.076L761.867 613.966H719.34C717.898 614.143 716.44 614.143 714.998 613.966C714.12 613.782 713.29 613.418 712.56 612.896C712.579 612.718 712.579 612.538 712.56 612.361C712.231 611.839 712.027 611.249 711.965 610.636C711.648 609.414 711.527 608.149 711.608 606.889V561.09C711.412 559.256 711.899 557.413 712.976 555.915C714.491 554.823 716.35 554.316 718.21 554.488H760.618L753.897 522.607L699.95 522.369Z" fill="#939393"/>
<path d="M862.272 647.275H800.117C797.149 647.399 794.188 646.902 791.422 645.817C788.657 644.731 786.149 643.08 784.058 640.97C782.052 638.858 780.491 636.363 779.469 633.635C778.447 630.906 777.985 628 778.11 625.089V543.544C777.972 540.587 778.427 537.632 779.449 534.854C780.47 532.075 782.037 529.529 784.058 527.366C786.181 525.323 788.704 523.74 791.467 522.717C794.23 521.693 797.175 521.251 800.117 521.418H863.878C866.847 521.255 869.817 521.698 872.609 522.721C875.401 523.743 877.955 525.324 880.116 527.366C882.122 529.539 883.681 532.086 884.701 534.863C885.722 537.639 886.185 540.589 886.063 543.544V625.089C886.127 628.112 885.527 631.112 884.304 633.876C883.081 636.641 881.265 639.103 878.985 641.089C876.783 643.039 874.243 644.571 871.491 645.61C868.536 646.688 865.418 647.252 862.272 647.275ZM800.117 522.37C797.322 522.238 794.53 522.699 791.926 523.725C789.322 524.75 786.965 526.315 785.01 528.318C783.122 530.361 781.661 532.76 780.711 535.374C779.762 537.989 779.342 540.766 779.478 543.544V625.089C779.356 627.821 779.782 630.55 780.732 633.114C781.682 635.678 783.137 638.026 785.01 640.019C786.974 642.009 789.332 643.566 791.934 644.591C794.536 645.615 797.323 646.084 800.117 645.966H862.272C865.313 645.975 868.333 645.451 871.194 644.42C873.781 643.435 876.176 642.006 878.272 640.197C880.286 638.289 881.938 636.032 883.149 633.535C884.3 630.89 884.888 628.034 884.874 625.149V543.544C884.948 540.738 884.459 537.945 883.438 535.33C882.416 532.715 880.882 530.331 878.926 528.318C876.922 526.331 874.531 524.778 871.901 523.755C869.272 522.732 866.46 522.26 863.64 522.37H800.117ZM840.443 613.729H823.552C821.698 613.935 819.833 613.448 818.317 612.361C817.435 610.722 817.042 608.864 817.187 607.008V561.09C817.05 559.304 817.466 557.518 818.377 555.975C819.881 554.81 821.78 554.277 823.671 554.488H840.384C842.218 554.303 844.056 554.789 845.559 555.856C846.186 556.597 846.648 557.463 846.914 558.396C847.181 559.329 847.246 560.309 847.105 561.269V607.365C847.284 609.271 846.755 611.177 845.618 612.718C844.884 613.264 844.048 613.657 843.158 613.871C842.269 614.086 841.346 614.119 840.443 613.967V613.729ZM819.329 611.409C820.584 612.206 822.076 612.542 823.552 612.361H840.443C841.87 612.523 843.306 612.164 844.488 611.35C845.404 610.052 845.825 608.47 845.678 606.889V561.09C845.898 559.532 845.492 557.949 844.547 556.689C843.264 555.906 841.764 555.551 840.265 555.678H823.552C822.031 555.506 820.498 555.863 819.21 556.689C818.623 558.016 818.358 559.463 818.436 560.912V607.186C818.329 608.726 818.637 610.267 819.329 611.647V611.409Z" fill="#939393"/>
<path d="M1014 647.274H974.326L944.587 594.575V647.274H904.617V521.238H943.932L973.672 575.126V521.238H1014.24L1014 647.274ZM975.099 645.906H1012.63V522.606H974.742V580.36L942.862 522.606H905.747V645.906H943.219V589.401L975.099 645.906Z" fill="#939393"/>
<path d="M272.239 647.393H210.56C207.518 647.527 204.482 647.025 201.645 645.919C198.808 644.813 196.233 643.127 194.084 640.969C192.073 638.788 190.512 636.23 189.492 633.444C188.471 630.657 188.01 627.697 188.137 624.732V543.9C187.995 540.898 188.448 537.897 189.468 535.07C190.489 532.242 192.058 529.644 194.084 527.425C196.247 525.294 198.828 523.634 201.663 522.549C204.498 521.464 207.527 520.978 210.56 521.12H273.786C276.817 520.985 279.844 521.475 282.679 522.559C285.513 523.644 288.094 525.3 290.261 527.425C292.357 529.612 293.995 532.196 295.078 535.026C296.16 537.855 296.666 540.872 296.566 543.9V624.732C296.649 627.923 295.955 631.087 294.544 633.951C293.415 636.727 291.641 639.194 289.369 641.148C284.537 645.086 278.471 647.192 272.239 647.096V647.393ZM210.56 523.796C207.893 523.642 205.223 524.05 202.723 524.992C200.223 525.935 197.949 527.392 196.047 529.269C194.229 531.23 192.819 533.534 191.9 536.046C190.981 538.558 190.571 541.228 190.694 543.9V624.732C190.581 627.358 190.997 629.98 191.916 632.442C192.836 634.904 194.241 637.157 196.047 639.066C197.91 641.026 200.166 642.569 202.667 643.594C205.168 644.619 207.858 645.103 210.56 645.014H272.239C275.143 645.003 278.022 644.479 280.745 643.467C283.22 642.482 285.528 641.118 287.585 639.423C289.525 637.811 291.072 635.777 292.105 633.475C293.362 630.947 293.975 628.148 293.889 625.327V543.9C293.98 541.212 293.533 538.532 292.573 536.019C291.612 533.506 290.159 531.211 288.298 529.269C286.382 527.413 284.105 525.969 281.609 525.028C279.113 524.087 276.45 523.668 273.786 523.796H210.56ZM250.351 614.62H233.935C232.887 614.771 231.818 614.706 230.796 614.43C229.773 614.154 228.817 613.672 227.987 613.014C226.774 611.285 226.264 609.158 226.56 607.067V561.09C226.315 559.113 226.824 557.116 227.987 555.499C228.812 554.831 229.767 554.344 230.791 554.067C231.816 553.791 232.886 553.731 233.935 553.893H250.351C252.308 553.767 254.252 554.289 255.883 555.38C257.043 557.131 257.529 559.245 257.251 561.327V607.007C257.52 609.082 257.058 611.185 255.942 612.955C254.32 614.125 252.349 614.712 250.351 614.62ZM233.876 556.748C231.258 556.748 230.366 557.283 230.069 557.58C229.482 558.715 229.254 560.001 229.415 561.268V607.186C229.229 608.556 229.479 609.95 230.128 611.171C230.426 611.171 231.377 611.884 233.876 611.884H250.351C251.655 611.984 252.959 611.694 254.098 611.052C254.67 609.848 254.896 608.51 254.752 607.186V561.09C254.898 559.746 254.672 558.388 254.098 557.164C252.957 556.528 251.654 556.239 250.351 556.331L233.876 556.748Z" fill="#FAB018"/>
<path d="M385.255 648.702L356.289 591.662V647.691H314.119V520.823H365.39L385.315 567.692L406.311 520.823H457.165V647.691H415.113V591.543L385.255 648.702ZM417.85 645.015H454.488V523.5H408.036L385.255 574.473L363.367 523.5H316.796V645.015H353.613V580.421L385.315 642.814L417.85 580.54V645.015Z" fill="#FAB018"/>
<path d="M517.055 647.87H475.42V520.646H517.055V647.87ZM477.799 645.194H514.378V523.322H477.799V645.194Z" fill="#FAB018"/>
<path d="M619.123 647.93H562.797C558.469 647.973 554.153 647.473 549.95 646.443C546.671 645.731 543.636 644.172 541.147 641.922C538.797 639.572 537.079 636.667 536.151 633.477C535.091 629.378 534.572 625.159 534.604 620.927V547.827C534.517 543.345 535.099 538.875 536.329 534.564C537.339 531.28 539.232 528.338 541.801 526.058C544.481 523.986 547.558 522.488 550.842 521.657C555.222 520.904 559.661 520.546 564.105 520.586H619.123L626.558 556.273H581.592C580.267 556.146 578.936 556.437 577.786 557.106C577.25 557.701 577.072 558.831 577.072 560.853V606.057C576.921 607.142 576.921 608.243 577.072 609.328V609.685C577.161 610.098 577.344 610.485 577.607 610.815C578.03 611.123 578.519 611.326 579.035 611.41C580.3 611.538 581.576 611.538 582.841 611.41H628.045L619.123 647.93ZM563.57 523.025C559.326 522.99 555.086 523.328 550.901 524.036C548.052 524.787 545.383 526.102 543.05 527.902C540.959 529.848 539.455 532.341 538.708 535.099C537.547 539.158 537.006 543.369 537.102 547.589V620.927C537.067 624.933 537.526 628.928 538.47 632.822C539.34 635.512 540.804 637.972 542.753 640.019C544.916 641.941 547.538 643.272 550.366 643.885C554.259 644.839 558.253 645.319 562.262 645.313H616.744L625.071 614.622H583.436C582.011 614.751 580.578 614.751 579.153 614.622C578.254 614.48 577.4 614.134 576.655 613.611H576.239C575.601 612.846 575.189 611.92 575.049 610.934C574.883 609.651 574.883 608.351 575.049 607.068V561.091C574.899 560.042 574.963 558.974 575.24 557.952C575.516 556.929 575.997 555.973 576.655 555.143C578.253 553.978 580.217 553.429 582.187 553.597H623.822L617.517 523.084L563.57 523.025Z" fill="#FAB018"/>
<path d="M165.183 647.275H109.333C105.049 647.304 100.776 646.825 96.6046 645.848C93.3875 645.112 90.4161 643.554 87.9803 641.327C85.6292 639.012 83.9269 636.12 83.0436 632.941C82.0078 628.9 81.5078 624.741 81.5566 620.569V548.184C81.4778 543.772 81.998 539.37 83.103 535.099C84.007 531.901 85.753 529.004 88.1587 526.712C90.8646 524.624 93.9887 523.143 97.3184 522.37C101.563 521.655 105.862 521.317 110.166 521.359H164.707L172.44 557.046H127.95C126.682 556.928 125.411 557.22 124.322 557.879C123.61 558.968 123.314 560.277 123.489 561.567V606.294C123.348 607.4 123.348 608.519 123.489 609.625C123.544 610.16 123.774 610.662 124.143 611.053C124.597 611.343 125.101 611.545 125.63 611.648C126.856 611.769 128.092 611.769 129.318 611.648H174.105L165.183 647.275ZM89.7646 528.615C87.7381 530.613 86.2452 533.088 85.4227 535.812C84.4163 539.857 83.9365 544.016 83.9952 548.184V620.569C83.9485 624.576 84.4081 628.573 85.3632 632.465C86.2124 635.105 87.7284 637.482 89.7646 639.365C91.8215 641.306 94.3732 642.643 97.1399 643.231C101.039 644.142 105.031 644.601 109.036 644.599H162.864L170.893 614.621H129.258C127.802 614.685 126.343 614.565 124.916 614.265C123.943 614.084 123.026 613.676 122.24 613.075C121.449 612.285 120.928 611.265 120.753 610.161C120.607 608.896 120.607 607.619 120.753 606.354V561.091C120.643 560.081 120.739 559.06 121.035 558.088C121.332 557.117 121.822 556.216 122.478 555.44C124.047 554.264 125.997 553.713 127.95 553.894H169.109L162.566 523.679H110.285C106.18 523.615 102.078 523.933 98.0321 524.63C95.0287 525.368 92.2126 526.725 89.7646 528.615Z" fill="#FAB018"/>
<path d="M90.7712 579.53C90.0613 579.53 89.3805 579.248 88.8786 578.746C88.3766 578.244 88.0946 577.563 88.0946 576.854V547.65C87.8332 545.098 88.0933 542.521 88.8591 540.073C89.625 537.625 90.8805 535.359 92.5496 533.412C94.2186 531.465 96.2661 529.877 98.5677 528.746C100.869 527.615 103.377 526.964 105.938 526.832H123.127C123.843 526.832 124.53 527.112 125.041 527.612C125.553 528.113 125.848 528.793 125.863 529.509C125.848 530.229 125.555 530.917 125.045 531.426C124.535 531.936 123.848 532.229 123.127 532.245H106.236C104.385 532.354 102.576 532.839 100.92 533.672C99.264 534.504 97.7952 535.666 96.6036 537.086C95.412 538.506 94.5228 540.154 93.9904 541.929C93.4579 543.705 93.2935 545.57 93.5072 547.412V576.854C93.5073 577.21 93.4361 577.563 93.2979 577.892C93.1597 578.22 92.9572 578.518 92.7023 578.768C92.4475 579.017 92.1453 579.213 91.8137 579.344C91.4821 579.475 91.1276 579.538 90.7712 579.53Z" fill="white"/>
<path d="M545.125 571.203C544.41 571.188 543.729 570.892 543.229 570.381C542.728 569.87 542.448 569.183 542.448 568.467V547.65C542.178 545.097 542.432 542.516 543.195 540.064C543.957 537.613 545.212 535.344 546.883 533.394C548.553 531.445 550.605 529.858 552.91 528.73C555.216 527.601 557.728 526.955 560.292 526.832H584.738C585.089 526.832 585.437 526.901 585.762 527.036C586.087 527.17 586.382 527.367 586.63 527.616C586.879 527.865 587.076 528.16 587.21 528.484C587.345 528.809 587.414 529.157 587.414 529.509C587.414 530.224 587.134 530.911 586.634 531.422C586.134 531.934 585.453 532.229 584.738 532.245H560.589C558.729 532.338 556.907 532.812 555.237 533.638C553.567 534.463 552.084 535.623 550.879 537.044C549.675 538.466 548.776 540.12 548.236 541.903C547.696 543.686 547.528 545.561 547.742 547.412V568.467C547.729 569.168 547.452 569.839 546.967 570.346C546.482 570.852 545.825 571.158 545.125 571.203Z" fill="white"/>
<path d="M197.948 580.541C197.233 580.541 196.546 580.261 196.034 579.761C195.523 579.261 195.228 578.58 195.212 577.865C195.212 577.865 194.915 558.653 195.212 543.962C195.304 539.258 197.213 534.772 200.54 531.446C203.866 528.119 208.352 526.21 213.056 526.118H227.985C228.336 526.118 228.684 526.187 229.009 526.322C229.334 526.456 229.629 526.654 229.877 526.902C230.126 527.151 230.323 527.446 230.458 527.77C230.592 528.095 230.661 528.443 230.661 528.795C230.662 529.51 230.381 530.197 229.881 530.709C229.381 531.22 228.7 531.515 227.985 531.531H213.413C210.031 531.562 206.796 532.919 204.405 535.311C202.013 537.702 200.656 540.937 200.625 544.319C200.327 558.891 200.625 577.805 200.625 577.984C200.641 578.699 200.376 579.393 199.887 579.915C199.398 580.438 198.723 580.748 198.008 580.779L197.948 580.541Z" fill="white"/>
<path d="M323.452 642.755C323.1 642.755 322.752 642.685 322.428 642.551C322.103 642.416 321.808 642.219 321.559 641.971C321.311 641.722 321.114 641.427 320.979 641.102C320.845 640.778 320.775 640.43 320.775 640.078V529.329C320.775 528.977 320.845 528.629 320.979 528.305C321.114 527.98 321.311 527.685 321.559 527.436C321.808 527.188 322.103 526.991 322.428 526.856C322.752 526.722 323.1 526.652 323.452 526.652H345.518C346.234 526.652 346.921 526.932 347.432 527.433C347.944 527.933 348.239 528.614 348.254 529.329C348.239 530.05 347.946 530.737 347.436 531.247C346.926 531.757 346.239 532.05 345.518 532.065H326.485V640.078C326.489 640.462 326.41 640.842 326.253 641.192C326.097 641.542 325.867 641.855 325.58 642.109C325.292 642.363 324.953 642.552 324.586 642.663C324.219 642.775 323.832 642.806 323.452 642.755Z" fill="white"/>
<path d="M391.672 581.611C391.301 581.7 390.914 581.7 390.542 581.611C390.216 581.469 389.921 581.264 389.675 581.007C389.429 580.75 389.236 580.446 389.109 580.114C388.982 579.782 388.922 579.427 388.933 579.072C388.944 578.716 389.026 578.366 389.174 578.042L411.717 528.437C411.933 527.973 412.277 527.581 412.709 527.307C413.142 527.033 413.643 526.888 414.155 526.891H430.928C431.638 526.891 432.319 527.173 432.821 527.675C433.323 528.177 433.605 528.857 433.605 529.567C433.605 530.283 433.325 530.97 432.824 531.481C432.324 531.993 431.643 532.288 430.928 532.303H415.94L394.111 580.243C393.865 580.669 393.509 581.021 393.08 581.262C392.65 581.503 392.164 581.623 391.672 581.611Z" fill="white"/>
<path d="M506.523 644.658C505.797 644.658 505.102 644.369 504.588 643.856C504.075 643.343 503.787 642.647 503.787 641.922V536.763C503.884 536.115 504.21 535.522 504.707 535.094C505.203 534.665 505.837 534.43 506.493 534.43C507.149 534.43 507.783 534.665 508.28 535.094C508.777 535.522 509.103 536.115 509.2 536.763V641.922C509.2 642.637 508.92 643.324 508.419 643.836C507.919 644.347 507.238 644.642 506.523 644.658Z" fill="white"/>
</svg>
