<svg width="1080" height="1080" viewBox="0 0 1080 1080" fill="none" xmlns="http://www.w3.org/2000/svg">
<rect width="1080" height="1080" fill="#520000"/>
<path d="M521.461 555.979H535.942V596.253H521.461V555.979Z" fill="white"/>
<path d="M539.121 555.979H555.714L567.313 575.972H568.654V555.979H582.795V596.253H566.543L554.558 576.261H553.262V596.253H539.121V555.979Z" fill="white"/>
<path d="M629.089 576.12C629.089 587.72 623.386 596.253 606.749 596.253H585.941V555.979H606.749C623.378 555.979 629.089 564.468 629.089 576.12ZM614.512 576.12C614.512 570.076 611.015 568.113 606.741 568.113H600.504L600.46 584.127H606.741C611.015 584.12 614.512 582.113 614.512 576.12Z" fill="white"/>
<path d="M631.031 576.12C631.031 563.128 639.994 554.646 654.046 554.646C668.135 554.646 677.105 563.128 677.105 576.12C677.105 589.113 668.142 597.594 654.046 597.594C640.002 597.594 631.031 589.105 631.031 576.12ZM662.675 576.12C662.675 570.269 658.698 567.157 654.046 567.157C649.438 567.157 645.416 570.276 645.416 576.12C645.416 581.965 649.438 585.083 654.046 585.083C658.698 585.083 662.675 581.965 662.675 576.12Z" fill="white"/>
<path d="M679.578 555.979H696.171L707.771 575.972H709.111V555.979H723.252V596.253H707L695.022 576.261H693.726V596.253H679.586V555.979H679.578Z" fill="white"/>
<path d="M726.406 555.979H763.465V567.535H740.88V571.468H762.599V580.772H740.88V584.653H763.465V596.253H726.406V555.979Z" fill="white"/>
<path d="M765.747 582.446H778.739C778.836 584.846 780.843 586.232 786.31 586.328C791.006 586.372 793.021 585.128 793.021 583.691C793.021 582.921 792.828 581.58 789.184 581.098L783.91 580.283C776.339 579.084 766.658 578.558 766.658 567.721C766.658 559.617 773.125 554.632 786.458 554.632C798.347 554.632 806.643 557.698 806.302 569.684H793.362C792.932 567.335 790.865 565.891 786.117 565.891C782.043 565.891 780.554 567.047 780.554 568.484C780.554 569.158 780.895 570.498 783.621 570.928L787.836 571.595C795.939 572.935 807.443 572.795 807.443 584.298C807.443 593.313 800.547 597.624 786.302 597.58C771.88 597.543 765.31 593.232 765.747 582.446Z" fill="white"/>
<path d="M809.777 555.979H824.259V596.253H809.777V555.979Z" fill="white"/>
<path d="M858.889 591.409H842.489L840.955 596.253H826L840.526 555.979H860.852L875.429 596.253H860.422L858.889 591.409ZM855.481 580.72L851.933 569.594H849.444L845.896 580.72H855.481Z" fill="white"/>
<path d="M520.742 636.935C520.742 623.942 529.801 615.461 543.564 615.461C553.683 615.461 564.127 619.92 565.238 634.105H551.431C550.52 629.935 547.69 627.972 543.572 627.972C538.92 627.972 535.135 631.379 535.135 636.935C535.135 642.446 538.92 645.898 543.572 645.898C547.698 645.898 550.52 643.935 551.431 639.668H565.238C564.134 653.957 553.831 658.416 543.564 658.416C529.801 658.416 520.742 649.927 520.742 636.935Z" fill="white"/>
<path d="M567.613 636.935C567.613 623.942 576.576 615.461 590.628 615.461C604.717 615.461 613.687 623.942 613.687 636.935C613.687 649.927 604.724 658.409 590.628 658.409C576.576 658.416 567.613 649.927 567.613 636.935ZM599.258 636.935C599.258 631.083 595.28 627.972 590.628 627.972C586.021 627.972 581.998 631.09 581.998 636.935C581.998 642.779 586.021 645.898 590.628 645.898C595.272 645.905 599.258 642.787 599.258 636.935Z" fill="white"/>
<path d="M616.156 616.802H653.119V628.883H630.638V633.002H652.208V643.409H630.638V657.076H616.156V616.802Z" fill="white"/>
<path d="M656.258 616.802H693.22V628.883H670.739V633.002H692.309V643.409H670.739V657.076H656.258V616.802Z" fill="white"/>
<path d="M696.371 616.802H733.43V628.357H710.845V632.291H732.563V641.594H710.845V645.476H733.43V657.076H696.371V616.802Z" fill="white"/>
<path d="M736.621 616.802H773.68V628.357H751.095V632.291H772.813V641.594H751.095V645.476H773.68V657.076H736.621V616.802Z" fill="white"/>
<path d="M521.461 677.623H558.424V689.704H535.942V693.823H557.513V704.23H535.942V717.897H521.461V677.623Z" fill="white"/>
<path d="M561.562 677.623H598.621V689.179H576.036V693.112H597.755V702.415H576.036V706.297H598.621V717.897H561.562V677.623Z" fill="white"/>
<path d="M600.906 704.082H613.899C613.995 706.482 616.003 707.867 621.469 707.964C626.166 708.008 628.18 706.764 628.18 705.327C628.18 704.556 627.988 703.216 624.343 702.734L619.069 701.919C611.499 700.719 601.818 700.193 601.818 689.356C601.818 681.253 608.284 676.268 621.617 676.268C633.506 676.268 641.802 679.334 641.462 691.319H628.521C628.091 688.971 626.025 687.527 621.277 687.527C617.203 687.527 615.714 688.682 615.714 690.119C615.714 690.793 616.055 692.134 618.78 692.564L622.995 693.23C631.099 694.571 642.602 694.43 642.602 705.934C642.602 714.949 635.706 719.26 621.462 719.215C607.047 719.186 600.477 714.867 600.906 704.082Z" fill="white"/>
<path d="M686.556 689.704H672.274V717.889H657.749V689.704H643.512V677.623H686.563V689.704H686.556Z" fill="white"/>
<path d="M689.461 677.623H703.942V717.897H689.461V677.623Z" fill="white"/>
<path d="M705.68 677.623H720.643L729.605 704.275H731.139L740.102 677.623H755.109L740.531 717.897H720.205L705.68 677.623Z" fill="white"/>
<path d="M778.674 713.052H762.274L760.741 717.897H745.785L760.311 677.623H780.637L795.214 717.897H780.207L778.674 713.052ZM775.266 702.364L771.726 691.238H769.229L765.681 702.364H775.266Z" fill="white"/>
<path d="M796.926 677.623H811.407V705.808H832.311V717.889H796.933V677.623H796.926Z" fill="white"/>
<path d="M519.883 369.537C519.883 363.737 523.127 360.492 528.927 360.492H587.356C593.156 360.492 596.401 363.737 596.401 369.537V513.75C596.401 519.55 593.156 522.795 587.356 522.795H528.927C523.127 522.795 519.883 519.55 519.883 513.75V369.537Z" fill="white"/>
<path d="M693.54 516.995C693.54 522.795 691.221 526.506 684.266 526.039C635.11 522.328 603.348 489.41 603.348 441.181C603.348 393.188 635.11 360.729 684.266 357.018C690.295 356.789 693.54 360.033 693.54 366.063V516.995Z" fill="white"/>
<path d="M709.533 437.937C703.733 437.937 700.488 434.692 700.488 428.892V366.056C700.488 360.034 703.733 356.782 709.762 357.011C754.051 360.493 784.888 387.389 789.984 428.426C790.68 434.455 787.895 437.929 781.406 437.929H709.533V437.937Z" fill="white"/>
<path d="M700.496 453.936C700.496 448.136 703.741 444.892 709.54 444.892H781.184C787.673 444.892 790.688 448.366 789.999 454.395C784.666 494.973 754.296 522.565 710.933 525.81C703.281 526.506 700.504 523.261 700.504 516.995V453.936H700.496Z" fill="white"/>
<path d="M797.867 369.537C797.867 363.737 801.111 360.492 806.911 360.492H930.955C936.755 360.492 939.999 363.737 939.999 369.537V401.529C939.999 407.329 936.755 410.573 930.955 410.573H806.904C801.104 410.573 797.859 407.329 797.859 401.529V369.537H797.867Z" fill="white"/>
<path d="M797.867 426.573C797.867 420.773 801.112 417.528 806.912 417.528H865.341C871.141 417.528 874.385 420.773 874.385 426.573V513.75C874.385 519.55 871.141 522.794 865.341 522.794H806.912C801.112 522.794 797.867 519.55 797.867 513.75V426.573Z" fill="white"/>
<path d="M881.332 426.573C881.332 420.773 884.576 417.528 890.376 417.528H919.124C924.924 417.528 928.169 420.773 928.169 426.573V456.254C928.169 462.054 924.924 465.298 919.124 465.298H890.376C884.576 465.298 881.332 462.054 881.332 456.254V426.573Z" fill="white"/>
<path d="M476.826 455.507C453.374 413.582 415.004 383.293 368.775 370.234C273.324 343.256 173.769 398.96 146.799 494.389C119.829 589.817 175.524 689.402 270.953 716.372C287.242 720.979 303.649 723.172 319.797 723.172C398.256 723.172 470.567 671.35 492.929 592.217C505.996 545.981 500.277 497.433 476.826 455.507ZM238.465 639.261C230.954 632.884 231.191 616.143 239.124 594.484C248.013 570.188 265.227 542.292 287.59 515.929C327.257 469.174 368.604 443.996 390.36 443.996C394.923 443.996 398.619 445.1 401.256 447.344C408.774 453.722 408.53 470.463 400.604 492.122C391.715 516.418 374.501 544.314 352.13 570.677C329.768 597.047 305.049 618.58 282.531 631.313C262.457 642.661 245.968 645.632 238.465 639.261ZM374.041 434.285C348.471 441.648 314.227 465.011 277.968 507.759C264.716 523.381 253.183 539.573 243.968 555.358C250.502 541.373 258.939 527.04 269.013 513.144C301.286 468.641 343.723 437.989 374.041 434.285ZM266.605 652.195C273.457 650.047 280.872 646.75 288.746 642.298C312.523 628.847 338.456 606.314 361.76 578.84C375.004 563.225 386.538 547.033 395.752 531.255C389.219 545.233 380.789 559.558 370.715 573.455C338.76 617.521 296.857 647.995 266.605 652.195ZM362.004 424.226C329.531 432.767 290.561 462.537 259.079 505.944C243.509 527.41 231.761 549.61 224.517 570.432C229.287 550.877 238.05 530.21 250.368 510.388C280.857 461.352 325.516 428.33 362.004 424.226ZM277.731 662.372C310.205 653.824 349.168 624.062 380.649 580.655C396.226 559.181 407.974 536.973 415.226 516.137C410.456 535.707 401.693 556.381 389.36 576.203C358.871 625.239 314.212 658.261 277.731 662.372ZM352.679 414.063C314.123 422.256 270.346 455.73 240.265 504.107C223.406 531.225 212.917 559.336 209.554 584.995C210.42 560.329 217.946 533.388 231.68 507.67C260.487 453.7 309.397 417.597 352.679 414.063ZM287.005 672.55C325.568 664.372 369.375 630.891 399.463 582.499C416.323 555.388 426.804 527.27 430.174 501.618C429.308 526.285 421.782 553.218 408.049 578.936C379.234 632.921 330.308 669.039 287.005 672.55ZM342.027 404.011C297.464 412.085 249.968 448.878 221.494 502.225C204.191 534.633 196.198 569.084 198.295 599.417C193.398 569.914 198.369 536.781 212.939 504.974C239.642 446.67 292.101 407.663 342.027 404.011ZM297.635 682.587C342.219 674.535 389.752 637.736 418.234 584.366C435.537 551.958 443.53 517.514 441.433 487.174C446.33 516.677 441.359 549.81 426.789 581.617C400.071 639.958 347.568 678.965 297.635 682.587ZM333.012 393.856C281.679 401.271 229.702 441.515 202.761 500.322C185.806 537.344 181.11 576.247 189.035 610.128C178.31 576.869 179.984 538.492 194.154 502.329C218.954 439.063 275.835 396.937 333.012 393.856ZM306.746 692.743C358.064 685.313 410.026 645.069 436.959 586.269C453.915 549.247 458.604 510.344 450.685 476.463C461.411 509.722 459.737 548.099 445.567 584.262C420.782 647.521 363.923 689.654 306.746 692.743ZM325.168 383.686C266.398 390.041 209.383 433.819 184.087 498.381C167.858 539.781 167.065 584.04 181.576 621.447C164.05 584.551 161.732 540.492 175.347 499.714C198.25 431.137 260.146 385.752 325.168 383.686ZM314.701 702.905C373.427 696.498 430.367 652.721 455.648 588.217C471.878 546.803 472.663 502.522 458.13 465.107C475.678 502.011 478.004 546.092 464.381 586.884C441.493 655.41 379.671 700.772 314.701 702.905ZM156.51 497.137C177.547 422.759 245.309 373.96 318.997 373.552C251.894 378.219 189.05 425.671 165.428 496.403C150.369 541.507 153.673 590.462 174.495 630.728C174.547 630.832 174.598 630.928 174.658 631.025C151.206 592.195 143.236 544.136 156.51 497.137ZM483.211 589.462C462.196 663.817 394.478 712.616 320.812 713.054C387.886 708.35 450.685 660.898 474.3 590.195C489.366 545.092 486.055 496.137 465.226 455.863C464.944 455.322 464.656 454.789 464.367 454.255C465.618 456.285 466.833 458.344 468.004 460.433C490.144 500.011 495.544 545.833 483.211 589.462Z" fill="white"/>
</svg>
