<svg width="1080" height="1080" viewBox="0 0 1080 1080" fill="none" xmlns="http://www.w3.org/2000/svg">
<rect width="1080" height="1080" fill="black"/>
<path d="M842.02 697.687C837.424 697.687 833.51 696.064 830.281 692.808C827.053 689.557 825.441 685.653 825.441 681.103V609.347C825.441 604.751 827.058 600.825 830.281 597.568C833.51 594.317 837.424 592.688 842.02 592.688C846.616 592.688 850.542 594.317 853.799 597.568C857.05 600.819 858.678 604.745 858.678 609.347V634.731L843.858 643.389V609.347C843.858 608.859 843.677 608.427 843.308 608.064C842.939 607.696 842.514 607.514 842.026 607.514C841.538 607.514 841.118 607.696 840.778 608.064C840.437 608.433 840.261 608.859 840.261 609.347V681.103C840.261 681.591 840.431 682.01 840.778 682.351C841.118 682.691 841.538 682.867 842.026 682.867C842.514 682.867 842.945 682.697 843.308 682.351C843.677 682.01 843.858 681.591 843.858 681.103V647.571L858.678 638.913V681.103C858.678 685.653 857.05 689.551 853.799 692.808C850.548 696.059 846.622 697.687 842.02 697.687Z" fill="white"/>
<path d="M882.684 697.687C878.134 697.687 874.236 696.064 870.979 692.808C867.728 689.557 866.1 685.653 866.1 681.103V609.347C866.1 604.751 867.722 600.825 870.979 597.568C874.23 594.317 878.134 592.688 882.684 592.688C887.234 592.688 891.206 594.317 894.463 597.568C897.714 600.819 899.342 604.745 899.342 609.347V681.103C899.342 685.653 897.714 689.551 894.463 692.808C891.212 696.059 887.285 697.687 882.684 697.687ZM882.684 682.867C883.172 682.867 883.603 682.697 883.966 682.351C884.335 682.01 884.517 681.591 884.517 681.103V609.347C884.517 608.859 884.335 608.427 883.966 608.064C883.598 607.696 883.172 607.514 882.684 607.514C882.196 607.514 881.776 607.696 881.436 608.064C881.095 608.433 880.92 608.859 880.92 609.347V681.103C880.92 681.591 881.09 682.01 881.436 682.351C881.776 682.691 882.196 682.867 882.684 682.867Z" fill="white"/>
<path d="M940 697.687H925.18V609.352C925.18 608.864 925.01 608.433 924.664 608.07C924.324 607.701 923.904 607.52 923.416 607.52H921.583V697.693H906.763V600.11C906.763 598.056 907.484 596.308 908.925 594.862C910.366 593.42 912.119 592.694 914.173 592.694H923.416C927.966 592.694 931.864 594.323 935.121 597.574C938.372 600.825 940 604.751 940 609.352V697.687Z" fill="white"/>
<path d="M539.72 404.611C537.893 406.228 536.061 407.845 534.234 409.456C533.241 410.33 532.259 411.215 531.255 412.077C529.922 413.229 528.577 414.364 527.244 415.51C526.376 416.259 525.473 416.974 524.668 417.791C524.469 417.989 524.52 418.534 524.6 418.886C525.23 421.672 525.893 424.446 526.552 427.22C527.159 429.796 527.76 432.372 528.367 434.954C528.537 435.686 528.798 436.412 528.844 437.155C528.872 437.592 528.662 438.154 528.367 438.477C527.925 438.959 527.244 439.107 526.642 438.75C523.754 437.03 520.883 435.283 518.001 433.547C515.352 431.947 512.702 430.341 510.041 428.752C509.933 428.684 509.712 428.69 509.598 428.752C506.035 430.903 502.478 433.07 498.915 435.22C496.952 436.406 494.983 437.586 493.003 438.744C492.537 439.016 491.987 439.022 491.55 438.664C491.051 438.256 490.676 437.796 490.864 437.019C491.561 434.154 492.197 431.272 492.861 428.395C493.462 425.813 494.075 423.237 494.676 420.662C494.881 419.788 495.068 418.908 495.266 418.006C494.154 417.064 493.042 416.128 491.942 415.181C490.971 414.341 490.018 413.484 489.042 412.639C487.681 411.464 486.313 410.301 484.952 409.121C483.964 408.27 482.994 407.396 482.013 406.54C481.564 406.154 481.116 405.768 480.651 405.405C480.174 405.036 479.839 404.225 480.055 403.652C480.254 403.113 480.549 402.659 481.258 402.613C482.455 402.545 483.647 402.392 484.838 402.273C486.393 402.12 487.947 401.961 489.502 401.819C490.075 401.768 490.648 401.734 491.221 401.7C492.384 401.62 493.553 401.564 494.716 401.462C496.214 401.325 497.706 401.155 499.204 401.002C499.658 400.957 500.117 400.951 500.566 400.872C500.725 400.843 500.929 400.69 500.991 400.542C502.234 397.626 503.465 394.704 504.691 391.782C505.916 388.877 507.136 385.967 508.356 383.062C508.622 382.42 509.184 381.989 509.825 381.989C510.495 381.989 511 382.369 511.278 383.033C512.378 385.643 513.496 388.247 514.597 390.857C515.839 393.796 517.065 396.741 518.302 399.68C518.427 399.975 518.574 400.259 518.693 400.554C518.824 400.872 519.028 400.985 519.391 401.008C521.167 401.133 522.937 401.308 524.708 401.456C525.797 401.547 526.886 401.598 527.97 401.694C529.53 401.836 531.085 402.006 532.639 402.154C533.649 402.245 534.659 402.313 535.669 402.392C536.639 402.466 537.621 402.511 538.586 402.636C539.215 402.721 539.459 403.283 539.709 403.788V404.605L539.72 404.611Z" fill="#FEF205"/>
<path d="M509.826 381.989C510.495 381.989 511 382.369 511.278 383.033C512.378 385.643 513.496 388.247 514.597 390.857C515.84 393.796 517.065 396.741 518.302 399.68C518.427 399.975 518.575 400.259 518.694 400.554C518.824 400.871 519.029 400.985 519.392 401.008C521.168 401.133 522.938 401.309 524.708 401.456C525.798 401.547 526.887 401.598 527.97 401.694C529.53 401.836 531.085 402.006 532.64 402.153C533.65 402.244 534.66 402.313 535.669 402.393C536.64 402.466 537.622 402.511 538.586 402.636C539.216 402.721 539.46 403.283 539.709 403.788V404.604L539.721 404.61C537.894 406.227 536.061 407.845 534.234 409.456C533.241 410.33 532.259 411.215 531.255 412.077C529.922 413.229 528.578 414.364 527.245 415.51C526.376 416.259 525.474 416.974 524.668 417.791L524.634 417.832C524.476 418.057 524.526 418.556 524.6 418.886C525.23 421.672 525.894 424.446 526.552 427.221C527.159 429.796 527.761 432.373 528.368 434.954C528.538 435.686 528.799 436.412 528.844 437.155C528.872 437.592 528.663 438.154 528.368 438.478L528.282 438.563C527.869 438.948 527.29 439.069 526.756 438.811L526.643 438.75C525.199 437.89 523.759 437.023 522.32 436.154L518.001 433.547C516.677 432.747 515.352 431.945 514.026 431.146L510.041 428.752C509.934 428.684 509.713 428.69 509.599 428.752C506.036 430.902 502.479 433.07 498.915 435.221C496.952 436.406 494.983 437.587 493.003 438.744C492.538 439.016 491.987 439.022 491.55 438.664C491.051 438.256 490.676 437.796 490.864 437.019C491.562 434.153 492.197 431.271 492.861 428.395C493.462 425.813 494.076 423.237 494.677 420.661C494.881 419.788 495.068 418.908 495.267 418.006C494.155 417.064 493.042 416.128 491.942 415.181C490.972 414.341 490.018 413.484 489.042 412.639C487.681 411.464 486.313 410.301 484.952 409.121C483.965 408.27 482.994 407.397 482.013 406.54C481.565 406.154 481.116 405.768 480.651 405.405C480.174 405.036 479.839 404.224 480.055 403.651C480.254 403.112 480.549 402.659 481.258 402.613C482.455 402.545 483.647 402.392 484.838 402.272C486.393 402.119 487.948 401.961 489.502 401.819C490.075 401.768 490.648 401.734 491.221 401.7C492.384 401.621 493.553 401.564 494.716 401.462C496.214 401.326 497.707 401.155 499.205 401.002C499.658 400.957 500.118 400.95 500.566 400.871C500.725 400.843 500.929 400.69 500.992 400.542C501.613 399.084 502.232 397.624 502.848 396.164L504.691 391.782C505.916 388.877 507.136 385.966 508.356 383.062C508.623 382.42 509.184 381.989 509.826 381.989ZM508.359 403.658L508.36 403.659C507.598 405.46 506.392 406.558 505.679 407.104C504.939 407.67 503.684 408.441 501.972 408.747L501.962 408.749C501.333 408.86 500.785 408.905 500.484 408.928C500.372 408.936 500.146 408.951 500.117 408.953C500.076 408.956 500.048 408.958 500.028 408.96C500.024 408.96 500.02 408.96 500.017 408.96L500.018 408.961C499.193 409.045 498.26 409.146 497.309 409.244C498.329 410.12 499.353 410.983 500.437 411.901L504.117 415.018L503.08 419.727C502.897 420.557 502.687 421.542 502.467 422.482C502.353 422.972 502.239 423.451 502.128 423.923C503.239 423.25 504.351 422.576 505.465 421.903L505.603 421.82L505.744 421.742C507.349 420.859 508.873 420.712 509.753 420.704C510.526 420.698 512.295 420.782 514.14 421.885L514.142 421.884C515.282 422.564 516.42 423.249 517.554 423.933C517.299 422.842 517.045 421.747 516.797 420.649L516.796 420.647C516.665 420.064 516.52 419.197 516.531 418.197C516.536 417.695 516.581 416.905 516.819 415.989C517.039 415.14 517.578 413.578 518.987 412.158C520.092 411.04 521.491 409.907 522.018 409.452L522.024 409.448L522.03 409.443C522.098 409.385 522.165 409.327 522.232 409.27C521.06 409.165 519.989 409.07 518.83 408.988V408.986C517.995 408.929 516.374 408.718 514.697 407.663C512.819 406.482 511.811 404.853 511.293 403.593L511.289 403.584C511.282 403.567 511.269 403.538 511.248 403.494C511.224 403.442 511.173 403.332 511.124 403.227C511.073 403.113 511.006 402.965 510.935 402.797L510.929 402.783C510.56 401.906 510.196 401.038 509.835 400.177C509.345 401.337 508.853 402.498 508.359 403.658Z" fill="#FEF205"/>
<path d="M357.491 696.993H313.202V632.976L302.461 638.893V696.993H258.172V433.021C258.172 419.285 263.029 407.552 272.753 397.833C282.473 388.113 294.2 383.251 307.942 383.251C321.684 383.251 333.19 388.113 342.909 397.833C352.629 407.552 357.491 419.285 357.491 433.021V696.993ZM302.461 594.604L313.202 588.465V433.021C313.202 431.563 312.685 430.281 311.67 429.186C310.643 428.091 309.4 427.54 307.942 427.54C306.484 427.54 305.202 428.091 304.107 429.186C303.012 430.281 302.461 431.563 302.461 433.021V594.604Z" fill="#FEF205"/>
<path d="M349.491 433.021C349.491 421.409 345.473 411.709 337.253 403.489C329.005 395.241 319.521 391.251 307.942 391.251C296.325 391.251 286.631 395.269 278.41 403.489L278.408 403.491C270.186 411.709 266.172 421.407 266.172 433.021V688.993H294.461V634.167L321.202 619.434V688.993H349.491V433.021ZM313.202 433.021C313.202 431.563 312.686 430.281 311.67 429.186C310.643 428.091 309.4 427.54 307.942 427.54C306.484 427.54 305.201 428.091 304.106 429.186C303.011 430.281 302.461 431.563 302.461 433.021V594.604L313.202 588.465V433.021ZM321.202 593.107L294.461 608.392V433.021C294.461 429.298 295.959 426.02 298.45 423.529L298.926 423.073C301.352 420.856 304.452 419.54 307.942 419.54L308.293 419.545C311.902 419.637 315.101 421.15 317.505 423.713L317.521 423.729L317.535 423.746C319.869 426.263 321.202 429.468 321.202 433.021V593.107ZM357.491 696.993H313.202V632.976L302.461 638.894V696.993H258.172V433.021C258.172 419.715 262.73 408.287 271.856 398.75L272.754 397.833C282.473 388.114 294.201 383.251 307.942 383.251L309.224 383.266C322.401 383.56 333.494 388.418 342.909 397.833C352.628 407.552 357.491 419.285 357.491 433.021V696.993Z" fill="#FEF205"/>
<path d="M472.714 696.993H428.424V433.021C428.424 431.563 427.908 430.281 426.892 429.186C425.865 428.091 424.623 427.54 423.165 427.54H417.684V696.993H373.395V405.396C373.395 399.257 375.551 394.031 379.863 389.719C384.175 385.407 389.4 383.251 395.539 383.251H423.165C436.759 383.251 448.413 388.113 458.132 397.833C467.851 407.552 472.714 419.285 472.714 433.021V696.993Z" fill="#FEF205"/>
<path d="M373.395 405.396C373.395 399.257 375.55 394.031 379.862 389.719C384.174 385.407 389.4 383.251 395.539 383.251H423.165L424.434 383.266C437.486 383.56 448.716 388.418 458.132 397.833C467.851 407.552 472.714 419.285 472.714 433.021V696.993H428.424V433.021C428.424 431.563 427.908 430.281 426.893 429.186C425.93 428.159 424.777 427.611 423.436 427.547L423.165 427.54V419.54C426.917 419.54 430.247 421.068 432.728 423.713L432.743 423.729L432.758 423.746C435.092 426.263 436.424 429.468 436.424 433.021V688.993H464.714V433.021C464.714 421.409 460.696 411.709 452.476 403.489C444.237 395.251 434.61 391.251 423.165 391.251H395.539C391.506 391.251 388.32 392.576 385.52 395.376C382.719 398.176 381.395 401.362 381.395 405.396V688.993H409.684V419.54H423.165V427.54H417.684V696.993H373.395V405.396Z" fill="#FEF205"/>
<path d="M532.899 696.993H488.609V448.976H532.899V696.993Z" fill="#FEF205"/>
<path d="M532.898 448.976V696.992H488.609V448.976H532.898ZM496.609 688.992H524.898V456.976H496.609V688.992Z" fill="#FEF205"/>
<path d="M703.15 696.993H658.86V433.021C658.86 431.563 658.344 430.281 657.328 429.186C656.302 428.091 655.059 427.54 653.601 427.54C652.143 427.54 650.86 428.091 649.765 429.186C648.67 430.281 648.12 431.563 648.12 433.021V696.993H603.831V433.021C603.831 431.563 603.314 430.281 602.299 429.186C601.272 428.091 600.029 427.54 598.571 427.54H593.09V696.993H548.801V405.396C548.801 399.257 550.957 394.031 555.269 389.719C559.581 385.407 564.806 383.251 570.945 383.251H598.571C608.659 383.251 617.788 386.031 625.975 391.58C634.157 386.025 643.365 383.251 653.601 383.251C667.195 383.251 678.849 388.113 688.568 397.833C698.287 407.552 703.15 419.285 703.15 433.021V696.993Z" fill="#FEF205"/>
<path d="M548.801 405.396C548.801 399.257 550.957 394.031 555.269 389.719C559.581 385.407 564.806 383.251 570.945 383.251H598.571L599.514 383.259C608.915 383.422 617.474 386.028 625.205 391.068L625.976 391.58C634.157 386.026 643.365 383.251 653.601 383.251C667.195 383.251 678.849 388.114 688.568 397.833C698.287 407.552 703.149 419.285 703.149 433.021V696.993H658.86V433.021C658.86 431.563 658.344 430.281 657.328 429.186C656.301 428.091 655.059 427.54 653.601 427.54C652.143 427.54 650.861 428.091 649.766 429.186C648.671 430.281 648.12 431.563 648.12 433.021V696.993H603.83V433.021C603.83 431.563 603.314 430.281 602.299 429.186C601.336 428.159 600.184 427.611 598.842 427.547L598.571 427.54V419.54C602.324 419.54 605.653 421.068 608.134 423.713L608.149 423.729L608.164 423.746C610.498 426.263 611.83 429.468 611.83 433.021V688.993H640.12V433.021C640.12 429.298 641.618 426.02 644.108 423.529L644.585 423.073C647.011 420.856 650.11 419.54 653.601 419.54C657.236 419.54 660.474 420.974 662.929 423.469L663.164 423.713L663.179 423.729L663.194 423.746C665.528 426.263 666.86 429.469 666.86 433.021V688.993H695.149V433.021C695.149 421.409 691.131 411.709 682.911 403.489C674.672 395.251 665.045 391.251 653.601 391.251C644.906 391.251 637.275 393.578 630.469 398.199L625.979 401.247L621.487 398.202C614.649 393.567 607.088 391.251 598.571 391.251H570.945C566.912 391.251 563.726 392.576 560.926 395.376C558.125 398.176 556.801 401.362 556.801 405.396V688.993H585.09V419.54H598.571V427.54H593.09V696.993H548.801V405.396Z" fill="#FEF205"/>
<path d="M818.37 696.993H741.195C735.056 696.993 729.831 694.837 725.519 690.525C721.207 686.213 719.051 680.987 719.051 674.848V405.396C719.051 399.257 721.207 394.031 725.519 389.719C729.831 385.407 735.056 383.251 741.195 383.251H818.37V427.54H763.34V502.74L818.37 471.172V515.461L763.34 547.03V652.703H818.37V696.993Z" fill="#FEF205"/>
<path d="M719.051 674.848V405.396C719.051 399.257 721.207 394.031 725.519 389.719C729.831 385.407 735.056 383.251 741.195 383.251H818.37V427.54H763.34V502.74L818.37 471.172V515.461L763.34 547.029V652.703H818.37V696.993H741.195V688.993H810.37V660.703H755.34V542.396L810.37 510.826V484.982L755.34 516.553V419.54H810.37V391.251H741.195C737.162 391.251 733.976 392.576 731.176 395.376C728.375 398.176 727.051 401.362 727.051 405.396V674.848C727.051 678.881 728.375 682.068 731.176 684.868C733.976 687.669 737.162 688.993 741.195 688.993V696.993L740.623 696.986C734.731 696.856 729.696 694.702 725.519 690.524C721.207 686.212 719.051 680.987 719.051 674.848Z" fill="#FEF205"/>
<path d="M242.525 683.559V698.033H140.006V683.559H242.525Z" fill="white"/>
<path d="M242.525 643.853V658.327H156.267C155.79 658.327 155.37 658.497 155.013 658.826C154.655 659.161 154.474 659.57 154.474 660.046V661.839H242.519V676.313H147.24C145.231 676.313 143.529 675.609 142.116 674.202C140.709 672.795 140.006 671.087 140.006 669.079V660.052C140.006 655.609 141.594 651.802 144.772 648.625C147.949 645.448 151.779 643.859 156.272 643.859H242.525V643.853Z" fill="white"/>
<path d="M242.525 619.055V629.37C242.525 631.328 241.821 633.024 240.409 634.454C239.001 635.89 237.294 636.604 235.285 636.604H147.24C145.231 636.604 143.529 635.89 142.116 634.454C140.709 633.024 140.006 631.328 140.006 629.37V619.055C140.006 614.948 141.464 611.424 144.375 608.491C147.291 605.552 150.82 604.082 154.979 604.082H227.552C231.705 604.082 235.24 605.552 238.156 608.491C241.072 611.43 242.525 614.953 242.525 619.055ZM228.051 619.055C228.051 618.959 228.006 618.863 227.909 618.766C227.813 618.67 215.586 618.624 191.228 618.624C166.871 618.624 154.718 618.658 154.621 618.732C154.525 618.806 154.48 619.941 154.48 622.136H228.051V619.055Z" fill="white"/>
<path d="M242.525 580.637C242.525 585.079 240.936 588.887 237.759 592.064C234.582 595.241 230.774 596.83 226.332 596.83H156.267C151.779 596.83 147.943 595.241 144.766 592.064C141.589 588.887 140 585.079 140 580.637C140 576.194 141.589 572.313 144.766 569.136C147.943 565.959 151.773 564.37 156.267 564.37H226.332C230.774 564.37 234.582 565.959 237.759 569.136C240.936 572.313 242.525 576.143 242.525 580.637ZM228.051 580.637C228.051 580.16 227.887 579.74 227.552 579.383C227.217 579.026 226.814 578.844 226.332 578.844H156.267C155.79 578.844 155.37 579.026 155.013 579.383C154.655 579.74 154.474 580.16 154.474 580.637C154.474 581.113 154.655 581.522 155.013 581.857C155.37 582.191 155.79 582.356 156.267 582.356H226.332C226.809 582.356 227.217 582.191 227.552 581.857C227.887 581.522 228.051 581.119 228.051 580.637Z" fill="white"/>
<path d="M242.525 524.672V539.146H156.267C155.79 539.146 155.37 539.316 155.013 539.645C154.655 539.98 154.474 540.388 154.474 540.865V542.658H242.519V557.131H147.24C145.231 557.131 143.529 556.428 142.116 555.021C140.709 553.614 140.006 551.906 140.006 549.897V540.87C140.006 536.428 141.594 532.621 144.772 529.444C147.949 526.266 151.779 524.678 156.272 524.678H242.525V524.672Z" fill="white"/>
<path d="M242.525 484.972V510.186C242.525 512.195 241.821 513.903 240.409 515.31C239.001 516.717 237.294 517.42 235.285 517.42H147.24C145.231 517.42 143.529 516.717 142.116 515.31C140.709 513.903 140.006 512.195 140.006 510.186V484.972H154.48V502.952H179.053L168.738 484.972H183.211L193.526 502.952H228.057V484.972H242.531H242.525Z" fill="white"/>
<path d="M242.525 461.528C242.525 466.016 240.936 469.84 237.759 472.989C234.582 476.143 230.774 477.715 226.332 477.715H188.579L196.675 463.241H226.332C226.809 463.241 227.217 463.077 227.552 462.742C227.887 462.407 228.051 462.004 228.051 461.522C228.051 461.04 227.887 460.626 227.552 460.268C227.217 459.911 226.814 459.729 226.332 459.729H195.382L186.712 474.203C185.089 476.546 183.013 477.715 180.477 477.715H156.267C151.779 477.715 147.943 476.138 144.766 472.989C141.589 469.834 140 466.016 140 461.528C140 457.04 141.589 453.204 144.766 450.027C147.943 446.85 151.773 445.261 156.267 445.261H183.206L175.041 459.735H156.267C155.79 459.735 155.37 459.916 155.013 460.274C154.655 460.631 154.474 461.051 154.474 461.528C154.474 462.004 154.655 462.413 155.013 462.748C155.37 463.082 155.79 463.247 156.267 463.247H176.397L185.067 448.773C186.644 446.436 188.721 445.261 191.302 445.261H226.332C230.774 445.261 234.582 446.85 237.759 450.027C240.936 453.204 242.525 457.034 242.525 461.528Z" fill="white"/>
<path d="M242.525 423.548V438.022H140.006V423.548H242.525Z" fill="white"/>
<path d="M242.525 383.843V398.317H221.606L223.54 401.829H242.525V416.302H156.267C151.779 416.302 147.943 414.714 144.766 411.536C141.589 408.359 140.006 404.524 140.006 400.036C140.006 395.548 141.594 391.786 144.772 388.609C147.949 385.431 151.779 383.843 156.272 383.843H242.525ZM209.067 401.823L207.058 398.311H156.267C155.79 398.311 155.37 398.481 155.013 398.81C154.655 399.145 154.474 399.553 154.474 400.03C154.474 400.507 154.655 400.926 155.013 401.284C155.37 401.641 155.79 401.823 156.267 401.823H209.067Z" fill="white"/>
</svg>
