<svg width="1080" height="1080" viewBox="0 0 1080 1080" fill="none" xmlns="http://www.w3.org/2000/svg">
<rect width="1080" height="1080" fill="#030712"/>
<path d="M343.33 630.496C341.229 630.263 339.135 630.021 337.033 629.804C324.257 628.508 311.803 625.009 300.221 619.463C278.348 609.091 260.88 593.54 247.117 573.769C234.163 555.14 225.61 533.813 222.103 511.396C220.456 502.003 219.773 492.466 220.066 482.935C220.871 464.509 223.021 446.252 227.741 428.365C232.428 410.648 239.313 393.865 249.71 378.644C253.127 373.65 256.895 368.905 260.985 364.446C261.311 364.06 261.722 363.755 262.186 363.554C262.65 363.352 263.154 363.261 263.659 363.286C288.136 363.286 312.612 363.286 337.089 363.286C337.661 363.286 338.233 363.343 338.998 363.383C339.167 367.925 339.054 372.387 339.078 376.929C337.468 377.307 335.954 377.629 334.464 378.008C319.702 381.745 307.493 389.629 297.418 400.904C287.062 412.476 280.208 425.99 275.674 440.76C271.131 455.777 269.352 471.494 270.423 487.147C271.487 503.994 275.537 520.061 283.84 534.871C297 558.467 317.036 572.625 343.596 577.618C350.316 578.841 357.134 579.439 363.963 579.406C412.009 579.449 460.061 579.476 508.118 579.487C521.245 579.487 534.042 577.562 546.299 572.73C568.848 563.871 584.448 547.909 593.749 525.682C597.84 515.656 600.471 505.096 601.561 494.322C602.842 482.83 602.536 471.314 602.004 459.798C601.709 452.98 601.018 446.185 599.934 439.447C598.581 431.232 596.552 423.203 592.936 415.649C590.871 411.276 588.174 407.23 584.931 403.642C584.673 403.36 584.424 403.07 583.973 402.555C584.506 402.459 585.043 402.392 585.583 402.353C600.78 402.353 615.985 402.353 631.181 402.305C632.575 402.305 633.066 402.933 633.597 404.02C638.891 415.476 642.894 427.485 645.532 439.825C646.273 443.288 646.885 446.767 647.594 450.472C648.295 450.472 649.036 450.536 649.785 450.536C662.855 450.536 675.934 450.601 689.004 450.536C697.227 450.48 703.734 453.806 708.671 460.2C713.986 467.086 715.975 474.994 715.282 483.603C714.895 489.289 712.993 494.767 709.774 499.469C706.029 504.929 701.109 508.794 694.473 510.123C692.637 510.457 690.773 510.611 688.908 510.582C675.571 510.582 662.235 510.582 648.907 510.582H646.595C645.951 513.489 645.404 516.219 644.767 518.861C638.921 543.408 628.435 565.707 612.28 585.188C599.508 600.586 584.238 612.787 565.877 620.953C553.931 626.322 541.102 629.452 528.026 630.19C527.39 630.254 526.758 630.353 526.133 630.488L343.33 630.496Z" fill="#0EA5E9"/>
<path d="M860.001 432.262C859.388 432.085 858.76 431.948 858.156 431.738C855.298 430.734 852.286 430.238 849.257 430.273C837.446 430.273 825.658 430.273 813.895 430.273H811.64C811.463 429.693 811.278 429.161 811.133 428.662C802.387 396.038 781.875 374.238 750.298 362.681C740.169 359.027 729.572 356.831 718.825 356.158C713.631 355.803 708.404 355.61 703.194 355.61C652.646 355.53 602.092 355.484 551.533 355.473C538.978 355.473 526.608 356.834 514.536 360.418C499.235 364.952 485.721 372.498 474.559 383.982C463.285 395.643 456.173 409.608 452.316 425.296C449.666 436.055 448.861 447 449.03 458.049C449.076 466.085 449.525 474.113 450.375 482.104C451.543 492.114 453.459 501.94 457.623 511.193C460.067 516.747 463.521 521.799 467.811 526.092C468.109 526.39 468.382 526.712 468.89 527.259C467.972 527.308 467.36 527.372 466.747 527.372C450.576 527.372 434.411 527.372 418.25 527.372C417.66 527.443 417.063 527.317 416.553 527.012C416.043 526.707 415.649 526.242 415.432 525.689C408.114 511.351 403.059 495.967 400.444 480.083C398.405 468.204 397.807 456.122 398.664 444.1C402.007 400.548 419.603 364.074 453.355 335.936C470.11 321.954 490.147 312.464 511.58 308.361C519.931 306.751 528.42 305.96 536.924 306.002H671.415C688.349 306.002 705.288 306.002 722.232 306.002C737.39 305.974 752.441 308.551 766.727 313.62C811.165 329.413 845.521 367.312 856.755 413.127C858.263 418.788 859.242 424.576 859.678 430.418C859.74 430.787 859.848 431.147 860.001 431.489V432.262Z" fill="#0EA5E9"/>
<path d="M318.211 306C319.532 306.234 320.861 306.443 322.174 306.717C327.103 307.727 331.54 310.39 334.75 314.265C337.96 318.14 339.751 322.995 339.827 328.026C339.899 334.976 339.827 341.918 339.827 348.868C339.827 349.311 339.778 349.746 339.746 350.318H261.983C261.899 349.849 261.845 349.376 261.822 348.9C261.822 341.95 261.766 335.008 261.822 328.058C261.908 322.626 263.984 317.415 267.656 313.412C271.328 309.409 276.342 306.892 281.746 306.338C282.31 306.274 282.865 306.113 283.429 306H318.211Z" fill="#0EA5E9"/>
<path d="M810.847 511.164H846.516C850.542 511.164 854.569 511.357 858.91 510.358C858.507 512.227 858.185 513.829 857.815 515.416C854.086 531.434 848.432 546.695 839.952 560.845C826.543 583.201 807.739 599.63 784.384 610.921C770.538 617.476 755.93 622.28 740.896 625.223C727.641 627.88 714.215 629.597 700.718 630.361C683.283 631.365 665.806 631.365 648.371 630.361C640.213 629.918 632.055 629.306 623.897 628.751L622.77 628.646C622.891 628.29 623.047 627.948 623.237 627.623C630.758 617.742 638.248 607.828 645.842 597.995C649.366 593.307 653.298 588.941 657.592 584.949C659.661 583.116 661.845 581.419 664.132 579.867C665.124 579.203 666.241 578.746 667.415 578.525C668.588 578.303 669.794 578.322 670.961 578.578C683.42 580.659 696.068 581.377 708.683 580.721C727.487 579.73 745.486 575.542 762.181 566.571C784.677 554.485 800.617 536.553 810.002 512.774C810.147 512.412 810.284 512.058 810.437 511.703C810.562 511.515 810.699 511.334 810.847 511.164Z" fill="#0EA5E9"/>
<path d="M841.352 761.082C837.887 761.082 834.724 760.28 831.865 758.678C829.05 757.075 826.797 754.887 825.108 752.115C823.462 749.343 822.639 746.18 822.639 742.628C822.639 739.076 823.462 735.914 825.108 733.142C826.797 730.369 829.05 728.182 831.865 726.579C834.681 724.976 837.843 724.175 841.352 724.175C844.818 724.175 847.958 724.976 850.774 726.579C853.589 728.182 855.82 730.369 857.466 733.142C859.156 735.871 860 739.033 860 742.628C860 746.18 859.156 749.343 857.466 752.115C855.777 754.887 853.524 757.075 850.709 758.678C847.893 760.28 844.774 761.082 841.352 761.082ZM841.352 753.285C843.258 753.285 844.926 752.83 846.355 751.92C847.828 751.01 848.976 749.754 849.799 748.151C850.665 746.505 851.099 744.664 851.099 742.628C851.099 740.549 850.665 738.73 849.799 737.17C848.976 735.567 847.828 734.311 846.355 733.402C844.926 732.449 843.258 731.972 841.352 731.972C839.403 731.972 837.692 732.449 836.219 733.402C834.746 734.311 833.576 735.567 832.71 737.17C831.887 738.73 831.476 740.549 831.476 742.628C831.476 744.664 831.887 746.505 832.71 748.151C833.576 749.754 834.746 751.01 836.219 751.92C837.692 752.83 839.403 753.285 841.352 753.285Z" fill="white"/>
<path d="M783.66 773.297V724.955H791.652V731.972L790.873 730.218C792.086 728.312 793.732 726.839 795.811 725.799C797.89 724.716 800.294 724.175 803.023 724.175C806.359 724.175 809.369 724.998 812.055 726.644C814.741 728.29 816.863 730.499 818.423 733.272C820.026 736.044 820.827 739.163 820.827 742.628C820.827 746.05 820.047 749.169 818.488 751.985C816.928 754.801 814.806 757.032 812.12 758.678C809.434 760.28 806.38 761.082 802.958 761.082C800.403 761.082 798.042 760.584 795.876 759.587C793.753 758.548 792.064 757.075 790.808 755.169L792.172 753.479V773.297H783.66ZM801.984 753.285C803.933 753.285 805.666 752.83 807.182 751.92C808.698 751.01 809.868 749.754 810.691 748.151C811.557 746.549 811.99 744.708 811.99 742.628C811.99 740.549 811.557 738.73 810.691 737.17C809.868 735.567 808.698 734.311 807.182 733.402C805.666 732.449 803.933 731.972 801.984 731.972C800.121 731.972 798.432 732.427 796.915 733.337C795.443 734.246 794.273 735.524 793.407 737.17C792.584 738.773 792.172 740.592 792.172 742.628C792.172 744.708 792.584 746.549 793.407 748.151C794.273 749.754 795.443 751.01 796.915 751.92C798.432 752.83 800.121 753.285 801.984 753.285Z" fill="white"/>
<path d="M747.493 760.302L759.838 742.563L747.428 724.954H757.434L767.116 739.249H762.632L772.314 724.954H782.255L769.91 742.563L782.19 760.302H772.249L762.697 746.072H767.051L757.499 760.302H747.493Z" fill="white"/>
<path d="M715.998 760.301V711.894H748.162V719.691H724.835V732.101H746.862V739.899H724.835V752.504H748.162V760.301H715.998Z" fill="white"/>
<path d="M684.998 774.597C682.355 774.597 679.908 774.164 677.655 773.297C675.403 772.431 673.453 771.218 671.807 769.659C670.204 768.143 669.035 766.345 668.298 764.266L676.226 761.277C676.745 762.923 677.763 764.244 679.28 765.24C680.839 766.28 682.745 766.8 684.998 766.8C686.73 766.8 688.246 766.475 689.546 765.825C690.889 765.175 691.928 764.222 692.665 762.966C693.401 761.753 693.769 760.28 693.769 758.548V750.491L695.394 752.44C694.181 754.562 692.557 756.165 690.521 757.248C688.485 758.331 686.167 758.873 683.568 758.873C680.276 758.873 677.33 758.114 674.731 756.598C672.132 755.082 670.096 753.003 668.623 750.361C667.15 747.718 666.414 744.751 666.414 741.459C666.414 738.123 667.15 735.156 668.623 732.557C670.096 729.958 672.11 727.922 674.666 726.449C677.222 724.933 680.124 724.175 683.373 724.175C686.015 724.175 688.333 724.738 690.326 725.864C692.362 726.947 694.051 728.528 695.394 730.608L694.224 732.752V724.955H702.281V758.548C702.281 761.623 701.523 764.374 700.007 766.8C698.534 769.226 696.498 771.132 693.899 772.518C691.344 773.904 688.376 774.597 684.998 774.597ZM684.608 751.01C686.427 751.01 688.008 750.62 689.351 749.841C690.737 749.018 691.82 747.891 692.6 746.462C693.38 745.032 693.769 743.386 693.769 741.524C693.769 739.704 693.358 738.08 692.535 736.65C691.755 735.178 690.672 734.03 689.286 733.207C687.943 732.384 686.384 731.972 684.608 731.972C682.832 731.972 681.229 732.384 679.799 733.207C678.37 734.03 677.244 735.178 676.421 736.65C675.641 738.08 675.251 739.704 675.251 741.524C675.251 743.343 675.641 744.967 676.421 746.397C677.244 747.826 678.348 748.953 679.734 749.776C681.164 750.599 682.788 751.01 684.608 751.01Z" fill="white"/>
<path d="M632.576 760.302V724.955H640.568V731.907L639.919 730.673C640.742 728.55 642.084 726.947 643.947 725.864C645.853 724.738 648.062 724.175 650.575 724.175C653.174 724.175 655.47 724.738 657.462 725.864C659.498 726.99 661.079 728.572 662.206 730.608C663.332 732.6 663.895 734.918 663.895 737.56V760.302H655.383V739.574C655.383 738.015 655.08 736.672 654.473 735.546C653.867 734.42 653.022 733.553 651.939 732.947C650.9 732.297 649.665 731.972 648.236 731.972C646.849 731.972 645.615 732.297 644.532 732.947C643.449 733.553 642.604 734.42 641.998 735.546C641.391 736.672 641.088 738.015 641.088 739.574V760.302H632.576Z" fill="white"/>
<path d="M619.453 760.301V724.954H627.965V760.301H619.453ZM619.453 720.99V711.894H627.965V720.99H619.453Z" fill="white"/>
<path d="M611.977 760.691C607.991 760.691 604.894 759.608 602.685 757.442C600.519 755.233 599.436 752.136 599.436 748.15V732.556H593.328V724.954H593.978C595.711 724.954 597.053 724.499 598.006 723.589C598.959 722.679 599.436 721.358 599.436 719.626V716.896H607.948V724.954H616.07V732.556H607.948V747.696C607.948 748.865 608.143 749.862 608.533 750.685C608.966 751.508 609.616 752.136 610.482 752.569C611.392 753.002 612.54 753.219 613.926 753.219C614.229 753.219 614.576 753.197 614.966 753.154C615.399 753.11 615.81 753.067 616.2 753.024V760.301C615.594 760.388 614.901 760.474 614.121 760.561C613.341 760.648 612.626 760.691 611.977 760.691Z" fill="white"/>
<path d="M573.199 761.081C570.47 761.081 568.088 760.475 566.052 759.262C564.059 758.049 562.521 756.36 561.438 754.194C560.399 752.028 559.879 749.494 559.879 746.591V724.954H568.391V745.877C568.391 747.35 568.672 748.649 569.236 749.775C569.842 750.858 570.687 751.725 571.77 752.374C572.896 752.981 574.152 753.284 575.538 753.284C576.925 753.284 578.159 752.981 579.242 752.374C580.325 751.725 581.17 750.837 581.776 749.71C582.383 748.584 582.686 747.241 582.686 745.682V724.954H591.198V760.302H583.141V753.349L583.855 754.584C583.032 756.75 581.668 758.374 579.762 759.457C577.899 760.54 575.712 761.081 573.199 761.081Z" fill="white"/>
<path d="M531.358 761.082C527.806 761.082 524.492 760.453 521.417 759.197C518.341 757.941 515.655 756.187 513.359 753.934C511.064 751.682 509.266 749.039 507.966 746.007C506.71 742.931 506.082 739.618 506.082 736.065C506.082 732.47 506.71 729.156 507.966 726.124C509.223 723.092 510.999 720.449 513.294 718.197C515.59 715.944 518.276 714.211 521.352 712.999C524.427 711.742 527.763 711.114 531.358 711.114C534.953 711.114 538.289 711.742 541.365 712.999C544.44 714.255 547.126 716.009 549.422 718.262C551.718 720.471 553.494 723.092 554.75 726.124C556.049 729.156 556.699 732.47 556.699 736.065C556.699 739.618 556.049 742.931 554.75 746.007C553.45 749.039 551.653 751.682 549.357 753.934C547.061 756.187 544.375 757.941 541.3 759.197C538.267 760.453 534.953 761.082 531.358 761.082ZM531.358 753.024C533.741 753.024 535.928 752.613 537.921 751.79C539.913 750.924 541.646 749.732 543.119 748.216C544.635 746.7 545.783 744.902 546.563 742.823C547.386 740.744 547.797 738.491 547.797 736.065C547.797 733.64 547.386 731.409 546.563 729.373C545.783 727.294 544.635 725.496 543.119 723.98C541.646 722.42 539.913 721.229 537.921 720.406C535.928 719.583 533.741 719.171 531.358 719.171C529.019 719.171 526.853 719.583 524.86 720.406C522.868 721.229 521.113 722.42 519.597 723.98C518.124 725.496 516.977 727.294 516.153 729.373C515.33 731.409 514.919 733.64 514.919 736.065C514.919 738.491 515.33 740.744 516.153 742.823C516.977 744.902 518.124 746.7 519.597 748.216C521.113 749.732 522.868 750.924 524.86 751.79C526.853 752.613 529.019 753.024 531.358 753.024Z" fill="white"/>
<path d="M474.776 761.082C472.307 761.082 470.162 760.67 468.343 759.847C466.524 759.024 465.116 757.855 464.119 756.338C463.123 754.779 462.625 752.981 462.625 750.945C462.625 748.996 463.058 747.263 463.925 745.747C464.791 744.188 466.134 742.888 467.953 741.849C469.772 740.809 472.068 740.073 474.841 739.639L486.407 737.755V744.253L476.465 745.942C474.776 746.245 473.52 746.787 472.696 747.567C471.873 748.346 471.462 749.364 471.462 750.62C471.462 751.833 471.917 752.808 472.826 753.544C473.779 754.238 474.949 754.584 476.335 754.584C478.111 754.584 479.671 754.216 481.014 753.479C482.4 752.7 483.461 751.638 484.197 750.296C484.977 748.953 485.367 747.48 485.367 745.877V736.78C485.367 735.264 484.761 734.008 483.548 733.012C482.378 731.972 480.819 731.452 478.869 731.452C477.05 731.452 475.426 731.95 473.996 732.947C472.61 733.9 471.592 735.178 470.942 736.78L463.99 733.402C464.683 731.539 465.766 729.936 467.238 728.593C468.755 727.207 470.531 726.124 472.566 725.344C474.602 724.565 476.812 724.175 479.194 724.175C482.096 724.175 484.652 724.716 486.861 725.799C489.071 726.839 490.782 728.312 491.995 730.218C493.251 732.08 493.879 734.268 493.879 736.78V760.302H485.822V754.259L487.641 754.129C486.732 755.645 485.649 756.923 484.392 757.963C483.136 758.959 481.707 759.739 480.104 760.302C478.501 760.822 476.725 761.082 474.776 761.082Z" fill="white"/>
<path d="M450.934 760.301V724.954H459.446V760.301H450.934ZM450.934 720.99V711.894H459.446V720.99H450.934Z" fill="white"/>
<path d="M434.255 761.082C430.486 761.082 427.194 760.194 424.378 758.418C421.606 756.598 419.7 754.151 418.66 751.075L425.028 748.021C425.938 750.014 427.194 751.573 428.797 752.7C430.443 753.826 432.262 754.389 434.255 754.389C435.814 754.389 437.049 754.043 437.958 753.35C438.868 752.656 439.323 751.747 439.323 750.62C439.323 749.927 439.128 749.364 438.738 748.931C438.392 748.455 437.893 748.065 437.244 747.761C436.637 747.415 435.966 747.133 435.229 746.917L429.446 745.292C426.457 744.426 424.183 743.105 422.624 741.329C421.108 739.553 420.35 737.452 420.35 735.026C420.35 732.86 420.891 730.976 421.974 729.373C423.1 727.727 424.638 726.449 426.587 725.539C428.58 724.63 430.854 724.175 433.41 724.175C436.745 724.175 439.691 724.976 442.247 726.579C444.803 728.182 446.622 730.434 447.705 733.337L441.207 736.39C440.601 734.788 439.583 733.51 438.153 732.557C436.724 731.604 435.121 731.127 433.345 731.127C431.915 731.127 430.789 731.452 429.966 732.102C429.143 732.752 428.732 733.596 428.732 734.636C428.732 735.286 428.905 735.849 429.251 736.326C429.598 736.802 430.074 737.192 430.681 737.495C431.331 737.798 432.067 738.08 432.89 738.34L438.543 740.029C441.445 740.896 443.676 742.195 445.236 743.928C446.839 745.661 447.64 747.783 447.64 750.296C447.64 752.418 447.077 754.303 445.951 755.949C444.824 757.551 443.265 758.808 441.272 759.717C439.28 760.627 436.94 761.082 434.255 761.082Z" fill="white"/>
<path d="M401.031 761.082C397.393 761.082 394.209 760.259 391.48 758.613C388.751 756.967 386.628 754.736 385.112 751.92C383.596 749.104 382.838 745.985 382.838 742.563C382.838 739.011 383.596 735.871 385.112 733.142C386.672 730.369 388.772 728.182 391.415 726.579C394.101 724.976 397.09 724.175 400.382 724.175C403.154 724.175 405.58 724.63 407.659 725.539C409.782 726.449 411.579 727.705 413.052 729.308C414.525 730.911 415.651 732.752 416.431 734.831C417.211 736.867 417.601 739.076 417.601 741.459C417.601 742.065 417.557 742.693 417.471 743.343C417.427 743.993 417.319 744.556 417.146 745.032H389.855V738.535H412.337L408.309 741.589C408.699 739.596 408.59 737.82 407.984 736.261C407.421 734.701 406.468 733.467 405.125 732.557C403.825 731.647 402.244 731.192 400.382 731.192C398.606 731.192 397.025 731.647 395.638 732.557C394.252 733.423 393.191 734.723 392.454 736.455C391.761 738.145 391.501 740.202 391.675 742.628C391.501 744.794 391.783 746.722 392.519 748.411C393.299 750.057 394.425 751.335 395.898 752.245C397.414 753.155 399.147 753.609 401.096 753.609C403.046 753.609 404.692 753.198 406.035 752.375C407.421 751.552 408.504 750.447 409.284 749.061L416.171 752.44C415.478 754.129 414.395 755.624 412.922 756.923C411.449 758.223 409.695 759.241 407.659 759.977C405.667 760.714 403.457 761.082 401.031 761.082Z" fill="white"/>
<path d="M349 760.302V724.955H356.992V731.907L356.342 730.673C357.165 728.55 358.508 726.947 360.371 725.864C362.277 724.738 364.486 724.175 366.999 724.175C369.598 724.175 371.894 724.738 373.886 725.864C375.922 726.99 377.503 728.572 378.63 730.608C379.756 732.6 380.319 734.918 380.319 737.56V760.302H371.807V739.574C371.807 738.015 371.504 736.672 370.897 735.546C370.291 734.42 369.446 733.553 368.363 732.947C367.324 732.297 366.089 731.972 364.659 731.972C363.273 731.972 362.039 732.297 360.956 732.947C359.873 733.553 359.028 734.42 358.422 735.546C357.815 736.672 357.512 738.015 357.512 739.574V760.302H349Z" fill="white"/>
<path d="M327.145 761.082C323.68 761.082 320.517 760.28 317.658 758.678C314.843 757.075 312.59 754.887 310.901 752.115C309.255 749.343 308.432 746.18 308.432 742.628C308.432 739.076 309.255 735.914 310.901 733.142C312.59 730.369 314.843 728.182 317.658 726.579C320.474 724.976 323.636 724.175 327.145 724.175C330.61 724.175 333.751 724.976 336.567 726.579C339.382 728.182 341.613 730.369 343.259 733.142C344.949 735.871 345.793 739.033 345.793 742.628C345.793 746.18 344.949 749.343 343.259 752.115C341.57 754.887 339.317 757.075 336.502 758.678C333.686 760.28 330.567 761.082 327.145 761.082ZM327.145 753.285C329.051 753.285 330.719 752.83 332.148 751.92C333.621 751.01 334.769 749.754 335.592 748.151C336.458 746.505 336.892 744.664 336.892 742.628C336.892 740.549 336.458 738.73 335.592 737.17C334.769 735.567 333.621 734.311 332.148 733.402C330.719 732.449 329.051 731.972 327.145 731.972C325.196 731.972 323.485 732.449 322.012 733.402C320.539 734.311 319.369 735.567 318.503 737.17C317.68 738.73 317.269 740.549 317.269 742.628C317.269 744.664 317.68 746.505 318.503 748.151C319.369 749.754 320.539 751.01 322.012 751.92C323.485 752.83 325.196 753.285 327.145 753.285Z" fill="white"/>
<path d="M285.892 761.082C282.47 761.082 279.416 760.28 276.73 758.677C274.045 757.031 271.922 754.8 270.363 751.985C268.803 749.169 268.023 746.05 268.023 742.628C268.023 739.163 268.803 736.044 270.363 733.271C271.922 730.499 274.045 728.29 276.73 726.644C279.459 724.998 282.492 724.175 285.827 724.175C288.513 724.175 290.895 724.716 292.975 725.799C295.097 726.839 296.765 728.312 297.978 730.218L296.678 731.972V711.114H305.19V760.302H297.133V753.479L298.043 755.169C296.83 757.075 295.141 758.548 292.975 759.587C290.809 760.583 288.448 761.082 285.892 761.082ZM286.802 753.284C288.751 753.284 290.462 752.83 291.935 751.92C293.408 751.01 294.556 749.754 295.379 748.151C296.245 746.548 296.678 744.707 296.678 742.628C296.678 740.592 296.245 738.773 295.379 737.17C294.556 735.524 293.408 734.246 291.935 733.336C290.462 732.427 288.751 731.972 286.802 731.972C284.896 731.972 283.185 732.448 281.669 733.401C280.152 734.311 278.961 735.567 278.095 737.17C277.272 738.73 276.86 740.549 276.86 742.628C276.86 744.707 277.272 746.548 278.095 748.151C278.961 749.754 280.152 751.01 281.669 751.92C283.185 752.83 284.896 753.284 286.802 753.284Z" fill="white"/>
<path d="M234.186 760.302V724.955H242.178V731.907L241.528 730.673C242.351 728.55 243.694 726.947 245.557 725.864C247.463 724.738 249.672 724.175 252.184 724.175C254.783 724.175 257.079 724.738 259.072 725.864C261.108 726.99 262.689 728.572 263.815 730.608C264.941 732.6 265.504 734.918 265.504 737.56V760.302H256.992V739.574C256.992 738.015 256.689 736.672 256.083 735.546C255.476 734.42 254.632 733.553 253.549 732.947C252.509 732.297 251.275 731.972 249.845 731.972C248.459 731.972 247.224 732.297 246.141 732.947C245.058 733.553 244.214 734.42 243.607 735.546C243.001 736.672 242.698 738.015 242.698 739.574V760.302H234.186Z" fill="white"/>
<path d="M220 760.301V711.894H228.837V760.301H220Z" fill="white"/>
</svg>
