<svg width="1080" height="1080" viewBox="0 0 1080 1080" fill="none" xmlns="http://www.w3.org/2000/svg">
<rect width="1080" height="1080" fill="white"/>
<path d="M813.795 357.176C824.25 353.042 833.546 346.43 840.881 337.91C848.217 329.389 853.374 319.215 855.908 308.261C858.443 297.307 858.279 285.901 855.432 275.025C852.584 264.148 847.138 254.126 839.561 245.819C831.984 237.512 822.503 231.17 811.933 227.337C801.363 223.504 790.021 222.296 778.881 223.815C767.741 225.335 757.136 229.537 747.979 236.061C738.822 242.584 731.386 251.234 726.31 261.266C719.298 247.37 707.82 236.233 693.718 229.643C679.617 223.053 663.71 221.393 648.551 224.928C633.393 228.464 619.862 236.991 610.132 249.14C600.401 261.289 595.035 276.355 594.895 291.92C583.677 299.776 573.775 309.361 565.558 320.317C561.834 315.39 557.802 310.704 553.485 306.287L540.584 294.064L528.322 306.287C523.983 310.694 519.937 315.38 516.212 320.317C507.991 309.34 498.075 299.741 486.837 291.882C486.593 276.401 481.181 261.445 471.461 249.392C461.742 237.339 448.272 228.881 433.194 225.362C418.115 221.843 402.293 223.465 388.242 229.971C374.192 236.476 362.719 247.492 355.647 261.266C350.58 251.214 343.145 242.543 333.983 236.002C324.821 229.46 314.206 225.243 303.053 223.713C291.899 222.184 280.542 223.388 269.957 227.222C259.372 231.056 249.878 237.405 242.291 245.722C234.704 254.04 229.252 264.076 226.405 274.968C223.558 285.86 223.4 297.28 225.946 308.246C228.491 319.212 233.664 329.396 241.018 337.919C248.372 346.443 257.688 353.051 268.163 357.176C253.121 363.114 240.621 374.113 232.82 388.278C225.018 402.442 222.402 418.885 225.423 434.772C228.445 450.659 236.914 464.993 249.371 475.305C261.828 485.617 277.492 491.26 293.663 491.262C295.017 491.262 296.296 491.262 297.424 491.074C304.472 500.042 312.666 508.046 321.797 514.882C316.652 518.774 311.765 522.995 307.166 527.519L295.13 539.48L307.73 552.117C312.167 556.438 316.865 560.483 321.797 564.228C312.596 571.077 304.349 579.121 297.274 588.149C295.995 588.149 294.754 588.149 293.513 588.149C277.333 588.127 261.654 593.755 249.182 604.063C236.711 614.371 228.231 628.71 225.208 644.605C222.184 660.499 224.806 676.951 232.622 691.118C240.437 705.285 252.954 716.277 268.012 722.197C257.547 726.34 248.245 732.964 240.907 741.498C233.568 750.033 228.414 760.223 225.887 771.191C223.359 782.159 223.535 793.577 226.399 804.462C229.262 815.348 234.728 825.374 242.325 833.679C249.922 841.984 259.423 848.318 270.011 852.137C280.599 855.956 291.957 857.145 303.106 855.602C314.255 854.059 324.862 849.83 334.015 843.278C343.168 836.727 350.591 828.05 355.647 817.994C362.667 831.904 374.161 843.049 388.282 849.635C402.402 856.222 418.327 857.868 433.496 854.308C448.665 850.748 462.196 842.189 471.912 830.009C481.627 817.828 486.964 802.733 487.062 787.153C498.302 779.28 508.218 769.669 516.437 758.681C520.318 763.835 524.54 768.722 529.075 773.311L541.073 785.31L553.673 772.747C557.998 768.352 562.032 763.678 565.746 758.756C573.974 769.691 583.875 779.262 595.083 787.115C595.173 802.699 600.504 817.799 610.217 829.986C619.93 842.173 633.46 850.738 648.631 854.303C663.802 857.868 679.731 856.225 693.855 849.639C707.979 843.053 719.477 831.907 726.498 817.994C731.572 828.04 739.011 836.703 748.174 843.237C757.337 849.771 767.951 853.981 779.102 855.505C790.253 857.028 801.607 855.82 812.187 851.984C822.767 848.147 832.257 841.798 839.84 833.481C847.423 825.165 852.872 815.131 855.718 804.242C858.564 793.353 858.721 781.936 856.178 770.973C853.634 760.01 848.464 749.829 841.114 741.306C833.764 732.784 824.453 726.174 813.983 722.047C828.967 716.054 841.395 705.029 849.132 690.867C856.869 676.704 859.43 660.289 856.377 644.443C853.323 628.597 844.845 614.309 832.4 604.036C819.955 593.762 804.319 588.145 788.181 588.149C786.903 588.149 785.699 588.149 784.42 588.149C777.405 579.109 769.207 571.05 760.048 564.191C764.954 560.443 769.627 556.398 774.039 552.08L786.639 539.48L774.039 526.918C769.635 522.59 764.962 518.545 760.048 514.807C769.141 507.98 777.298 499.988 784.307 491.036C785.586 491.036 786.865 491.224 788.069 491.224C804.243 491.231 819.913 485.595 832.377 475.286C844.841 464.977 853.316 450.642 856.343 434.753C859.369 418.864 856.756 402.417 848.954 388.248C841.153 374.08 828.652 363.077 813.607 357.138L813.795 357.176ZM525.201 353.716C529.447 345.303 534.715 337.445 540.885 330.321C547.063 337.439 552.331 345.297 556.569 353.716C567.118 374.351 571.261 397.668 568.466 420.674C565.672 443.68 556.067 465.327 540.885 482.837C525.702 465.327 516.098 443.68 513.303 420.674C510.509 397.668 514.652 374.351 525.201 353.716ZM556.644 725.319C552.371 733.746 547.079 741.616 540.885 748.751C522.526 727.609 512.417 700.55 512.417 672.55C512.417 644.549 522.526 617.49 540.885 596.349C556.075 613.822 565.693 635.44 568.501 658.422C571.31 681.405 567.18 704.702 556.644 725.319ZM786.075 411.224C786.088 429.055 781.493 446.587 772.735 462.12C763.977 477.652 751.354 490.658 736.089 499.875C709.48 486.82 679.439 482.465 650.218 487.426C620.998 492.387 594.077 506.414 573.268 527.519L561.27 539.517L573.795 552.117C594.638 572.989 621.486 586.821 650.581 591.676C679.675 596.532 709.56 592.169 736.052 579.198C751.316 588.406 763.939 601.404 772.698 616.931C781.456 632.457 786.051 649.984 786.037 667.811V784.633H669.441C651.612 784.639 634.084 780.036 618.558 771.272C603.032 762.507 590.035 749.878 580.828 734.609C593.8 708.117 598.163 678.233 593.307 649.138C588.451 620.044 574.62 593.196 553.748 572.352L540.847 560.091L528.586 572.352C507.693 593.175 493.846 620.018 488.989 649.112C484.132 678.207 488.509 708.092 501.505 734.571C492.3 749.852 479.299 762.493 463.766 771.265C448.232 780.036 430.694 784.642 412.855 784.633H296.258V667.811C296.245 649.984 300.84 632.457 309.598 616.931C318.357 601.404 330.98 588.406 346.244 579.198C372.736 592.169 402.621 596.532 431.715 591.676C460.81 586.821 487.658 572.989 508.501 552.117L521.101 539.517L508.501 526.955C487.685 506.065 460.848 492.22 431.76 487.363C402.672 482.506 372.794 486.881 346.32 499.875C330.972 490.744 318.251 477.792 309.399 462.282C300.546 446.772 295.864 429.233 295.807 411.374V294.778H412.591C430.4 294.727 447.919 299.278 463.451 307.989C478.983 316.701 492.001 329.278 501.242 344.501C488.354 371.141 484.091 401.135 489.046 430.311C494 459.487 507.927 486.393 528.887 507.284L540.885 519.282L553.485 506.682C574.28 485.808 588.058 458.974 592.904 429.91C597.751 400.846 593.425 370.994 580.527 344.501C589.73 329.218 602.73 316.575 618.264 307.803C633.798 299.031 651.338 294.427 669.178 294.44H785.962L786.075 411.224ZM750.194 539.517C743.078 545.719 735.22 551.013 726.799 555.277C706.188 565.838 682.886 569.982 659.898 567.173C636.909 564.364 615.29 554.731 597.829 539.517C619.003 521.242 646.041 511.187 674.011 511.187C701.981 511.187 729.019 521.242 750.194 539.517ZM331.802 539.517C352.976 521.242 380.014 511.187 407.984 511.187C435.954 511.187 462.992 521.242 484.166 539.517C463.02 557.851 435.971 567.944 407.984 567.944C379.996 567.944 352.948 557.851 331.802 539.517Z" fill="url(#paint0_linear_2545_5245)"/>
<path d="M513.615 567.425C494.809 578.709 476.642 590.669 458.551 602.705C445.161 611.694 418.758 630.65 405.895 640.317C388.932 653.18 367.493 661.718 355.796 680.561C341.893 700.498 333.949 723.979 332.891 748.262C332.905 748.893 333.045 749.514 333.301 750.091C333.557 750.667 333.924 751.187 334.382 751.621C334.84 752.054 335.38 752.393 335.97 752.617C336.559 752.841 337.187 752.946 337.818 752.926C350.679 752.463 363.38 749.922 375.429 745.404C396.417 737.242 415.448 726.222 427.597 707.228C433.539 698.126 438.88 688.422 445.462 679.922C471.677 645.369 496.057 609.463 518.504 572.352C518.789 571.667 518.864 570.913 518.721 570.185C518.578 569.457 518.223 568.787 517.7 568.26C517.178 567.734 516.511 567.373 515.784 567.225C515.057 567.076 514.302 567.146 513.615 567.425Z" fill="url(#paint1_linear_2545_5245)"/>
<path d="M598.546 627.415C607.535 640.805 626.492 667.208 636.158 680.071C648.983 697.072 657.521 718.511 676.365 730.208C696.31 744.094 719.786 752.037 744.066 753.113C744.693 753.094 745.31 752.951 745.883 752.693C746.455 752.434 746.97 752.066 747.4 751.608C747.83 751.151 748.165 750.613 748.386 750.026C748.608 749.439 748.712 748.813 748.692 748.186C748.266 735.321 745.724 722.614 741.17 710.574C733.045 689.587 721.988 670.556 702.994 658.407C693.892 652.464 684.188 647.124 675.725 640.504C641.126 614.312 605.183 589.944 568.043 567.5C567.354 567.209 566.594 567.13 565.86 567.274C565.125 567.418 564.451 567.777 563.922 568.306C563.393 568.835 563.034 569.509 562.89 570.243C562.747 570.977 562.825 571.738 563.116 572.427C574.399 591.308 586.51 609.324 598.546 627.415Z" fill="url(#paint2_linear_2545_5245)"/>
<path d="M445.462 399.037C438.917 390.537 433.539 380.871 427.596 371.768C415.448 352.737 396.416 341.679 375.429 333.593C363.385 329.055 350.68 326.514 337.817 326.07C336.592 326.088 335.419 326.573 334.538 327.425C333.658 328.278 333.135 329.435 333.078 330.659C334.144 354.94 342.088 378.419 355.984 398.36C367.681 417.166 389.119 425.741 406.082 438.567C418.908 448.383 445.311 467.302 458.739 476.178C476.83 488.214 494.808 500.288 513.802 511.458C514.495 511.755 515.262 511.837 516.002 511.693C516.742 511.549 517.422 511.186 517.953 510.65C518.484 510.115 518.842 509.433 518.981 508.691C519.119 507.95 519.032 507.184 518.729 506.493C496.206 469.416 471.75 433.548 445.462 399.037Z" fill="url(#paint3_linear_2545_5245)"/>
<path d="M636.304 399.037C626.488 411.863 607.532 438.266 598.693 451.694C586.657 469.785 574.546 487.801 563.413 506.757C563.111 507.448 563.023 508.214 563.162 508.955C563.3 509.696 563.658 510.379 564.189 510.914C564.72 511.449 565.4 511.813 566.14 511.957C566.881 512.101 567.647 512.019 568.34 511.722C605.489 489.278 641.433 464.897 676.022 438.68C684.523 432.136 694.189 426.757 703.291 420.815C722.097 408.628 733.38 389.635 741.467 368.61C746.026 356.572 748.567 343.864 748.989 330.998C749.014 330.367 748.914 329.738 748.695 329.147C748.475 328.555 748.141 328.013 747.711 327.551C747.281 327.09 746.763 326.718 746.189 326.457C745.614 326.197 744.993 326.053 744.363 326.033C720.08 327.123 696.604 335.078 676.662 348.976C657.668 360.598 649.017 382.075 636.304 399.037Z" fill="url(#paint4_linear_2545_5245)"/>
<path d="M809.842 513.243L794.869 528.217C788.392 534.694 788.392 545.196 794.869 551.674L809.842 566.647C816.32 573.125 826.822 573.125 833.3 566.647L848.273 551.674C854.75 545.196 854.75 534.694 848.273 528.217L833.3 513.243C826.822 506.766 816.32 506.766 809.842 513.243Z" fill="url(#paint5_linear_2545_5245)"/>
<path d="M246.707 513.306L231.731 528.276C225.252 534.753 225.25 545.255 231.727 551.734L246.697 566.709C253.174 573.188 263.676 573.19 270.154 566.714L285.13 551.743C291.609 545.266 291.611 534.764 285.134 528.286L270.164 513.31C263.687 506.831 253.185 506.829 246.707 513.306Z" fill="url(#paint6_linear_2545_5245)"/>
<path d="M528.269 231.727L513.293 246.697C506.814 253.174 506.813 263.676 513.289 270.154L528.26 285.13C534.736 291.609 545.238 291.611 551.717 285.134L566.693 270.164C573.171 263.687 573.173 253.185 566.697 246.707L551.726 231.731C545.25 225.252 534.748 225.25 528.269 231.727Z" fill="url(#paint7_linear_2545_5245)"/>
<path d="M528.284 794.796L513.311 809.769C506.833 816.247 506.833 826.749 513.311 833.227L528.284 848.2C534.761 854.677 545.264 854.677 551.741 848.2L566.714 833.227C573.192 826.749 573.192 816.247 566.714 809.769L551.741 794.796C545.264 788.319 534.761 788.319 528.284 794.796Z" fill="url(#paint8_linear_2545_5245)"/>
<path d="M534.763 528.073L528.114 534.722C525.221 537.615 525.221 542.307 528.114 545.2L534.763 551.849C537.657 554.743 542.348 554.743 545.242 551.849L551.891 545.2C554.784 542.307 554.784 537.615 551.891 534.722L545.242 528.073C542.348 525.179 537.657 525.179 534.763 528.073Z" fill="url(#paint9_linear_2545_5245)"/>
<defs>
<linearGradient id="paint0_linear_2545_5245" x1="185.831" y1="159.113" x2="970.259" y2="999.809" gradientUnits="userSpaceOnUse">
<stop offset="0.01" stop-color="#815121"/>
<stop offset="0.02" stop-color="#875926"/>
<stop offset="0.05" stop-color="#996F33"/>
<stop offset="0.09" stop-color="#B6924A"/>
<stop offset="0.13" stop-color="#DEC368"/>
<stop offset="0.14" stop-color="#F1DB77"/>
<stop offset="0.25" stop-color="#EDD470"/>
<stop offset="0.41" stop-color="#E1BF5C"/>
<stop offset="0.6" stop-color="#CF9E3B"/>
<stop offset="0.68" stop-color="#C68E2B"/>
<stop offset="0.77" stop-color="#C1892B"/>
<stop offset="1" stop-color="#B8802B"/>
</linearGradient>
<linearGradient id="paint1_linear_2545_5245" x1="64.4938" y1="272.287" x2="848.923" y2="1113.02" gradientUnits="userSpaceOnUse">
<stop offset="0.01" stop-color="#815121"/>
<stop offset="0.02" stop-color="#875926"/>
<stop offset="0.05" stop-color="#996F33"/>
<stop offset="0.09" stop-color="#B6924A"/>
<stop offset="0.13" stop-color="#DEC368"/>
<stop offset="0.14" stop-color="#F1DB77"/>
<stop offset="0.25" stop-color="#EDD470"/>
<stop offset="0.41" stop-color="#E1BF5C"/>
<stop offset="0.6" stop-color="#CF9E3B"/>
<stop offset="0.68" stop-color="#C68E2B"/>
<stop offset="0.77" stop-color="#C1892B"/>
<stop offset="1" stop-color="#B8802B"/>
</linearGradient>
<linearGradient id="paint2_linear_2545_5245" x1="188.504" y1="156.63" x2="972.933" y2="997.326" gradientUnits="userSpaceOnUse">
<stop offset="0.01" stop-color="#815121"/>
<stop offset="0.02" stop-color="#875926"/>
<stop offset="0.05" stop-color="#996F33"/>
<stop offset="0.09" stop-color="#B6924A"/>
<stop offset="0.13" stop-color="#DEC368"/>
<stop offset="0.14" stop-color="#F1DB77"/>
<stop offset="0.25" stop-color="#EDD470"/>
<stop offset="0.41" stop-color="#E1BF5C"/>
<stop offset="0.6" stop-color="#CF9E3B"/>
<stop offset="0.68" stop-color="#C68E2B"/>
<stop offset="0.77" stop-color="#C1892B"/>
<stop offset="1" stop-color="#B8802B"/>
</linearGradient>
<linearGradient id="paint3_linear_2545_5245" x1="183.233" y1="161.519" x2="967.662" y2="1002.25" gradientUnits="userSpaceOnUse">
<stop offset="0.01" stop-color="#815121"/>
<stop offset="0.02" stop-color="#875926"/>
<stop offset="0.05" stop-color="#996F33"/>
<stop offset="0.09" stop-color="#B6924A"/>
<stop offset="0.13" stop-color="#DEC368"/>
<stop offset="0.14" stop-color="#F1DB77"/>
<stop offset="0.25" stop-color="#EDD470"/>
<stop offset="0.41" stop-color="#E1BF5C"/>
<stop offset="0.6" stop-color="#CF9E3B"/>
<stop offset="0.68" stop-color="#C68E2B"/>
<stop offset="0.77" stop-color="#C1892B"/>
<stop offset="1" stop-color="#B8802B"/>
</linearGradient>
<linearGradient id="paint4_linear_2545_5245" x1="307.24" y1="45.7887" x2="1091.67" y2="886.522" gradientUnits="userSpaceOnUse">
<stop offset="0.01" stop-color="#815121"/>
<stop offset="0.02" stop-color="#875926"/>
<stop offset="0.05" stop-color="#996F33"/>
<stop offset="0.09" stop-color="#B6924A"/>
<stop offset="0.13" stop-color="#DEC368"/>
<stop offset="0.14" stop-color="#F1DB77"/>
<stop offset="0.25" stop-color="#EDD470"/>
<stop offset="0.41" stop-color="#E1BF5C"/>
<stop offset="0.6" stop-color="#CF9E3B"/>
<stop offset="0.68" stop-color="#C68E2B"/>
<stop offset="0.77" stop-color="#C1892B"/>
<stop offset="1" stop-color="#B8802B"/>
</linearGradient>
<linearGradient id="paint5_linear_2545_5245" x1="335.678" y1="19.2865" x2="1120.11" y2="859.982" gradientUnits="userSpaceOnUse">
<stop offset="0.01" stop-color="#815121"/>
<stop offset="0.02" stop-color="#875926"/>
<stop offset="0.05" stop-color="#996F33"/>
<stop offset="0.09" stop-color="#B6924A"/>
<stop offset="0.13" stop-color="#DEC368"/>
<stop offset="0.14" stop-color="#F1DB77"/>
<stop offset="0.25" stop-color="#EDD470"/>
<stop offset="0.41" stop-color="#E1BF5C"/>
<stop offset="0.6" stop-color="#CF9E3B"/>
<stop offset="0.68" stop-color="#C68E2B"/>
<stop offset="0.77" stop-color="#C1892B"/>
<stop offset="1" stop-color="#B8802B"/>
</linearGradient>
<linearGradient id="paint6_linear_2545_5245" x1="34.695" y1="300.202" x2="819.124" y2="1140.9" gradientUnits="userSpaceOnUse">
<stop offset="0.01" stop-color="#815121"/>
<stop offset="0.02" stop-color="#875926"/>
<stop offset="0.05" stop-color="#996F33"/>
<stop offset="0.09" stop-color="#B6924A"/>
<stop offset="0.13" stop-color="#DEC368"/>
<stop offset="0.14" stop-color="#F1DB77"/>
<stop offset="0.25" stop-color="#EDD470"/>
<stop offset="0.41" stop-color="#E1BF5C"/>
<stop offset="0.6" stop-color="#CF9E3B"/>
<stop offset="0.68" stop-color="#C68E2B"/>
<stop offset="0.77" stop-color="#C1892B"/>
<stop offset="1" stop-color="#B8802B"/>
</linearGradient>
<linearGradient id="paint7_linear_2545_5245" x1="325.659" y1="28.7121" x2="1110.09" y2="869.408" gradientUnits="userSpaceOnUse">
<stop offset="0.01" stop-color="#815121"/>
<stop offset="0.02" stop-color="#875926"/>
<stop offset="0.05" stop-color="#996F33"/>
<stop offset="0.09" stop-color="#B6924A"/>
<stop offset="0.13" stop-color="#DEC368"/>
<stop offset="0.14" stop-color="#F1DB77"/>
<stop offset="0.25" stop-color="#EDD470"/>
<stop offset="0.41" stop-color="#E1BF5C"/>
<stop offset="0.6" stop-color="#CF9E3B"/>
<stop offset="0.68" stop-color="#C68E2B"/>
<stop offset="0.77" stop-color="#C1892B"/>
<stop offset="1" stop-color="#B8802B"/>
</linearGradient>
<linearGradient id="paint8_linear_2545_5245" x1="44.6949" y1="290.727" x2="829.124" y2="1131.42" gradientUnits="userSpaceOnUse">
<stop offset="0.01" stop-color="#815121"/>
<stop offset="0.02" stop-color="#875926"/>
<stop offset="0.05" stop-color="#996F33"/>
<stop offset="0.09" stop-color="#B6924A"/>
<stop offset="0.13" stop-color="#DEC368"/>
<stop offset="0.14" stop-color="#F1DB77"/>
<stop offset="0.25" stop-color="#EDD470"/>
<stop offset="0.41" stop-color="#E1BF5C"/>
<stop offset="0.6" stop-color="#CF9E3B"/>
<stop offset="0.68" stop-color="#C68E2B"/>
<stop offset="0.77" stop-color="#C1892B"/>
<stop offset="1" stop-color="#B8802B"/>
</linearGradient>
<linearGradient id="paint9_linear_2545_5245" x1="185.18" y1="159.717" x2="969.609" y2="1000.41" gradientUnits="userSpaceOnUse">
<stop offset="0.01" stop-color="#815121"/>
<stop offset="0.02" stop-color="#875926"/>
<stop offset="0.05" stop-color="#996F33"/>
<stop offset="0.09" stop-color="#B6924A"/>
<stop offset="0.13" stop-color="#DEC368"/>
<stop offset="0.14" stop-color="#F1DB77"/>
<stop offset="0.25" stop-color="#EDD470"/>
<stop offset="0.41" stop-color="#E1BF5C"/>
<stop offset="0.6" stop-color="#CF9E3B"/>
<stop offset="0.68" stop-color="#C68E2B"/>
<stop offset="0.77" stop-color="#C1892B"/>
<stop offset="1" stop-color="#B8802B"/>
</linearGradient>
</defs>
</svg>
