<svg width="1080" height="1080" viewBox="0 0 1080 1080" fill="none" xmlns="http://www.w3.org/2000/svg">
<rect width="1080" height="1080" fill="#0F172A"/>
<path d="M588.875 611.7C587.096 611.733 585.329 611.398 583.686 610.714C582.243 610.109 581.006 609.1 580.123 607.808C579.227 606.438 578.749 604.836 578.748 603.199H584.205C584.22 603.952 584.432 604.689 584.819 605.335C585.202 605.969 585.749 606.489 586.402 606.84C587.148 607.228 587.982 607.418 588.823 607.393C589.549 607.411 590.271 607.275 590.942 606.995C591.503 606.752 591.989 606.364 592.352 605.871C592.699 605.363 592.878 604.757 592.862 604.142C592.886 603.459 592.686 602.788 592.291 602.23C591.87 601.696 591.343 601.254 590.743 600.933C590.022 600.547 589.27 600.223 588.495 599.964L585.848 599.1C584.031 598.581 582.368 597.624 581.005 596.315C580.445 595.704 580.011 594.989 579.729 594.209C579.447 593.43 579.322 592.602 579.362 591.775C579.301 590.342 579.684 588.925 580.458 587.718C581.232 586.511 582.359 585.572 583.686 585.029C586.71 583.795 590.097 583.795 593.121 585.029C594.431 585.606 595.555 586.538 596.364 587.719C597.181 588.928 597.629 590.35 597.653 591.809H592.118C592.097 591.22 591.921 590.648 591.608 590.149C591.282 589.627 590.83 589.195 590.293 588.895C589.684 588.564 588.998 588.399 588.304 588.419C587.687 588.387 587.07 588.491 586.497 588.722C585.962 588.926 585.507 589.295 585.196 589.776C584.885 590.256 584.735 590.823 584.767 591.394C584.75 591.962 584.91 592.521 585.225 592.994C585.569 593.461 586.012 593.845 586.523 594.118C587.156 594.465 587.819 594.754 588.503 594.983C589.273 595.242 590.094 595.519 590.985 595.796C592.261 596.223 593.494 596.767 594.669 597.422C595.734 598.004 596.642 598.835 597.316 599.843C598.031 601.024 598.378 602.391 598.31 603.77C598.318 605.143 597.94 606.491 597.221 607.661C596.448 608.905 595.346 609.91 594.038 610.567C592.434 611.356 590.662 611.745 588.875 611.7Z" fill="white"/>
<path fill-rule="evenodd" clip-rule="evenodd" d="M503.102 585.85C505.081 587.001 506.697 588.685 507.763 590.711C508.845 592.954 509.407 595.412 509.407 597.902C509.407 600.392 508.845 602.85 507.763 605.093C506.697 607.121 505.082 608.809 503.102 609.962C500.991 611.146 498.602 611.743 496.183 611.691C493.797 611.741 491.442 611.144 489.368 609.962C487.404 608.791 485.796 607.108 484.715 605.093C483.601 602.86 483.021 600.398 483.021 597.902C483.021 595.406 483.601 592.944 484.715 590.711C485.796 588.698 487.405 587.018 489.368 585.85C491.439 584.661 493.796 584.063 496.183 584.121C498.603 584.061 500.994 584.659 503.102 585.85ZM500.429 606.01C501.635 605.233 502.59 604.125 503.179 602.818L503.171 602.801C504.462 599.669 504.462 596.152 503.171 593.02C502.582 591.724 501.626 590.629 500.421 589.872C499.14 589.106 497.666 588.721 496.174 588.765C494.716 588.729 493.278 589.114 492.032 589.872C490.826 590.633 489.865 591.726 489.264 593.02C488.614 594.568 488.279 596.231 488.279 597.91C488.279 599.59 488.614 601.253 489.264 602.801C489.854 604.13 490.828 605.252 492.061 606.023C493.294 606.794 494.73 607.178 496.183 607.125C497.676 607.166 499.149 606.779 500.429 606.01Z" fill="white"/>
<path fill-rule="evenodd" clip-rule="evenodd" d="M472.565 590.866C471.586 588.877 470.003 587.248 468.042 586.214C465.666 585.029 463.032 584.459 460.379 584.553H451.445V611.259H460.379C463.032 611.354 465.666 610.783 468.042 609.599C470.001 608.562 471.584 606.934 472.565 604.946C473.529 602.724 474.026 600.328 474.026 597.906C474.026 595.484 473.529 593.088 472.565 590.866ZM467.929 602.689C467.419 604.003 466.46 605.094 465.222 605.767C463.611 606.556 461.825 606.922 460.033 606.831H456.6V588.938H460.146C461.939 588.845 463.725 589.214 465.335 590.01C466.574 590.678 467.534 591.767 468.042 593.08C468.613 594.623 468.886 596.261 468.846 597.906C468.85 599.544 468.538 601.168 467.929 602.689Z" fill="white"/>
<path d="M401.822 584.553H406.967V611.259H401.822V584.553Z" fill="white"/>
<path d="M417.925 584.553V611.259H423.071V592.864L435.36 611.259H440.505V584.553H435.36V602.974L423.071 584.553H417.925Z" fill="white"/>
<path d="M519.43 611.259V584.553H524.575L536.864 602.974V584.553H542.01V611.259H536.864L524.575 592.864V611.259H519.43Z" fill="white"/>
<path d="M552.95 584.553V611.259H570.541V607.099H558.105V599.696H569.391V595.692H558.105V588.713H570.541V584.553H552.95Z" fill="white"/>
<path d="M608.334 584.553H613.479V611.259H608.334V584.553Z" fill="white"/>
<path fill-rule="evenodd" clip-rule="evenodd" d="M622.24 611.259L631.969 584.553H637.807L647.536 611.259H642.079L639.977 605.188H629.731L627.619 611.259H622.24ZM631.124 601.184H638.591L634.867 590.425L631.124 601.184Z" fill="white"/>
<path d="M362.005 488.938H420.891V469.004H362.005C355.895 468.922 349.841 470.167 344.259 472.653C339.035 475.041 334.38 478.514 330.603 482.841C326.786 487.215 323.818 492.263 321.851 497.725C319.813 503.454 318.786 509.494 318.816 515.575C318.777 521.696 319.804 527.777 321.851 533.546C323.802 539.006 326.769 544.047 330.595 548.403C334.391 552.691 339.046 556.133 344.259 558.505C349.847 560.963 355.901 562.184 362.005 562.085H387.777V542.194H361.971C357.62 542.346 353.33 541.137 349.699 538.735C346.22 536.337 343.446 533.052 341.664 529.222C339.7 524.962 338.715 520.317 338.785 515.627C338.723 510.894 339.722 506.207 341.708 501.91C343.463 498.071 346.232 494.782 349.716 492.397C353.367 490.024 357.653 488.818 362.005 488.938Z" fill="white"/>
<path d="M220.407 562.146H316.481V542.211H240.341V525.546H306.111V505.612H240.341V488.938H316.481V469.004H220.407V562.146Z" fill="white"/>
<path d="M964.694 473.138C969.912 475.491 974.566 478.935 978.341 483.239C982.119 487.577 985.053 492.584 986.989 498.001C989.016 503.682 990.034 509.673 989.999 515.704C990.04 521.776 989.018 527.809 986.981 533.529C985.054 538.932 982.12 543.921 978.332 548.231C974.548 552.497 969.903 555.913 964.703 558.254C959.197 560.696 953.23 561.926 947.207 561.86H913.038V541.779H947.207C951.481 541.901 955.69 540.715 959.271 538.38C962.68 536.059 965.39 532.85 967.107 529.101C969.018 524.897 969.978 520.322 969.918 515.704C969.977 511.055 969.015 506.449 967.098 502.213C965.409 498.468 962.715 495.265 959.315 492.96C955.707 490.653 951.488 489.487 947.207 489.613H902.712V528.677H882.631V469.523H947.207C953.228 469.461 959.191 470.694 964.694 473.138Z" fill="white"/>
<path d="M656.107 517.348C659.273 521.756 661.097 526.986 661.357 532.407C661.618 537.829 660.305 543.21 657.577 547.902C655.114 552.085 651.626 555.57 647.441 558.029C643.16 560.565 638.268 561.884 633.293 561.843H587.215V541.762H633.293C634.879 541.768 636.431 541.302 637.75 540.422C639.07 539.543 640.098 538.29 640.703 536.824C641.308 535.358 641.463 533.745 641.147 532.191C640.832 530.636 640.06 529.211 638.931 528.097C638.205 527.336 637.329 526.732 636.359 526.324C635.389 525.916 634.345 525.713 633.293 525.728H587.215V505.647H621.254C622.307 505.661 623.352 505.458 624.323 505.048C625.293 504.639 626.168 504.033 626.893 503.268C627.639 502.534 628.231 501.659 628.635 500.694C629.039 499.729 629.247 498.693 629.247 497.647C629.247 496.601 629.039 495.565 628.635 494.6C628.231 493.634 627.639 492.759 626.893 492.025C626.167 491.263 625.292 490.659 624.321 490.251C623.351 489.843 622.307 489.64 621.254 489.656H574.225V561.886H554.144V469.523H621.254C626.228 469.483 631.119 470.799 635.403 473.328C639.583 475.796 643.07 479.283 645.538 483.464C648.076 487.747 649.395 492.642 649.352 497.621C649.361 500.46 648.933 503.284 648.081 505.992C647.741 507.079 647.336 508.145 646.87 509.184C650.524 511.176 653.681 513.966 656.107 517.348Z" fill="white"/>
<path d="M765.62 469.523H745.538V515.704C745.593 520.291 744.397 524.805 742.079 528.763C739.775 532.677 736.525 535.948 732.626 538.276C728.685 540.615 724.176 541.821 719.594 541.762H710.669C706.103 541.793 701.617 540.573 697.696 538.233C693.772 535.917 690.499 532.644 688.183 528.72C685.865 524.762 684.669 520.248 684.724 515.661V469.523H664.634V515.704C664.603 521.846 665.818 527.93 668.206 533.589C670.534 539.07 673.882 544.06 678.073 548.291C682.278 552.538 687.272 555.922 692.775 558.254C698.435 560.639 704.519 561.851 710.66 561.817H719.594C725.734 561.849 731.818 560.637 737.478 558.254C748.553 553.578 757.368 544.766 762.048 533.693C764.442 528 765.657 521.88 765.62 515.704V469.523Z" fill="white"/>
<path d="M778.488 469.523H798.569V561.843H778.488V469.523Z" fill="white"/>
<path d="M899.901 541.762H831.398V469.523H811.308V561.852H899.901V541.762Z" fill="white"/>
<path d="M349.232 505.612H420.891V562.146H400.948V542.211H400.966V525.546H349.232V505.612Z" fill="white"/>
<path d="M461.364 472.52C467.007 470.175 473.061 468.98 479.172 469.004H539.07V562.146H519.127V488.938H479.172C474.508 488.89 469.92 490.119 465.905 492.493C461.901 494.826 458.57 498.157 456.237 502.161C453.862 506.229 452.634 510.865 452.682 515.575V517.806H505.981V537.749H452.682V562.146H432.748V515.583C432.717 509.389 433.941 503.252 436.346 497.543C438.693 491.995 442.074 486.944 446.308 482.659C450.603 478.312 455.721 474.865 461.364 472.52Z" fill="white"/>
<path d="M109.865 469.004H90V561.843H109.865V469.004Z" fill="white"/>
<path d="M188.227 469.004H208.092V561.843H188.227V469.004Z" fill="white"/>
<path d="M149.042 526.766L109.865 494.559L109.865 469.004L149.042 502.256L188.227 469.004L188.227 494.559L149.042 526.766Z" fill="white"/>
</svg>
