<svg width="1080" height="1080" viewBox="0 0 1080 1080" fill="none" xmlns="http://www.w3.org/2000/svg">
<rect width="1080" height="1080" fill="white"/>
<path d="M374.365 340.707C466.707 321.135 551.345 353.096 592.051 443.46C632.756 533.824 676.48 739.329 676.48 739.329C676.174 739.432 493.095 800.53 427.771 536.635C427.698 536.989 376.722 783.126 180 739.329L254.748 473.963C254.748 473.963 282.023 360.279 374.365 340.707ZM549.579 343.723C671.799 314.261 779.237 352.468 815.57 448.661C851.894 544.83 899.975 739.224 900 739.325C708.237 762.333 683.564 582.542 650.146 470.316C618.914 365.273 549.579 343.723 549.579 343.723Z" fill="url(#paint0_linear_2545_5292)"/>
<defs>
<linearGradient id="paint0_linear_2545_5292" x1="648.686" y1="321.965" x2="844.921" y2="748.067" gradientUnits="userSpaceOnUse">
<stop offset="0.11" stop-color="#E6214D"/>
<stop offset="1" stop-color="#E60013"/>
</linearGradient>
</defs>
</svg>
