<svg width="1080" height="1080" viewBox="0 0 1080 1080" fill="none" xmlns="http://www.w3.org/2000/svg">
<rect width="1080" height="1080" fill="white"/>
<path d="M789.459 716.598H549.436V446.319H789.459V514.494H625.275V546.766H783.408V614.538H625.275V648.423H789.459V716.598Z" fill="#FF6600"/>
<path d="M355.027 716.598H279.188V446.319H428.849C492.99 446.319 533.33 483.029 533.33 547.17C533.33 611.311 492.99 648.423 428.849 648.423H355.027V716.598ZM420.378 514.494H355.027V580.249H420.378C447.002 580.249 457.894 575.004 457.894 547.17C457.894 519.738 447.002 514.494 420.378 514.494Z" fill="#FF6600"/>
<path fill-rule="evenodd" clip-rule="evenodd" d="M324.777 229.574C318.836 228.012 307.04 193.834 316.372 196.109C368.37 209.484 416.4 239.223 457.45 266.223C501.542 295.122 538.218 334.015 564.51 379.751C570.695 389.974 554.603 394.113 549.376 385.532C525.512 344.583 502.524 310.569 463.525 284.886C423.078 258.299 376.334 242.841 324.777 229.574ZM856.247 399.702C860.546 402.032 892.563 381.497 885.94 377.775C849.021 357.821 802.825 348.968 759.448 348.639C714.484 348.283 664.156 364.044 608.079 391.891C596.174 397.62 601.457 408.498 611.5 403.732C658.818 380.238 700.913 366.237 742.234 366.538C785.064 366.867 819.819 379.914 856.383 399.704L856.247 399.702ZM657.177 329.096C625.158 363.851 592.942 315.196 574.396 289.901C568.512 284.036 551.08 289.736 558.988 298.644C582.306 330.439 626.339 372.485 664.133 331.535C665.392 330.165 664.87 328.52 662.93 327.889C661.949 327.571 660.902 327.514 659.893 327.726C658.884 327.938 657.947 328.411 657.177 329.097V329.096Z" fill="#F20100"/>
</svg>
