<svg width="1080" height="1080" viewBox="0 0 1080 1080" fill="none" xmlns="http://www.w3.org/2000/svg">
<rect width="1080" height="1080" fill="white"/>
<path fill-rule="evenodd" clip-rule="evenodd" d="M714.937 527.577L704.267 593.752H678.867L679.44 583.343C676.468 587.148 672.847 590.398 668.744 592.943C665.426 594.906 661.644 595.948 657.789 595.962C650.945 595.962 646.208 593.88 643.606 589.664C641.004 585.449 640.406 578.995 641.81 570.277L643.554 559.477C643.987 555.892 645.271 552.462 647.299 549.475C649.327 546.487 652.04 544.028 655.212 542.302C661.691 538.685 672.335 536.395 687.141 535.536L688.156 529.317C688.95 526.076 689.021 522.7 688.365 519.428C688.041 518.583 687.447 517.87 686.674 517.399C685.902 516.929 684.995 516.728 684.096 516.828C683.007 516.755 681.915 516.941 680.911 517.371C679.907 517.8 679.019 518.461 678.32 519.3C676.651 521.833 675.632 524.737 675.353 527.758L675.119 529.267H651.7L651.961 527.576C653.548 517.739 656.957 510.869 662.11 507.07C667.264 503.27 675.824 501.397 687.664 501.397C699.505 501.397 707.65 503.27 711.553 507.044C715.456 510.817 716.758 517.687 715.066 527.576L714.937 527.577ZM105.357 500.825L99.8405 535.019H102.703C108.532 535.019 112.773 534.004 115.376 531.975C118.415 529.131 120.273 525.248 120.581 521.097L121.621 514.592C122.455 509.387 121.882 505.796 119.904 503.818C117.926 501.815 114.023 500.826 108.194 500.826L105.357 500.825ZM684.672 550.841C680.857 550.91 677.133 552.016 673.899 554.041C671.507 556.251 670.03 559.278 669.761 562.524L668.929 568.379C668.177 571.412 668.177 574.584 668.929 577.617C669.335 578.451 669.994 579.135 670.811 579.574C671.628 580.013 672.563 580.184 673.482 580.063C674.545 580.118 675.605 579.91 676.568 579.456C677.53 579.002 678.366 578.318 679 577.463C680.64 574.691 681.644 571.589 681.94 568.381L684.776 550.842L684.672 550.841ZM486.901 550.841C483.167 550.957 479.53 552.061 476.362 554.041C473.97 556.251 472.493 559.278 472.224 562.524L471.158 568.379C470.406 571.412 470.406 574.584 471.158 577.617C471.572 578.45 472.236 579.134 473.057 579.572C473.877 580.01 474.815 580.182 475.737 580.063C476.797 580.118 477.853 579.91 478.811 579.456C479.77 579.002 480.6 578.317 481.228 577.463C482.871 574.691 483.875 571.589 484.169 568.381L487.005 550.842L486.901 550.841ZM358.661 529.476C359.466 526.225 359.51 522.833 358.792 519.562C358.398 518.673 357.724 517.939 356.874 517.469C356.023 517 355.043 516.821 354.082 516.962C352.988 516.911 351.9 517.138 350.917 517.62C349.935 518.102 349.09 518.825 348.461 519.72C346.755 522.766 345.701 526.134 345.364 529.609L339.171 567.966C338.42 571.228 338.42 574.618 339.171 577.881C339.56 578.754 340.222 579.479 341.056 579.947C341.89 580.416 342.853 580.603 343.802 580.481C344.898 580.559 345.996 580.362 346.995 579.908C347.995 579.454 348.866 578.757 349.527 577.881C351.231 574.852 352.286 571.502 352.624 568.044L358.792 529.682L358.661 529.476ZM194.719 550.841C190.896 550.914 187.165 552.02 183.919 554.041C181.536 556.255 180.069 559.282 179.808 562.524L178.923 568.379C178.167 571.412 178.167 574.584 178.923 577.617C179.329 578.451 179.988 579.135 180.805 579.574C181.622 580.013 182.557 580.184 183.477 580.063C184.539 580.118 185.599 579.91 186.562 579.456C187.524 579.002 188.36 578.318 188.993 577.463C190.65 574.677 191.664 571.557 191.96 568.329L194.796 550.79L194.719 550.841ZM77.6175 484.509H111.447C128.795 484.509 140.636 486.782 146.968 491.327C153.318 495.855 155.66 503.506 153.918 514.277L152.773 521.381C151.108 531.608 146.528 539.129 138.955 543.943C131.382 548.757 120.427 551.177 106.089 551.177H97.2385L90.3685 593.752H60L77.6175 484.457V484.509ZM225.061 527.577L214.392 593.752H188.968L189.568 583.343C186.59 587.142 182.97 590.391 178.872 592.943C175.553 594.903 171.772 595.945 167.917 595.962C161.073 595.962 156.337 593.88 153.734 589.664C151.132 585.449 150.535 578.995 151.939 570.277L153.683 559.427C154.109 555.84 155.39 552.408 157.419 549.419C159.448 546.43 162.164 543.972 165.34 542.252C171.898 538.635 182.464 536.371 197.27 535.486L198.285 529.267C199.065 526.024 199.136 522.651 198.493 519.378C198.17 518.533 197.575 517.82 196.803 517.349C196.031 516.879 195.124 516.678 194.225 516.778C193.136 516.705 192.044 516.891 191.04 517.321C190.036 517.75 189.148 518.411 188.449 519.25C186.78 521.783 185.761 524.687 185.482 527.708L185.248 529.217H161.67L161.956 527.526C163.544 517.689 166.952 510.819 172.106 507.02C177.26 503.22 185.82 501.347 197.66 501.347C209.5 501.347 217.645 503.22 221.55 506.993C225.455 510.766 226.755 517.636 225.063 527.525L225.061 527.577ZM304.899 527.941L294.204 593.752H267.479L277.654 530.674C278.308 527.848 278.308 524.911 277.654 522.086C277.338 521.301 276.771 520.642 276.041 520.214C275.311 519.785 274.46 519.611 273.62 519.718C272.635 519.692 271.659 519.916 270.785 520.371C269.911 520.826 269.167 521.496 268.624 522.318C267.177 524.925 266.291 527.806 266.023 530.776L255.82 593.752H229.147L243.771 503.582H269.638L268.675 513.993C271.819 510.223 275.554 506.989 279.734 504.416C283.112 502.454 286.941 501.405 290.846 501.372C297.612 501.372 302.061 503.245 304.169 507.045C306.277 510.844 306.511 517.818 304.898 527.863L304.899 527.941ZM383.409 541.837L381.223 555.473C378.725 570.878 374.596 581.47 368.836 587.247C363.077 593.024 353.952 595.912 341.461 595.912C329.022 595.912 320.833 593.024 316.895 587.247C312.957 581.47 312.219 570.878 314.683 555.473L316.895 541.837C319.376 526.432 323.496 515.841 329.255 510.064C335.015 504.287 344.148 501.398 356.655 501.398C369.146 501.398 377.474 504.261 381.325 510.038C385.177 515.815 386.009 526.38 383.511 541.838L383.409 541.837ZM449.715 503.402L446.592 522.789C439.462 522.91 434.257 524.35 430.978 527.108C427.751 529.841 425.592 534.681 424.447 541.655L416.068 593.7H389.5L404.044 503.532H429.937L428.922 514.149C431.635 510.851 434.839 507.989 438.422 505.666C441.206 503.993 444.386 503.096 447.634 503.066H448.649C449.004 503.095 449.361 503.095 449.716 503.066L449.715 503.402ZM517.373 527.577L506.703 593.752H481.303L481.876 583.343C478.913 587.146 475.301 590.396 471.207 592.943C467.886 594.9 464.105 595.941 460.251 595.962C453.407 595.962 448.645 593.88 446.069 589.664C443.492 585.449 442.868 578.995 444.273 570.277L445.991 559.477C446.427 555.893 447.713 552.465 449.74 549.478C451.768 546.491 454.479 544.031 457.648 542.302C464.154 538.685 474.798 536.395 489.604 535.536L490.593 529.317C491.401 526.079 491.473 522.701 490.804 519.432C490.488 518.582 489.896 517.863 489.121 517.392C488.347 516.92 487.437 516.723 486.536 516.832C485.451 516.763 484.365 516.952 483.366 517.381C482.367 517.811 481.483 518.469 480.786 519.304C479.109 521.832 478.089 524.739 477.82 527.762L477.56 529.271H454.138L454.398 527.58C456.012 517.743 459.395 510.873 464.573 507.074C469.751 503.274 478.261 501.398 490.1 501.398C501.939 501.398 510.086 503.271 514.014 507.045C517.943 510.818 519.219 517.688 517.501 527.577H517.373ZM598.511 514.877C601.79 510.781 605.73 507.263 610.169 504.468C613.762 502.368 617.849 501.263 622.01 501.268C628.741 501.268 633.156 503.15 635.255 506.915C637.363 510.688 637.572 517.662 635.932 527.733L625.341 593.544H599.084L609.26 530.465C609.973 527.665 609.973 524.73 609.26 521.93C608.864 521.112 608.222 520.438 607.424 520.004C606.625 519.57 605.711 519.397 604.81 519.51C603.809 519.464 602.812 519.663 601.905 520.089C600.998 520.515 600.209 521.156 599.605 521.956C598.014 524.536 597.034 527.447 596.742 530.465L586.568 593.544H560.284L570.435 530.466C571.118 527.67 571.118 524.751 570.435 521.956C570.046 521.131 569.406 520.449 568.607 520.01C567.807 519.571 566.889 519.396 565.984 519.51C564.984 519.464 563.987 519.663 563.08 520.089C562.173 520.516 561.384 521.156 560.78 521.956C559.189 524.537 558.209 527.448 557.918 530.466L547.664 593.752H521.458L536.005 503.582H561.845L560.909 513.991C564.04 510.21 567.778 506.974 571.968 504.415C575.337 502.46 579.159 501.419 583.054 501.396C587.109 501.142 591.118 502.383 594.321 504.883C595.678 506.159 596.745 507.712 597.45 509.436C598.154 511.159 598.481 513.015 598.407 514.876L598.511 514.877Z" fill="#FF6600"/>
<mask id="mask0_2545_5183" style="mask-type:luminance" maskUnits="userSpaceOnUse" x="731" y="441" width="287" height="196">
<path d="M789.57 617.798C788.886 616.976 787.985 616.362 786.97 616.028C786.447 615.727 785.958 615.369 785.513 614.961C784.888 614.674 783.171 614.05 780.308 613.139C777.446 612.229 774.323 611.266 770.94 610.277C723.813 596.355 772.89 541.551 787.881 457.524C788.089 456.274 788.167 454.688 788.376 452.892C788.528 451.161 788.528 449.42 788.376 447.688C788.282 446.132 787.789 444.626 786.945 443.316C786.479 442.662 785.878 442.116 785.181 441.717C784.485 441.317 783.711 441.072 782.911 441H781.011C779.983 441.71 778.992 442.475 778.045 443.29L774.037 446.803L770.108 450.498L767.508 453.098C672.624 704.297 796.127 628.625 789.593 618.031L789.57 617.798ZM922.779 609.99C927.875 612.563 933.28 614.47 938.861 615.663C945.006 617.011 951.281 617.674 957.572 617.641C962.794 617.617 968.01 617.252 973.185 616.548C978.474 615.864 983.696 614.741 988.799 613.191C993.362 611.823 997.696 609.779 1001.65 607.128C1005.03 604.954 1007.61 601.751 1009.02 597.994C1006.26 599.035 1003.22 600.128 999.937 601.273C996.658 602.418 993.327 603.459 989.918 604.447C986.509 605.436 983.126 606.269 979.718 607.048C976.419 607.705 973.064 608.036 969.7 608.036C962.82 608.026 955.986 606.919 949.454 604.757C943.666 603.106 938.398 599.997 934.154 595.727C969.285 592.527 999.211 569.965 1011.49 540.299C1038.63 474.306 973.11 510.009 939.255 539.493C919.816 556.433 886.689 591.538 922.808 610.118L922.779 609.99ZM946.979 581.365C942.773 583.076 938.275 583.959 933.734 583.965C933.969 577.941 936.234 572.172 940.161 567.598C1011.07 477.848 1012.06 555.237 946.979 581.389V581.365ZM844.087 604.786C842.56 596.58 841.346 589.407 840.444 583.266C839.559 577.098 838.908 571.191 838.466 565.492C838.024 559.793 837.738 554.068 837.633 548.292C837.529 542.516 837.477 535.983 837.477 528.697V523.361C837.477 520.761 837.477 518.157 837.633 515.268C837.789 512.38 837.789 509.856 837.789 507.461V502.257C837.934 501.506 838.32 500.822 838.888 500.31C839.457 499.798 840.177 499.486 840.939 499.42C842.533 499.187 844.142 499.065 845.753 499.056C847.551 499.039 849.319 499.516 850.865 500.433C852.411 501.351 853.676 502.674 854.523 504.261C856.85 508.311 858.527 512.702 859.493 517.272C860.76 523.007 861.535 528.84 861.809 534.707C862.122 541.091 862.451 547.163 862.798 552.923C863.137 558.752 863.501 564.008 863.943 568.536C864.057 571.886 864.845 575.178 866.259 578.217C868.98 574.612 871.416 570.801 873.545 566.817L884.137 548.133C888.127 541.194 892.273 533.985 896.576 526.508C900.878 519.031 905.12 512.195 909.301 506.002C912.853 500.646 916.729 495.51 920.906 490.625C924.419 486.591 927.411 484.588 929.831 484.588C930.377 484.546 930.921 484.676 931.388 484.961C931.855 485.246 932.22 485.671 932.431 486.175C932.899 487.312 933.231 488.5 933.42 489.715C933.646 490.915 933.707 492.141 933.603 493.358C933.473 494.503 933.42 495.075 933.42 495.075C932.913 500.945 931.399 506.685 928.944 512.041C925.545 520.49 921.679 528.743 917.364 536.763C912.628 545.715 907.424 554.901 901.751 564.321C896.001 573.715 890.275 582.277 884.524 589.927C879.654 596.575 874.351 602.895 868.65 608.845C863.784 613.79 859.906 616.236 857.044 616.236C855.467 616.223 853.923 615.792 852.568 614.986C851.179 614.175 849.901 613.187 848.768 612.046C847.661 610.962 846.691 609.748 845.879 608.428C845.194 607.255 844.586 606.038 844.058 604.785L844.087 604.786ZM841.224 472.071C841.149 470.877 840.8 469.716 840.204 468.678C839.608 467.641 838.782 466.754 837.789 466.086C835.512 464.421 832.969 463.154 830.269 462.339C827.477 461.434 824.599 460.824 821.681 460.517C819.429 460.235 817.159 460.122 814.889 460.179C814.991 465.611 816.723 470.888 819.86 475.325C821.276 477.326 823.197 478.915 825.429 479.93C827.66 480.945 830.121 481.35 832.56 481.102C834.988 481.149 837.374 480.46 839.403 479.125C840.834 478.006 841.459 475.638 841.303 472.075L841.224 472.071ZM828.213 497.625V499.212C828.258 500.207 828.363 501.197 828.526 502.179C828.656 503.246 828.76 504.235 828.812 505.146C828.864 506.056 828.812 506.941 828.812 507.331C829.067 510.979 828.679 514.643 827.667 518.157C826.561 521.585 825.24 524.94 823.711 528.201C822.176 531.48 820.537 534.785 818.819 538.116C817.099 541.417 815.78 544.911 814.89 548.525C814.343 550.425 813.615 553.729 812.678 558.934C811.741 564.138 810.752 569.343 809.659 575.016C808.566 580.689 807.551 586.257 806.641 591.488C805.73 596.719 805.105 600.518 804.791 602.938L801.902 604.889C800.933 605.621 799.827 606.152 798.649 606.45C796.74 606.294 794.924 605.559 793.445 604.342C791.635 603.217 790.061 601.749 788.813 600.022C788.813 599.346 788.813 598.305 788.683 596.848C788.553 595.391 788.501 594.063 788.318 592.475C788.136 590.888 788.006 589.379 787.954 587.921C787.902 586.464 787.824 585.475 787.798 584.955C787.789 581.186 788.041 577.421 788.552 573.687C789.152 568.482 790.114 562.445 791.493 555.809C792.872 549.173 794.485 542.278 796.359 535.147C798.071 528.495 800.182 521.951 802.682 515.552C804.675 510.3 807.362 505.337 810.671 500.798C813.638 496.842 816.682 494.787 819.831 494.63H824.567C825.423 494.623 826.254 494.92 826.911 495.468C827.569 496.016 828.011 496.779 828.158 497.623L828.213 497.625Z" fill="white"/>
</mask>
<g mask="url(#mask0_2545_5183)">
<path fill-rule="evenodd" clip-rule="evenodd" d="M736.577 491.224C705.751 491.224 663.486 504.951 686.673 443.971C723.185 347.645 833.233 313.023 911.976 350.597C1019.01 401.697 1065.49 571.147 982.431 672.62C907.078 764.656 782.063 717.231 779.356 570.735C778.5 523.447 782.405 497.641 736.577 491.224Z" fill="#F20100"/>
<path fill-rule="evenodd" clip-rule="evenodd" d="M902.462 550.837C921.39 537.598 943.165 510.79 946.639 558.15C952.099 632.784 894.752 701.393 835.748 712.414C755.47 727.407 678.136 643.97 699.645 546.137C719.169 457.405 809.409 432.484 853.321 520.719C867.518 549.248 872.547 566.69 902.462 550.837Z" fill="#FF3433"/>
<path fill-rule="evenodd" clip-rule="evenodd" d="M870.399 555.851C885.104 545.566 902.02 524.739 904.719 561.533C908.962 619.515 864.409 672.817 818.569 681.379C756.202 693.027 696.121 628.206 712.832 552.2C728 483.264 798.107 463.904 832.222 532.453C843.251 554.617 847.158 568.168 870.399 555.851Z" fill="url(#paint0_linear_2545_5183)"/>
</g>
<defs>
<linearGradient id="paint0_linear_2545_5183" x1="807.5" y1="489.74" x2="742.5" y2="635.74" gradientUnits="userSpaceOnUse">
<stop stop-color="#7C3AED"/>
<stop offset="1" stop-color="#8B5CF6"/>
</linearGradient>
</defs>
</svg>
