<svg width="1080" height="1080" viewBox="0 0 1080 1080" fill="none" xmlns="http://www.w3.org/2000/svg">
<rect width="1080" height="1080" fill="white"/>
<path d="M564.515 716.598H488.676V446.319H591.543L641.161 558.465L667.786 628.253H673.03L698.444 558.465L745.642 446.319H848.51V716.598H772.67V604.856L775.494 559.675H770.25L754.921 604.856L714.581 700.462H622.605L582.265 604.856L566.936 559.675H561.691L564.515 604.856V716.598Z" fill="#FF6600"/>
<path d="M294.269 716.598H218.43V446.319H368.092C432.232 446.319 472.573 483.029 472.573 547.17C472.573 611.311 432.232 648.423 368.092 648.423H294.269V716.598ZM359.62 514.494H294.269V580.249H359.62C386.245 580.249 397.137 575.004 397.137 547.17C397.137 519.738 386.245 514.494 359.62 514.494Z" fill="#FF6600"/>
<path fill-rule="evenodd" clip-rule="evenodd" d="M324.775 229.574C318.834 228.012 307.038 193.834 316.37 196.109C368.368 209.484 416.398 239.223 457.448 266.223C501.54 295.122 538.216 334.015 564.508 379.751C570.693 389.974 554.601 394.113 549.374 385.532C525.51 344.583 502.522 310.569 463.523 284.886C423.076 258.299 376.333 242.841 324.775 229.574ZM856.245 399.702C860.544 402.032 892.562 381.497 885.938 377.775C849.019 357.821 802.823 348.968 759.446 348.639C714.482 348.283 664.154 364.044 608.078 391.891C596.173 397.62 601.455 408.498 611.498 403.732C658.816 380.238 700.911 366.237 742.232 366.538C785.062 366.867 819.817 379.914 856.381 399.704L856.245 399.702ZM657.175 329.096C625.156 363.851 592.94 315.196 574.394 289.901C568.51 284.036 551.078 289.736 558.986 298.644C582.304 330.439 626.337 372.485 664.132 331.535C665.39 330.165 664.868 328.52 662.928 327.889C661.947 327.571 660.9 327.514 659.891 327.726C658.882 327.938 657.945 328.411 657.175 329.097V329.096Z" fill="#F20100"/>
</svg>
