<svg width="1080" height="1080" viewBox="0 0 1080 1080" fill="none" xmlns="http://www.w3.org/2000/svg">
<rect width="1080" height="1080" fill="white"/>
<path d="M584.808 449C597.608 449 609.207 451.96 619.607 457.88C630.007 463.8 638.247 471.88 644.327 482.12C650.567 492.2 653.688 503.88 653.688 517.16C653.687 530.28 650.567 541.96 644.327 552.2C638.087 562.44 629.767 570.52 619.367 576.44C608.967 582.36 597.447 585.32 584.808 585.32C572.008 585.32 560.328 582.36 549.768 576.44C539.368 570.52 531.048 562.44 524.808 552.2C518.728 541.96 515.688 530.28 515.688 517.16C515.688 504.04 518.728 492.36 524.808 482.12C531.048 471.88 539.368 463.8 549.768 457.88C560.168 451.96 571.848 449 584.808 449ZM855.315 449C865.555 449 874.515 450.68 882.195 454.04C890.035 457.4 896.675 462.04 902.115 467.96C907.555 473.88 911.716 480.68 914.596 488.36C917.476 495.88 918.916 504.04 918.916 512.84C918.916 515.08 918.756 517.4 918.436 519.8C918.276 522.2 917.875 524.28 917.235 526.04H823.167C823.571 530.531 824.607 534.691 826.275 538.52C829.155 544.6 833.316 549.32 838.756 552.68C844.356 556.04 850.756 557.72 857.956 557.72C865.156 557.72 871.235 556.2 876.195 553.16C881.315 550.12 885.315 546.04 888.195 540.92L913.636 553.4C911.076 559.64 907.076 565.16 901.636 569.96C896.196 574.76 889.715 578.52 882.195 581.24C874.835 583.96 866.676 585.32 857.716 585.32C844.276 585.32 832.516 582.28 822.436 576.2C812.356 570.12 804.516 561.88 798.916 551.48C793.316 541.08 790.516 529.56 790.516 516.92C790.516 503.8 793.316 492.2 798.916 482.12C804.676 471.88 812.435 463.8 822.195 457.88C832.115 451.96 843.156 449 855.315 449ZM732.012 449C741.612 449 750.091 451.08 757.451 455.24C764.971 459.4 770.812 465.24 774.972 472.76C779.132 480.12 781.211 488.68 781.211 498.44V582.44H749.771V505.88C749.771 500.12 748.651 495.16 746.411 491C744.171 486.84 741.051 483.64 737.052 481.4C733.212 479 728.651 477.8 723.371 477.8C718.251 477.8 713.691 479 709.691 481.4C705.691 483.64 702.571 486.84 700.331 491C698.091 495.16 696.972 500.12 696.972 505.88V582.44H665.531V451.88H695.052V467.901C698.073 462.542 702.232 458.321 707.531 455.24C714.571 451.08 722.732 449 732.012 449ZM584.808 477.8C577.608 477.8 571.288 479.56 565.848 483.08C560.408 486.44 556.088 491.08 552.888 497C549.848 502.76 548.327 509.48 548.327 517.16C548.327 524.68 549.848 531.48 552.888 537.56C556.088 543.48 560.408 548.12 565.848 551.48C571.288 554.84 577.608 556.52 584.808 556.52C591.847 556.52 598.007 554.84 603.287 551.48C608.727 548.12 612.968 543.48 616.008 537.56C619.208 531.48 620.808 524.68 620.808 517.16C620.808 509.48 619.208 502.76 616.008 497C612.968 491.08 608.727 486.44 603.287 483.08C598.007 479.56 591.847 477.8 584.808 477.8ZM855.315 474.92C848.756 474.92 842.916 476.6 837.796 479.96C832.676 483.16 828.756 487.96 826.036 494.36C825.066 496.725 824.326 499.285 823.815 502.04H885.312C885.057 499.073 884.419 496.272 883.396 493.64C881.316 487.88 877.796 483.32 872.836 479.96C868.036 476.6 862.195 474.92 855.315 474.92Z" fill="url(#paint0_linear_2545_5067)"/>
<path d="M311.25 582.44V451.88H340.77V482.12L337.41 477.08C339.81 467.64 344.61 460.6 351.81 455.96C359.01 451.32 367.49 449 377.25 449C387.97 449 397.41 451.8 405.57 457.4C413.73 463 419.01 470.36 421.41 479.48L412.53 480.2C416.53 469.8 422.53 462.04 430.53 456.92C438.53 451.64 447.73 449 458.13 449C467.41 449 475.65 451.08 482.85 455.24C490.21 459.4 495.97 465.24 500.13 472.76C504.29 480.12 506.37 488.68 506.37 498.44V582.44H474.93V505.88C474.93 500.12 473.89 495.16 471.81 491C469.73 486.84 466.85 483.64 463.17 481.4C459.49 479 455.01 477.8 449.73 477.8C444.77 477.8 440.37 479 436.53 481.4C432.69 483.64 429.73 486.84 427.65 491C425.57 495.16 424.53 500.12 424.53 505.88V582.44H393.09V505.88C393.09 500.12 392.05 495.16 389.97 491C387.89 486.84 384.93 483.64 381.09 481.4C377.41 479 373.01 477.8 367.89 477.8C362.93 477.8 358.53 479 354.69 481.4C350.85 483.64 347.89 486.84 345.81 491C343.73 495.16 342.69 500.12 342.69 505.88V582.44H311.25Z" fill="black"/>
<path d="M162 630.44V451.88H191.52V477.8L188.64 471.32C193.12 464.28 199.2 458.84 206.88 455C214.56 451 223.44 449 233.52 449C245.84 449 256.96 452.04 266.88 458.12C276.8 464.2 284.64 472.36 290.4 482.6C296.32 492.84 299.28 504.36 299.28 517.16C299.28 529.8 296.4 541.32 290.64 551.72C284.88 562.12 277.04 570.36 267.12 576.44C257.2 582.36 245.92 585.32 233.28 585.32C223.84 585.32 215.12 583.48 207.12 579.8C199.28 575.96 193.04 570.52 188.4 563.48L193.44 557.24V630.44H162ZM229.68 556.52C236.88 556.52 243.28 554.84 248.88 551.48C254.48 548.12 258.8 543.48 261.84 537.56C265.04 531.64 266.64 524.84 266.64 517.16C266.64 509.48 265.04 502.76 261.84 497C258.8 491.08 254.48 486.44 248.88 483.08C243.28 479.56 236.88 477.8 229.68 477.8C222.8 477.8 216.56 479.48 210.96 482.84C205.52 486.2 201.2 490.92 198 497C194.96 502.92 193.44 509.64 193.44 517.16C193.44 524.84 194.96 531.64 198 537.56C201.2 543.48 205.52 548.12 210.96 551.48C216.56 554.84 222.8 556.52 229.68 556.52Z" fill="black"/>
<defs>
<linearGradient id="paint0_linear_2545_5067" x1="516" y1="484.44" x2="919" y2="484.44" gradientUnits="userSpaceOnUse">
<stop stop-color="#FB923C"/>
<stop offset="0.5" stop-color="#EA580C"/>
<stop offset="1" stop-color="#DC2626"/>
</linearGradient>
</defs>
</svg>
