<svg width="1080" height="1080" viewBox="0 0 1080 1080" fill="none" xmlns="http://www.w3.org/2000/svg">
<rect width="1080" height="1080" fill="#0F172A"/>
<path opacity="0.978" d="M419.897 558.915C447.915 558.86 463.993 572.689 468.13 600.401C470.199 615.076 468.033 629.071 461.632 642.386C452.571 656.626 439.492 663.623 422.396 663.379C395.051 661.943 379.639 647.615 376.161 620.394C374.652 607.998 376.153 596.002 380.66 584.407C388.707 568.178 401.786 559.681 419.897 558.915ZM182.979 580.908H143.492V600.401H180.48V620.394H143.492V641.887H183.978V662.379H120V560.414H182.979V580.908ZM190.476 560.414C198.974 560.331 207.472 560.414 215.967 560.664C222.903 571.451 229.65 582.364 236.21 593.403C242.854 582.532 249.436 571.618 255.954 560.664C264.123 560.248 272.286 560.331 280.445 560.914C270.382 577.625 260.385 594.37 250.455 611.147C261.011 628.119 271.675 645.03 282.444 661.88C274.281 662.546 266.116 662.546 257.953 661.88C250.739 650.945 243.408 640.116 235.96 629.391C228.512 640.116 221.181 650.945 213.968 661.88C205.137 662.546 196.307 662.546 187.477 661.88C198.807 644.886 210.136 627.891 221.465 610.897C210.999 594.126 200.669 577.298 190.476 560.414ZM292.941 560.414C307.103 560.331 321.266 560.414 335.427 560.664C352.088 561.834 362.002 570.581 365.167 586.905C366.445 595.23 365.777 603.394 363.167 611.397C359.106 620.888 352.025 626.804 341.924 629.141C333.448 629.846 324.951 630.095 316.433 629.89V662.379H292.941V560.414ZM441.64 592.903C436.531 583.56 428.617 579.561 417.897 580.908C410.464 582.753 405.215 587.251 402.153 594.403C399.347 603.056 398.681 611.887 400.154 620.894C401.275 629.334 405.524 635.581 412.9 639.637C425.421 644.129 435.001 640.713 441.64 629.391C446.636 617.226 446.636 605.064 441.64 592.903ZM332.427 581.157C327.098 580.907 321.767 580.824 316.433 580.908V610.397C320.934 610.48 325.432 610.397 329.928 610.147C338.02 608.719 342.185 603.887 342.424 595.652C342.763 588.178 339.431 583.347 332.427 581.157ZM813.762 417.463C827.252 415.777 839.584 418.693 850.75 426.211C859.892 434.244 865.305 444.323 866.994 456.45C869.733 472.435 867.399 487.597 859.997 501.934C850.775 515.292 837.949 521.79 821.51 521.428C794.669 520.414 779.339 506.585 775.526 479.942C773.351 465.007 775.68 450.846 782.523 437.457C789.92 426.054 800.332 419.389 813.762 417.463ZM415.399 417.463C445.533 414.892 463.277 428.387 468.631 457.949C470.986 473.231 468.653 487.726 461.632 501.434C452.405 515.005 439.493 521.67 422.896 521.428C396.855 520.462 381.61 507.133 377.162 481.441C374.521 465.774 376.852 450.945 384.159 436.957C391.585 425.703 401.998 419.205 415.399 417.463ZM284.444 418.463C291.616 418.297 298.78 418.463 305.936 418.963C317.016 439.122 328.096 459.283 339.175 479.442C339.425 459.117 339.509 438.79 339.425 418.463H360.917V520.428C354.245 520.594 347.581 520.428 340.924 519.928C329.512 499.436 318.099 478.943 306.687 458.45C306.437 479.108 306.352 499.768 306.436 520.428H284.444V418.463ZM620.328 418.463C630.09 452.343 640.087 486.165 650.319 519.928C642.826 520.511 635.328 520.595 627.826 520.178C625.741 513.67 623.907 507.09 622.328 500.435C611.327 500.269 600.331 500.435 589.339 500.935C587.505 507.266 585.675 513.597 583.841 519.928C576.518 520.428 569.187 520.594 561.849 520.428C571.411 486.414 581.072 452.425 590.839 418.463H620.328ZM541.356 418.463C549.194 418.297 557.024 418.463 564.848 418.963C555.218 452.601 545.638 486.256 536.108 519.928C524.899 520.425 513.653 520.591 502.369 520.428C492.872 486.44 483.376 452.451 473.879 418.463H497.371C504.616 446.444 511.863 474.434 519.113 502.434C526.783 474.511 534.197 446.52 541.356 418.463ZM883.238 418.463C890.361 418.301 897.439 418.468 904.481 418.963C915.478 438.956 926.473 458.949 937.47 478.942C937.72 458.783 937.804 438.624 937.719 418.463H959.712V520.428C952.924 520.589 946.177 520.423 939.469 519.928L904.981 457.949C904.731 478.775 904.646 499.601 904.731 520.428H883.238V418.463ZM120 418.463C136.005 418.261 152 418.511 167.984 419.213C183.937 423.181 191.518 433.428 190.726 449.952C188.403 462.604 180.821 469.852 167.984 471.695C171.831 472.112 175.664 472.612 179.48 473.194C181.602 473.793 183.185 475.043 184.229 476.943C188.699 491.325 192.78 505.82 196.474 520.428H173.482C170.307 507.729 166.975 495.067 163.486 482.441C156.829 481.942 150.165 481.775 143.492 481.942V520.428H120V418.463ZM271.449 438.956H231.962V458.45H268.949V478.942H231.962V499.936H272.448V520.428H208.47V418.463H271.449V438.956ZM720.794 438.956H695.802V520.428H672.811V438.956H648.319V418.463H720.794V438.956ZM759.781 520.428H736.289V418.463H759.781V520.428ZM444.139 456.45C440.53 443.769 432.116 437.937 418.898 438.956C412.074 440.416 406.992 444.249 403.653 450.452C399.264 461.596 398.764 472.925 402.153 484.44C404.297 490.749 408.378 495.331 414.399 498.186C425.022 501.759 433.769 499.176 440.64 490.438C445.96 479.557 447.126 468.227 444.139 456.45ZM841.503 452.451C836.735 442.122 828.657 437.623 817.261 438.956C809.464 441.002 804.046 445.833 801.017 453.451C798.098 462.876 797.768 472.373 800.017 481.942C801.897 489.478 806.31 494.893 813.263 498.186C826.203 502.085 835.615 498.004 841.503 485.94C845.167 474.78 845.167 463.617 841.503 452.451ZM604.834 439.955C601.44 453.778 597.776 467.524 593.837 481.192C601.5 481.441 609.163 481.525 616.83 481.441C613.211 467.451 609.213 453.622 604.834 439.955ZM159.987 439.206C154.491 438.956 148.993 438.873 143.492 438.956V463.448C149.854 463.658 156.185 463.408 162.486 462.698C167.42 460.576 169.92 456.827 169.983 451.452C169.896 444.685 166.563 440.604 159.987 439.206Z" fill="#FEFFFE"/>
<path d="M650.539 581.632L652.794 565.385H649.059L649.446 562.742H653.182L653.393 561.332C653.605 559.899 654.063 558.712 654.768 557.773C655.473 556.833 656.307 556.128 657.27 555.658C658.257 555.188 659.255 554.953 660.266 554.953C660.595 554.953 660.912 554.977 661.217 555.024C661.546 555.047 661.828 555.082 662.063 555.129L661.887 557.526C661.722 557.479 661.499 557.455 661.217 557.455C660.959 557.432 660.783 557.42 660.689 557.42C659.537 557.42 658.527 557.714 657.658 558.301C656.788 558.889 656.248 559.946 656.037 561.473L655.86 562.742H660.477L660.089 565.385H655.473L653.217 581.632H650.539Z" fill="white"/>
<path d="M637.196 582.055C635.504 582.055 633.966 581.667 632.579 580.892C631.217 580.093 630.124 578.989 629.302 577.579C628.503 576.17 628.104 574.548 628.104 572.716C628.104 571.283 628.362 569.943 628.879 568.698C629.396 567.43 630.112 566.325 631.029 565.385C631.968 564.422 633.049 563.67 634.271 563.13C635.516 562.59 636.844 562.319 638.253 562.319C639.992 562.319 641.543 562.719 642.905 563.518C644.292 564.293 645.384 565.374 646.183 566.76C646.982 568.146 647.381 569.744 647.381 571.553C647.381 572.986 647.111 574.337 646.571 575.606C646.054 576.874 645.325 578.002 644.386 578.989C643.446 579.952 642.365 580.704 641.143 581.245C639.922 581.785 638.606 582.055 637.196 582.055ZM637.161 579.412C638.547 579.412 639.792 579.048 640.897 578.319C642.024 577.591 642.917 576.628 643.575 575.43C644.233 574.231 644.562 572.927 644.562 571.518C644.562 570.249 644.292 569.121 643.751 568.134C643.211 567.148 642.459 566.372 641.496 565.808C640.556 565.244 639.487 564.963 638.289 564.963C636.926 564.963 635.681 565.327 634.553 566.055C633.449 566.76 632.568 567.7 631.91 568.874C631.252 570.049 630.923 571.353 630.923 572.786C630.923 574.055 631.193 575.195 631.733 576.205C632.274 577.192 633.014 577.979 633.954 578.566C634.894 579.13 635.963 579.412 637.161 579.412Z" fill="white"/>
<path d="M617.969 581.843C616.254 581.843 614.997 581.337 614.198 580.327C613.4 579.317 613.118 577.895 613.353 576.063L614.833 565.384H611.344L611.731 562.741H612.542C613.341 562.741 614.022 562.471 614.586 561.931C615.173 561.367 615.514 560.685 615.608 559.887L615.82 558.371H618.498L617.899 562.741H622.022L621.635 565.384H617.511L615.996 576.204C615.902 576.838 615.902 577.402 615.996 577.895C616.113 578.365 616.372 578.73 616.771 578.988C617.171 579.246 617.746 579.376 618.498 579.376C618.733 579.376 618.98 579.364 619.238 579.34C619.497 579.317 619.72 579.293 619.908 579.27L619.696 581.702C619.414 581.772 619.097 581.807 618.745 581.807C618.416 581.831 618.157 581.843 617.969 581.843Z" fill="white"/>
<path d="M600.139 581.632L602.782 562.742H605.46L605.037 565.843L604.685 565.385C605.272 564.492 606.048 563.787 607.011 563.27C607.998 562.754 609.137 562.495 610.429 562.495H611.628L611.24 565.138H609.584C608.221 565.138 607.07 565.573 606.13 566.442C605.214 567.312 604.626 568.616 604.368 570.354L602.817 581.632H600.139Z" fill="white"/>
<path d="M587.302 582.055C586.268 582.055 585.293 581.867 584.377 581.491C583.46 581.115 582.709 580.551 582.121 579.8C581.557 579.024 581.275 578.061 581.275 576.91C581.275 575.852 581.534 574.901 582.051 574.055C582.591 573.209 583.355 572.504 584.341 571.941C585.328 571.377 586.515 570.989 587.901 570.778L595.478 569.544L595.231 571.941L588.394 573.068C587.055 573.303 585.998 573.75 585.223 574.408C584.471 575.042 584.095 575.829 584.095 576.769C584.095 577.638 584.412 578.343 585.046 578.883C585.704 579.4 586.574 579.659 587.654 579.659C588.829 579.659 589.91 579.377 590.897 578.813C591.883 578.249 592.706 577.497 593.364 576.557C594.021 575.594 594.421 574.537 594.562 573.385L595.161 568.98C595.302 568.04 595.184 567.265 594.809 566.654C594.433 566.043 593.904 565.597 593.223 565.315C592.565 565.01 591.848 564.857 591.073 564.857C589.875 564.857 588.806 565.162 587.866 565.773C586.949 566.36 586.221 567.112 585.681 568.029L583.39 566.584C583.836 565.785 584.447 565.068 585.223 564.434C586.021 563.776 586.938 563.259 587.971 562.883C589.005 562.507 590.098 562.319 591.249 562.319C592.612 562.319 593.822 562.613 594.879 563.2C595.936 563.764 596.735 564.551 597.275 565.562C597.839 566.572 598.027 567.747 597.839 569.086L596.077 581.632H593.399L593.927 577.861L594.386 578.319C593.963 579.048 593.387 579.694 592.659 580.258C591.93 580.822 591.108 581.268 590.192 581.597C589.275 581.902 588.312 582.055 587.302 582.055Z" fill="white"/>
<path d="M561.6 581.632L565.265 555.376H573.864C575.462 555.376 576.848 555.693 578.023 556.328C579.197 556.962 580.102 557.855 580.736 559.006C581.371 560.134 581.688 561.473 581.688 563.024C581.688 564.621 581.3 566.054 580.525 567.323C579.75 568.592 578.669 569.59 577.283 570.319C575.92 571.047 574.31 571.411 572.454 571.411H565.829L564.419 581.632H561.6ZM566.216 568.768H572.595C573.841 568.768 574.933 568.521 575.873 568.028C576.813 567.511 577.541 566.818 578.058 565.949C578.598 565.079 578.868 564.081 578.868 562.953C578.868 561.402 578.399 560.192 577.459 559.323C576.542 558.454 575.297 558.019 573.723 558.019H567.732L566.216 568.768Z" fill="white"/>
<path d="M782.509 663.58C781.722 663.595 780.94 663.446 780.213 663.144C779.575 662.876 779.027 662.429 778.637 661.858C778.24 661.251 778.029 660.543 778.028 659.818H780.443C780.45 660.152 780.543 660.477 780.715 660.763C780.884 661.044 781.126 661.274 781.415 661.429C781.745 661.601 782.114 661.685 782.486 661.674C782.808 661.682 783.127 661.622 783.424 661.498C783.672 661.39 783.887 661.219 784.048 661.001C784.202 660.776 784.281 660.508 784.274 660.235C784.284 659.933 784.196 659.636 784.021 659.39C783.835 659.153 783.601 658.958 783.336 658.816C783.017 658.645 782.684 658.502 782.341 658.387L781.17 658.004C780.366 657.775 779.63 657.352 779.027 656.772C778.779 656.502 778.587 656.185 778.462 655.84C778.338 655.496 778.282 655.129 778.3 654.763C778.273 654.129 778.443 653.502 778.785 652.968C779.127 652.434 779.626 652.019 780.213 651.778C781.551 651.232 783.05 651.232 784.388 651.778C784.968 652.034 785.465 652.446 785.823 652.968C786.185 653.504 786.383 654.133 786.394 654.778H783.944C783.935 654.518 783.857 654.265 783.719 654.044C783.574 653.813 783.374 653.622 783.137 653.489C782.867 653.342 782.564 653.27 782.257 653.278C781.984 653.264 781.711 653.31 781.457 653.412C781.221 653.503 781.019 653.666 780.881 653.879C780.744 654.091 780.677 654.342 780.692 654.595C780.684 654.846 780.755 655.094 780.895 655.303C781.046 655.509 781.243 655.679 781.469 655.8C781.749 655.953 782.042 656.081 782.345 656.183C782.685 656.298 783.049 656.42 783.443 656.543C784.008 656.732 784.553 656.972 785.073 657.262C785.544 657.52 785.946 657.887 786.244 658.333C786.561 658.856 786.714 659.461 786.684 660.071C786.688 660.679 786.521 661.275 786.202 661.793C785.86 662.343 785.373 662.788 784.794 663.079C784.084 663.428 783.3 663.6 782.509 663.58Z" fill="white"/>
<path fill-rule="evenodd" clip-rule="evenodd" d="M744.556 652.142C745.432 652.651 746.147 653.396 746.619 654.292C747.097 655.285 747.346 656.373 747.346 657.474C747.346 658.576 747.097 659.664 746.619 660.656C746.147 661.554 745.432 662.3 744.556 662.811C743.622 663.335 742.565 663.599 741.495 663.576C740.439 663.598 739.397 663.334 738.479 662.811C737.61 662.293 736.899 661.548 736.421 660.656C735.927 659.668 735.671 658.579 735.671 657.474C735.671 656.37 735.927 655.281 736.421 654.292C736.899 653.402 737.611 652.659 738.479 652.142C739.395 651.616 740.439 651.351 741.495 651.377C742.566 651.35 743.624 651.615 744.556 652.142ZM743.374 661.062C743.907 660.719 744.33 660.228 744.591 659.65L744.587 659.642C745.158 658.256 745.158 656.7 744.587 655.314C744.326 654.741 743.903 654.256 743.37 653.921C742.803 653.582 742.151 653.412 741.491 653.431C740.846 653.416 740.209 653.586 739.658 653.921C739.124 654.258 738.699 654.742 738.433 655.314C738.146 655.999 737.997 656.735 737.997 657.478C737.997 658.221 738.146 658.957 738.433 659.642C738.694 660.23 739.125 660.727 739.671 661.068C740.217 661.409 740.852 661.579 741.495 661.556C742.155 661.574 742.807 661.402 743.374 661.062Z" fill="white"/>
<path fill-rule="evenodd" clip-rule="evenodd" d="M731.044 654.361C730.611 653.481 729.911 652.76 729.043 652.303C727.991 651.779 726.826 651.526 725.652 651.568H721.699V663.385H725.652C726.826 663.427 727.991 663.174 729.043 662.65C729.91 662.191 730.61 661.471 731.044 660.591C731.471 659.608 731.691 658.548 731.691 657.476C731.691 656.405 731.471 655.344 731.044 654.361ZM728.993 659.592C728.767 660.174 728.343 660.657 727.795 660.955C727.082 661.304 726.292 661.466 725.499 661.425H723.98V653.508H725.549C726.342 653.467 727.133 653.63 727.845 653.983C728.393 654.278 728.818 654.76 729.043 655.341C729.296 656.024 729.416 656.748 729.398 657.476C729.4 658.201 729.262 658.92 728.993 659.592Z" fill="white"/>
<path d="M699.741 651.568H702.018V663.385H699.741V651.568Z" fill="white"/>
<path d="M706.867 651.568V663.385H709.144V655.245L714.581 663.385H716.858V651.568H714.581V659.719L709.144 651.568H706.867Z" fill="white"/>
<path d="M751.781 663.385V651.568H754.058L759.496 659.719V651.568H761.772V663.385H759.496L754.058 655.245V663.385H751.781Z" fill="white"/>
<path d="M766.613 651.568V663.385H774.397V661.544H768.894V658.268H773.888V656.497H768.894V653.408H774.397V651.568H766.613Z" fill="white"/>
<path d="M791.119 651.568H793.396V663.385H791.119V651.568Z" fill="white"/>
<path fill-rule="evenodd" clip-rule="evenodd" d="M797.273 663.385L801.578 651.568H804.161L808.466 663.385H806.051L805.121 660.698H800.588L799.653 663.385H797.273ZM801.204 658.927H804.508L802.86 654.166L801.204 658.927Z" fill="white"/>
<path d="M682.123 609.26H708.179V600.439H682.123C679.42 600.403 676.741 600.954 674.271 602.054C671.959 603.11 669.9 604.647 668.229 606.562C666.54 608.497 665.226 610.731 664.356 613.148C663.454 615.683 663 618.355 663.013 621.046C662.996 623.754 663.45 626.445 664.356 628.998C665.219 631.414 666.532 633.644 668.225 635.572C669.904 637.47 671.964 638.992 674.271 640.042C676.744 641.129 679.422 641.67 682.123 641.626H693.527V632.825H682.108C680.183 632.892 678.285 632.357 676.678 631.294C675.139 630.233 673.911 628.78 673.123 627.085C672.253 625.2 671.818 623.144 671.849 621.069C671.821 618.975 672.263 616.901 673.142 615C673.919 613.301 675.144 611.845 676.686 610.79C678.301 609.74 680.197 609.206 682.123 609.26Z" fill="white"/>
<path d="M619.469 641.653H661.979V632.832H628.289V625.458H657.391V616.638H628.289V609.26H661.979V600.439H619.469V641.653Z" fill="white"/>
<path d="M948.803 602.268C951.112 603.31 953.171 604.834 954.841 606.738C956.513 608.658 957.811 610.873 958.668 613.27C959.565 615.784 960.016 618.435 960 621.103C960.018 623.79 959.566 626.459 958.664 628.99C957.812 631.381 956.513 633.589 954.838 635.496C953.163 637.383 951.108 638.895 948.807 639.931C946.37 641.011 943.73 641.556 941.065 641.527H925.946V632.641H941.065C942.956 632.695 944.819 632.17 946.404 631.137C947.912 630.11 949.111 628.69 949.871 627.031C950.716 625.171 951.141 623.147 951.114 621.103C951.141 619.046 950.715 617.008 949.867 615.134C949.12 613.477 947.927 612.059 946.423 611.039C944.826 610.019 942.959 609.503 941.065 609.558H921.377V626.843H912.491V600.669H941.065C943.729 600.641 946.368 601.187 948.803 602.268Z" fill="white"/>
<path d="M812.258 621.83C813.659 623.781 814.466 626.095 814.582 628.494C814.697 630.893 814.116 633.274 812.909 635.35C811.819 637.201 810.276 638.743 808.424 639.831C806.53 640.954 804.365 641.537 802.163 641.519H781.775V632.633H802.163C802.865 632.636 803.552 632.43 804.136 632.041C804.72 631.652 805.175 631.097 805.443 630.449C805.71 629.8 805.779 629.086 805.639 628.398C805.499 627.711 805.158 627.08 804.658 626.587C804.337 626.25 803.95 625.983 803.52 625.802C803.091 625.622 802.629 625.532 802.163 625.539H781.775V616.653H796.837C797.303 616.66 797.765 616.569 798.194 616.388C798.624 616.207 799.011 615.939 799.332 615.601C799.662 615.276 799.924 614.889 800.103 614.462C800.281 614.035 800.374 613.576 800.374 613.113C800.374 612.65 800.281 612.192 800.103 611.765C799.924 611.338 799.662 610.951 799.332 610.626C799.011 610.288 798.623 610.021 798.194 609.841C797.764 609.66 797.302 609.571 796.837 609.577H776.027V641.538H767.141V600.669H796.837C799.038 600.651 801.202 601.233 803.097 602.353C804.947 603.445 806.49 604.988 807.582 606.837C808.705 608.733 809.288 610.899 809.27 613.102C809.274 614.358 809.084 615.608 808.707 616.806C808.556 617.287 808.378 617.758 808.171 618.218C809.788 619.1 811.185 620.334 812.258 621.83Z" fill="white"/>
<path d="M860.716 600.669H851.83V621.103C851.854 623.133 851.325 625.13 850.3 626.882C849.28 628.613 847.842 630.061 846.117 631.091C844.373 632.126 842.378 632.659 840.35 632.633H836.401C834.381 632.647 832.396 632.107 830.661 631.072C828.925 630.047 827.476 628.599 826.452 626.863C825.426 625.111 824.897 623.114 824.921 621.084V600.669H816.031V621.103C816.018 623.821 816.555 626.513 817.612 629.017C818.642 631.443 820.124 633.65 821.978 635.522C823.839 637.402 826.049 638.899 828.483 639.931C830.988 640.986 833.68 641.522 836.397 641.507H840.35C843.067 641.522 845.759 640.985 848.264 639.931C853.164 637.862 857.065 633.963 859.135 629.063C860.195 626.544 860.732 623.836 860.716 621.103V600.669Z" fill="white"/>
<path d="M866.41 600.669H875.296V641.519H866.41V600.669Z" fill="white"/>
<path d="M920.133 632.633H889.822V600.669H880.932V641.523H920.133V632.633Z" fill="white"/>
<path d="M676.471 616.638H708.179V641.653H699.355V632.832H699.363V625.458H676.471V616.638Z" fill="white"/>
<path d="M726.088 601.995C728.585 600.958 731.264 600.429 733.968 600.439H760.471V641.653H751.647V609.26H733.968C731.904 609.239 729.874 609.782 728.097 610.833C726.326 611.865 724.851 613.339 723.819 615.111C722.768 616.911 722.225 618.962 722.246 621.046V622.033H745.83V630.858H722.246V641.653H713.426V621.05C713.412 618.309 713.954 615.593 715.018 613.067C716.056 610.612 717.552 608.377 719.426 606.482C721.326 604.558 723.591 603.033 726.088 601.995Z" fill="white"/>
<path d="M570.556 600.439H561.766V641.519H570.556V600.439Z" fill="white"/>
<path d="M605.229 600.439H614.019V641.519H605.229V600.439Z" fill="white"/>
<path d="M587.891 625.998L570.556 611.747L570.556 600.439L587.891 615.153L605.229 600.439L605.229 611.747L587.891 625.998Z" fill="white"/>
<path d="M515.615 644.921L514.616 644.921L514.616 577.944L515.615 577.944L515.615 644.921Z" fill="white" fill-opacity="0.5"/>
</svg>
